<?xml version="1.0" encoding="utf-8"?><svg xmlns="http://www.w3.org/2000/svg" version="1.1" baseProfile="tiny" width="800" height="600" viewBox="0 0 800 600"><g><g stroke="#000000" stroke-width=".98" fill="#FFFFFF"><path d="m113.77 497.44l.33.89.21.96.19 1.05.21.44.21 1.29.08 1.75.92.06 3.23-.2 3.69-.08 2.72-.41 2.35-.21 1.83 2.99-1.31 8.19 1.14 3.09 11.44 3.58 2.17 5.59 1.47 2.98 4.25 4.9 16.34.5.93 5.76-2.45 2.11-.19 1.14-.7 4.21-1.56 7.47-2.35 4.13-3.68.19-.87 3.59-2.35 3.26-.65 3.58 1.75 2.17 1.22 1.15 2.63-1.27 1.36-1.54.98-.33 1.38 3.21.89 2.21 1.17 3.26 1.23 4.41 3.26 3.93 1.28-.49 1.84-.01 3.59.92 5.38-.52 6.1-.97 2.27-1.73 2.03-2.71 1.65-1.04 1.32.84 2.32 4.8 4.66 8.47 3.6-2.84 4.89-.39 1.53-.13 13.44 1.7 31.53.46 6.39-.44 7.41-.23 4.18-.87 2.98.04 3.94-2.46 1.59-4.95 1.06-5.61 1.58-6.12.65-14.07 10.69 2.15 8.05.04 19.15-12.76 2.41-1.18 6.33-3.13 6.08-2.41 3.95-.97 3.1-2.09.85-3.34 1.55 1.83 5.17.77 1.83-.42.71-1.02 1.3-1.88.38-.54 2.11-2.62.39-.36.23-.21.5-.46.26-.25 1.35-1.24 7.43-3.4 11.13-3.28 11.61-4.67 14.45-4.46 13.89-5.74 12.82-4.74 7.2-2.92 4.28-1.73 1.24-.29 15.91-3.7 8.09-2.91 3.63-1.08 4.23-2.74 6.13-2.7 3.82-3.07 4.04-5.34 2.07-4.38 3.44-5.36 1.89-3.12 1.1-1.07 7.23-3.02 10.72-1.99 10.49-5.02-2.23-2.97.25-4.07.1-1.97.04-.94 1.8-2.05 5.19-7.4-1.13-2.98-6.38-6.84-17.15-5.42 1.65-12.57 1.89-9.29 2.36-6.54-.42-3.15 1.13-2.65 1.71-2.83 1.6-1.47 1.55-1.17.77-1.32 4.96.84 6.33.49 1.94-.64 13.37-4.06 7.89-8.85 8.24-6.01 2.89-4.19 10.81-.58 14.17-1.51 6.61-5.1 7.15.47 7.8 3.37 14.03 3.29 3-.87-.07-2.17-1.23-3.62-1.04-1.4-1.39-.82-2.04-.91-4.24-2.78-2.73-2.29-1.8-1.54-.36-2.25-.86-2.16-.94-1.34-.32-2.17 7.12-7.52 1.13-2.56 1.34-2.03-3.76-1.01-.87-.24-1.05-.28-1.23-.27-4.41-.98-5.18-1.49 1.97-1.55.19-3.08.02-.23.35-3.11-3.19-8.16 2.32-4.38-1.66-3.65-.54-1.19 16.56 0 3.37-.16 5.27-.74 3.22-.8.94-.24 5.17-1.27 2.08-1.36 1.85-3.29.63-4.42-3.02-4.59 1.89-2.6 2.43 1.03 2.62.4 2.79.44 3.57.7.43-.02.4-3.91.42-3.1 1.04-3.89 1.18-2.17 1.33-2.96-.03-3.53-.47-1.93-1.51-2.43 5.12-3.36 1.52-.79-.43-3.49.92-2.82 1.09-4.64.92-2.66.02-1.57-.4-2.01-.8-3.52-1.09-1.73.05-3.56 1.82-2.02.26-3.42.19-3.64-.74-3.26-.63-2.04.33-3.7.13-.22 1.38-2.34 1.84-1.41 1.51-.87-.73-.68-.99-.24-.92-.81-.67-.72-.13-.82.52-.78.82-.77.97-.94.9-.4.8-.95.71-1.33.59-1.27.75-1.17.52-1.37 1.78-.79 1.86-1.01 1.84-1.38 1.47-.81 3.62-.63-.24-.54-.73-1.37-.47-1.63-1.59.91-3.34 1.5-.51-.11.53-1.15 1.64-2.73 1.62-2.71 1.81-3.01 1.45-2.41 2.05-5.31-2.85-4.68-5.96-7.07-2.42-1.39-3.68-2.13-2.91-1.67-.13-1.87 5.04-3.2-.43-2.03-.26-5.12-7.89-1.41-2.86-13.28 3.06-1.42 5.42-2.51 4.19-8.83 1.1-8.79-.64-1.96-1.79-1.54-2.36-.4-12.1 4.34-7.26 1.92-6.23-.45-7.75-.51-.98-.27-2.08-.58-3.24-.91-1.82-.51-1.75-1.34-.99-.76-3.3-2.52-4.5-3.45-.91-11.27-6.37-5.9 3.38-12.92-.24-1.59-1.68-.28-.27-1.78.48-2.3-2.81 1.55-.93-1.3.49-1.29-1.8-2.87-1.22-.58-2.34-.12-1.49-.52.67-.92.51-.69-.59-.43-1.27-1.06-1.64-.73-.26-1.52-2.22-.46-1.66-.35-1.65-.89.66-1.66-1.54-1.35-.78-1.67-.58-.29-.72 1.29-2.36.02-1.3-1.71-1.7.65-.39.84-.77.3-1.78-1.19-.91 1.17-1.32-.41-.99-1.68-1.02 1.03-1.62-.13-2.48-.81-1.06-.37-1.03.32-1.48-.42.65-.84-1.36.62-1.2-.51-.77-.02-1.34-.11-.74-.21-1.43-.26-12.09-4.45-1.4-1.06-2.4-1.48-3.05 1.27-1.87-2.16.08-1.03-2.18-.7-1.12-1.12-1.09-.82-.91-.78.92-1.32-.71-.87-2.65-1.44-.24-1.05-.59-.74.45-.77.66-.55-.28-.83-1.13-.49-.71 1.45-1.33 1.76-.16 1.54-1.56 2.51-1.72 3.09-2.63 1.54 0 2.06 1.8 2.6.99 3.07-.09 3.63-.31 2.93-.65.69-.26.97-.8 1.22-.63.49-.28.5.92 1.24 1.39.7 1.36.81 1.04 1.16 1.16 1.17.38 1.76 2.92-.55 2.64 1.12-3.84 1.75-2.22 1.54-2.23 1.52-2.16 2.08-3.94 1.02-.96-.37-.24-.28-.2-.79-.21-.1-.52.04-1.03.23-1.35-.31-.64.04-.99-.06-.76.26-.91-.3-.35.36-.82 0-.35-.21-.57-.77-.45-.02-.47.77-.4-.01-.39-.52-1.19.18-.33.07-.33.2-.52-.07-.35.05-.3.2-1.47-1.17-.55-.16-1.19.37-1.82.08-1.08-.27-.95.09-.46-.05-.38-.09-.66.24-.36-.88-.94.04-.41-.49 1.59-2.86-.58-.19-1.12.29-1.29 1.18-.04.89 0 .69-.46.28-.42-.15-.2-2.1-.54-.53-1.18-.16-.34-.92-.54-.08-.57.34-.28.81-.25.23-.91.77-.86 1.25-.5.15-.81-.4-.53-.53-.84-.52-1.29-.87-.18-.69-.24-.38-.39-.15-.35.11-.37.4-.33.48-.96 1.39-1.39 1.02-1.12-.18-3.4-.45-.24 1.28-.22 1.21-.3 1.66-1.78.08-2.55.12-1.14.05-.8.04-2.17.1-1.61.08-1.22.06-1.81.08-3.49-.13-2.04-.07-2.06-.08-3.12-1.03-2.64-1.54-.9-3.94-2.42-2.01-3.55-.28-1.49-.55-2.22-.67-2.01 1.11-1.44.55-2.12-.34-1.92.17-1.88-.38-1.49-1.37-2.48-1.37-1.57.68-1.81-.12-1.73.34-1.87.62-1.57-.77-1.33-1.38.71-1.5-.01-1.82.84-1.11-1.86-.49 1.52-2.06.31-3.49-1.17-3.35.35-2.59.53-1.92.7-3.03.15-.69 1.88-1.43.56-.95-1.46-.15-3.04-2.07-1.97.07-2.37.34-2.2-.08-3.8-1.45-3.14.95-4.54-1.03-4.38-3.01-2.02-.48-3.53.04-1.82-1.56-2.59-2.29-3.79-.22-2.14-1.04-2.05.65-.01 2.08-.02 2.39-.01 2.95-.01 1.36-.04 8.23-3.53 2.51-1.21 5.47-7.06 5.4 3.18 6.17-5.49 6.82 4.06 7.58 4.29 5.56-.65 5.2-6.39 8.06-2.92 1.09-3.63-.69-4.6 1.16-3.65.83-3.27 5.87-6.05 2.92-4.13-.34-2.92 3.3-1.12 5.06-2.03 2.21-2.61.03-1.67-2.58-.84-1.6-2.64-3.09-4.15-.48.97-1.27-5.82-2.68-3.05-.78-2.59.11-5.35-2.45-2.33-.57-3.67-1.17-2.85-.94-1.57-.07-1.83.06-1.4.11-4.03-.53-3.09.05-2.08-.12-5.48-.08-6.07.48-2.87-.3-3.26-.35-3.21-1.75-1.25-.67-.89-1.26-1.16-1.26-.44-.72-4.7 1.83-1.95.14-1.03.46-2.29.69-2.47 1.43-1.21 1.19-1.17 1.02-1.61 1.24-1.2 1.36-1.32 4.32-1.32 3.79-1.37 3.58-2.44 4.88-.72 9.83-5.13 1.14 2.95 6.85-8.01 5.44 2.65 2.28-6.02 10.95.43 4.72-2.15 3.11-1.26 2.28-1.34 1.84-.7 1.7-1.69 1.84-3.44.78-5.85-1.74-.29.44-1.28 1.95 2.63 2.5-1.43 1.96-.59 2.45.81 5.98.89 14.53-.42 1.41-.62 2.1-.81 2.29-.19.6-.54 1.43-.99 2.34-1.91 2.46-2.52 3.67-1.5 5.08 3.3-.08-3.12 4.67-2.43 3.68-.88 1.79-.1 2.9-1.08 1.66-.52 2.01-.71 1.48-.39 1.55 1.57.54 1.02 1.8.98 1.61 1.66.92 1.91 1.18 1.05 1.06 1.14 1.24 1.13 1.68 1.33 1.77 2.83 1.56 2.71 1.86 1.78 2.12-1.1 7.31-.76 8.85-.39 2.13-.44 2.41-5.19 1.07 1.7 2.12 1.63 3.8 2.3 4.09-.38 2.71 1.06 3.01-1.16 3.8-.98 3.89-1.53 3.95-2.3 4.98-3.49 6.87-2.16 4.41-.13 3.67-1.59 3.06-17.85 5.68-2.51 2.71-4.39 5.05-.67 1.52.58.72.52.52.38.15.46-.11.38-.3.36-.63-.02-.75.3-.79.5-.55.41-.21.57.2.54.43.61 1.13 1.05 1.85 1.32 1.53 1 .66-.34 1.8-.59 2.72-.32 1.49-.76 3.5-1.01 4.65-.81 3.76-.49 2.27 1.68 2.81 1.39 2.31-1.5 6.14-1.06 2.79-1.26 1.73-1.46 3.49.42 2.34-.85 2.81-1.43 3.88.02.14.25 2.12.83 2.2-.16 3.11 2.59 4.39.43 5.89-.23 5.04.3 1.09 1.68 5.96 3.73 2.58 2.33 1.41 1.79 2.49 6.65 3.91 1.25 2.77-4.42 1.96.62 2.74 1.05 3.98-.54 3.66-.18 1.25-.64 4.3 4.49.9-1.04 2.96.97.82 1.56 2.49 1.43 2.58 3.27 3.4.89-.21 1.48-.05-.88 4 3.01-.17.57 3.17.74 1.84 1.64 2-2.15.48-2.37-.17-2.84-.88-1.65-1.16-.32.48.67 1.26-.97 1.82-1.72 7.46 5.23 3.63-6.77 3.75-5.25-.03-3.91.07-4.34.08-1.46.12-8.15 1.83-5.91 1.71-2.08.52-1.99.4-1.32-.76-1.7-.48-1.18-.76-.8-1.25-1.85-.16-1.13-.6.05-1.09-1.5-.2-3.88.31-3.26-3.09-.04 3.07-3.39-.52-1.73.91-2.73-.85-2.1.57.59 2.96-.52 3.14-1.86-.07-.46-2.24-2.27.08-.84 3.77-3.62 2.44-2.95 1.65-2.64 1.61 1.11.98 2.05 1.45 1.23 2.45-3.07-.14-.92.2-1.11.44z" /></g></g></svg>