<?xml version="1.0" encoding="utf-8"?><svg xmlns="http://www.w3.org/2000/svg" version="1.1" baseProfile="tiny" width="800" height="600" viewBox="0 0 800 600"><g><g stroke="#000000" stroke-width=".98" fill="#FFFFFF"><path d="m5 417.62l.56-.08 3.04-.24 23.52 16.39-8.07 6.27-2.41 7.65-1.46 3.4-.85 2.54-.33 2.63 3.96-.44 3.41 8.18.78 1.88 7.96 4.16 7.26 8.28 6.54 5-.43 2.43 6.7 3.27 3.47.91 5.12 2.61 3.11.55 3.01.02 6.17 2.39 4.01-.25 1.5-1.77 3.51.24 3.65-2.01 4.18-2.3 4.07.91 4.08-1.54 4.84 2.14 3.76-.32 1.65-1.72 1.25-1.3-.27 2.17-.23 1.84 1.21.3 1.09-.94 1.81.13.65-.09 2.76-2.24 1.95-1.58 1.81-1.46 8.66-.88 8.92 4.16 4.25 4.67 3.83 2.75 3.34 4.19 2.52 10.47 2.97 7.54.96 2.44 4.3 10.13 7.48 13.48 9.78 6.47-3.04 11.95.41.02 4.54.21 3.3-6.81 5.47-.07 3.54-4.97 8.96.87 2.23-2.93 1.23-1.63 10.93-1.98 1-3.49 4.45-.98 6.66-.18 8.61-1.77 4.08 1.2 1.08-2.87 3.89-5.16 6.4-5.46 6.22-5.62 7.71-3.87 1.6-.48 7.61-2.27 7.81-3.1 5.73-2.28 10.86-4.37 7.88-3.63 1.03-.62 5.86-3.52 5.17-.51 6.48-4 9.07-8.89 3.89-5.35 1.47-2.68 2.2-2.34 1.6-1.45 3.16-3.51.14-2.16.05-.81.24-3.65-1.84-6.65-3.52-7.62-.84-4.4-.61-3.19-.14-7.26 2.67-4.86 2.49-5.33 1.93-7.24 1.55-6.45.62-7.41 1.67-3.61 1.96-4.24 6.44-3.86 7.56-4.15.11.03.1.04.2.09.26.12.27.13.22.09.17.07.15.1.23.18.2.27.15.27.1.24.03.13 0 .16 0 .31-.04.25-.01.18-.02.21-.03.25-.03.12-.06.14-.11.2-.07.16-.11.13-.11.1-.08.09-.06.08-.08.14-.1.15-.09.15-.03.13-.01.11.02.13.04.17.02.23.04.15.08.15.09.13.11.18.12.15.11.11.12.09.19.12.26.13.15.04.27.02.24-.01.21-.05.32-.18.33-.22.25-.17.21-.1.22-.07.16-.02.23.03.2.05.28.15.19.09.21.12.2.13.14.16.08.17.03.08.04.16.01.17 0 .12 0 .16-.05.17-.05.18-.15.53-.01.08 0 .19.01.23.01.12.05.16.1.19.09.22.03.07.15.22.18.14.17.12.3.15.35.11.22.02.24 0 .28-.04.31-.01.35.01.35.06.39.04.21.04.41.07.41.11.27.07.27.12.23.11.19.12.16.17.11.2.04.11.05.1-.01.14-.01.19-.03.19-.11.41-.1.32-.05.17-.05.18-.12.68-.04.34.01.25-.02.36 0 .5.01.26.03.22.03.17.02.1.01.13-.03.21-.02.27.02.28.03.09.09.11.15.24.06.17.11.22.14.2.13.19.12.22.07.11.17.19.12.13.12.1.11.16.17.32.05.18.05.23.05.15.11.26.1.16.13.14.05.08.15.11.28.24.19.17.45.38.37.28.31.21.25.25.32.31.25.26.22.18.26.14.23.11.33.31.26.2.11.15.05.15 0 .35-.02.39 0 .26.02.22.07.16.15.16.24.16.25.06.2.01.17 0 .27.03.26.07.56.17.22.07.21.06.42.25.41.24.36.31.2.2.22.25.11.11.08.1.17.23.06.16.05.18 0 .13-.02.17-.07.21-.05.23-.01.2.1.31.01.13-.09.17-.06.13.01.09.07.09.15.09.29.14.23.06.28.04.54.01.12-.01.11-.03.18-.07.21-.11.38-.19.34-.12.16-.07.57.11.35.31.02.28-.06.4-.07.26-.08.3-.06.27-.05.33-.08.65-.14.58 0 .22-.01.3-.07.46-.03.35.02.24.06.23.18.36.26.4.32.19.74.24.27.1.31.11.22.11.28.22.16.4.07.23.11.31.18.42.12.25.21.25.3.32.07.09.11.22.02.26.02.25-.05.3-.07.37-.13.57.02.25.17.32.1.26.14.14.18.09.26.07.25.02.37.02.21.01.51-.02.27-.01.38-.04.37-.02.29-.01.17.01.36 0 .15-.01.39.02.22 0 .41-.05.21-.08.15-.02.15.01.2.1.17.18.06.11.34.45.34.39.33.41.22.21.21.24.43.23.76.23.15 0 .18-.03.1 0 .12-.01.15.02.09.02.15.11.2.24.28.39.22.49.32.79.28.51.3.56.48.74.25.36.17.24.17.17.14.12.13.09 6.69 2.01 3.06 1.23 1.95 1.95 2.09 2.33 2.65 1.7 1.88 1.82 2.22 3.11 2.99 1.81 2.63 1.7 1.65 1.11 1.42.77 1.34.98 1.41.89 1.41.86 1.04.48 1.9.75 1.24.26 1.36.58 1.72.58 3.35-.14 1.48-.14.53-.78.28-.04.05-.01.06.03.15.09.15.1.07.09.01.04-.02.05-.04.08-.25.3-.19.21-.18.18-.01.04.01.04.02.04.08.14.05.25.05.18.07.1.14.04.56.05.31 0 .12-.03.07-.05.44-.45.1-.08.13-.04.61 0 .43.01.43.05.13.04.15.11.25.13.32.07.32.04.28.07.59.19.19.06.31.07.45.06.19 0 .16-.06.15-.06.07 0 .1.04.36.26.12.08.07.1.03.34-.08.31-.11.22-.08.08-.12.05-.39.11-.55.1-.58.11-.3.08-.29.03-.25-.04-.26-.09-.26-.03-.28 0-.32.04-.5.18-.39.16-.13.07-.08.15-.04.26.09.32.08.26.08.18.16.2.08.05.11.03.33-.04.77-.09.4.03.42.1.26.12.47.14.68.23.64.3.05.05.03.06.09.28-.01.37-.02.22-.03.07-.15.14-.25.18-.18.1-.65.19-.15.1-.11.12-.08.31.01.43.02.12.09.14.38.25.29.17.33.07.26.03.33.07.24.1.63.36.39.36.12.15.05.3-.01.23-.06.29-.06.09-.62.46-.14.15-.27.43-.15.21-1.12.82-.15.13-.11.26.01.18.01.6.09.16.22.15.41.19.24.02.16-.02.31-.1.56-.11.72-.06.25.02.19.05.22.11.22.1.13.09.63.49.29.26.18.12.28.05.34.02.14-.03.08-.01.16.04.37.13.6.28.12.08.11.11.07.07.08.05.08.06.12.17.11.14.02.1-.03.1-.05.23.14 1.35.04.22.1.2.09.44.18 1.07.03.52-.01.33-.01.45.02.13.01.17-.03.17-.02.32-.06.26.02.12.11.16.23.26.21.12.3.07.38-.06.32-.1.1-.08.06-.19.09-.27.01-.33.01-.27.06-.13.26-.39.27-.19.26-.1.45-.04.74-.01.26.06.29.09.34.21.36.4.3.51.21.5.06.41 0 .3-.13.47-.1.45-.1.15-.2.2-.26.16-.23.1-.14.14-.2.26-.08.22.07.38.12.33.07.08.15.06.38.05.16-.04.26-.19.37-.32.29-.22.43-.16.4-.08.28.05.26.14.14.17.2.29.17.4.11.38.05.2.08.15.29.15.74.23.8.33.47.19.2.14.11.19.05.4-.03.2-.31.53-.35.58-.06.12-.05.37-.03.3-.09.33-.14.24-.14.11-.11.03-.52 0-.55-.02-.54-.05-.17.02-.13.06-.13.19-.05.14-.02.16.08.42.35.54.5.68.07.05.19 0 1.65-.62.27-.07.32.01.31.08.57.24.25.14.12.14.04.3-.05.56-.02.45.07.14.2.07.84-.13.57-.14.22-.08.2-.11.11-.12.15-.2.17-.13.18-.07.25-.08.52.05.29.08.21.13.24.36.55 1.29.14.37.06.33.27 1.09.24.54.08.14.15.1.69.68.3.35.4.41.09.15.11.24.12.31.01.19.02.05.04.05.1.05.17.04.33.12.21.11.13.08 3.83 2.34 2.18 1.02 2.52 1.18 2.17.69 3.82 1.29 1.4-.05 1.37-.01 1.32.22 1.59-.11 1.65-.01 1.66.3 1.98-.17 2.06.45 1.91.48 2.08 2.53 3.25-.42 5.36-.15 6.4-2.41-1.28-3.01 1.36-1.79 4.4.36 1.54 2.18.63 1.17.39 1.51-1.07 2.59.43.89 1.61.76 1.99.29 1.44-.38.46-.39.1-1.01.78-.78-.04-.29-.82-.87-.47-1.93.14-.81.87-.42 1.59.7 2.51-.53.97.3 1.74.06 1.43.3.51.7.36 2.29.66.65 1.55.51 1.41.21.61 0 1.81-.22 4.36-3.29 2.69.21 1.53-.23 1.15-.52 1.09-.84.93-1.39 2.78-.8 1.89.38.87 1.01.63 1.5.89.79 1.61 1.03.71 1.32 1.82 2.28 1.73 1.09.6 2.57 2.24 1.71 1 1.68.3.95.14 1.19-.35 1.14-.16.86.34.98.7.4 2.65-.73 1.31-.21.53-.43.1-.8.4-.24.78.05.63.29.52.46.41.55.01 2.22 1.06.44.65.32.04.49.42.1.15.04.61.1.47-.04.5-.09.5-.32.6-.29.27-.22-.03-.27.07-.33.28-.36.33-.22.52-.19.24.04.53.44.51.23.27-.01.3-.38.51-.15.7.01.61.05.64.21.72.37.78.4.51.38.42.82.67.96.62.46.62.12.83-.06.85 0 .8.16.84.36.51.49.14.42-.12.48-.32.83-.53.93.12 1 .35.74.49.48.66.54 1.88 0 2.06.01.77-.08.6.02.36 0 .38.15.28.37.26.38.27.34.34.37.07.17-.28.26.41.55.86.27.69-.09.81-.37 1.04-.4 1.35.19.77.83.74 1.04 1.37.78 1.19 1.2.33.75.97 1.51.69.3 1.48.19.94.53.21 1.67 1.73 2.53.28 1.41.51.25 1.52-1.17.72-.57.45-.42 1.22 0 1.88.26 1.58.32.89.41.23.7.13.87.26.32.2.15.82-.05.69-.05 1.3-.14.72-.95.69-.31.66 0 .57-.4.64-1.03.39.13.7.61.23.83.06.9-.47.92.14.56.51.34 1.09.72 1.27.57.85-1.89 5.46-6.3 3.14-3.37 22.25-7.1 1.98-3.81.16-4.57 2.7-5.51 4.34-8.56 2.87-6.21 1.91-4.92 1.23-4.84 1.44-4.75-1.32-3.75.47-3.37-2.86-5.11-2.04-4.73-2.11-2.65 6.46-1.33.55-3 .48-2.66.96-11.03 1.37-9.11-2.22-2.65-3.38-2.32-3.52-1.94-1.67-2.2-1.41-2.11-1.42-1.54-1.31-1.32-2.37-1.47-2.08-1.15-1.22-2.01-1.27-2.24-1.95-.68.48-1.93.89-1.84.64-2.51 1.34-2.07.14-3.61 1.09-2.24 3.03-4.59 3.89-5.82-4.12.11 1.88-6.34 3.14-4.57 2.38-3.07 1.23-2.91.68-1.79.23-.74 1.01-2.86.78-2.63.52-1.75-1.11-18.11-1.01-7.46.74-3.06 1.77-2.44-3.27-3.11 1.6-2.43.36-.56 7.29 2.18 4.29-.97 2.11-2.3.86-2.13 1.68-2.28 1.57-2.85 2.68-3.87-.53-5.89 7.5-13.66-3.31-2.83 9.99-6.78-3.67-8.55 6.39-1.41.9-12.26 3.04-6.09 1.71-4.46 1.64-4.72 1.64-5.38 1.5-1.71 2.02-1.54 1.45-1.27 1.5-1.48 3.09-1.78 2.86-.87 1.27-.57 2.43-.18 5.86-2.27 1.37-1.42.82-3.32.03-3.75.41-5.21-1.28-9.35-.12-6.8-.6-2.55-.91-3.87-1.05-9.22.32-5.2-.34-4.69.63-3.71.74-2.47 2.93-2.1.05-2.07-2.57-2.94-2.05-2.56-1.03-.67-.44-.29-3.6-2.32-1.25-3.47.22-5.4 1.2-2.33 5.03-2.96 3.81-1.6 3.14.75.67-.57 1.7-1.46.06-.06 3.31-3.66 5.32-10.09-1.57-1.97-2.06-.44-.61-1.33-.82-1.59-.64-1.38-3.49-.11-4.34.25-2.33-2.1-2.44-1.01-2.12-.3-3.6 1.11-9.09-1.21-3.06 1.27-3.78-.19-2.41-1.09-4.32-.74-5.14.81-3.12-3.85-3-.33-3.81 1.42-4.3 5.14-.3 2.49 1.49 2.25.44 1.08-.55.8-.82.76-.72.45-1.07-.43-1.58-.31-.47-1.48-1.41-1.86-.8-1.1-1.23-.65-1.26-.87-.25-.27-.48-1.36-1.7-.75.09-.65.43-.04 1.94-.34.49-.41-.13-.4-.59-.28-1.12.38-.16-1.39-1.21-.11-1.16-1.08.14-.28 1.06-.02.12-.22-.56-.35-1.24-.09-.5-.21.17-.87-.06-1.29-.22-.33-.87.56-.59-.26.07-.82.52-.65-.59-.58.01-1.35.4-.21.9-.49-.18-.44-.72-.63-.34-1.27-.48-.17-.89.6-.69-.03-.81-1.53-1.23-.68-.12-3.14.71-1.81 1.53-.48-1.94-3.59-.65-3.53-2.77-1.13-.57-5.62-.02-.16-1.29-2.35-3.54-1.38 1.12-2.1-.77-1.23 2.3-3.68-.97-2.05-1.03-5-1.06-3.58-2.36-3.28-.3-2.97-.34-3.35-1.48-2.69-1.06.04-1.41.06-.53-1.96-3.54-2.7.77-4.99-1.15-.49-.91-.39-3.19 1.64-2.23 1.15-2.53-.1-3.42-.98-3.55-6.41-.37-.68-5.05-5.13-.14.16-.11.13-.19.22-.26.23-.22.13-.09.05-.21.06-.26.06-.27.02-.24 0-.29.01-.21-.02-.12-.04-.06-.02-.09-.06-.07-.06-.05-.04-.07-.02-.05 0-.02 0-.02.01-.03.02-.01.04 0 .05.04.2-.01.03 0 .02-.15.15-.19.14-.54.4-.53.31-.11.09-.27.13-.42.15-.31.03-.45-.03-.22-.01-.27-.06-.13-.03-.03-.01-.03-.02-.06-.22 0-.15.02-.1.07-.12.19-.17.17-.12 0-.03-.01-.03-.03-.02-.03 0-.04.01-.12.11-.11.13-.09.1-.08.15-.02.12.03.16.03.1.03.1.02.08.04.21.01.04 0 .05 0 .06 0 .09.03.04.03.01.26 0 .01.01 0 .04 0 .01-.02 0-.01 0 .01.14.01.01.16 0 .01 0-.01-.15-.01 0-.09 0-.01-.01 0-.04 0 0 .02-.01.24.01.01.01.06.09.02 0 .08 0 .01.01.02.03-.01.02-.11.1-.01.01.01.08 0 .01-.01.01-.05.01 0 0-.1.21-.01.02-.01.01-.1.06-.01 0-.18.01 0 0-.01-.04.01-.01.03 0 .14-.07.04.01.02-.02-.01-.03-.03 0-.01-.03.01-.01-.03-.09-.02 0-.02-.04-.06.01 0 .02-.02.01-.02-.02-.03-.02-.04 0-.03.03-.01.03-.06.02-.07-.05-.17.09.02.05.04.08.1.09.01 0 .16-.04.01 0 .02.04-.01 0-.13.06-.01.02 0 .04-.03.04-.06.02-.06-.01-.07-.02 0 0-.05.01 0 0-.01-.02 0 0 .01-.03 0 0-.02-.01-.11.01-.01 0-.05.05 0 0 .04.03.01 0 .05-.01.05-.01.01 0 .01.01 0 0-.13.04-.01 0-.08-.06 0-.01.02-.02.04-.02.04-.02.19-.02.04.01.03.04.01.01.08-.06 0 0-.05-.05.01 0 .02-.01 0-.01-.07-.04-.05-.1-.06-.04-.01.01-.12.06-.01.01-.04.05-.01.02-.14.04-.06.02-.01 0 .02.07 0 .01.11.01 0 .01 0 .03-.01.01-.07.01-.02 0-.11-.12 0-.01.16-.1.01 0 .02 0 .01 0 .05-.01.08-.13.01-.01.04.02.01-.01.08-.09.17-.11.01 0 .02 0 .01 0 .07-.1-.01-.04-.12-.06-.02-.01.01-.02.02-.13.02-.08 0-.01-.02 0-.01 0-.17-.02 0-.04-.01-.06-.01-.03-.04-.09-.21-.33-.04-.09-.03-.13 0-.13.03-.14.04-.1.07-.11.13-.13.2-.16.09-.09.01-.04-.01-.02-.07-.05-.03-.02-.04 0-.11 0-.06-.02-.05-.04-.08-.04-.11-.02-.07-.02-.12-.05-.06.01-.3.29-.22.14-.17.06-.13.03-.11-.01-.03-.02-.02-.09-.05-.05-.14-.01-.09.01-.03.02-.02.04.02.11-.01.05-.02.04-.01.04.02.06.06.05.04 0 .04-.01.04-.01.06-.03.06.01.15.06.05.07.01.15.05.13.05.07.11.03.26.04.11.06.04.05.02.12 0 .11-.07.22-.26.32-.24.27-.16.14-.22.14-.36.15-.1.05-.39.16-.18.05-.25.04-.13.01-.3-.04-.18-.05-.24-.07-.1-.01-.08.04-.07.08-.04.07-.1.12-.17.15-.28.2-.37.19-.23.09-.24.08-.33.1-.39.09-.4.06-.21 0-.29-.06-.18-.05-.27-.1-.23-.15-.19-.14-.09-.06-.13-.11-.05-.02-.06 0-.04.01-.04.02-.04.03-.05.02-.06.05-.06.04-.07.02-.05-.01-.04-.03-.03-.02-.02-.04-.02-.05-.02-.02-.05.01-.03.03-.01.05.04.14 0 .01-.01.02-.08.03-.08.04-.05.02-.09-.01-.04 0-.01 0-.02.01-.02.05-.01.01-.03 0-.03-.01-.01-.03-.05-.08-.02 0-.02 0 0 .04-.01.05-.03.03-.04.02-.04 0-.04.02-.02.03-.02.04-.03.03-.04.02-.05 0-.04-.03-.01-.03-.04-.06-.04-.02-.04-.03-.03 0-.02.01-.04.02-.03.05-.02.05-.03.07-.01.02-.02.01-.05-.01-.01 0-.01.02 0 .02.1.07.04.03.01.02-.01.07-.06.06-.09.04-.19-.03-.06-.01-.06.03-.06.1-.1.08-.06.03-.05.04-.05.27.03.09-.01.11-.09.18-.08.11-.09.13-.23.18-.36.26-.39.16-.28.09-.25.01-.12 0-.1-.04-.08-.06-.04-.03 0-.03.05-.12.02-.06-.01-.02-.04.01-.05.02-.12.14-.05.06-.06.08-.04.06-.06.06-.11.12-.07.04-.22.15-.04.06-.01.05-.01.07-.04.08-.05.08-.14.19-.04.07-.16.13-.34.19-.25.14-.27.18-.1.12-.06.05-.12.05-.14.03-.15.02-.12 0-.1-.02-.18-.02-.07-.01-.05-.03-.02-.02-.01-.02-.02-.03-.03-.02-.05-.01-.05-.02-.35.04-.14.01-.34.01-.19.02-.07 0-.06 0-.05-.01-.02 0-.05.03-.01.01-.01.01-.01.02-.02.02-.02.02-.13.11-.23.15-.08.05-.11.03-.18.02-.13.03-.16.01-.23.02-.17-.02-.17.01-.15.09-.23.19-.29.15-.13.02-.14-.02-.19-.01-.25-.02-.1-.05-.11-.07-.17-.11-.2-.02-.08.02-.1.07-.07.12-.04.04-.07.02-.06-.01-.09-.07-.14-.27-.03-.02-.05 0-.14.06-.2.09-.13.07-.33.12-.39.18-.07.01-.18-.02-.17-.08-.13-.02-.38.09-.34.06-.2.07-.24.06-.19.02-.25-.02-.56-.06-.36-.07-.32-.14-.45-.05-.31-.04-.39-.07-.21-.1-.05-.05-.06-.02-.07.02-.05.04-.02.08-.03.09-.07.13-.01.19 0 .2-.04.22-.11.23-.03.18.04.05.03.11-.02.18-.09.15-.18.16-.11.06-.06.02-.11.02-.06.04-.04.03-.02.05 0 .03-.03.02-.16.08-.14.11-.28.14-.09.02-.2-.02-.18-.01-.25-.07-.15-.01-.05-.01-.03 0-.01.02 0 .01-.01.01-.02.01-.07.02-.07.02-.08.05-.24.13-.09.03-.12.01-.15-.02-.08-.01-.07-.02-.12-.01-.16.06-.07.07-.16.26-.07.07-.05.04-.17.1-.07.04-.03.03 0 .02-.02.03-.02.04-.04.05-.15.13-.08.02-.08.02-.08.03-.05.04-.04.08-.05.16-.06.05-.13.11-.11.02-.07.05-.19.15-.16.07-.35.25-.19.17-.24.24-.11.1-.19.16-.13.1-.06.05-.08.03-.13.03-.23.06-.11.01-.09 0-.14-.02-.08 0-.09.03-.03.03-.02.04-.08.06-.14.06-.25.15-.25.12-.21.14-.24.27-.07.02-.08-.01-.09.02-.07.05-.04.08-.04.05-.19.08-.2.05-.06 0-.05-.05-.07-.12-.03-.05-.03-.05-.07.01-.04.02-.09.25-.03.07-.03.04-.18.07-.36.18-.37.13-.41.09-.55.1-.33-.01-.04.02-.02.02-.02.07-.08.11-.25.19-.21.2-.1.09-.06.06-.04.01-.04.01-.08-.03-.05 0-.03.01-.05.02-.03.03-.01.06-.01.02-.02.02-.05 0-.21-.02-.61.09-.12.02-.18.12-.1.19-.03.27-.07.25-.13.17-.18.19-.42.19-.51.14-.25.05-.14.02-.2-.02-.12-.02-.11.03-.13.14-.1.17-.08.19-.13.15-.12.12-.13.09-.16.04-.33.04-.06.02-.04.04-.02.1-.02.18-.03.09-.13.14-.15.12-.39.16-.28.22-.21.29-.23.18-.42.32-.13.05-.17.04-.15.07-.09.08-.06.09-.05.12-.05.13-.12.14-.19.16-.35.23-.23.2-.15.14-.15.17-.3.33-.19.16-.24.14-.46.1-.35-.01-.19 0-.17-.03-.14.01-.18.09-.16.13-.03.06.01.09.3.72.2.31.06.11.03.06 0 .07-.02.03-.02.03-.1.08-.07.02-.07.02-.12.02-.16 0-.23.01-.13.01-.1.01-.16.01-.2-.03-.13-.04-.14-.06-.09-.09-.03-.09.11-.23-.02-.07-.08-.04-.07.03-.34.26-.33.44-.35.28-.07.03-.08 0-.03-.01-.04.02.01.04.02.07.01.07-.06.08-.09.04-.23.02-.11.02-.06.03-.1.12-.04.11-.04.15-.09.08-.22.07-.62.23-.41.22-.2.13-.22.14-.1.18-.19.2-.11.16-.16.42-.05.27-.05.18-.03.07-.06.07-.16.11-.11.04-.04.01-.04 0-.09-.06-.03-.07-.02-.04-.03-.02-.04-.01-.03.01-.02.03.01.03.06.06.09.07.05.05-.01.02-.02.03-.04.04-.36.21-.13.08-.24.11-.42.04-.21-.06-.09-.06-.03-.08.01-.07-.02-.07-.06-.01-.05 0-.05.02-.17.15-.2.16-.2.09-.15.12-.15.08-.12.09-.13.07-.09.06-.14.12-.1.02-.09.02-.06-.01-.05 0-.06.05-.05.03-.19.13-.29.19-.44.2-.19.08-.13.11-.21.19-.21.25-.06.17 0 .16.04.09.02.12 0 .07-.06.15-.13.17-.14.13-.6.27-.25.11-.18.01-.06-.01-.06-.04-.04-.01-.02.01-.01.02-.05.02-.04 0-.09-.05-.09-.03-.13.02-.08-.04-.1-.08-.08-.09-.13-.05-.14-.01-.19.06-.21.1-.21.1-.18.1-.33.26-.24.28-.33.41-.27.39-.04.1.01.08.05.08.12.12.06.09.06.02.14-.01.05.01.05.02.07.09.06.04.07.03.04.03.04.13-.02.04-.04.02-.29-.01-.08-.01-.09 0-.03.02 0 .03.04.02.05 0 .06-.01.14.01.1.04.09.08.05.07.1.12.08.21-.02.21-.03.12-.03.13-.01.05-.03.05-.04.11-.1.11-.06.06-.08.05-.43.09-.31.06-.3.09-.09.04-.09.03-.22 0-.15-.05-.11-.05-.08-.09-.04-.15-.09-.07-.17-.07-.27-.03-.12-.01-.06.01-.03.03.01.03.05.11 0 .06-.08.07-.15.06-.07.03-.05.04 0 .07.04.06.05.1.03.1-.01.07-.04.15-.08.15-.04.08-.02.07 0 .07.01.06 0 .04-.01.06-.06.06-.26.21-.3.2-.3.13-.23.11-.13.06-.11.09-.09.06-.27.11-.51.17-.26.11-.4.15-.45.11-.3.04-.13.01-.08.01-.02 0-.04-.01-.33-.05-.19-.05-.22-.07-.17-.13-.14-.13-.05-.01-.04.02-.16.11-.08.12-.12.1-.31.1-.24-.02-.12.04-.05.06-.1.23-.16.14-.24.12-.18.01-.2-.08-.05-.05-.01-.04.04-.08.06-.14 0-.09-.01-.07-.02-.01-.04.01-.1.08-.16.09-.17.09-.2.11-.24.14-.22.13-.31.16-.32.09-.09.02-.12-.01-.24-.01-.41-.03-.54-.03-.52 0-.43-.04-.62-.06-.72-.13-.76-.29-.47-.2-.44-.28-.15-.17-.13-.2.37-.35.01-.02 0-.02-.01 0-.05 0-.03.02-.27.27-.08.08-.33.3-.17-.08-.09-.05-.04-.05.04-.14-.04-.03-.05 0-.1.17-.03.07-.06.1-.02.03 0 .02-.02 0-.04 0-.04-.02-.35-.09-.04-.01-.05-.02-.05-.05-.03 0-.02-.01-.04.02-.02.01-.03.01-.04-.02 0-.02-.02-.02-.16-.09-.13-.09-.01-.03.01-.09.01-.02.21-.13.01-.01.13-.07.01 0 .09-.05.02.02.47-.31.02-.01.02.01.01 0 0-.01 0-.02.01 0 .01 0 .22.01 0 .05.27-.02.06-.01 0-.04.01-.01.03 0 .16-.02.01.13-.01.01 0 .02 0 .02.02.01.33-.03 0-.02-.01-.03.01-.04-.02-.03-.21-.05-.01-.02 0-.03.14-.12.03 0 .15.04.15.04.04-.01.05-.06-.01-.01.04-.06.04-.03.32.27.02-.01.01-.01-.27-.27-.19-.2-.05-.05-.01-.05.02-.11.04-.18-.04-.22-.06-.07-.09-.07-.07-.15.03-.11.03-.12-.03-.1-.08-.03-.12.02-.08.03-.1.05-.11.06-.11.02-.07-.03-.1-.08-.01-.06.02-.09-.01-.05-.07-.1-.19-.17-.01-.04.04-.05.1-.12.08-.05.16-.05.22-.15.45-.26.03-.04.02-.03.01-.04.01-.03.11-.07.12-.07.32-.07.35-.03.03-.03 0-.04-.03-.01-.02-.02-.02 0-.13-.02-.11.01-.11.01-.19.03-.19.05-.29.16-.44.25-.09-.07-.06-.06-.07-.08-.01-.02 0-.01.04-.05.13-.14 2.71-2.93.04-.02.03 0 .23.09.06 0 .05-.04.03-.07-.05-.13-.15-.12-.12-.02-.1.02-.12.09-.47.54-.65.7-.37.4-.33.36-.73.77-.29.32-.22.23-.39.42-.44.49-.06.08-.04.1-.17.47-.23.62-.22.52-.1.31-.14.32-.06.24-.04.09-.05.05-.09.06-.08.1-.03.04-.05.13-.05.04-.14.04-.08.01-.08.01-.12.01-.1.05-.06.06-.03.08-.04.24-.04.14-.03.08-.07.05-.14.04-.16.09-.23.21-.09.11-.14.16-.13.12-.33.22-.29.21-.07.05-.02.05-.03.07-.02.05-.09.04-.1.06-.18.1-.13.07-.07.05-.03.09 0 .11.02.04.11.04.24-.07.09-.02.07-.04.32-.29.16-.14.45-.33.44-.27.25-.17.28-.04.31.11.27.17-.03.06-.13-.05-.16-.08-.27-.02-.37.13-.3.26-.71.29-.32.35-.51.17-.11.02-.11.01 0 .05.02.03.03.03.01.03-.01.08-.07.06-.12.03-.17 0-.05-.04-.05-.08-.05-.12-.05-.02-.15-.01-.16.01-.19-.01-.05.06-.03.06-.02.17.09.14.12.11.05.16-.05.19-.37.36-.35.22-.97.57-.98.65-.43.32-.24.13-.26.19-.14.04-.2.04-.09.05-.06.05-.03.12-.1.07-.02.01-.17-.01-.05.01-.22.23-.03.02-.08 0-.04.01-.15.16-.03.07-.01.03-.02 0-.05-.01-.09 0-.03.02-.15.16-.13.11-.02.13-.02.02-.05 0-.11-.04-.11-.08-.01 0 0 .01.11.1 0 .01-.01 0-.12-.1-.01 0-.01.01.09.08 0 .07-.02.05-.05.13-.34.24-.46.4-.14.07-.09.03-.4-.42-.06-.02-.05.01-.03.04 0 .05.02.03.05.01.04.01.1.1-.01.06-.03.07-.05.07-.07.06-.21.14-.12.07-.01.03.01.02.08.09.02.04-.01.05-.05.01-.01 0 0 .01.16.13-.09.07-.04-.03-.06.05.02.03-.14.06-.4.19-.18-.32-.04-.15 0-.16.01-.16.05-.15.09-.14.09-.11.42-.43.17-.18.05 0 .04-.02.02-.03 0-.03-.02-.03-.04-.02-.07 0-.03.02-.32.32-.22.23-.25.27-.08.15-.03.15-.02.23.05.24.08.17.11.19-.21.19-.91.53-.22.22-.05.14-.08.08-.11.04-.04.02-.01.03-.02.13-.07.11-.13.1-.28.15-.16.08-.3.22-.29.2-.25.21-.26.1-.07.04-.19.3-.34.32-.49.36-.17.12-.19.11-.3.16-.49.32-.1.11-.25.2-.3.24-.46.29-.51.3-.71.32-.23.02-.23-.03-.18-.08-.2-.08-.06-.01-.02.04.05.07.03.09.01.12 0 .04-.07.08-.14.13-.14.15-.22.17-.15.18-.27.44-.09.21-.31.32-1.14.77-.43.26-.41.19-.4.32-.29.2-.28.2-.3.26-.32.14-.42.14-.31-.04-.25.01-.32.28.05.15.04.19-.02.11-.12.09-.2-.01-.06-.08-.19.02-.26.26 0 .14-.07.18-.21.14-.44.23-.39.17-.26.14-.32.18-.23.14-.28.19-.21.16-.34.2-.34.19-.4.2-.24.11-.23.16-.09.16-.03.11-.34.19-.31.19-.82.44-.15.13-.18.15-.16.07-.39.07-.07.06-.15.2-.23.15-.43.28-.31.17-.62.24-.23.11-.08 0-.08-.01-.05-.04-.1.05.05.1-.01.02-.28.25-.43.29-.27.24-.19.12-.27.1-.27.13-.54.33-.32.22-.53.31-.75.47-1.12.78-1.14.45-.07.04-.56.32-.33.18-.19.17-.1.08-.26.25-.12.07-.75.45-.04.08-.13.05-.15.01-.13.01-.36.02-.63.04-.57 0-.61.03-.61.05-.63.03-.45.02-.34.02-.49.02-.27.04-.44.13-.24.1-.16.11-.66.54-.32.23-.24.11-.31.07-.25.03-.27.01-.25-.15-.14-.12-.08-.05 0-.04 0-.02 0-.08-.14-.14-.06 0-.15.08-.08.04-.07.09-.02.09-.05.07-.09.06-.03.08.05.31-.24.1-.21.08-.28.15-.53.3-.23.14-.29.2-.3.16-.37.16-.33.15-.19.06-.17.06-.18.06-.15.05-.17.06-.11.05-.09.05-.13.13-.02.03-.04.07-.03.04-.19.31-.08.11-.09.05-.14.06-.25.07-.42.11-.42.12-.28.07-.21.05-.13-.22-.03-.06-.6-.93-.02 0-.03.01-.01.01-.2.11.39.66-.13.06-.07.03-.07.03-.07.04-.11.04-.13-.18-.43.2-.35-.55.55-.24-.18-.29-.04 0-.03.01-.01.04.13.21-.47.2-.27-.45.03-.03 1.72-.8.08-.02.07.01.02-.02 0-.05-.05-.02-.04.01-2.12.95-.03-.05-.81-1.27-.02-.01-.02.02.01.03.01.02.03 0 .04.08-.15.08 1.03 1.63-.13.06-.42-.67-.28.12.11.18-.05.02-.1-.17-.09.04-.34-.55-.06.02.08.13-.09.05-.36-.57-.08.03-.17-.3-.08-.05-.1-.03-1.16.15 0 .03-.09.04 1.05 1.64-.04.01.05.08 0 .02-.02.01-.13.05-.06 0-.06.02-.01.01-.03.01-.1.05-.01.05.07.11.08.05.07.09.03.09-.01.04-.04.03-.05.04-.13.02-.03-.03-.13.03-.06-.06-.05.03-.93-1.45-.1.05-.01-.02-.97.43-.56-.88-.4.17 1.83 2.89-.04.02-.63-.03-.08-.11-.04.02.06.09-.03 0-1.21-1.93-.72.33.98 1.55-.02.02-.73-.02-1.41-2.26-.12.05-.49.47.99 1.57-.05.04-.22 0-.02-.03-.01-.01-.01 0-.04.03-.03 0-.05 0 0 .01-.01 0-.01.01.03.03-.03.02-.06-.06-.82-.99-.07.04-.41.39.35.44.02.14 0 .05-.02 0-.29.02-.03.01-.08.02-.01.02-.09 0-.01-.03-.02-.01-.02.01-.01.01-.02.37-.24 0 .12-.44.01-.03-.01-.02-.01-.01-.03-.02-.02-.08.11-.1.01-.01-.01-.02-.37-.3.03-.03.08-.08-.02-.02-.08.08-.1-.08-.04-.03-.05-.04-.08-.07-.02-.01-.06-.05.24-.22.02.01.09.07.12.09.13.11.06.04.06.05.02.01.02 0 .02 0 .03-.03 0-.04 0-.03.13-.25 0-.03-.02-.01-.1-.07-.02-.01-.03 0-.04.03-.06.06-.05.04-.04-.03-.09-.07-.09-.06.03-.03.28-.26 1.23-1.14.53-.22-.03-.05.01-.07.08-.05.04-.05.02-.02.02-.01.06-.03.48-.2.11.12 1-.45.09.05.12.2.05-.02-.16-.29 0-.02.11-.06.02 0 .02.03-.05.02.01.04.5-.22.21-.09.31-.14 1.18-.49-.02-.04-.08.04-.08-.17 1.83-.8.02-.01.01-.01.02-.01.01-.01.87-.38 0-.01-.01-.02-.02-.02-.01-.01-.07.03-3.06 1.35-1.53.66-2.18.97-.31.16-.24.16-.19.18-.26.24-.36.33-.32.3-.14.12-.05 0-.15-.01-.23-.03-.17-.01-.22-.02-.22-.02-.08-.02-.1-.06-.04-.04-.05-.09-.01-.09-.05-.14-.06-.08-.14-.07-.26-.11-.34-.15-.34-.15-.29-.09-.16-.01-.22.02-.21.07-.02-.02-.02-.01 0 0-.01 0-.02 0-.01 0-.02.01-.04.02-.67.5-.09.07-.04.02-.04.04-.04.05-.04.08-.03.04-.03.01-.05-.02-.06-.01-.05-.02-.05-.03-.03-.08-.05-.05-.06-.04-.03-.01-.02-.01-.03 0-.12-.01-.81-.04-.03.01-.02.02-.03.28-.02.29.08.06-.01.07-.02.04-.03.02-.14.04-.04.02-.09.03-.04-.01-.04.02-.44.26 0 0-.01.01-.01 0-.02.01-.04.03-.05.03-.08.05-.04.02-.56.13-.34.08-.46.02-.02 0-.03 0-.01 0-.02.01-.03 0-.03 0-.06 0-.2 0-.27-.03-.41-.18-.16-.02-.1-.02-.17-.06-.44-.23-.48-.31-.16-.13-.22-.23-.08-.18-.03-.09-.02-.18 0-.19.01-.37-.04-.26.01-.27-.07-.27-.03-.18-.13-.22-.14-.2-.18-.17-.17-.06-.05.01-.03.02-.1.25-.11.26-.05.14-.13.21-.13.2-.01.06.04.09.06.09-.01.05-.04.01-.06 0-.08-.01-.09.03-.11.04-.1.04-.05.03-.06.08-.08.1-.08.09-.11.21-.08.07-.02.07 0 .03.07.21-.05.11-.12.07-.05.04-.11.08-.16.11-.26.19-.15.27-.32.22-.2.21-.14.37-.12.13-.28.14-.52.24-.54.3-.52.28-.47.21-.5.29-.32.21-.51.34-.3.08-.27.08-.34.05-.43.07-.25-.01-.08-.01-.36-.05-.09-.05-.16-.13-.17-.12-.07-.05.02-.17-.02-.03-.02 0-.03.01-.04.26-.06.3-.03.16-.07.74-.06.06-.06.1-.06.43.01.05.04.07.01.02 0 .02-.31.13-.8.46-.69.45-1.22.62-.82.49-1.06.46-.12.03-.21.01-.44.16-.44.09-.42.04-.27.08-.45.28-.14.15-.24.17-.16.01-.25-.19-.15-.13-.06-.08-.07-.02-.06.04-.06.08-.12.31-.11.43-.21.3-.2.26-.34.11-.12.08-.28.62-.37.41-.36.18-1.56 1.11-.2.08-.28.09-.3.17-.15.12-.49.3-.42.26-1.4.77-.99.45-1.03.42-.55.11-.67.19-.36.06-.21.06-.15.07-.09.08-.41.24-.36.14-.43.18-.45.22-.18.19-.28.39-.51.37-.49.33-.27.15-1.79.91-.31.16-.23.31-.13.16-.4.28-.84.6-.7.32-.82.3-.73.23-.23.1-.36.16-.35.14-.22.07-.38.15-.61.34-.34.19-.19.07-.27.12-.21.08-.25.07-.32.1-.29.12-.41.24-.43.21-.4.19-.26.07-.3.09-.32.12-.2.1-.17.06-.51.26-.21.08-.24.08-.18.04-.42.04-.15 0-.09.01-.08.02-.08.03-.46.09-.69.04-.15-.04-.1-.03-.16-.08-.05-.03-.05-.06-.01-.07-.02-.06-.02-.08-.03-.06-.01-.06-.02-.05-.02 0-.02.01 0 .03 0 .06 0 .01-.02.01-.01 0-.02-.01-.02-.02-.06-.02-.06 0-.04.04-.01.05-.04.15-.08.12-.01.02 0 .03.03.04.01.04 0 .09 0 .04-.02.02-.01.1 0 .07 0 .18 0 .54-.05.05-.04.03-.05.03-.04 0 0 .02 0 .03-.02.03-.06.03-.09.01-.06.01-.08.02-.06.04-.04.05-.15.08-.22.15-.21.08-.2.17-.2.15-.31.17-.19.08-.17.05-.21.07-.27.07-.03 0-.02-.02-.04-.01-.03.01-.09.04-.25.08-.12.02-.11.01-.27.06-.14.05-.1.03-.14.04-.27.07-.19.08-.16.03-.08.02-.03-.01-.03.01-.02.02-.09.06-.19.06-.35.01-.24 0-.24.03-.14-.02-.22-.03-.09-.01-.07.02-.3.05-.13-.01-.14-.01-.26 0-.18-.03-.16-.08-.08-.07-.03-.03-.01-.03.01-.02.03-.03.03-.05.02-.13-.03-.24-.03-.09-.09-.21-.07-.18-.01-.04 0-.02.03-.02.21-.06.08-.01.07 0 .01-.01 0-.02-.01-.02-.03-.01-.04-.01-.03 0-.25.07-.06.01-.04-.01-.17-.12-.04-.05-.01-.02-.01-.02 0-.11-.01-.16 0-.12-.01-.1-.01-.03 0-.01.01 0 .02-.01 0-.01-.07-.11-.01-.05-.04-.13-.03-.12-.03-.05-.09-.06-.21-.08-.23-.18-.1-.11-.09-.17-.19-.24-.13-.11-.11-.08-.2-.02-.16.06-.07.03-.3.22-.14.2-.44.44-.18.13-.49.21-.13.06-.15.08-.21.09-.2.06-.1.05-.04.05 0 .05 0 .08 0 .12-.05.14-.05.12-.08.22-.1.16-.15.15-.2.13-.23.11-.3.09-.42.19-.74.41-.13.07-.44.26-.55.24-.44.2-.18.11-.13.06-.07.01-.09 0-.11.04-.11.05-.09.05-.08.07-.04.1-.05.06-.13.05-.13.01-.21.01-.32.02-.28-.02-.12.04-.1.11-.13.33-.13.18-.14.16-.26.18-.82.51-.12.06-.09-.01-.05-.05-.05-.02-.04 0-.05.05-.56.33-.44.24-.29.15-.33.09-.51.06-.65.14-.48.11-.47.06-.3-.01-.28-.06-.15-.04-.04-.12 0-.07-.02-.24-.03-.04-.04-.03-.19-.04-.27-.03-.05 0-.06.04-.04.05-.09.06-.09.04-.09.06-.06-.01-.13.01-.07.04-.12.12-.01.05.01.03.07.02.31.02.17.04.06.07.04.1 0 .12-.01.2-.08.27-.09.12-.19.19-.2.15-.29.13-.14-.05-.16-.05-.1.01-.08.04-.07.03-.05.02-.04 0-.04-.05-.11-.04-.14.04-.09.06-.07.21-.01.12-.03.08-.07.06-.19.09-.14.09-.09.07-.13.1-.15.1-.44.3-.47.27-.37.21-.36.13-.23.02-.23-.05-.35-.06-.32-.04-.35.04-.23.05-.26.08-.34.18-.07.09.01.06.14.17.02.04-.01.04-.27.4-.09.05-.13.01-.06-.03-.08-.07-.08-.03-.13-.01-.08 0-.07.04-.02.05-.01.06.01.09 0 .05-.01.05-.34.37-.24.21-.32.18-.44.12-.37.12-.22.14-.5.3-.34.17-.42.18-.19.02-.42.01-.12-.05-.18-.02-.05.02-.03.04 0 .26-.02.16-.09.1-.18.12-.19.05-.3.03-.34.13-.34.14-.32.01-.22-.02-.15.02-.22.06-.13.08-.05.08-.07.03-.1.01-.12-.04-.26.04-.48.15-.1.08-.06.11.03.25-.04.08-.19.15-.36.17-.82.31-.45.18-.39.16-.14.01-.07-.07-.17-.18-.17-.01-.17.04-.23.19-.18.21-.2.35-.21.06-.12-.01-.13-.03-.22.04-.44.33-.15.11-.18.2-.04.07-.14.1-.68.23-.13.06-.14.01-.13-.02-.14.02-.35.21-.05.02-.05 0-.1-.07-.14.02-.07.1-.07.14-.18.1-.28.06-1.46.4-1.04.14-1.79-.05-1.12-.03-.16.02-.19-.02-.19-.08-.32-.12-.49-.29-.18-.04-.11-.03-.1.01-.06.04-.01.07.13.2-.07.05-.08.02-.32.11-1.03.25-.81.19-1.39.51-.8.4-.6.29-.22.08-.35.17-.46.25-.27.16-.33.18-.23.07-.24.06-.25.06-.37.16-.22.1-.25.14-.48.29-.22.18-.23.19-.15.1-.17.1-.43.11-.43.09-.42.11-.44.16-.31.15-.61.38-.26.16-.44.28-.48.28-.18.07-.23.05-.2.05-.27.15-.4.32-.19.16-.2.13-.48.25-.75.42-.18.1-.17.08-.11.02-.08.01-.08-.01-.09-.04-.04 0-.04.02-.1.04-.03.01-.01.03-.01.04-.02.02-.02.01-.07 0-.02.01-.01.02-.01.04-.04.04-.05.04-.49.27-.18.12-.17.11-.15.11-.16.1-.23.1-.21.08-.26.09-.25.08-.46.16-.45.14-.2.06-.25.06-.27.08-.35.1-.18.05-.18.03-.21.03-.21.03-.41.06-.27.05-.27.06-.18.05-.17.06-.31.09-.19.05-.16.06-.13.05-.22.08-.45.14-.45.13-.22.06-.15.03-.12.02-.28.01-.21.03-.15.02-.15.05-.25.1-.23.08-.36.1-.16.03-.22.05-.27.07-.21.06-.18.06-.18.08-.22.1-.29.14-.22.09-.12.06-.13.07-.16.05-.14.05-.17.08-.21.11-.26.11-.26.1-.31.08-.16.04-.17.05-.23.11-.13.08-.09.09-.07.07-.08.06-.18.12-.2.11-.25.08-.25.07-.18.08-.13.05-.12.05-.15.06-.17.05-.16.02-.23.02-.12 0-.11-.01-.17-.03-.11-.03-.11-.01-.11-.01-.12.02-.53.03-.14.04-.33.12-.17.07-.13.07-.15.05-.11.06-.11.09-.08.08-.06.06-.13.11-.13.1-.17.11-.23.12-.17.09-.15.08-.17.08-.16.08-.17.08-.14.05-.14.05-.15.04-.16.04-.25.02-.17 0-.24 0-.12.01-.12.03-.1.06-.24.14-.14.06-.15.05-.26.05-.1.03-.22.07-.12.04-.19.03-.09.01-.06 0-.15-.02-.11-.03-.03.01-.02.01-.03.04-.05.05-.06.05-.16.11-.18.09-.18.07-.35.1-.49.2-.26.14-.23.13-.51.23-.24.06-.12.05-.16.07-.43.15-.25.05-.27 0-.19.05-.14.07-.24.22-.18.16-.19.12-.31.15-.25.07-.22.04-.19.05-.44.17-.11.05-.08.05-.18.1-.59.25-.59.22-.89.27-.84.3-.45.15-.39.15-.2.08-.69.3-.2.08-.2.12-.29.17-.54.26-.54.28-.74.45-1.45.75-1.13.43-2.54.9-1.13.3-1.13.21-.88.1-1.21.22-.58.17-.36.2-.36.21-.09.05-.31.07-.31.01-.42-.04-.36-.06-.1-.01-.11.03-.08.03-.25.09-.25.03-.41.07-.26.04-.29.01-.1-.03-.12-.15-.28-.13-.29-.04-.53.1-.38.23-.71.44-.2.11-.24.08-.32.08-.35.06-.21-.01-.27.02-.49.09-.25.07-.33-.01-.14-.03-.39-.26-.29-.1-.11-.02-.8.13-.46.23-.38.22-.22.17-.52.38-.56.48-.49.58-.13.17-.21.15-.3.22-.34.21-.73.36-.34.2-.37.21-.44.21-.82.48-.58.32-.3.16-.18.11-.23.11-.69.24-.75.27-.69.24-.35.14-.36.15-.74.25-.66.23-.88.27-.5.16-.78.24-.49.13-.42.11-.45.1-.5.13-.23.04-.35.02-.43.03-.61.09-.66.06-.7.07-.36.02-.37-.02-.35-.02-.33-.03-.39-.02-.33.02-.37.06-.37.13-.25.13-.31.13-.44.23-.38.23-.33.18-.39.22-.33.16-.36.15-.22.07-.2.07-.18.05-.39.05-.29.02-.1 0-.14.01-.38-.02-.34-.02-.11.01-.08.01-.26.05-.14.04-.23.06-.27.05-.21.01-.46.04-.36.04-.32.09-.37.17-.89.36-.34.2-.52.34-.73.25-.36.17-.57.19-.33.12-.53.16-.6.11-.34.1-.21.02-.27 0-.43.09-1.17-.01-.83.12-.53.06-.36.01-.24-.03-.41-.02-.16.02-.15.03-.1.04-.09.01-.39.08-.15.05-.11 0-.11.04-.1.07-.12.09-.14.08-.12.08-.18.06-.26.14-.17.07-.12.02-.12.05-.16.12-.44.31-.81.6-.13.13-.3.25-.3.2-.29.14-.23.15-.29.23-.2.32-.18.39-.31.51-.26.45-.41.7-.23.26-.49.56-.52.79-.46.58-.28.5-.39.78-.09.18-.31.74-.34.77-.35.59-.28.41-.23.44-.23.34-.29.39-.77.87-.3.29-.14.17-.14.15-.26.34-.28.31-.19.2-.39.27-.15.11-.11.11-.16.26-.05.1-.07.11-.08.1-.13.12-.07.09-.13.22-.11.13-.11.09-.41.17-.28.12-1.43.89-.46.28-.54.36-.67.51-.79.5-1.32.92-1.08.68-.27.21-.35.19-.32.25-.58.49-.68.47-.47.3-.53.41-.56.42-.73.46-.53.41-.48.17-.1.1-.02.12.02.14-.03.09-.2.16-.32.31-.29.43-.42.37-.53.42-.63.54-.71.56-.72.58-.8.53-.56.41-.4.3-.27.18-.25.19-.37.29-.73.5-.67.43-.75.47-.78.41-.72.41-1.28.68-.82.45-.49.29-.73.47-1.07.62-.8.45-.84.47-1.39.59-1.02.44-1.03.44-.71.33-.59.26-.63.27-1.21.49-.72.29-.64.27-1.14.39-1.19.45-1.27.44-1.13.34-1.03.37-.76.23-.34.05-1.36.22-1.05.04-.47.11-.55-.03-.48-.08-.62-.02-.46 0-1.46.05-.44-.01-.17.04-.28-.02-.24-.05-.63-.2-.41-.2-.5-.31-.41-.23-.63-.42-.1-.06-.15-.07-.27-.17-.21-.17-.11-.09-.12-.09-.11-.08-.11-.12-.07-.08-.13-.12-.16-.19-.19-.22-.01-.02 0-.02.44-.46.03 0 .02-.01.35-.36.05-.1.05-.09.02-.05 0-.04 0-.02-.03-.02-.03.01-.01.02-.01.09-.03.07-.06.1-.13-.04-.18.18-.08-.05-.39.52-.18-.09.37-.48 0-.01 0-.02-.06-.03-.02 0-.65.04-.19.05-.03-.08.2-.06.44-.02 0 0 0 0-.01.04 0 0 .01 0 .13-.02.03-.04 0-.01-.11-.1-.08-.01-.16-.1 0-.02 0-.01.01 0 .06-.03.01-.01.01.01 0 .02.01.01.01-.01 0-.02-.01-.05-.05-.14-.07-.26 0-.09 0-.01.01-.01.17-.03.03-.01.01.01.21.12.11.06 0 .02 0 .01.49.28.09.02.06 0 .78.09.02.03.03.01.03.01.04-.02.02-.03-.01-.03-.02-.03-.87-.13-.3-.08-.56-.32-.13-.06-.19-.08-.21-.18-.1-.11-.11-.2-.08-.19-.06-.22-.09-.12-.13-.09-.18-.12-.27-.12-.2-.07-.26-.09-.22-.01-.27-.05-.3-.17-.3-.17-.12-.03-.17.02-.18.04-.17.07-.31.1-.2.12-.37.4-.47.57-.16.16-.19.25-.12.25-.2.2-.29.35-.21.16-.26.29-.28.07-.28 0-.09-.13-.26-.23-.14-.06-.23.07-.11.09-.12-.01-.53-.63-.26-.31-.05-.01-.05.01-.06.08 0 .03.38.44.11-.05.02 0 .15.18.21.23-.01.02-.45.4-1.11.78-.24.23-.23.18-.38.1-.11-.04-.12-.07-.16.01-.15.02-.12.1-.21.2-.13.09-.32.35-.26.27-.29.28-.43.39-.32.16-.03.06-.15.19-.4.22-.54.15-.25.09-.21.12-.27.09-.26.06-.1.08-.09.1-.06.17-.16.08-.17.17-.01.07.04.21.03.18.01.08-.04.1-.24.3-.11.3-.14.21-.21.2-.13.24-.13.22-.1.08-.12.07-.43.2-.45.29-.26.12-.27.15-.26.05-.16.05-.1.05-.05.07.01.04.18.24.16.27.08.31.03.39-.03.4-.17.54-.17.31-.34.44-.16.21-.18.19-.21.19-.08.06-.12.04-.16-.03-.18 0-.14.02-.06.06-.02.07.01.16 0 .07-.01.04-.02.03-.11.09-.24.16-.15.14-.06.06-.12.09-.1.09-.15.16-.2.18-.2.13-.07.01-.05.01-.27-.04-.39-.06-.3-.09-.04 0-.15 0-.33-.03-.35-.01-.29-.01-.28-.04-.28-.03-.34.04-.52.14-.09.06-.23.37-.17.17-.2.11-.22.08-.25.18-.18.22-.2.23-.13.1-.09.12-.07.08-.09.13-.17.19-.08.05-.11.03-.08.03-.14.07-.1.05-.08.08-.02.04.02.11-.01.13-.02.09-.05.06-.07.03-.17.03-.06.02-.03.03-.06.18-.07.14-.13.14-.17.12-.05.06-.04.15-.04.07-.22.23-.21.23-.22.24-.28.34-.08.05-.12.06-.05.03-.01.02-.06.33 0 .15 0 .22-.05.1-.1.14-.09.09-.12.09-.11.12-.15.1-.15.06-.09.02-.07.03-.09.08-.04.06-.05.05-.06.11-.12.19-.16.25-.17.26-.21.18-.1.11-.09.05-.36.12-.07.05-.03.01-.17.02-.16 0-.1-.02-.03 0-.01.02.02.11-.03.09 0 .04.13.22.05.08 0 .04-.08.08-.08.03-.06.01-.08.07-.08.07-.32.4-.17.2-.08.06-.14.08-.07.01-.06-.01-.18-.06-.2-.16-.18-.09-.12 0-.28.09-.23.14-.1.06-.09.01-.16-.03-.15.01-.09.05-.1.14-.26.17-.1.06-.14.03-.28 0-.1.01-.08.05-.25.26-.07.17.17.79.03.12 0 .07-.04.08-.09.14-.36.59-.11.1-.22.11-.31.11-.1.08-.07.09-.07.28-.04.11-.06.08-.16.09-.18.09-.16.14-.13.25-.14.18-.17.15-.19.29-.07.07-.18.11-.27.1-.02.01-.01.02.03.23.05.1.1.08.03.03.02.04-.02.14-.01.07-.02.12-.02.03-.04.01-.18.03-.13.05-.04.01-.08.03-.08-.01-.06-.01-.02.01-.01.01 0 .07-.01.05-.04.04-.08.05-.06.03-.03.02-.04 0-.05-.02-.05-.03-.1-.1-.04-.03-.03 0-.02.01-.02 0-.02-.01-.02-.05-.02-.02-.04 0-.04.02-.02.03-.02.12-.02.1-.11.15-.2.12-.16.03-.14 0-.1-.02-.06.01-.03.02-.01.04.02.06 0 .06-.02.03-.07.02-.02.02.01.03.02.05.05.04.1.06.02.03-.01.06-.11.3-.09.11-.23.15-.2.2-.07.11-.11.15-.05.06-.02.07.03.09.01.12 0 .12-.08.11-.15.1-.11.09-.1.05-.18.07-.16.05-.13.03-.09.03-.02.02 0 .04.1.06.14.08.05.07.01.06-.01.04-.15.05-.07.04-.01.06.02.1.12.15.17.03.18-.02.06-.03.06 0 .25.19.13.05.09.02.23.08.12.07.1.12.26.2.12.12.06.14-.05.19-.02.09 0 .08.08.11.09.15.02.07.1.16.02.21.02.13.15.22.27.31.26.26.15.2.24.25.32.35.16.16.31.28.22.21.26.31.21.29.1.22.2.28.25.27.14.19.14.39.12.35.05.46-.03.08-.05.06-.13.06-.13.03-.15.01-.08.06-.06.05-.13.05-.23.06-.05.06-.01.04-.02.06-.05.25-.2.31-.07.09-.11.08-.05.02-.07 0-.06-.01-.03.03-.01.02.03.06.07.05.21.11.05.08.02.05.1.05.04.01.03 0 .48.24.22.08.28.01.07 0 .06.03.03.06-.01.04-.24.11-.01.05-.01.01-.02.01-.06-.03-.39-.26-.49-.26-.01-.01-.01-.01-.11-.04-.05.01-.09 0-.05-.01-.2-.09-.1-.04-.07.04-.12.1-.07.03-.07-.03-.18-.12-.63-.34-.05-.03-.45-.24-.2-.09-.22-.05-.32.01-.21.05-.95.25-1.19.35-.38.16-.48.27-.41.28-.37.33-.68.7-2.17 2.3.12.1.98-1.09.05.03.05.02.04-.02.01-.03-.08-.07.26-.25 1.48-1.55.33-.29.32-.25.12-.07.02.03.03-.03-.02-.02.38-.21.05-.03.12-.06.11-.04.5-.18.53-.14.94-.25.32-.08.04.08.03 0 .05-.02.02-.01-.03-.08.18-.05.22.02.18.04.16.08.37.2-.23.17-.24.18-.48.33.95.53.05-.07.1.05.04 0 .05-.01.07-.05.06-.08.09-.27.23-.31.12.09.11.06.01.03-.01.15.02.03.05.01.02.01.01.02-.02.34-.01.03-.02.01-.22-.11-.03 0-.02.01-.18.13-.05.12.03.05.15.04.16.03.07.06.04.03.01.14-.01.14-.05.01-.1.01-.09 0-.21.24-.69-.36-.24.31-1.12-.56-.24.3.02.09.08.09.64.34.12-.03.09.01.57.31-.32.41-.49.59-.64-.35.14-.64-.15-.08-.04-.01-.01.01.01.05.13.07-.14.56-.36-.22-.55-.28-.12-.07-.09.12-.04.04 1.46.77.46.27-.34.43-1.28-.64-.15-.07-.69-.37-.04.05-.08.1-.06.06.76.4.1.05 1.12.59.19.1-.21.25-.14.13-.08.09-.09.01-.41-.21.03-.04-1.25-.67-.2-.09-.9-.49-.13.18-.23-.12-.12-.08-.04.03-.04.05 2.95 1.54.05.12.03.15.02.42.01.24-.01.27-.03.11-.05.11-.14.23-.06.02-.07-.03-.05.01-.11.06-.03.14.01.05.08.04.02.1-.08.22-.04.08-.07.05-.13.13-.11.09-.06.06-.06.05-.02.02-.02.07-.02.1-.03.08-.07.19-.17.21-.24.27-.2.12-.3.2-.28.13-.06-.01-.05-.02-.05 0-.04.03 0 .04.06.1-.05.13-.03.04-.06.03-.12.03-.19.06-.12.02-.12.05-.06.03-.04.04-.09.13-.24.29-.07.09-.04.04-.02.02-.03.02-.2.24-.2.2-.08.11-.09.09-.33.26-.24.16-.11.14-.06.15-.19.17-.15.09-.22.16-.1.29-.09.1-.08.1-.07.04-.11.03-.06.01-.04.02-.03.06-.08.04-.03.02-.07.05-.09.06-.05.03-.14.1 0 .03 0 .03.01.01.03.01.18-.05.03 0 .04.02.08.07.09.11.12.25.03.35-.02.07-.02.05-.15.17-.07.04-.06.02-.08-.02-.09 0-.08.03-.06.03-.06.05-.06.1-.02.08-.02.06-.08.05-.16.07-.16.03-.16.11-.12.15-.02.09.01.25-.03.07-.04.06-.1.11-.2.22-.08.07-.09.12-.18.19-.12.14-.28.28-.16.08-.19.05-.31.02-.03-.01-.04-.03-.08-.11-.05-.07-.02-.05-.02-.07-.04-.02-.03-.01-.07-.01-.07.01-.21.07-.13.06-.11.08-.56.41-.08.1-.01.05.01.05.07.2.04.17.03.08.05.07.07.06.08.12.07.16.01.18-.04.14-.16.3-.09.06-.08.01-.14-.01-.14-.05-.05.01-.02.03-.01.07-.01.04-.04.05-.11.04-.16.06-.06.08.02.1.05.16-.02.13-.04.06-.12.04-.3-.01-.29-.03-.12.02-.05.03-.02.04-.02.09-.2.43-.02.1 0 .11 0 .09-.15.25-.22.39-.24.23-.09.06-.05.02-.14-.01-.11.01-.11.03-.29.25-.33.2-.08.07-.05.09-.06.24-.13.15-.29.13-.09.05-.07.05-.18.2-.09.11-.19.18-.19.12-.05.07-.15.17-.16.21-.17.18-.15.08-.18.05-.35.04-.05.02-.04.04-.02.05-.03.28-.06.13-.1.12-.18.11-.02 0-.03-.02-.19-.12-.02 0-.04.02-.02.02.01.02.06.12.01.04-.03.04-.11.07-.05.08-.01.08-.04.09-.07.09-.08.08-.4.16-.19.17-.12.18-.08.26-.13.22-.28.41-.32.3-.3.22-.13.11-.15.34-.11.17-.05.17-.01.11.03.1-.01.08-.09.18-.18.16-.37.2-.07.09-.04.09-.09.34-.31.52-.34.46-.38.34-.43.28-.29.1-.21.05-.21 0-.28-.04-.2-.05-.24-.15-.08-.08.07-.26-.02-.03-.03 0-.23.26-.08.23-.02.21.07.07.1 0 .06-.19.15-.02.12.03.18.12.09.18.04.11-.02.22-.12.29-.42.5-.28.23-.27.17-.11.04-.15-.01-.12-.06-.21-.14-.1-.01-.07.05-.3.24-.06.07-.11.23 0 .02.01.02.22.16.02.03.03.27-.11.21-.1.09-.11.08-.03.02-.04 0-.05-.03-.05-.01-.03.03-.08.21-.02.06.01.04-.01.05-.02.04-.03.04-.08.04-.07 0-.1.01-.06.01-.01.03 0 .02.05.02.03.03.03.02.05.01.05-.02.04-.02.09-.04.07-.03.07-.01.05.01.06.04.13.17.05.19-.02.17-.04.18-.08.16-.37.42-.22.29-.22.23-.13.16-.27.29-.62.85-.53.53-1.29.86-.17.14-.77.6-.24.22-.28.21-.1.03-.09-.01-.08-.04-.02-.01-.02.02-.26.22-.17.16-.09.13-.06.1 0 .03.02.01.04 0 .05.01.06.03.03.03.02.06.01.08-.02.13-.21.3-.16.15-.28.34-.34.36-.35.33-.19.18-.2.16-.22.21-.42.44-.08.07-.37.41-.25.25-.18.11-.23.14-.1.07-.17.17-.14.09-.15.04-.07.04-.13.12-.1.08-.28.17-.39.24-.09.03-.11 0-.07-.03-.02-.05-.04-.01-.05 0-.07.02-.56.35-.03.04-.01.05.03.03.07.07.05.04.01.06-.03.07-.07.09-.08.06-.09.02-.05.04-.04.08-.06.25-.1.18-.1.11-.14.09-.17.04-.12.01-.1-.01-.12-.04-.04-.04-.01-.02 0-.03.1-.1.02-.07-.01-.06-.03-.05-.1-.08-.06-.02-.12-.01-.08-.01-.03.01-.01 0 0 0 0 .03-.01.04-.01.02-.03.05-.02.09.02.13.05.1 0 .03-.07.13-.06.15-.05.05-.16.17-.01.04.01.03.1.07.03.09-.02.06-.04.07-.05.02-.14.02-.12-.01-.02 0-.02.02-.24.74-.05.21-.05.18-.03.15-.1.16-.12.11-.22.18-.19.24-.21.21-.27.29-.18.16-.07.12-.09.22-.16.17-.25.17-.26.18-.3.19-.16.16-.17.13-.14.09-.09.03-.1.06-.05.06-.07.14-.09.13-.1.16.4-.09.26-.13.18-.13.15-.04.14 0 .63.16.3.07.11.09.09.08.1.06.42.1-.1-.18-.14-.28-.12-.21-.14-.18-.05-.09 0-.09.08-.04.11.02.08.02.11-.01.14-.05.06-.1-.02-.1-.17-.19-.19-.31-.03-.21.09-.13.12-.07.24-.03.21-.05.21-.11.18-.29.16-.23.08-.33.09-.29.18-.21.1-.05.18.01.14.01.15-.01.09-.07.08-.12.28-.12.47-.04-.15-.35.15-.27.9-.35.31-.7.21.19.85-.25.77.11.99.14-.05.28-.31.33-.12.08-.2.18-.14.1-.07.17-.33.12-.15.34-.15.43-.16.37-.11.15-.28.25-.46.26-.14.03-.11-.01-.12-.04-.19-.05-.18.02-.19 0-.2-.05-.17.01-.24.14-.23.27-.09.29-.02.35.04.64-.05.27-.1.1-.26.1-.15.07-.08.05-.1.2-.08.18-.12.2-.11.33-.11.2-.11.11-.14.14-.19.14-.24.15-.16.16-.09.12-.07.04-.12.01-.07.03-.11.14-.13.12-.15.05-.32.06-.47.08-.12.07-.15.09-.07.06-.1.07-.08.03-.19-.01-.21.02-.15.08-.18.11-.1.09-.03.08-.05.19-.1.07-.13.07-.14.04-.06-.02-.06-.07.01-.05.1-.05.08-.08-.01-.07-.08-.06-.16-.08-.34-.07-.15-.06-.07-.05-.01-.07.03-.12.08-.15.07-.13.1-.04.19-.02.14-.04.08-.03.04-.05 0-.15-.01-.12.03-.11.09-.12.05-.08.04-.07 0-.06-.04-.07 0-.05.01-.05.04-.05.02-.09.01-.06.1-.06.1-.08.42-.31.2-.2-.02-.12-.04-.02-.13-.01-.35.04-.4.05-.35.36-.11.2-.06.19-.07.17-.14.22-.2.2-.39.33-.38.31-.43.35-.29.24-.14.13-.19.17-.18.19-.14.15-.17.13-.14.11-.21.17-.2.18-.27.25-.32.24-.07.08-.07.1-.02.09-.04.06-.04.05-.1.1-.11.1-.3.27-.19.22-.13.14-.41.43-.11.07-.19.1-.06.04-.09.06-.08.11-.19.33-.09.11-.18.13-.2.11-.28.13-.09.04-.04.03-.09.08-.14.19-.11.25-.02.04-.06.07-.14.1-.12.08-.11.07-.09.1-.1.14-.29.31-.01.07.03.05.04.06.05.04.03.03 0 .03-.01.08-.08.2-.07.16-.12.22-.18.19-.17.12-.11.1-.21.26-.15.28-.15.22-.09.09-.17.17-.35.27-.28.27-.25.27-.18.19-.27.32-.17.14-.15.12-.2.14-.48.35-.3.26-.27.2-.13.1-.28.26-.46.41-.14.1-.15.1-.15.17-.24.23-.18.19-.62.48-.43.33-.52.52-.11.18-.07.1-.05.08-.41.37-.18.21-.1.11-.18.22-.05.08-.03.05-.09.06-.14.09-.31.22-.06.03-.04.03-.03.05-.02.04-.01.04-.03.03-.03.03-.11.09-.16.11-.34.2-.22.14-.19.15-.08.06-.27.2-.17.13-.1.07-.08.08-.08.1-.08.1-.11.1-.22.18-.15.15-.1.09-.26.23-.23.21-.27.25-.15.15-.19.18-.32.3-.08.09-.1.15-.11.12-.13.15-.45.41-.29.28-.2.16-.11.07-.27.21-.29.24-.3.22-.39.33-.31.24-.49.43-.4.32-.05.03-.28.2-.24.21-.3.25-.31.32-.31.28-.29.25-.32.3-.25.24-.19.14-.23.19-.21.24-.15.13-.12.11-.4.38-.23.19-.5.38-.29.25-.24.23-.22.2-.32.28-.29.24-.13.12-.12.09-.1.05-.12.06-.21.12-.19.15-.21.15-.2.13-.12.1-.07.06-.17.08-.13.04-.07.01-.07-.01-.04-.01-.05-.02-.05-.01-.02.01-.01.03 0 .04.03.04.08.1.05.06.01.05 0 .04-.04.08-.08.11-.2.12-.18.07-.04.06-.07.11-.06.06-.07.04-.1.05-.22.16-.14.04-.19.09-.09.13 0 .09-.06.12-.17.18-.21.14-.07.07-.04.05-.03.05-.08.12-.06.08-.16.14-.06.07-.24.2-.13.12-.32.28-.15.17-.19.22-.16.15-.15.14-.05.01-.05.02-.1 0-.01 0-.01.01-.01.04 0 .04 0 .02-.08.08-.02.03-.01.02 0 .02-.06.12-.15.19-.14.1-.13.12-.15.06-.08-.01-.08-.08-.03-.01-.02.01-.06.11-.08.09-.12.12-.1.06-.06.13-.02.08-.01.1.03.03.09 0 .04.03 0 .09-.06.01-.08-.02-.1-.01-.07 0-.01.01-.01.05.01.03.02.03.03.01.05 0 .02.06-.04.06-.03.04-.04.01-.01.01 0 .06-.02.03-.05.02-.13.01-.03 0-.01 0 .01.02.01.05-.01.02.01.02.01.03-.01.03-.02 0-.01 0 0 .02-.01.02 0 0-.02 0-.02 0-.01-.01 0 0-.01.01 0 .02.01.01.01.01-.02.02-.02.02-.02 0-.01 0-.02-.02-.02-.01-.01-.01-.02.01-.01.02.01.02.02.03.01.05 0 .04-.03.03-.06.06-.21.19-.34.3-.2.2-.37.38-.17.22-.03.03-.05.11-.08.15-.07.06-.11.07-.05.02-.08.05-.04.05-.02.05-.01.07-.03.04-.14.11-.12.1-.08.06-.1.07-.08.08-.08.05-.05.05-.07.07-.17.21-.19.17-.15.17-.11.15-.13.15-.1.07-.16.07-.13.08-.07.06-.02.03 0 .04.02.07-.01.07-.05.11-.07.1-.08.11-.06.07-.11.11-.09.12-.09.12-.05.04-.05.04-.09.07-.04.03-.03.03-.04.03-.07.05-.04.02-.05.03-.08.06-.06.04-.06.04-.06.04-.07.06-.06.04-.07.06-.1.1-.12.12-.05.03-.02.03-.03.02-.04.04-.05.03-.04.04-.03.03-.06.04-.05.03-.1.06-.06.05-.04.05-.02.05-.05.11-.03.04-.04.04-.04.03-.07.03-.03.01-.02.01-.04.03-.03.04-.08.1-.08.08-.19.17-.11.08-.21.21-.18.18-.11.11-.07.07-.06.09-.05.08-.08.09-.05.07-.07.07-.18.15-.06.06-.05.06-.04.05-.12.13-.08.09-.11.1-.13.13-.12.1-.09.09-.15.14-.12.1-.09.09-.09.08-.05.06-.1.07-.08.05-.11.08-.13.1-.09.08-.14.11-.12.11-.1.09-.08.07-.11.1-.11.08-.12.08-.17.11-.22.14-.2.15-.25.21-.15.13-.13.1-.12.07-.27.2-.17.12-.31.22-.28.22-.25.23-.26.25-.22.15-.03.03-.08.05-.09.08-.16.12-.09.07-.08.06-.05.06-.05.07-.05.05-.04.04-.06.05-.15.1-.1.05-.05.04-.08.06-.17.12-.22.17-.14.12-.29.22-.16.16-.26.17-.24.18-.24.17-.18.12-.13.13-.13.15-.15.09-.32.29-.2.16-.17.11-.12.04-.1.06-.08.05-.3.22-.13.07-.11.07-.1.05-.14.09-.38.16-.1.1-.06.09-.12.12-.03.01-.14.06-.12.11-.22.16-.14.1-.17.11-.1.09-.2.16-.08.03-.06.04-.1.06-.19.09-.06.04-.07.08-.09.08-.16.12-.07.04-.07.02-.11.02-.05.02-.09.07-.01.03.01.07-.01.03-.07.06-.19.08-.27.19-.31.17-.05.03-.03.07-.03.06-.05.03-.07.04-.06.01-.08.01-.08.04-.12.08-.17.09-.11.07-.07.08-.11.11-.01.02-.26.15-.52.35-.2.17-.43.26-.18.05-.09.02-.08.05-.01.01.02.04.02.03 0 .03-.02.05-.08.1-.11.05-.13-.03-.11.01-.08.08-.02.05.01.1-.05.03-.08 0-.11.01-.13.08-.08.04-.03.12.02.09-.09.07-.06.05 0 .07-.02.01-.06.02-.09.04-.06.04-.14.06-.13.08-.25.16-.22.01-.15.06-.07.04-.06.04-.02.08.02.12-.14.11-.1.05-.03-.02-.03-.03-.17-.03-.07.04-.07.06-.14.03-.13.1-.05.06-.02.08-.07.07-.11.02-.04.02-.12.15-.45.4-.12.16-.37.24-.18.09-.04.03-.02.07-.02.08-.05.07-.08.05-.11.05-.11.14-.26.26-.32.21-.15.06-.12.02-.06.03-.05.06-.01.09-.03.06-.11.07-.14.01-.05.02-.22.19-.19.08-.03.03-.09.17-.12.11-.13.07-.17.11-.24.15-.26.1-.1.06-.11.08-.02.03-.05.08-.07.07-.19.08-.18.14-.08.06-.08.07-.19.13-.05.04-.09.02-.15.11-.1.11-.11.15-.25.14-.29.15-.24.15-.16.11-.22.16-.16.09-.13.12-.09.14-.26.17-.13.1-.15.11-.2.12-.17.08-.32.16-.06.05-.02.12-.03.03-.31.15-.4.25-.29.17-.34.17-.17.11-.05.06-.02.06-.03.08-.01.04-.01.03-.04.04-.01.01-.03 0-.01.01-.03 0-.04.01-.05.01-.03 0-.06 0-.05.01-.04 0-.05.02-.02.03-.01.02-.02.09-.06.09-.14.09-.04.03-.2.11-.14.1-.09.06-.29.12-.26.17-.04.02-.05.04-.08.03-.09.06-.07.08-.12.11-.07.06-.07.04-.04.01-.08.02-.03.01-.04.02-.04.03-.03.01-.05.02-.06.04-.04.04-.06.02-.02.02-.04.02-.03.01-.04.02-.06.03-.02.02-.03.03-.06.03-.02.02-.05.03-.05.03-.08.03-.04.02-.07.07-.04.03-.02.02-.03.02-.03.02-.07.04-.05.07-.08.08-.05.02-.06 0-.05.02-.03.02-.02.02-.04.03-.03.02-.05.02-.04.03-.04.03-.04.03-.06.03-.07.04-.07.08-.09.08-.09.05-.04.02-.04.02-.03.02-.08.06-.03.02-.02.01-.1.08-.12.13-.1.1-.07.03-.06.06-.09.14-.01.12-.05.05-.1.02-.11.01-.05.03-.1.09-.1.09-.04.03-.05.03-.14.08-.05.04-.05.06-.08.09-.04.02-.07.02-.06.02-.07.07-.06.06-.02.05-.05.03-.1.02-.09.06-.06.05-.02.04-.1.06-.06 0-.06.02-.08.05-.06.07-.07.06-.08.06-.06.04-.05.05-.11.08-.09.05-.13.08-.16.11-.13.04-.05.06-.04.06-.06.05-.15.06-.07.05-.05.04-.04.05-.03.03-.08.04-.1.07-.23.16-.11.07-.13.02-.1.03-.08.04-.22.22-.25.12-.24.13-.07.06-.16.13-.15.07-.2.18-.1.1-.19.13-.01.05.02.1.01.07-.08.06-.1.02-.07.02-.07.04-.06.05-.05.04-.05.04-.06.07-.01.06 0 .08-.05.05-.07.01-.05.05-.04.06-.1.08-.05.05-.08.05-.07.06-.05.06-.07.07-.17.09-.08.07-.05.08-.07.06-.08.01-.08.02-.16.11-.06.09-.09.06-.05.07-.18.12-.05.07-.02.07-.05.04-.1.04-.04.02-.06.04-.02.02-.01.02-.05.07-.06.02-.07-.01-.05-.01-.03.02-.01.02-.02.04-.04.05-.03.07-.09.09-.07.04-.05.01-.02.01-.02.05-.05.04-.12.03-.16.08-.11.05-.03.06-.01.06-.05.08-.15.12-.15.13-.08.05-.03.02-.04.01-.05.02-.07.03-.11.05-.1.06-.08.07-.08.06-.07.05-.18.12-.26.14-.19.12-.19.15-.06.07-.05.05-.05.04-.1.08-.1.03-.1.03-.09.02-.12.04-.06.04-.13.07-.13.07-.01.05.07.09.08.07.08.03.09-.04.11-.03.14.02.2.05.14.12.07.15 0 .17-.03.16.01.08.08.1.14.1.1.03.06.01.08.02.08.02.1.02.11 0 .12-.03.07-.03.07-.08.06-.08.06-.12.09-.2.12-.22.12-.2.08-.19.05-.14.07-.17.14-.18.13-.16.09-.07.26-.22.18-.11.16-.1.11-.07.2-.1.24-.08.24-.07.13-.04.18-.06.14-.06.09-.05.13-.08.08-.05.03-.05.03-.06.07-.16.03-.06.01-.14.01-.09.04-.21.01-.09.05-.12.03-.07.1-.13.05-.09.06-.1.06-.08.07-.09.16-.26.18-.18.18-.08.06-.03.42-.11.41-.06.18-.01.19-.01.12.01.24.02.16.02.12.02.07.01.15-.04.18-.04.08-.03.14-.06.05-.05.08-.08.05-.08.06-.12.03-.08.02-.17-.03-.22-.03-.07-.14-.33-.03-.23 0-.05.18-.25.18-.13.26-.11.24-.04.09-.03.12-.02.1-.02.05-.04.08-.06-.01-.04.01-.06-.01-.05-.01-.07.01-.07.01-.12.02-.05.07-.1.16-.1.37-.09.19-.06.12-.04.1-.02.4-.08.09-.02.11-.03.28-.07.45-.18.28-.1.14-.13.13-.2.16-.15.12-.21.13-.2.01-.04.06-.24 0-.2.07-.16.13-.08.27-.14.18-.09.44-.08.01.04-.04.02-.16.04-.22.05-.33.18-.05.03-.17.14-.01.17.01.03.03.12.07.07.12.02.19.01.31-.01.42.01.22-.01.26-.11.08-.1.06-.08.15-.25.16-.23.14-.14.11-.16.05-.14.11-.13.15-.12.12-.01.19-.02.17.02.09.01.24 0 .02-.01.19-.03.17-.18.18-.2.18-.09.22.02.2.08.16-.02.13-.24.13-.2.21-.07.17-.02.12-.01.11-.05.09-.05.1-.08.03 0 .04.01-.19.16-.1.07-.11.02-.13.01-.04.01-.16.04-.13.11-.1.2-.07.12-.12.09-.18.04-.21-.04-.17-.02-.08.03-.06.03-.02.03-.07.1-.02.04-.05.03-.06.05-.05.03-.12.07-.08.04-.19.09-.2 0-.18-.03-.18-.02-.17.05-.16.12-.05.19-.06.17-.05.13-.08.06-.15.12-.04.07-.15.23-.19.28-.12.11-.11.08-.08.03-.05.02-.06.03-.19.01-.22.01-.27.02-.12.01-.12.01-.2.06-.07.05-.06.03-.11.13-.07.11-.11.15-.16.11-.23.13-.23.1-.19.06-.13.07-.03.04-.06.06-.04.07-.05.08-.02.16-.04.2-.11.21-.21.31-.23.3-.28.23-.12.12-.11.17-.09.11-.14.13-.05.02-.06.01-.03.01-.18 0-.1.04-.16.04-.18.02-.17.03-.11.06-.05.12.01.15-.03.09-.02.11-.11.23-.11.19-.14.11-.19.15-.57.14-.19.03-.23-.01-.22-.06-.08-.03-.13 0-.17-.01-.19.01-.18 0-.16 0-.19-.01-.13.01-.14 0-.09.02-.2.03-.09.06-.07.06-.09.08-.05.06-.11.12-.08.08-.11.12-.05.08-.07.12-.04.21-.01.17-.01.16-.01.08-.01.13-.01.08-.03.14-.02.23-.04.14-.06.05-.12.1-.05.04-.2.16-.12.13-.1.07-.22.07-.36.11-.35.06-.08.03-.09 0-.05-.02-.18.06-.09.07-.09.04-.12.1-.12.14-.06.16-.01.03-.03.18-.05.12-.05.11-.05.09-.07.12-.02.04-.17.28-.04.07-.06.18-.12.29-.12.1-.2.13-.05.03-.1.06-.05.02-.07.04-.06.03-.05.02-.1.09-.63.48-.64.45-.22.13-.14.03-.06.01-.35.06-.24.04-.06.01-.14.01-.16 0-.12-.02-.09-.01-.08-.03-.09-.05-.08-.07-.05-.07-.02-.1.01-.11 0-.04.02-.08 0-.05.03-.06.06-.06.03-.03.02-.03-.01-.02-.04-.07.01-.1.02-.06.02-.13-.02-.29 0-.12.08-.11.07-.08.16-.18.08-.09.04-.01.03-.09.03-.08 0-.01-.01-.01-.02 0-.04.03-.06 0-.05-.02-.07-.05-.04 0-.03.01-.03.07-.01.02-.03.04.01.05-.02.02-.08.02-.04.02-.01.03 0 .04-.02.03-.04.03-.06.02-.05.02-.01.02-.01.03.02.04 0 .02-.01 0-.04 0-.03 0-.04 0-.02.02-.01.03.02.03-.01.01 0 .01-.05 0-.04.02-.03.06 0 .04-.02.02-.02.01-.05.01-.03.02-.07.03-.04.02-.01.02-.01.05-.01.04-.04.03-.03.01-.06.02-.01.04.02.04.05.03.05.06-.01.04-.03.03-.03.02-.06.01-.06-.02-.02-.02-.06-.01-.04 0-.03.01-.01.02 0 .02 0 .01.01.03.01.02.07.01.05 0 .03.04.03.03 0 .05-.02.06-.06.05-.06.02-.05-.01-.03-.03-.03-.06-.02 0-.05.03-.03.01-.03 0-.02-.06-.02-.02-.02-.01-.04.02-.03.05.02.07.02.04-.01.01-.04.03-.07 0-.08 0-.08.03-.07.04-.02.03.01.04.11.05.17-.01.14-.04.04.03.01.02-.03.1-.04.13-.07.13-.07.15-.09.11-.1.1-.16.15-.18.08-.12 0-.07-.02-.07-.04-.06-.04-.03-.04 0-.06.01-.05-.02-.05-.04-.05-.04.01-.01.03 0 .08-.03.02-.08.01-.01.01 0 .01.01.03.02.04.02 0 .07.01.04.04.03.04.07.2-.05.13-.09.11-.13.08-.16.06-.06 0-.05-.02-.04-.04-.03.02-.02.02 0 .03.05.02.04.03.03.05 0 .06-.05.05-.03.03-.03.04-.03.03-.04.04-.05.04-.05 0-.15-.09-.07-.01-.08.01-.09.09-.15.21-.18.29-.18.14-.21.07-.01.02 0 .02.07.21.01.04-.02.02-.17.1-.03.03.01.05 0 .09-.03.02-.16.01-.06.01-.03.02-.02.08 0 .04.02.05.03.01.02.01.03 0 .06.06.02.1-.01.1-.07.07-.1.07-.18.11-.06.06-.13.15-.19.24-.12.13-.17.15-.11.14z" /><path d="m10.96 412.44l.04.04.02.05.03.08 0 .1.05.08.1.07.19.01.3-.04.36-.1.07.03.06-.01.35-.28.25-.21.29-.25.04-.05 0-.06-.09-.27-.09-.36-.14-.15-.17-.07-.08.03-.04.14-.18.36-.31.17-.38.17-.09-.01-.04-.14-.04-.04-.03-.01-.03.02-.05.25-.13.17-.08.06-.12.14-.06.05 0 .03z" /><path d="m11.36 410.45l.03.08-.01.06 0 .05.04.04.08.02.08-.03.13-.08.08-.03.06-.03.04-.05.04-.06 0-.05-.04-.06-.03-.07-.04-.05-.08-.01-.13.06-.07.02-.01.02.02.07-.01.03-.02.02-.08-.02-.06.03-.02.04z" /><path d="m109.48 329.48l.04.22.1.11.85.24.49.15.22.03.26-.04.37-.18.34-.27.07-.18 0-.19-.06-.14-.13-.12-.46-.08-.48-.13-.58-.27-.24-.09-.19.02-.09.12-.16.18-.12.13-.16.24-.07.25z" /></g></g></svg>