<?xml version="1.0" encoding="utf-8"?><svg xmlns="http://www.w3.org/2000/svg" version="1.1" baseProfile="tiny" width="800" height="600" viewBox="0 0 800 600"><g><g stroke="#000000" stroke-width=".98" fill="#FFFFFF"><path d="m22.05 329.64l.19.95.91 1.49 1.13 1.86 1.87 2.08-.51 1.66 2.59 2.93-1.03 2.96.06 4.77-.59 5.02-.61 1.22-.39 2.02-.24 5.58-.04.13-.64 2.76.34 4.37 4.05 1.62 6.8-1.47 2.75-.21 3.27-.2-6.11 3.91-.15.09-.44.82-1.34 2.51 1.9 4.32-.46 3-.95 1.23-1.06-.34.17 1.08-.7 1.11-1.71 0-1.75 1.72-.38.38 5.88.58 9.19.53 3.06.31 2.93.29 1.6.17.19 1.3.62 2.7.02.07.96 3.12.15.52.33 5.05-2.1 1.19 2.39 7.51 2.26 4.08.93 1.37 1.29 1.43.82 1.52.72.3.38.17-.29.15-1.97 1.06-2.4 1.28-1.92.19-2.05.2-.34.04-1.94 2.1-1.85 2-.29.32-1.28 1.38-1.26 1.37-1.63.5-.61.19-1.29.4-3.53 1.78-1.73.87-.58.11-.67.13-.75.14-.94.68-.48.35-.55 2.47-.09.41 0 .03-.36 1.25.25 2.14.2.5.17.43.04.08.04.14.07.19.02.07.06.19.32.95.32.68.67 2.06.85-.31 1.58-.56 1.65-.54 1.39-.79 1.46-.76 1.4-1.43.27 1.21.19.88.26 1.16 2.5 11.23 3.64 4.14 1.05 1.56.28 1.2.02 1.22-.02.04-.55.95-.45.79.35 1.36-1.16 1.05-1.17.69-1.71.8-2.94.65-.67.11.17.75.2.87.11.83 3.4-.23 2.05.91.22.09.08.04 2.97-.51 2.5-1.05 3.14-1.44 3.69 2.65.84.61 3.17 1.26 3.31-2.48 6.46 3.38 1.31.89 8.66-.39 2.61 4.98 3.56 5.2 1.81 1.96 3.07 1.85.87-1.55 1.3-1.47-1.05-2.43.35-1.77-.47-.99-.51-1.74.39-2.2.3-2.5-.2-3.24 2.68-2.56 2.7-3.67 2.39-3.26 2.6-3.8 6.24-7.03 2.03-1.94.25-.24 1.44-3.08 1.79-1.04 6.35 2.4 5.25 1.3 6.31 1.39 4.45 1.75 15.95-3.34 4.22 1.24 2.6 2.56 4.32-4.76.07-1.92-.81-4.63.98-6.02-1.06-3.12 4.68-.48 3.51 6.03 5-.93 7.42-1.24 7.39-1.77 2.96-2.21 2.26-.09 1.37 1.92 1.09 1.39.51.36-.82 1.92.96 1.92 3.92.31 6.26 6.41 4.42 5.28 5.93 4.23.24 4.11-7.54 5.1-5.32 4.9 14.16 13.14 2.35 3.3-3.18 8.68 4.68 8 13.22-3.35 1.65 1.1 3.68.07 1.89 1.4-.56 3.09-7.07 2.01-5.09 4.32.35 1.36-.05.97 1.23 2.21.47 3.79-.25 3.16.67 1.95.46 2.89 1.25 3.99.03 3.33.5 3.54-.13 2.52 1.07 4.26 1.16 3.14-3.66 3.46-1.99 4.04.51 3.01 2.57 2.88.09 2.63-2.45 3.02-1.18 2.99-1.76 3.71-1.62 3.51 1.36-.08 1.92.27 1.67.03 1.46.2 1.41.23.45.81.22.42.44.44.55.26.54-.3.08-.17-.25-.63.22-.85 1.03-.69 1.06-.35 1.5-.11 1.9.11 1.23.25 1.15-.12 1.16-.11 1.14-.18 1.16-.14 1.11.28 1.14.23 1.1-.34 1.13-.24 1.15.14 1.12.29 1.15.03 1.16-.03 1.14.24 1.16.15 1.1-.28.99-.55 1.12-.25 1.11-.15.72-.25.5-.23 1.12-.18 1.09-.12 1.15.11 1.17.04 1.13-.21 1.04-.47 1.14-.21 1.15.13 1.01.5 1.14.23 1.15.1 1.05.45 1.04.44 1.14.23 1.16.01 1.17-.15 1.04.39 1.09.36 1.16.07 1.14.23 1.11.29 1.16-.07 1.1-.33 1.15-.17 1.32-.02 1.07.26.86 0 .33-.07.69-.4.34-.4.6-.5.91-.47 1-.38 1.16-.11 1.1-.34 1.1-.35 1.13-.25 1.12-.26 1.09-.38 1.11-.19 1.15-.25 1.15-.17 1.12-.23 1.18-.14 1.01-.03 1.13.1 1.07-.03 1.24.02 1.48.17.94.23.94.12.76.04.66-.09.37-.18.3-.28.41-.6.31-.35.41-.21 1.11-.22 1.08-.21.98-.15 1.09-.15 1.01-.12 1.12-.15 1.38-.11 1.11-.04.78.05 1.08.18.82.18.66.28.77.34 1.07.41.92.56.55.26.61.12 1.94-.02 1.33-.02 1.42.24.98.17.69.79.14 1.02-.32.97-.66.85-.72.8-.76.78-.66.84-.43.95-.3.98-.35.98-.42.95-.16 1.01.4.94 1.03.41 1.17-.19 1.13-.24 1.16-.13 1.17-.11 1.01-.48.84-.71 1.06-.55.68-.61.13-.49.24-.13.24-.24.17-.18.31-.08.18.18-.01.24.3.48.78.77-.05.5.25.51.81.14.52.29.63.74.4.98.43.34.5.25.96.55 1.17.07 1.14.21 1.14.22.89.63.78.76 1.07.35 1.11.31 1.16.1 1.09-.34 1.16-.03 1.15.15 1 .5.25 1.01.79.61 1.17-.34.77-.71.04-1.03.37-.9.66-.91.81-1.91.8-.78.59-.88.71-.81.68-.83.64-.85.66-.85.69-.82.69-.82.68-.83.71-.81.11-.15 8.86-11.34 11.46-12.8.91-1.29 1.25-1.96 1.89-1.94.88-1.14 1.01-1.38.63-1.06.87-.51.4-.7.55-.66-.01-.66.19-.49.28-.46.42-.29.11-.91-.21-.74.18-.64-.39-.79-.62-1.14.1-.62.94-.88 1.08-1.51 1.36-1.56.77-1.25.5-2.87.88-2.09 1.09-.69.46-1.06.65-.97.76-1.15 1.48-.87 2-.86.18-1.02 1.44-1.81 1.32-1.06 1.82-1.17 2.03-.93 1.52-.95 2.36-1.67 2.14-1.41 2.48-1.51 1.93-1.07 1.23-.68.54-.33.45-.18.97-.47 1.55-1.05 1.86-1.43 2.46-1.82 3.58-2.62 3.36-2.58 3.46-2.54 4.16-3.04 4.23-3.15 3.67-2.64 2.21-1.52 1.66-.71 3.84-1.65 4.96-2.09 8.4-3.63 3.98-1.77 8.02-3.44 7.69-3.43 8.46-3.66 6.61-2.78 3.46-1.68 4.29-3.88 11.73-9.04 9.94-10.93 1.37-1.21 14.47-12.19 5.44-2.4 2.81-.91 3.5-1.23 4.41-1.42 4.97-1.61 5.01-1.54 3.41-1.25 1.91-.15 3.08-.09 2.75-.13 2.57-.18 2.75-.14 2.55-.08 2.84-.17 2.77-.17 2.81-.15-.1-.04.18-.04.72.08 1.04-.18 3.28-.74 6.91-.86 1.14.76.52-.05.48-.35.6-.11.25.16.73-.15.72-.4.98-.54.38-.24.43-.15.36-.05 1.43.43.72.21.26.1.25 0 .17.08.24.01.34.06.21.12.35.25.34.2.2.04.11.1.22.07.23.22.18.07.14.11.21.04.23.09.19.18.41.12.44-.01.61.07.41-.1.69-.08.4.22.67.32.35.1.2.19.4.14.33.02.43-.06.09-.05.11-.21.24-.18.32-.22.31-.11.61-.41.22-.29.42-.24.32-.18.86-.38-.03-.06.15-.19.19-.09.27-.15.28-.03.25-.06.18-.03.01-.04.1-.01.05-.06.09 0 .07.02.12-.13.02-.08.17.03.09.12.19-.07-.01-.08.06-.07.06-.04.08-.03.08-.01.07.01.1.04.18.05.07-.03.05-.07.08-.03.1-.08.09-.09.05-.11.01-.07.05-.02.1.04.1-.19.63-1.26.28-.61.04-.08.07-.03.24-.09.07.03.08-.01.09.02.07-.01.12.02.01-.14.17-.09.09-.06.14-.08.07.01.02.05 1.06-.51.11-.05.32-.23.25-.05.26-.11.44-.22-.02-.07.01-.08.06-.06.08-.06.06-.25.07-.04.09-.03.06-.06.1.06.01.04.08.01.43-.12.91-.27.93-.29.98-.28.23-.17-.09-.08.06-.11.02-.08-.07-.05.03-.06-.07-.06.02-.04.13-.02.03.08.08.02.1-.03.16-.08.16 0 .17-.01.11-.11.69-.62.24-.22.13-.05.16-.01.34-.09.24-.11.39-.1.03-.04.11-.04.18-.15.12-.06.13-.07.34-.11.1-.08.17.01.11-.08.17-.02.13-.05.13-.08.15-.11.17-.09.15-.09.05-.07.08-.03.08-.08.07 0 .11-.03.15-.11.35-.29.13-.08.08 0 .13.05.15.1 1.32.47.37-.12.92-.83.43-.08.73-.31.44-.39.55-.72.33-.61.35-.84.27-.39-.37-1.24-.08-.22.21-.17-.02-.31.63-.27.38-.35.01-.39.12-.47.49-.69-.02-.36.01-.82.53-.37.02-.17.2-.41.05-.5-.09-1.57.19-.2.2-.33-.12-.24-.23-.59-.16-.36-.26-1.08-.21-.76.03-.2-.96-.39-.54-.12.01-.27-.03-.6-.16-.95-.1-.56-.08-.56-.1-.55-.16-.72-.14-.4-.09-.47-.01-.28-.03-.32-.05-.27 0-.29-.06-.19.02-.44-.07-.36-.03-.2-.03-.26-.01-.32-.02-.32.01-.34-.02-.36.11-.28.04-.57-.02-.67-.08-.48.09-.64-.14-.53-.44-.47-.13-.35.07-.14-.11-.07-.5-.3.01-.12.05-.09 2.54-.66.62-.37.07-.63.3-.57.59-.4-.24-.62-.31-.61.46.14.61.42.42.51.53.06-.06.66.74.16.64-.34.19-.64.23-.58-.11-.68.54-.27.68.01.08-.67.1-.6.15-.61-.06-.69.64-.18.49.46.69-.24.37-.59.39-.57.43-.55.55-.47-.05-.64-.43-.54-.13-.64.52-.29.8.16.49-.4-.12-.64-.15-.65.3-.6.66-.09.48.56.62.35.76-.04.5-.48-.19-.64-.1-.67.29-.15.69.39.03-.5-.51-.49-.3-.58.54-.48.72-.24.76-.11.71-.27-.04-.58-.06-.67-.69-.16-.53.04.48-.52 0-.64.66-.3.6-.21-.36-.6-.4-.55.31-.57.33-.6-.16-.64-.28-.6.31-.57.47-.5-.23-.62.08-.65.2-.61-.29-.56-.52-.24-.1-.68-.01-.66-.04-.65.06-.66-.03-.61-.66.11-.09.68-.28.34-.15-.68-.23-.64-.69-.08.4-.43.07-.65.33-.59-.07-.66.17-.55.13-.58-.62-.39-.08.57-.59-.51-.13.32-.15.29-.5-.14.14.64.36.58-.16.63-.71.3-.25-.54-.35-.37-.78.23.15.61-.2.49-.25.3-.15-.17-.38-.6-.59-.4-.6-.03-.18-.68-.4-.58-.68-.03.1-.67-.2-.63-.01-.66.2-.63-.36-.22-.72.25-.78.08-.45-.45 0-.66-.11-.65-.27-.62.04-.58.42-.61-.52-.36-.37-.59-.61.4-.5-.07.08-.71.05-.66.19-.63.07-.65-.13-.64-.6-.02-.5.48-.55.43-.29.61-.29.63-.53-.43-.65-.37-.31-.56-.03-.66-.01-.66.16-.65.04-.65.02-.59.5-.53-.05-.61-.22-.64-.16-.64-.13-.65-.07-.66-.05-.65.02-.66-.05-.72-.45.37-.13.65-.08 1.09.33.6.03.64-.01.66.37.57-.4.44-.67-.02-.65.36-.39.42.81.18.32.51.01.67-.02.66.1.65-.06.66.05.62.42.55.35.58.46.57-.33.46-.45.53-.54.04-.69-.15-.38-.6-.5-.14.13.62-.6.03-.07-.66-.49-.51-.65-.09-.11.61.38.57.16.47-.58-.33-.14.68.41.43.64.21.73.09.65-.3.66.38.77-.04-.18.58-.78.03-.75-.1-.77.05-.75-.06-.75-.14-.72-.25-.74.13-.55-.4.04-.67.43-.54.42-.54.01-.65-.23-.63-.14-.65.29-.61.37-.57.34-.56-.05-.67-.23-.62-.23-.63-.01-.66.13-.65.07-.65.19-.64-.1-.61-.52-.51-.34-.58-.33-.59-.34-.59-.76.01-.69-.16-.74-.14-.41.5-.16.38-.14-.72-.24-.63.1-.63-.4-.38-.36.61-.55.21-.57.33-.45.53.24.62.55.47.45.53.24.63-.14.63.02.66-.28.58.29.59-.41.01-.03-.7.12-.65-.03-.65-.2-.65-.28-.22-.55.41-.75.15-.33.6-.6.25-.77-.12-.8.06.02.58.63.36.7.27.31.56-.03.67-.22.58-.6.4-.04.66-.22.64-.56.35-.43-.47-.27-.62-.49-.51-.73-.19-.71.24-.49.07-.41-.46-.76.19-.64.36-.72.22-.62.38-.32.59.05.66.13.65.14.67-.43.51-.37-.51.09-.65-.08-.66-.01-.65-.03-.31-.04-.34 0-.65.27-.62.04-.65.11-.65-.2-.64-.16-.63.1-.66.21-.63.29-.61.53-.47.49-.5.31-.6.31-.6.39-.57.29-.61.03-.67-.59-.34-.62-.38-.01-.66.12-.64-.19-.64-.07-.65-.16-.64-.25-.63-.54-.47.02-.65.2-.64-.03-.67-.51-.08-.57.54-.61-.23-.16-.65-.34-.59-.44-.54-.36-.6.65-.23.42-.53.72-.18-.07-.58-.51-.55.41-.21.68-.27.43-.54.56-.45.65-.35.76-.15.49-.4.14-.66.1-.66.32-.59.15-.64-.37-.5-.66.39-.65.28-.78-.01-.6-.4.02-.65-.08-.66-.17-.5-.61.43-.6.41-.55-.36-.02-.66.44-.53.57-.43.25-.64.47-.43.65-.35.72-.18.63-.34.26-.62.05-.66.06-.65-.13-.65-.35-.59-.21-.65.55-.34.77-.11.39-.51-.56-.46-.06-.65.4-.56.46-.53.22-.62.33-.61.73-.04.59.43.37.54.02.67.16.64.38.58.64.35.75.12.72-.22.52-.48.71-.29.3-.52.07-.66.17-.64.01-.65.7-.28.62-.37.65.29.72.14.5-.48.57-.44.76-.1.73-.17.55-.46.39-.57.14-.64 0-.68.62-.2.34.61.27.61.7.14.46-.49.54-.46.45-.53.38-.57.44-.55-.23-.5-.8-.01-.75-.06-.78-.12-.35-.54-.02-7.35-.01-8.61 0-2.35.06-19.49.56-.26 13.76-2.61 12.11-2.34 19.96-3.76 10-1.83 10.88-2.25-.11-.76-.59-1.61 3.66-2.87 2.6-1.8 3.44-2.5 6.53-4 7.12-7.08-11.31 1.46-.38 2.72-1.44.32-1.09-2.32-2.43-4.19-4.81-8.7-4.16-10.65-.36-6.43 1.65-13.3 11.26-13.76-6.44 2.55-5.77 2.26-4.07 2.27-2.7 1.23-3.91 3.22-7.09-.55-8.11-2.84-9.29-2.75-4.41-.57-5.11.75-3.87 2.53-8.06 2.88-3.1-1.94-2.01-2.49 1.74-2.62 3.18-3.17 5.47-4.26-2.88-1.1-5.02.75-6.85.58-13.08-.86.37-3.74.78-2.94-1.13-2.92-3.13-.43-2.46.43-1.73.31-2.41.42-.73-1.23 1.66-2.86-.44-5.57-1.72-4.8-.49-.85-2.71-4.76-2.32-3.7-5.59-4.21-4.37-3.56-1.22-2.11-1.49-2.58-1.12-4.63 3.06-4.36-3.99-1.89-2.5-1.26-.55-.27-3.66-2.28-2.7-1.68-2.47-4.72-6.47 1.29-2.61-1.29-4.84-2.38-11.49 3.59-6.96-2.08-2.41-4.1-1.74-2.96-3.79-5.1-3.17-4.29-3.23-2.94-3.15-2.87-7.68-5.94-5.54-3.87-2.07-.89-7.51-4.28-3.76-4.1 1.58-2.47-7.53-2.08-5.6-.13-10.58 2.7-5.45-.14-9.34-1.93-9.12-3.24-.52-2.42.64-1.15 2.29-4.2-1.86-6.58-1.33-2.88-5.5-4.82-2.14-4.08-1.02-4.12-1.21 1.88-1.71 1.71-2.88.26-4.8-.8-4.26-.21-4.95-.1-5.05.1-.86-.14-1.77-.29-3.38 1.55-1.54 1.02-.7.83-.88.75-1.2 1.86-1.88.89-.94 1.15-.83 1.01-.91.62.52 1.68.36 1.01.25.69.38 1.07.43 1.18.48 1.35-.65.39-1.32.78-.88.52-1.42.85-.95.56-.64.38-5.64 2.29-.89 4.54-1.46 1.43-2.57.4-1.8.28-3.51-1.77-3.03 2.35-1.68 1.44-1.74 1.41-.8.55-.22.15-2.6 1.38-.41.24.28.97.43.81.15.32-2.15.37-.86.48-1.09.82-1.11.59-1.05.47-.31.81-.44.7-.35.75-.42.79-.48.56-.53.24-.57.55-.49.46-.31.46.08.49.4.42.54.48.59.14.43.4-.89.52-1.09.83-.82 1.39-.08.13-.19 2.19.37 1.21.44 1.93-.11 2.15-.16 2.02-1.07 1.2-.03 2.11.64 1.02.48 2.09.23 1.19-.01.93-.55 1.57-.64 2.75-.54 1.67.25 2.06-.9.47-3.03 1.99.89 1.44.28 1.14.02 2.09-.79 1.75-.7 1.29-.61 2.3-.25 1.84-.24 2.31-.25.01-2.11-.41-1.65-.26-1.56-.24-1.44-.61-1.11 1.54 1.79 2.71-.38 2.62-1.09 1.95-1.23.8-3.07.76-.55.14-1.91.47-3.12.44-1.99.09-9.81.01.32.7.98 2.16-1.37 2.59 1.89 4.83-.21 1.84-.01.14-.11 1.82-1.17.92 3.07.88 2.61.58.73.16.62.17.52.14 2.22.59-.79 1.21-.67 1.51-4.22 4.45.19 1.29.56.79.51 1.28.21 1.33 1.07.91 1.61 1.36 2.52 1.64 1.2.55.82.48.62.83.73 2.14.04 1.29-1.77.51-8.31-1.95-4.62-1.99-4.23-.28-3.92 3.02-8.38.9-6.4.33-1.71 2.49-4.88 3.55-4.67 5.24-7.91 2.41-1.15.38-3.75-.3-2.93-.49-.46.78-.92.69-.95.87-1.01 1.68-.67 1.57.26 1.86-1.4 3.87-1.12 5.5-.98 7.44 10.15 3.21 3.78 4.05.67 1.76-3.08 4.38-1.06 1.21-.03.56-.05 1.17-.15 2.41 1.32 1.76-6.21 2.97-6.35 1.17-4.28 1.79-.65.64-1.11 1.84-2.04 3.17-1.23 2.6-2.39 3.16-2.26 1.81-3.63 1.6-2.5 1.62-2.15.64-4.79 1.73-9.42 2.19-.73.17-2.54 1.03-4.26 1.72-7.59 2.81-8.22 3.4-8.55 2.64-6.87 2.76-6.59 1.94-4.4 2.01-.8.74-.15.14-.3.28-.13.12-.24.22-1.25 1.55-.22.32-.77 1.11-.42.6-1.08.25-3.06-.45-.92-1.09-.5 1.98-1.84 1.23-2.34.58-3.6 1.43-3.75 1.85-1.42.7-11.34 7.56-4.76-.03-6.33-1.28-.38 8.33-.94 3.63-.63 3.32-.94 2.93-2.33 1.45-1.76-.02-2.48.52-4.38.13-3.79.26-18.66-.27-7.95-1-.91.07-2.9.23-2.13 1.68-2.75-5.01-1.38-2.84-.78-.5-.98.62-1.2 1.6-1.34 1.03-3.61.57-3.19.31-2.12-.55-1.09.01-.76.29-1.93-2.33-.72-2.61-.7-1.93-.52-1.31-.82-1.9-.58.2-.81.91-1.56.75-.72-.68-1.03-1.28-1.37.57-3.4 1.57-.67.31-3.48 3.45.87 2.93-3.09 4.21-8.59 5-1.18.58-1.33.66-1.34.65-1.48.73-1.26.62-.92.45-1.06.13-.82.34-1.08.33-1.51.39-1.2.26-1.67.06-2.37-.36-4-.45-.04 1.15-1.81 1.15-2.77.75-.94.18-.64.08-.63.09-.99 1.06-.85.78-1.58 1.36-2.25.15-11.65.77-.11.59-.21.61 0 .64-.21.72-.42.93-.52.64-.31.74-.42.63-.25.38-.38.17-.57.18-.66.27-2.6 1.04-4.1 1.22-2.02 2.18-2.63.66-2.97 1.84-.56 3.07-1.93 2.03-3.2-.54-.15.16-1.22.56-.62.49-.37.81-.38.74-.23.91-.38 1.1z" /></g></g></svg>