<?xml version="1.0" encoding="utf-8"?><svg xmlns="http://www.w3.org/2000/svg" version="1.1" baseProfile="tiny" width="800" height="600" viewBox="0 0 800 600"><g><g stroke="#000000" stroke-width=".98" fill="#FFFFFF"><path d="m15.07 207.35l2.52 2.88 4.93 7.11 5.75 3.77 5.07 1.08.3.56.48.89 1.05 1.45 1.68 2.63-2.97 1.04-.82 1.73 1.38 1.66 1.83 1.35 1.14 1.91 1.61.85 3.65 2.59 2.17 4.21 3.91 4.78-.43.33-.28.66-.44.35 1.07.8-1.61 1.51-.98 1.08-1.33-.44-1.53.23.07 1.79.02 1-1.09.35.12.49-.51.56-.18.45-.2.46.02.64-.04.36-.15.26.2.31.53.88.19.93-2.98.05-1.65.32-.82.32-.45.38.74 1.19-.38.52-.77.8-.92 1.14-.38.68.6 1.38.71.98 1.12.77 1.23 1.2.84.63 1.08-.64.2.48.26.47.38.37 1.95-.15 1.95.73 3.67 3.44-.57 1.51-.78 2.06-1.26 2.26 2.62.68 2.48.96 2.45 1.03 1.58 1.52 1.39 1.87 2.06 1.47-.56 2.04-.95 2.12-3.06 4.29-.83 5.54-1.6 6.49-5.54 3.89-5.74 6.19 2.02 3.9-3.65 10.63-3.24 1.18 4.7 8.76 1.46 4.68-.77 4.72.96 5.42-9 4.15.02.18-.4.65-.19.56-.43.25-.18-.01-.3-.2-.37.06-.49.22-.08.43.17.24.25.21.22.08.29-.14.45-.11.42.04.16.07.32.2-.13.19-.24.26.16.15.46.05.24.44.08.41.61.34 1.04.49.57.18.42.17.36.26.12.1.62-.47.29-.09.59.06.5-.51.24-.01.13.16.04.37.14.09.71-.1.2.04-.1.52.62.28-.13.31-.44.35-.08.42.3.2 1.06.46.26.78-.62.52-.42.72.56.69.22.99 2.49 1.35.66.81-.86 1.23.85.73 1.02.78 1.05 1.04 2.04.66-.07.97 1.75 2.02 2.86-1.19 2.25 1.39 1.31.99 11.34 4.17 1.34.25.69.19 1.26.11.71.01 1.13.48 1.28-.58-.61.79 1.38.39.97-.3.99.35 2.33.76 1.52.12.95-.96.93 1.57 1.24.39.85-1.1 1.67 1.11.72-.28.37-.79 1.59-.61 1.22 1.61 2.21-.02.68-1.21.54.27.73 1.57 1.44 1.26-.62 1.56 1.55.83 1.55.33 2.09.44.24 1.42 1.54.68 1.19 1 .55.4-.47.65-.63.86 1.4.48 2.18.12 1.15.54 1.68 2.69-.45 1.21.87 1.22 2.63-1.45-.44 2.15.25 1.67 1.57.26.23 1.49-3.17 12.11 5.97 5.53.85 10.56 4.22 3.24 3.09 2.37.93.71 1.64 1.25 1.71.48 3.03.85 1.95.54.92.26 7.27.47 5.83.42 6.81-1.79 11.34-4.07 2.21.37 1.69 1.45.59 1.83-1.03 8.24-3.92 8.28-5.08 2.36-2.88 1.33 2.69 12.44 7.39 1.33.24 4.8.41 1.9-4.73 2.99.12 1.75 2.73 1.58 3.45 1.99 2.27 1.3 5.58 6.63 2.68 4.38-1.93 4.98-1.36 2.27-1.69 2.82-1.52 2.53-1.54 2.56-.49 1.08.47.1 3.14-1.4 1.48-.86.65-.37 4.11-2.2.35-.24 1.27-.86 2.75-2.24 2.66-2.28 4.81-3.71 5.55 2.79 2.85-.44 4.07-.64 2.32-2.25 1.4-7.19 8.93-3.63 1.02-.6 1.5-.89 2.25-1.34 1.4-.83 2.08-1.24 1.04-.61-.77-2.13-.67-1.88-.61-1.7-.39-1.09-.57-1.59-.83-2.66 1.45-.98 1.31-1.6 1.49-1.82 2.97-1.42 1.9-2.94 1.4-1.19 1.1-1.31 2.45-1.61 5.35-2.46 2.8.46 1.36.22 8-.15 7.83.14 6.76.35 7.59 1.25 4.56-.4 2.71-2.71 1.91-2.98 1.63 6.53 3.38 6.46 8.71 7.63 2.1 4.55 2.94 10.43-3.62 6.64-1 1.84.81 3.83 14.44 5.13 14.8 3.05 8.63.22 16.75-4.28 8.86.21 11.93 3.29-2.51 3.91 5.97 6.5 11.88 6.78 3.28 1.4 8.77 6.13 12.16 9.41 5 4.55 5.1 4.65 5.03 6.8 6 8.07 2.75 4.68 3.82 6.5 11.03 3.28 18.18-5.67 7.67 3.77 4.13 2.03 10.24-2.03.84-2.87-.26-5.47 3.48-4.85 6.16-7.46 8.02-7.75 9.34-11.49 11.11-15.69 9.76-11 8.12-7.54 12.65-7.7 5.79-5.71 3.73-8.17 7.79-12.27 8.53-7.86 8.44-5.39 3.47-4.18 2.53-1.08 1.99-.71 2.68-1.81 2.08.09 2.04 2.71 2.92 1.02 2.19.29 1.95.77 4.56 1.13 6.93 2.49 13.39 4.89 24.49-.8 27.55-4.57 23.13-4.27 29.87-5.13 12.95-4.84 9.54-5.13 8.91-6.33 2.06-5.84-1.74-4.36-4.92-5.94-2.74-4.17-5.68-5.25-6.03-6.47-4.74-4.25-10.74-6.57-1.45-1.27-6.02-5.25-13.14-9.64-17.54-14.25-2.11-1.72-3.17-2.57-3-2.44-2.2-1.78-3.1-2.52-2.51-2.04-1.61-1.3 1.31-1.18 1.84-1.65 1.67-.68 2.76-1.13.15-2.95.1-1.95 1.68-1.1 1.75-1.89 3.6-.79 2.38-.53 3.99-5.37 5.8-3.07 3.8-3.4 4.48-4.44-.76-6.89 8.35-7.75 6.58-3.26 1.83-.9 6.72-6.48-3.28-8.77-12.69.98-8.35-.64-6.81-.1-9.71 1.12-6.39-.5-4.92-.41-10.85-3.1-6.56-.54-7.46-2.35-8.51-6.55-4.02-5.16-10.52-4.02-2.38-3.78-9.53-3.86-6.92-7.3-5.97-.97-4.1 3.82-2.61 6.91-4.08 5.12-4.57 4.83-2.87 4.26-6.41 6.6-3.86 4.97-6.18 7.03-10.93 3.31-4.74 6.84-6.46 6.13-17.09 5.39-14.06 16.36 8.97 6.03 3.54-.18 3.72 3.41-2.31 2.25-1.72 1.9-2.57 2.34-1.41 1.43-1.33 1.84-.89 1.15-.93.95-1.46.54-1.02-2.98.43-1.9-.2-1.98-.3-1.63-3.15-3.44-3.78-3.88-3.72-.04-2.65 5.33-8.02 1.15-1.05 4.52-3.21 3.5-3.72.37-5.76.02-6.86-2.77-5.37 1.8-7.03-2.41-4.92-4.59-3.86-2.88-4.5-1.6-.24-3.81 2.55-2.74 2.06-4.31 1.97-5.26-.1-3.91-5.87.12-1.23-2.13-1.74-.63-.89-3.74 9.12.04 1.97-2.94-6-1.9 19.4-7.81 4.79-1.81 2.47-.47 2.75.32 3.98-2.09 3.77-1.58-.17-1.85-.49-1.73-.98-3.2-.7-2.22-.13-1.73.52-.77.22-.41-1.7-.19-.82-.18 1.04-1.79 2.19-2.89 2.17-2.61 1.11-.84.64-.5.45-.49.69-.54.49-.32.69-.44.64-.58.55-.28.73-.52.33-.29.7-.71.51-.85.4-.84.71-1.25.86-1.34.7-1.31.52-1.27 1.28-2.82.64-1.42.62-1.89.42-1.41.03-1.27-.91-1.96-.11-1.79-1-2.02-.46-.55 1.24-1.24.78-2.89.37-1.7.62-2.2.13-1.14.47-1.93.91-2.41.37-.94.14 0 1.63-.03.75-.61.62-1.21.78-.85 1.8.44 1.01-.73-.13-1.35 1.9-.79 2.11-.52 2.12-1.14 2.13-1.45 2.57-.75-1.75-.97-1.18-1.03-2.49-1.7-1.72-.28.09-.34-.19-1.29.46-2.08.93-1.41.38-1.29 1.18-1.69.26-2.03.73-2.59.17-2.47-.17-2.84.13-2.3.46-1.61.71-1.94.58-.48-2.02-2.47 1.63-2.28.19-2.51-.07-1.76.84-2.84.92-2.02.19-3.13.78-3.02.77-2.01.6-1.76-3.25-.91-2.91.65-3.52-1.55-3.83-.84-2.63-.76-1.35.16-3.19-.69 1.07-1.05 1.23.05.67.45.93-.51.66-.55-1.28-.88-1.07-.93-.46-.7.45-.83.83-.68.2-.79-.4-1.28-.24-.67-.79-.51-1.82.13-1.24-.13-1 .06-1.02-.24-.57-1.03-.4-1.04-.57-1.17.56-.13.69-.41.25-.93-.24-1.33-.65-1.26-.57-1.31-.52-1.21-.25-.77.88-.36.49-.77 1.5-.2 1.82-.11 1.11.07.74.45 1.12.76.97-.23.9-.57.89.03 1.92.06 1.77-.59 1.65-1.26 1.65-1.28 1.16-1.44.8-1.6.91-1.38 1.14-1.05-1.14-.57-1.32-.74-.08-.8-.08-2.57.31-.9.72-1.06.02-1.24-.75-.74-1.55 1.37-1.79-.69-.89-.6.69-1.12.64-.95.71-.62 1.66-.64-.2-.95.71-.76 1.24-.85-1.56-.27-.53-1.21.16-1.26.97-.76 1.67-.81.31-.62-2.09.18-1.35-.16-2.06.42 1.55-2.76 1.29-2.9.93-1.83-1.11-.71-1.39-.75.88-1.08 1.01-1.49 3.29-.99 3.21-1.37 2.81-1.37 1.46-.39 1.6-.81-.12-.99 1.03-.32 1.88-1.91.86-.86.6-.93.83-1.01 1.12-2.89 1.07-1.66.84-2.56.58-1.03 1.23-.16.91-.56.26-.64-.48-.46-.36-.55.35-.51 1.13-.8 1.12-.62-.47-.29-.74-.52-.45-.54-.26-.35-.53-.2-.32-.72-.29-.44.09-.76-.3-.27-.49-.74-.51-.7-.4-.38-.42-.18-.53-.42-.41-.78.28-.72.41-.71.55-.89.7-.7.7-.5.19-.54-.69-1.29-1.31-1.45-1.08-1.98-.57-1.21-.24-1.01-.07-.6.49-.62.63.08 1.71.91 2.63.26 2.41-.69 2.27-1.57.21-.3-.01-1.21.24-.75 1.14-1.01 1.2-.28 1.29.37.34.88.26 1.25 1.65.62 1.86.61 2.42.27 3.24-.01 2.82-.02 4.14-.87 2.06-.82 1.2-.53-.38-6.53 2.09-3.94.27-.23 4.72-3.94 6.08-2.94-5.46-5.45-1.85-4.78 2.28-4.07 3.35-5.77 1.29-2.55.26-4.96-.28-5.7-3-3.44-5.72-1.19-5.52.24-5.23.37-6.91-.52-6.39.32-8.3.96-2.93-4.85.98-5.05-2.67-1.53-5.72 1.42-6.18-.85-1-.63-.65 1.34-1.76 3.65-5.35 1.3-5.93 1.44-6.34 1.5-1.65.39-2.45-.39-1.5.03-.76.43-.48.59-.46.1-.74.25.24.69.01.57-1.55-.11-.49.68-1.48-.29-1.04.49-.68.2-.72.21-1.74.35-2.1.43-1.47.3-7.41 1.49-2.26.12-1.18.71-1.18-.03-1.54-.47-.88.13-.42.06-1.33-.31-.12.33-.48.85-1.93 2.31-3.8 3.75-5.54 4.05-2.03 1.79-2.85 2.9-4.59 1.89-6.77 3.3-2.94-3.58-4.07 1.69-10.63-4.09-2.15-2.09-1.03-.99-2.84-4.14-3.34-2.96-3.33 3.3-7.01 4.63-4.2 3.64 2.78 2.66-.97 3.16-3.86 1.91-.69 2.36-2.21 1.41-2.09.76-2.8.81-3.04-.35-4.52 1.01-2.31.76-4.69-.76-4.42-.57-1.24 4.92-2.63 2.08-1.5 3.03.74 1.01-1.51-.51-.91-.26-1.16-.59-2.41-1.05-2.57-1.11-6.57-2.72-3.34-2.3-3.38.96-5.68-1.11-8.31 4.9-1.24-4.34-2.77-4.02-6.36-1.54-3.77-.68-8.06.16-1.76 1.09-.11.06-5.26-.03-1.88-.02-1.09-.01-1.13 0-.94-.01-.97-.01-1.9-.01-1.68-.01-.83-.48-.66-.39-1.11-.64-1.14-.66-.72-.42-.98-.57-.04-.43-.83-.2-1.54-.23-1.09-.66-1.47-.93-1.31-.88-1.02-.61-.55-.52-.78-.44-.31-1.24-.26-1.1-.18-.73-.65-1.12-.35-.61-.59-1.01.33-2.29-.35-5.08-1.19-5.72.41-4.96-4.23 2.01-5.95 1.3-8.52 1.22-1.43-.01-1.63-.1-2.58-1.98-1.48.61-4.53 1.89-2.03 1.58-1.3.78-2.63.61-1.04.45-4.01.68-6.34 3.48-.6 1.02-.96.08-.34-.83-1.19-.11-2.16.09-2.19-.02-1.17.02-.86.01-1.35.43-.12-.5.38-.33.41-.77-.45-.73-1.1-.05-1.09.49-14.19 4.25-.98 2.01-1.64-1.34-5.65.91-3.23 2.29-5.24.55-2.2 1.26-3.12 2.67-4.01 2.84-1.06 4.91.05 1.82.81 1-.96.71.6 1.57.65 1.98-.62.9-.53.78-.38 2.52-.51 1.71.64 1.15 1.02 1.5.02 2.75-.03 4.61.42 4.27-.38 1.91-2.31 1.77-1.33.69 1.75.4 1.75.5.53.09-.84 2.4-.3.5-2.17 3.24-1.1 2.91-2.46.02-13.25.6-.29.46-1.35 1.39-.56 1.73.71 1.44 1.02.62 1.09.43-.86.38-5.49 4.19-8.86-.29-.78.59-1.39.98-2.06 1.63-1.75 2.08-1.09 1.81-.56 1.13.96.14 1.83.38-.33.91-2.09 1.21-.37 1.81 1.05.94-.09.67-.68 1.25-1.09 1.29-1.46.93-.97.92-.89.72-1.35.49-1.48.26-.58-.27-.91-.66-.55.37-1.09 1.19-.75 1.42-.75.91-1.09 3.32-6.01 3.01-9.92 1.97-2.05 1.76-1.68 1.22-2.32.89-1.27.65-1.75.92-1.26.58-1.08.3-.56-.08-.09-.59-.66.04-.46.21-.85-1.33-1.39-.39-1.11-.08-1.57.24-.8.5-.44 1.24-.51 1.7-.05.45 1.45-.74 1.77.02.4.13.09.35-.07.61-.22.12-.14.17.4.27.13.17-.02.11.24.29.84.03 1.49.9.36.72.99.34 1.25.63 1.27.57.25.6-.07.35-.25.17-1.89.47-.39.37-.58.88-.11 1.27.01.48.02.65.13.24.29.21.45.5.28.41.65.25.78.15.55.22.2.19.11.39.12.12.23.09.36-.01.26-.06.19-.18.1-.19-.14-.24-.4-.59.02-.49.13-.52.15-.33.83-.53.49-.16.48.22.47.55.52.38.83 1.47.4.54.18.02.41-.18.23-.19.27-.36.03-.35.15-.27.26-.15.44-.1.36.16.21.43.27.43.11.43-.13.48.4.48 2.17.96.91.69.91.5.26.32-.07.25-.36.23-.53.04-.15.25.06.22.19.56.09.4.18.15.14-.11.31-.29.62.38.11.88.13.95.39.71.01.81.51.05.3.05.32.56.11.52.17.12.24.28.15.34-.15.41.66.88.07.7-.1.76.84.61 1.05.66.42.91-.05.84-.42.49-.94-.2-.84-.36-.8 2.14-.89 2.18-3.79-.32-3.38 2.2-2.51 3.65 1.02 2.15 1.46 3.2 5.42 1.75-3.44 5.02-1.99-.01-1.22 2.33-.03 2.23-1.59-.7-2.12-.95-1.94-.87-.57.28-1.25.6-1.44.69-2.34-.74-2.35-.8-.79-.54-1.73-.18-.74 3.16-.06 2.7-1.95 2.06-4.19 2.21-6.09 3.3-1.9.18-1.33-.07-1.98-1.85-.59-1.44-1.75-.67-4.03.23-3.88-.96-1.65 1.59-.87-.02-8.35.25-5.29-.62-.52-6.18 1.35-7.5-1.68.07-5.82 2.87-3.52.86-1.9-.12.11-1.91-1.88-.23-1.11.22-.29 1.06-1.1.04-.49-.93-6.07-11.49-.46 5.26-8.85.53 1.3 4.32 2.59 3.63-6.98 2.53-3.75 1.37-6.16 5.78-.11 2.74-.73 1.66z" /></g></g></svg>