<?xml version="1.0" encoding="utf-8"?><svg xmlns="http://www.w3.org/2000/svg" version="1.1" baseProfile="tiny" width="800" height="600" viewBox="0 0 800 600"><g><g stroke="#000000" stroke-width=".98" fill="#FFFFFF"><path d="m5 413.83l.01.05.18.29.08.18.09.12.12.08.11.04.13.04.17.03.2 0 .13.02.04.03.01.01.01.07.02.01.02 0 .01-.02.01-.04.02-.01.03-.01.11.05.09.04.03.03.01.03.01.01.02-.01.08 0 .04.01.08.06.09.11.05.05.03.01.04 0 .07-.01.03-.02.03 0 .02 0 .03-.01.02 0 .03 0 .07-.01.01 0 .05.02.06.04.03.03.01.03.01.07.01.01.02.01.03-.01.03-.03.02 0 .04 0 .07.02.03.02.04.02.01.01 0 .04.01.02.02.01.02-.01.05-.02.08-.03.03-.02.02-.03.01-.01.05 0 .03.01.02.02.04 0 .03 0 .02-.02.02-.03.04-.01.08-.01.03.01.05.02.02 0 .01 0 .04-.04.03-.01.04.01.04.01.01.01 0 .01.01.03.01.01.02.01.07-.01.05 0 .1.02.01 0 .03 0 .04 0 .03 0 .02.01.03 0 .04 0 .02-.01.03.01.02 0 .01.02 0 .02.01.01.04.01.01-.01.02-.02.01 0 .03 0 .01.01.01.01 0 .01.01.01.04 0 .02 0 .01 0 .02 0 .02 0 .03.01.03.01.04 0 .03 0 .07 0 .05.01.03-.01.02-.01.02-.03.02-.02.02-.01.05.01.04.01.05.02.02-.01.02-.02 0-.05.02-.04.04-.02.05 0 .08.03.08.03.04.01 0 0 .01.01.01 0 .01-.01.03-.02.09-.02.1 0 .22.09.12.06.07.05.02.01.01.01.01 0 .07-.04.04-.01.05.02.12.05.03.01.02-.01.03-.02.03-.02.04-.01.06 0 .03-.01.02-.04.05-.02.16-.01.18.05.25.14.17.1.59.54.2.21.18.17.17.15.17.17.14.21.35.53.27.3.35.8.09.12.14.19.24.24.14.27.29.26.08.09.03.09-.01.06-.02.04 0 .05.03.03.05 0 .03-.03.03 0 .06.03.09.12.09.17.1.36.01.05-.01.05-.01.06-.06.03-.1-.01-.03.02-.01.04.02.07.04.01.04-.02.04-.02.02-.02.05.01.06.06.02.09.03.18.03.48.11.48.19.65.06.26.07.12.14.13.1.16.08.32.08.41.04.39.04.58.07.71.22 2.02-.03.62-.05.36 0 .27 0 .08-.03.41-.05.23-.02.06-.05.04 0 .05.02.04.13.14.04.01.06.02.03.01 0 .02-.04.05 0 .02.07.08.36.18.14.07.09.09.03.05.03.06.04.09-.05.13-.08.39-.02.89-.03 1.08-.07.91-.1 2.28-.07.52-.19.85-.05.25-.06.54-.09 1.46-.08.35-.04.04-.06.01-.36.02-.01.02 0 .01.16.13.01.04-.04.04-.02.03.03.05.07.11.02 0 .05.02.01.01.01.06-.01.05.11.14.01 0 .03.01.02.02.02.12.18.21.03.06 0 .06-.15.44-.54 1.72-.27.84-.47 1.53-.55 1.05-.21.45-.28.69-.29.56-.03.06-.25.67-.21.35-.29.5-.32.56-.17.31-.27.41-.17.3-.05.2-.07.44-.09.23-.07.19-.09.15-.15.1-.08.07-.04.03-.02.03-.01.03.05.05 0 .04-.18.33 0 .05-.05.02-.07-.01-.15.05-.01.03.04.04-.02.05-.16.16-.01.23.03.15 0 .2-.06.21-.06.22-.06.12-.11.09-.16.22-.12.34-.16.59-.02.1-.06.05-.04.03-.03.02 0 .03.04.04.05.05.04.03.02.02.01.03.01.01.01.03.02.02.02.02.02.03.04.05.08.1.08.17.03.09 0 .07-.03.02-.02.02-.01.02.02.03.05.01.04 0 .02.02.05.2.02.08.01.03.01.04.02.04.07.05.12.09.06.09.21.55 0 .1-.02.1-.05.18-.05.14-.03.05-.04.04-.03.02-.02.01-.01.02 0 .03.01.02 0 .02-.1.06-.02.03-.01.01.02.02.06.03.03.02.01.01 0 .05-.03.15-.04.09-.04.06-.04.09-.08.1-.05.04-.05.04-.03.07 0 .03-.02.04-.05.03-.03.02-.03.03-.08.11-.17.24-.03.11 0 .14.04.08.05.06.13.11.03.02.04.05.03.07.02.12-.01.12 0 .04-.02.03-.05.02-.24.03-.23.03-.09.05-.06.06-.02.07-.01.08.06.06 0 .04-.01.01-.03.03-.08.06-.05.06-.05.07-.03.06-.01.06.01.04 0 .07-.03.03-.03.01-.05 0-.07-.01-.03.01-.04.02-.01.02 0 .02.04.02.02.02-.01.02-.02.02-.04 0-.04.01-.04.02-.01.01.01.01.05.04.06.11.1.17.12.2.05.16-.01.15.03.12.01.13-.01.04-.02.02.01.03.01.01.02 0 .07 0 .04.02.06.06.02.04.02.03.02.03 0 .02-.03.08-.04.07-.03.02-.06-.02-.01.01-.01 0 .01.01 0 .01.03.01.02.03-.01.01-.01.02-.01.01-.04.01 0 .01 0 .01.05.03.04.02 0 .02 0 .02-.01.04-.01.05-.02.06-.04.04-.01.01-.01.02.02.04-.02.04-.01.02-.01 0-.03.01-.06-.02-.01 0-.01 0 0 .02-.01.01-.03.03-.01.02.01.01.02.02.07.03.01.03 0 .02-.05.04-.05.02-.01.03.01.02.14.03.03.01.02.04-.02.13-.03.22.05.39.08.24.07.14.04.08.1.07.12.04.17.01.1-.02.16 0 .19.01.07.06.21.31.07.28.04.26.01.49.01.85 0 .15-.01.05-.02.02-.09.01-.04.05-.01.17-.07.26-.11.33-.31.78-.32.67-.16.44-.09.19-.15.24-.27.47-.19.48-.11.27-.15.24-.11.17-.13.21-.15.21-.16.23-.22.26-.04.05-.02.04-.06.07-.09.05-.07 0-.04-.02-.03-.02-.06-.01-.04 0-.05.02-.02.01-.02.03-.01.01-.02.01-.03-.01-.03 0-.04 0 0 .02.01.01.11.05.02.04 0 .02-.01.02-.04.03-.03.03-.03.01-.06.04-.06 0-.02 0-.02-.02-.02-.05-.03-.05-.01 0-.01 0-.02.02-.03 0-.02 0 0 .01-.01.01.01.01.04.01.03.03.01.02.01 0-.01.01 0 0-.03-.01-.03 0-.03.02-.02.03-.03.02-.03 0-.05.01-.02.01-.01 0 0 .01.05.03.04 0 .03 0 .03-.02.02-.02.02-.01.03 0 .03.01.05.06.01.03 0 .04-.04.02-.04.01-.03 0-.02-.01-.01 0 0 .01.01.01.02.01.08.02.04.02.02.03.01.04-.01.01-.02.02-.02.01-.03 0-.02 0-.02.02-.02.02-.03.02-.02 0-.04-.02-.01-.01-.02 0-.02 0-.01.01-.02.02-.02.01-.06.01-.06.01-.01-.01-.03 0-.02 0-.01.01-.01.03-.01.01-.01 0-.04 0-.03 0-.01.01-.02.02-.01.02 0 .01.01.01.03.01.05.01.05 0 .14 0 .03.01.05.01.05.02.05.04.02.05.06.07.05.08 0 .19-.03.12-.01.07-.02.09-.06.18-.17.14-.03.06 0 .04.11.08-.04.51-.07.34-.06.18-.18.26-.17.11-.06.04-.03.05-.04.12-.07.16-.09.15-.21.3-.24.24-.21.22-.06.11-.07.26-.06.1-.04.06-.04.06-.03.1 0 .11-.07.24-.13.21-.22.74-.06 1.58.16.92.21.43.44.55.22.46.18.56.06.35-.05.4-.12.45-.14.32-.09.14-.14.1-.06 0-.15-.09-.05-.01-.04.03-.03.14.03.19.11.13.02.07 0 .02-.06.04-.01.02 0 .01.05.03.07.01-.1.04-.07.02-.07.06-.02.09 0 .03-.11.08-.13.06-.1.06-.1.14-.13.22-.11.21-.05.24-.08.14-.03.1 0 .03.04.06.02.04-.03.04-.04.03-.03.05-.02.11.07.14.13.16.04.21-.04.05-.19.09-.03.05.02.05.12.07.03.03-.01.06-.07.09-.15.1-.02.04.02.04.04.03.01.03-.03.04-.08.11 0 .09-.01.22-.01.08.02.02.02.01.12.01.03.02.13.14 0 .03-.06.05-.28.05-.05.04.01.05.31.24.04.09-.02.03-.03 0-.15-.08-.08.01-.04 0-.01.01.01.01.03 0 .11.04.07.09.23.28.13.18.03.02.01.02 0 .02-.02.04 0 .01.01.01.04 0 .04-.03.05-.05.04-.05.08.01.1.07.07.02.18-.03.14-.01.12.03.27.01.28.03.21.01.28.05.17.01.11.04.1.05.09.05.04.03 0 0 0 .01 0 .01 0 0 0 .01-.01.01-.05 0-.01.01 0 .01.01 0 .02-.01.03-.01.02-.01.02-.01.01-.01.01-.01.01 0 .02.01.03.02 0 .01 0 .02.01 0 .03-.01.06-.01.02 0 .04.04.01.02.07-.01.11.01.05.02.15.06.07.03.03.03 0 .08.01.03.02.03.01.02 0 .02.02.01.02-.01 0-.01.01-.01.02 0 .1.05.07.03.09.05.04.06.06.02.07.02.01.01 0 .02.02.02.05 0 .05.01.04.02.05.03.06.01.06-.02.06.01.07.01.06.02.06.01.03.01.05.02.03.01.07.02.04.01.1.05.16.12.2.21.23.27.26.42.11.26.03.06.08.19.08.2.28.58.06.44.03.32.04.47.02.59-.02.35-.05.32-.06.64-.15.82-.17.56-.18.55-.17.66-.14.32-.07.18-.05.18-.05.06-.07.02-.06-.03-.02.01-.01.01 0 .03.01.03 0 .05-.03.02-.12.07-.04.05-.09.12-.05.1-.04.09-.07.1-.05.07-.08.08-.12.09-.07.1-.06.14-.06.2.03.17.09.23.14.16.04.04.09.07.17.03.1.04.22.11.43.21.42.34.17.14.05.05.04.06 0 .1.01.08.04.07.08.06.06.09.02.13-.03.03-.06.04-.06-.01-.19-.04-.03-.01-.01.01-.01.02 0 .01.11.08.05.09.05.09.01.03-.02.03-.04.03-.01.04.02.07.11.16.1.19.14.2.01.06-.01.07.02.08.06.09-.01.03-.01.02-.02.06 0 .03.03.06.04.07.04.09.01.06-.02.06-.05.09-.1.16-.04.01-.08-.02-.02.01-.01.02 0 .03.03.18.05.14-.03.18-.04.21 0 .08-.03.09-.03.03-.02.04 0 .03.12.11.01.05 0 .06-.03.08.01.02.1.15 0 .01-.03.11-.04.05-.02.02-.1.03-.07.02-.04.01-.04-.01-.06-.01-.01.01-.01.01 0 .03.01.01.13.03.04.02.11.14-.01.07.02.06.06.1.15.08.1.11.14.36.02.13-.05.09-.06.06-.02.05.02.31-.02.3-.05.15-.16.45-.09.74.02.15.1.18.14.26.05.06.09.04.13.13.03.11-.05.11.02.18.31.46.33.31.03.09-.07.47.07.37.17.26.36.18.42.53.18.47-.06.62-.12.83-.18.66-.35 1.18-.49 1-.13.28-.46.71-.31.6-.04.1-.03.1-.18.11-.09.07-.09.08-.12.03-.02.02 0 .03.05.02.01.02.01.05-.05.15-.06.18-.01.01-.01 0-.12.01-.02.01-.01.02-.02.19.01.11-.01.04-.08.07-.17.09-.22.15-.08.11-.07.04-.02.02 0 .04.04.07 0 .04-.03.02-.09.01-.02.01-.07.14.01.05.04.1-.01.04-.05.07.01.15-.01.05-.02.03-.03.01-.06-.01-.04.02-.04.04-.02.06.02.07-.02.09.02.15-.06.07-.06.09-.07.08-.03.05-.03.08-.01.1-.06.1-.07.04-.01.03.04.04.08.07.01.03-.01.01-.02.02-.04.03-.02.01.01.02.02.02.03.02.06.04.02.05-.01.07-.05.08 0 .09.03.2-.01.16-.02.11-.09.15-.07.14-.08.15-.06.13-.03.1-.08.22 0 .14.03.2.01.23-.01.11-.01.24 0 .09-.01.13-.03.29-.01.05-.05.06-.18.01-.05 0-.03.02 0 .02.04.06.03.03.08.08.13.09.1.11.12.28.07.21.02.21.02.25.04.12.06.12.12.26.02.07 0 .07 0 .05 0 .05.01.03.05.08.06.08.05.05.02.03.01.03-.01.06.01.02.03.02.02 0 .02.01.02-.01.02 0 .02-.01.02-.02.03-.07.04-.01.05 0 .08.01.13.07.13.15.09.14.06.16.01.15 0 .09 0 .1 0 .05 0 .03.01.05.06.06.06.17 0 .18.04.04.03.04 0 .01-.01.02-.01.02.01.01.04.04 0 .04-.01.04.01.06 0 .08.01.11 0 .03-.02.02-.12.02-.02.01.01.02.01.01.06.01.02.03.01.05-.03.1-.03.07-.01.08 0 .1.05.15.05.11 0 .09-.06.17-.01.15.05.34.05.27 0 .28.01.1.02.12.09.15.03.08.08.13.09.14 6.3.8 6.4 2 .31.09 1.43 3.76-.71 4.95-.16 1.11.58 2.27 9.09 3.09-1.27 8.22 6.44 14.5 2 .3 2.99.39 2.66.84 1.54-1.13 1.4-.77 2.29-1.52 2.52-1.62 1.7-.81 1.66 1.53 2.64.43 1.36-1.92 1.83-3.83.33-.68 2.07-3.55 2.72-3.42 1.2-2.39 3.16-.28 1.46 1.47 1.85 2.6 1.51.85 1.7-.39.83-1.06.94-1.87.81-1.63.53-1.07 2.4-3.15 1.89-3.2 2.5.65-1.32 4.07 1.52 1.03 2.95.38 2.94-1.92 5.33 3.31 3.34.87 2.17 1.08 2.05.64 4.09 1.67 2.2 1.03 4.2-1.49 3.85-1.51 1.26-1.4.93-2.01 5.8-1.25 2.86.79 2.29.63 3.05.84 2.04.57.71.19.03-3.19.03-2.18 1.52-1.95 1.46-1.87 10.72 12.3 6.8 3.35.38.35 3.32 3.14 2.14 2.89 1.3 1.84 1.3-.35 7.51-2.1 6.42-1.77 6.5-2.82 4.67 1.61 5.2-1.67 8.05.29 7.2.1 10.58 1.19 5.21.82 5.5-1.39 1.28-.32.01-.48.03-1.2.11-4.18 1.24-7.55 1.61-4.57 8.7-3.98 10.67-2.93 5.59-3.75 5.07-3.41 3.5-2.44 3.71-3.1 2.97-2.14 3.05-1.11 1.2-.74 1.96.4 2.28 1.64 1.45 1.14 1.5 1.35.8 2.64 1.69 2.03 2.59 1.24-1.62 2.98 3.54 2.47.93 1.39.52 3.9 2.44 2.8-.92 4.41.43 5.43.76 4.28 3.46 5.97 1.05.99.32.31.15.15.15.14 3.77-.92.79-1.49-.4-3 .57-2.35-.77-4.9 3.87-1.76 2.09-.95 4.39-3.81 5.8-5.05 2.23-1 4.15 3.62 6.83 1.06 4.91 1.12.79.02 3.43.08 5.75-.56 8.27 2.3.09.03 8.11 1.05.21-.01 6.77-.35 10.18 1.98 9.29-2.21 2.46.35 2.4 1.77 2.69.43 2.18-.17 3.94.1 3.6-.35.83-.08 4.17-2.04.94-.45 1.17-.55 1.11-.25 1.81-.25 2.43-.33 3.82-.51 3.25-.44.39-.09 3.69-.87 2.91-.68 1.77-.41 2.42-2.08 2.21-1.89 3.35-2.87 7.59-2.19 8.4-2.42 3.24-.94 4.5-1.3 7.9 2.98 13.33.79 8.03 2.89 4.58 1.65 10.02-3.75 4.22-3.92.87-1.24 3.68-5.24 2.6-6.24 2.61-7.14.32-6.68.73-.39 2.26-.98 1.91-6.1 1.77-5.97 4.5-7.37 21.48-10.73-4.24-5.91 8.81 3.42 2.72-2.3 3.8 5.47 3.09.2 5.26 1.49 1.34.39.88.22 5.46.92 3.29-3.46.97-5.25 5.05-3.14 4.49-1.12 3.45-3.73 7.01-2.07 4.44-1.78 1.12-.45.98-.32.64-.29.43-.64.72-1.08.52-1.27.88-1.09.72-1.58.36-1.23 0-1.1.36-1.04.19-1.01 19.88-1.3 3.84-.27 2.7-2.32 1.45-1.32 1.69-1.82 1.08-.14 1.09-.14 1.6-.32 4.73-1.27 3.09-1.97.08-1.97 6.82.78 4.04.61 2.86-.1 2.04-.44 2.58-.66 1.84-.57 1.4-.59 1.81-.21 1.57-.77 2.15-1.06 2.54-1.24 2.27-1.12 2.28-1.12 2.01-.99 14.67-8.53 5.27-7.19-1.48-5 5.94-5.88 1.14-.53 5.8-2.69 2.33-.98.66-3.62 2.38-3.29.87-3.63 3.72-.19 2.37-4.17 1.58-7.55.71-4.25.2-1.16 2.47-2.12-.95-5.83-16.5-.5-4.29-4.96-1.49-3-2.19-5.65-11.56-3.62-1.15-3.12 1.32-8.28-1.85-3.02-2.38.22-2.74.41-3.73.08-3.27.2-.93-.06-.07-1.77-.21-1.3-.22-.44-.19-1.06-.21-.98-.34-.89 1.12-.45.93-.2 3.11.14-1.24-2.47-2.08-1.47-1.12-.99 2.67-1.63 2.98-1.66 3.66-2.47.84-3.8 2.29-.08.47 2.25 1.88.07.52-3.16-.58-3 2.12-.58 2.75.87 1.76-.93 3.42.53.03-3.1 3.3 3.12 3.92-.31 1.51.2-.05 1.1 1.15.61 1.86.16.81 1.26 1.2.77 1.71.49 1.34.77 2.01-.41 2.11-.53 5.96-1.72 8.24-1.85 1.47-.13 4.38-.07 3.96-.07 5.3.03 6.84-3.79-5.29-3.67 1.75-7.54.97-1.84-.68-1.27.33-.49 1.67 1.18 2.87.89 2.39.17 2.17-.49-1.65-2.02-.75-1.86-.58-3.2-3.04.17.89-4.04-1.49.05-.9.22-3.31-3.44-1.44-2.61-1.57-2.52-.99-.82 1.05-3-4.53-.9.64-4.35.19-1.26.54-3.7-1.06-4.02-.63-2.77 4.47-1.98-1.26-2.79-6.72-3.96-1.81-2.51-2.35-1.43-3.78-2.6-1.69-6.03-.31-1.1.24-5.09-.44-5.95-2.62-4.44.17-3.14-.84-2.22-.25-2.14-.02-.14 1.45-3.92.85-2.84-.42-2.37 1.47-3.53 1.27-1.74 1.07-2.82 1.52-6.2-1.4-2.34-1.7-2.84.49-2.3.83-3.79 1.02-4.7.76-3.54.33-1.5.59-2.75.35-1.82-1.02-.66-1.33-1.55-1.06-1.87-.62-1.14-.54-.43-.58-.21-.41.21-.51.56-.3.8.02.76-.37.63-.38.3-.46.12-.39-.16-.53-.52-.58-.72-1.03-.47-.89-.58-.41-.27-.12-.46.38-.75-.04-.73-.18-.67-.58-.49-.32-.11-.51.84-.46.32-.53 0-.57.25-.58.77-1.05.12-.56.03-.66.04-.17-.12-.21-.26-.1-.7-.19-.57-.72-.33-1.29-.26-1.52-.21-.99 0-.36.34-.58.46-1.23.95-.42-.21-.22-1.13-1.41-2.05-.17-1.36-.76-.43-1.2-.16-.56-.24-.78-1.22-.27-.61-.97-.97-1.1-.63-.61-.84-.62-.67-1.09-.16-.85.32-.65.3-.57.08-.69-.22-.33-.45.23-.21-.06-.14-.28-.29-.21-.28-.22-.31-.22-.3-.31-.12-.29 0-.49-.01-.63.06-1.66-.01-1.53 0-.53-.44-.4-.39-.28-.6-.1-.81.43-.75.26-.67.1-.39-.12-.34-.41-.4-.68-.29-.65-.13-.69 0-.67.05-.5-.1-.51-.37-.54-.78-.34-.67-.41-.3-.63-.32-.59-.31-.52-.17-.49-.04-.57-.01-.42.13-.24.3-.21.01-.42-.19-.43-.35-.19-.04-.43.16-.26.18-.23.29-.06.27.03.22-.22.17-.49.24-.4.26-.41.07-.37.03-.5-.08-.12-.03-.34-.08-.04-.4-.52-.26-.86-.35-.01-1.8-.33-.45-.42-.38-.52-.23-.63-.04-.32.19-.08.66-.43.34-1.06.17-2.15.6-.57-.33-.28-.79.14-.7.29-.92-.12-.97-.25-.77-.81-1.36-1.81-1.39-.49-2.07-1.4-.89-1.48-1.85-.57-1.07-1.31-.84-.71-.63-.52-1.22-.7-.82-1.53-.31-2.26.65-.75 1.13-.88.68-.93.42-1.25.18-2.17-.16-3.54 2.66-1.46.18-.5 0-1.15-.17-1.25-.41-.54-.53-.28-1.86-.42-.56-1.16-.25-1.41-.04-.79-.24-2.03.42-1.29-.57-.7.34-.11.66.38 1.57.66.7.03.24-.63.63-.08.82-.37.32-1.17.3-1.61-.23-1.31-.62-.35-.72.87-2.1-.31-1.23-.52-.95-1.25-1.76-3.56-.29-1.1 1.45 1.04 2.44-5.19 1.95-4.34.13-2.64.33-1.69-2.05-1.54-.39-1.67-.36-1.61.14-1.35-.25-1.33.01-1.29.09-1.07-.18-1.11.01-1.13.04-3.1-1.04-1.76-.56-2.04-.96-1.77-.82-3.1-1.9-.11-.07-.16-.08-.27-.1-.14-.03-.08-.05-.03-.04-.02-.04-.01-.15-.1-.25-.08-.19-.08-.13-.32-.33-.25-.28-.55-.55-.12-.08-.07-.12-.2-.44-.21-.88-.05-.27-.12-.3-.44-1.05-.2-.28-.17-.11-.23-.07-.42-.03-.21.06-.14.06-.14.1-.12.16-.09.1-.16.09-.18.07-.47.11-.67.1-.17-.05-.05-.12.02-.36.03-.45-.03-.25-.09-.11-.2-.12-.47-.19-.25-.07-.26 0-.22.06-1.33.5-.16 0-.06-.04-.4-.56-.29-.44-.06-.33.02-.13.03-.11.11-.16.11-.05.13-.01.44.03.45.02.42 0 .09-.02.11-.09.11-.2.08-.26.02-.24.05-.3.05-.1.28-.47.24-.43.03-.17-.04-.32-.09-.16-.16-.1-.38-.16-.65-.26-.6-.19-.23-.13-.07-.12-.04-.16-.09-.31-.14-.32-.15-.24-.12-.13-.21-.12-.23-.04-.32.06-.35.14-.24.17-.3.26-.21.15-.13.04-.31-.04-.11-.05-.06-.06-.1-.28-.06-.3.07-.18.16-.21.11-.11.19-.09.21-.12.16-.16.08-.12.09-.37.1-.38 0-.24-.05-.33-.17-.41-.24-.42-.29-.32-.28-.17-.23-.07-.22-.05-.6.01-.36.03-.21.08-.22.16-.21.31-.05.1-.01.22 0 .27-.07.22-.06.15-.07.07-.27.08-.31.05-.24-.06-.17-.09-.18-.21-.09-.14-.02-.09.05-.21.02-.26.02-.14-.01-.14-.01-.1 0-.37.01-.27-.03-.41-.14-.87-.07-.36-.08-.17-.04-.17-.11-1.09.04-.19.02-.09-.01-.07-.09-.12-.09-.13-.07-.06-.07-.03-.05-.06-.09-.09-.1-.06-.49-.23-.3-.11-.13-.03-.06.01-.12.02-.27-.01-.22-.05-.15-.09-.23-.21-.52-.4-.1-.08-.18-.07-.18-.09-.15-.04-.2-.02-.59.05-.45.09-.26.08-.12.02-.2-.02-.33-.16-.18-.11-.07-.14-.01-.48-.01-.15.09-.21.12-.1.91-.67.12-.17.22-.35.11-.12.5-.37.05-.07.05-.24.01-.19-.04-.24-.1-.12-.32-.29-.5-.29-.19-.09-.28-.05-.21-.03-.26-.05-.24-.14-.31-.2-.07-.11-.02-.11 0-.34.06-.25.09-.1.13-.08.52-.16.15-.08.2-.14.12-.12.02-.05.02-.18.01-.3-.07-.23-.03-.04-.04-.05-.52-.24-.55-.19-.38-.11-.21-.1-.34-.08-.33-.02-.62.07-.27.03-.08-.02-.07-.04-.13-.17-.07-.14-.06-.21-.07-.26.03-.21.06-.12.11-.06.31-.13.41-.14.26-.04.22.01.22.02.21.07.2.03.23-.02.25-.07.46-.09.45-.08.32-.08.09-.05.08-.06.08-.18.06-.25-.02-.27-.05-.09-.1-.06-.3-.21-.07-.04-.06 0-.12.05-.13.05-.16 0-.36-.04-.26-.06-.15-.05-.48-.16-.22-.05-.26-.03-.26-.07-.2-.1-.12-.09-.11-.03-.35-.04-.34-.01-.5 0-.11.03-.07.07-.36.36-.06.05-.1.02-.25 0-.45-.04-.12-.03-.05-.08-.05-.15-.04-.2-.06-.12-.02-.03 0-.03 0-.04.15-.14.15-.17.21-.25.03-.06.01-.04-.01-.03-.05-.07-.12-.08-.12-.08-.05-.02-.04 0-.23.04-.43.63-1.2.11-2.71.12-1.4-.47-1.09-.47-1.01-.21-1.55-.61-.84-.39-1.13-.7-1.15-.71-1.09-.8-1.15-.62-1.34-.91-2.13-1.38-2.42-1.46-1.8-2.52-1.53-1.48-2.14-1.38-1.69-1.88-1.58-1.58-2.49-1-5.42-1.63-.1-.07-.11-.1-.14-.14-.14-.19-.2-.29-.39-.6-.25-.46-.23-.41-.25-.64-.18-.4-.23-.31-.16-.19-.12-.1-.08-.01-.12-.02-.09.01-.09 0-.14.03-.12-.01-.62-.18-.34-.19-.17-.19-.19-.17-.26-.34-.28-.31-.27-.37-.05-.09-.14-.14-.16-.08-.12-.01-.13.01-.17.07-.32.04-.19 0-.31-.02-.12.01-.29 0-.14 0-.24 0-.29.02-.32.03-.21.01-.41.02-.18-.02-.3-.01-.2-.02-.21-.05-.15-.07-.11-.12-.08-.21-.14-.26-.02-.2.11-.46.06-.31.04-.24-.02-.2-.01-.21-.09-.17-.06-.08-.24-.26-.17-.2-.1-.2-.14-.34-.1-.26-.05-.18-.13-.32-.23-.19-.17-.09-.26-.09-.22-.08-.59-.19-.26-.15-.22-.33-.14-.29-.05-.19-.02-.19.03-.29.06-.37 0-.24.01-.18.1-.47.07-.52.04-.27.05-.22.06-.25.06-.21.05-.32-.01-.22-.29-.26-.46-.08-.13.05-.28.1-.3.15-.17.09-.15.06-.09.02-.1.01-.44-.01-.22-.03-.19-.05-.24-.12-.12-.07-.05-.07-.01-.07.05-.1.07-.15 0-.1-.09-.25.01-.16.04-.19.06-.17.01-.14.01-.1-.05-.15-.05-.12-.14-.2-.06-.08-.08-.08-.18-.2-.17-.17-.29-.25-.33-.19-.34-.2-.17-.06-.18-.05-.45-.14-.22-.06-.21-.02-.14 0-.16-.01-.21-.05-.19-.13-.12-.13-.06-.13-.01-.17 0-.22.01-.32 0-.28-.04-.12-.09-.12-.21-.17-.26-.24-.2-.09-.2-.12-.18-.14-.21-.22-.25-.25-.21-.2-.25-.17-.3-.22-.36-.31-.15-.14-.23-.19-.12-.1-.05-.06-.1-.11-.08-.13-.09-.21-.04-.13-.04-.18-.04-.14-.14-.26-.09-.13-.09-.08-.1-.11-.15-.16-.05-.08-.09-.18-.11-.15-.11-.17-.1-.18-.04-.13-.13-.2-.07-.08-.02-.08-.02-.23.02-.22.02-.16 0-.12-.02-.08-.03-.13-.02-.18-.01-.21 0-.4.02-.3-.01-.2.03-.28.1-.55.04-.14.04-.14.08-.26.09-.33.03-.15.01-.16 0-.12-.04-.08-.03-.09-.09-.15-.13-.14-.16-.1-.18-.09-.22-.1-.22-.06-.33-.08-.33-.06-.18-.03-.31-.04-.28-.04-.28-.01-.25.01-.23.03-.2 0-.18-.02-.28-.09-.24-.12-.14-.09-.15-.12-.12-.18-.02-.05-.08-.18-.07-.15-.05-.13-.01-.1-.01-.19.01-.15 0-.07.12-.42.05-.16.03-.13.01-.13 0-.1-.01-.13-.03-.14-.03-.06-.07-.14-.11-.13-.16-.1-.17-.1-.15-.07-.23-.13-.16-.04-.19-.02-.13.01-.18.06-.16.09-.21.13-.27.18-.25.14-.18.05-.19 0-.22-.01-.12-.04-.21-.1-.15-.09-.1-.08-.09-.09-.1-.12-.09-.14-.07-.11-.06-.12-.03-.12-.02-.19-.04-.14-.01-.1 0-.09.03-.11.07-.12.08-.12.07-.12.04-.06.07-.08.09-.07.09-.11.05-.13.1-.16.04-.11.03-.1.02-.21.01-.17.01-.14.04-.2 0-.25 0-.13-.02-.11-.09-.19-.12-.22-.16-.22-.18-.15-.13-.08-.14-.06-.17-.07-.22-.1-.21-.1-.16-.07-.09-.03-.09-.03-6.13 3.36-5.21 3.14-1.59 3.43-1.35 2.93-.5 6-1.26 5.23-1.57 5.86-2.01 4.32-2.16 3.94.11 5.89.49 2.58.68 3.57 2.86 6.17 1.48 5.39-.19 2.96-.04.65-.11 1.76-2.57 2.84-1.29 1.18-1.78 1.89-1.2 2.18-3.15 4.33-7.35 7.2-5.25 3.25-4.19.41-4.75 2.85-.84.51-6.38 2.94-8.8 3.53-4.65 1.85-6.32 2.52-6.17 1.84-1.3.39-6.25 3.13-5.04 4.56-5.18 4.42-3.15 4.19-.88 2.32-3.31-.97-6.97 1.43-5.4.15-3.61.79-.81 2.83-8.86 1.6-1 1.32-1.8 2.38-7.26-.7-2.87 4.02-4.44.06-2.67 5.52-3.68-.17-.33-.02 2.46-9.68-7.92-5.25-6.07-10.92-3.48-8.21-.78-1.98-2.4-6.1-2.05-8.49-2.71-3.4-3.1-2.23-3.44-3.78-7.23-3.37-7.02.71-1.47 1.19-1.58 1.28-2.24 1.81-.52.07-1.47-.11-.88.77-.98-.24.18-1.49.22-1.76-1.01 1.05-1.33 1.39-3.06.26-3.91-1.73-3.32 1.24-3.29-.73-3.39 1.87-2.95 1.62-2.86-.19-1.21 1.44-3.25.2-5-1.94-2.43-.02-2.53-.44-4.15-2.12-2.81-.73-5.43-2.66.35-1.97-5.3-4.05-5.89-6.71-6.44-3.37-.64-1.53-2.76-6.63-3.21.36.27-2.13.69-2.05 1.18-2.76 1.95-6.2 6.54-5.08-19.06-13.29-2.46.2-.46.07-.15.16-.26.16-.15.16-.13.12-.07.07-.08.07-.09.1-.12.1-.21.1-.01.01-.02.02-.01.02-.02.03-.09.04-.01.01 0 .02-.01 0-.04-.01-.02 0 0 .02.04.05-.02.09.01.1-.01.04-.06.01-.04-.01-.08 0-.03.04.02.04.01.02-.01.02-.03 0-.08-.03-.05.01-.01.02 0 .01.02.04-.01.04-.02.02-.01 0-.02-.02-.03-.03-.05 0-.05.03 0 .07.01.02.04.04.01.02-.02.01-.06.02 0 .02 0 .04.01.03-.01.01-.04.02-.03.04-.01.05 0 .02 0 .02-.02.06-.03.06-.05.04-.07.02-.03.02-.03.06-.11.02-.04-.01-.02 0 0 .01 0 .05-.01.03-.05.08-.05.07-.06.05-.08.04-.06.05 0 .03.01.02-.01.03-.02.01-.03 0-.01.01 0 .05 0 .01 0 .02-.01.02-.05.06-.1.08-.12.09-.02.02-.05.05-.03.11-.09.09-.18.14-.46.5-.23.2 0 .01-.17.24-.21.18-.14.11-.1.13-.13.16-.05.11-.17.13-.07.06-.23.17-.07.04-.17.11-.04.1-.12.11-.07.04-.03.05-.07.11-.08.11-.16.12-.22.1-.02.03 0 .11-.03.07-.13.13-.21.19-.16.1-.11.04-.08.03-.11.12-.21.23-.15.14-.21.26-.12.14-.14.22-.07.06-.11.06-.09.12-.09.06-.16.15-.22.14-.11.06-.12.14-.2.22-.18.16-.25.22-.11.09-.13.11-.18.15-.15.15-.22.22-.23.21-.23.21-.14.12-.13.11-.19.13-.17.15-.15.16-.14.11-.07.06-.08.08-.08.08-.08.08-.08.09-.05.08-.09.1-.13.12-.08.08-.11.09-.2.18-.11.1-.04.04-.1.1-.23.18-.2.16-.25.18-.14.13-.04.06-.06.07-.07.06-.1.06-.13.08-.28.22-.14.12-.24.21-.25.19-.16.16-.1.11-.1.11-.15.13-.17.09-.05.03-.08.06-.09.13-.03.03-.06.06-.09.07-.08.06-.11.08-.14.12-.13.12-.1.08-.12.09-.14.08-.08.06-.04.04-.09.09-.17.17-.15.12-.12.07-.14.1-.28.21-.32.22-.13.08-.1.09-.15.14-.26.24-.12.11-.17.13-.24.17-.2.18-.09.07-.11.05-.11.09-.05.06-.02.03-.04.02-.05.03-.18.1-.2.15-.08.11-.07.05-.07.05-.1.09-.26.17-.24.15-.24.16-.26.21-.26.21-.27.28-.2.16-.3.23-.23.2-.28.26-.23.19-.26.16-.22.18-.06.04-.02.06-.05.06-.09.1-.05.03-.07.04-.11.08-.14.14-.11.07-.07.04-.01 0 0 .01 0 .03-.02.02-.05.04-.31.2-.13.11-.2.19-.24.2-.37.25-.07.06-.07.13-.04.03-.04.01-.06.04-.16.11-.12.11-.08.07-.06.01-.04.03-.12.1-.07.07-.11.06-.11.06-.37.29-.19.17-.16.11-.27.2-.42.33-.33.26-.09.05-.27.12-.14.09-.2.18-.16.17-.18.15-.25.21-.21.14-.23.13-.14.09-.21.2-.28.23-.38.27-.3.25-.2.15-.18.16-.3.22-.12.09-.16.08-.28.13-.18.11-.19.18-.16.15-.2.14-.24.13-.19.13-.22.18-.35.27-.26.21-.1.09-.28.21-.11.06-.15.08-.09.04-.08.05-.12.1-.06.07-.2.16-.65.41-.42.3-.46.35-.31.2-.27.24-.19.11-.07.04-.01.02-.02.03-.02.02-.05.05-.2.16-.17.11-.47.33-.16.14-.36.19-.43.38-.36.2-.46.35-.44.28-.19.12-.25.21-.16.11-.27.18-.02.02-.03.03-.01.02-.12.15-.07.05-.26.13-.07.03-.07.02-.02.01-.03.04-.06.08-.15.11-.09.08-.14.05-.1.08-.11.1-.22.14-.12.03-.02 0 0 .01-.04.06-.53.35-.44.35-.05.02-.01 0-.01-.01-.01-.01-.02 0 0 0-.01 0-.01.02 0 .01-.01.03-.01.01-.01.01-.02 0-.03.01-.01.01-.01.02.01.01.01.02 0 .02-.83.61-.56.38-.7.44-.26.2-.04.02-.1.02 0 .01 0 .02-.01.02-.01.02-.12.09-.07.03-.05.02-.24.2-.36.23-.53.35-.61.42-.22.16-.44.3-.11.08-.2.12-.42.3-.31.21-.24.17-.47.35-.61.37-.27.24-.4.31-.06.04-.18.06-.07.05-.06.09-.09.11-.21.18-.23.16-.38.23-.53.34-.35.2-.84.56-.24.19-.25.16-.81.44-.14.05-.12.08-.12.13-.06.1-.41.28-.28.23-.17.09-.23.09-.29.17-.2.14-.3.27-.11.12-.01.03-.04.13-.07.17-.16.19-.01.05-.01.04-.06.07-.05.04-.05.01-.02-.01-.02-.02-.02 0-.09.04-.28.2-.28.25-.02.03.01.04-.01 0-.15.16-.04.02-.02-.01-.03-.03-.03-.01-.01.01-.09.09-.05.09-.02.04 0 .02.01.01.02 0 .06-.06.02-.01.03 0 .01.01 0 .02-.03.07 0 .04-.11.13-.01.01.01.02.05.13.24.17.16.15.09.07.17.26.01.01.05 0 .03.01.01.02.09.2.13.15.12.14 0 .02-.01.04.01.01.07.02.04.03.06.05.03.03.09.06.28.22.55.33.24.13.02.02.1.17 0 .01-.01 0-.03.01-.01.01-.01.01.01.02.03.03.01.01.05-.04.05 0 .05.03.05.04.02.06.09.04.02 0 .02 0 .02 0 .01.01.03.06.08.11.1.09.02.02.02 0 .03-.01.05.03.05.06.03.09.23.29.17.43.02.2.02.18-.08.22 0 .01 0 .01.06.06.01.02-.01.14-.02.03-.03.04-.03.05 0 .05.02.08 0 .02-.09.34.01.27.1.72-.02.27.03.22.23.29.16.09.46.22.62.2.12.09.22.22.16.3.08.41.07.32.05.57.04.08.07.09.11.09.06.09.02.12.06.27.03.06.04.05.22.13.27.27.34.24.15.11.16.09.16.06.5.12.28.13.03.03.03.07.07.05.24.09.1.07.04.01.07 0 .18.06.29.2.12.11.17.14.22.1.32.2.07.08.02.09.02.05.04.03.1.04.08.05.09.1.1.15.05.07.07.04.22.25.11.12.05.12-.01.04-.03.06-.06.05-.01.06.04.06.1.08.09.08.07.05.07.02.05.01.12.07.1.1.1.14.16.29.22.31.1.12.09.08.1.08.07.05.11.06.38.31.17.18.05.08.07.08.09.03.37.2.35.28.18.19.09.14.06.21.1.26.02.06 0 .07-.04.14-.01.09.01.09.11.21-.02.1-.09.13-.01.13.02.28-.03.07-.04.08-.08.07-.02.05-.04.14-.06.1-.02.11-.03.25-.04.74.01.19-.01.08-.07.2.01.07.05.1.03.04 0 .09-.05.28 0 .48.01.28-.03.07-.03.08 0 .08.05.33 0 .06-.02.05-.11.1-.03.04-.03.25-.04.22-.02.03-.05.02-.04.07 0 .08.03.07 0 .03-.03.05-.07.08-.04.09-.03.08-.06.06-.04.13-.05.09-.02.08 0 .06-.08.13-.03.15.01.17-.02.08-.11.11-.07.1-.14.29 0 .12.03.2-.01.03-.06.05-.03.04-.05.13-.17.38-.02.12.04.26-.02.25-.06.22-.04.09-.16.1-.18.32-.12.1-.09.16-.02.15.02.2-.05.2-.05.06-.04.11-.04.18-.05.05-.09.04-.08.03-.05.04-.08.21-.03.17.04.22-.05.08-.07.05-.07.03-.05.04-.09.2-.69 1.07-.06.27-.05.11-.08.07-.13.02-.11.15-.07.58-.21.56-.02.06.04.1 0 .04-.03.06-.07.06-.01.21.03.15-.01.05-.03.05-.02.05 0 .04.19.29-.02.08-.15.26-.23.31-.23.32-.2.24-.22.16-.14.13-.07.11-.04.03-.12.04-.03.02-.02.03-.03.23-.01.13-.11.29-.01.09-.03.04-.04.07-.09.21-.1.15-.05.16-.11.14-.16.16-.12.13-.07.09-.12.14-.09.08-.12.13-.15.23-.15.17-.2.15-.22.23-.23.22-.23.28-.14.15-.05.06-.15.1-.01.01-.03.05-.16.22-.06.06-.09.1-.09.1-.06.06-.08.07-.05.03-.05.05-.05.05-.08.03-.07.05-.06.06-.02.06-.02.07-.05.05-.07.03-.07.03-.03.03-.01.02 0 .05 0 .07-.02.04-.06.06-.06.06-.1.09-.1.1-.21.18-.03.01-.22.01-.11.05-.1.06-.07.13-.14.17-.17.22-.08.05-.12.07-.22.23-.22.23-.22.21-.32.24-.15.17-.15.25-.11.2-.22.19-.2.09-.26.2-.24.18-.23.29-.38.36-.2.28-.1.1-.11.14-.41.83-.34.73-.12.44-.28 1.15-.15.61-.02.36.21.54.08.09.19.09.09.06.07.11.02.1.08.1.23.2.25.2.15.14.09.09.12.2.01.14-.01.19.08.3.14.33.15.18.2.24.12.2.28.9.01.12-.07.21-.02.09-.02.04-.06.16.03.44 0 .11-.12.34-.01.11.05.17.05.07.13.5-.04.1-.09.19-.03.15.05.28.18.5.04.64.07.1.35.28.42.18.94.17.8.36.46.23 1.03.42.21.06.56.27.13.07.24.15.21.16.26.18.19.08.12 0 .12-.05.12-.02.28.06.04-.01.13-.05.15.02.23.08.16.04.05.02.08.02.24.22.13.14.21.3.06.14.07.19.07.09.05.12.05.18.01.18-.02.28-.02.03-.05.06.01.02.03 0 0 0 .01.02.07.1.54-.06.06.08.07.09.14.19.17.23.19.25-.58.06 0 .01 0 .03.01.08 0 .01.72-.08.18 1.11-.19-.06-.17-.06-.38-.14.03.3.61.22.03.04.01.01.31.45.06.09.06.07-.02.01-.04.04-.14.12-.1-.06-.14-.11-.1-.09-.07-.07-.15-.11-.15-.13-.15-.14-.31-.32-.35-.65-.19-.35-.02-.03-.19-.35-.24-.37-.46-.32-.37-.17-.02-.04-.04-.03-.06-.01-.04.01-.03.02-.01.04 0 .02.04.04.09.01.43.2.36.26.09.13.3.52.6 1.1.08.12.28.25.58.5.21.15.1.05.13.05.1.03.02.01.17.14.01.01.01.01-.05.21-.04.29.01.03.03.1-.01.05-.06.05-.02.01-.04-.01-.01 0-.01.01-.03.08-.03.18 0 .02.02.09 0 .09-.01.09-.01.03-.08.06-.05.06 0 .05.02.02.02.05-.03.05 0 .04 0 .05.02.13-.04.08-.05.07 0 .02.01.07-.04.06-.09.05-.07.1-.02.06 0 .09-.12.47-.03.31.03.09-.05.23-.07.1-.02.09.01.28-.02.05-.03.03-.05.02-.03.03.01.05.01.03-.01.02-.01.01-.06.02-.04.01-.04.01-.01.02 0 .02.04.03.01.03-.14.25-.01.02 0 .06.02.04 0 .05-.04.08-.08.14-.09.24-.01.02-.01.01-.05.06-.07.03-.07.07 0 .06-.03.03-.05.03-.02.02 0 .02.04.01.03.01.02.01 0 .02-.19.64-.01.02-.02.02-.06.03-.01.01-.01.01 0 .04 0 .03 0 .05-.01.04-.12.16-.07.09-.12.13-.08.25-.02.11.01.11.1.17 0 .04-.03.06-.12.1 0 .03-.01.02-.04.02-.02 0-.04 0-.02.01-.01.01 0 .01.01.02-.02.08-.02.02-.01.01-.02.01-.04-.01-.01 0 0 0-.11.31-.12.2-.07.06-.07.02-.04.04-.01.06.01.05-.01.03-.02.03-.15.19-.23.48-.05.15-.01.02-.01.02 0 .01-.01.01-.03.05-.11.17-.1.24-.04.14-.07.18-.06.11-.07.16-.14.24-.03.17-.02.05-.12.11-.1.08-.02.04 0 .05-.01.09.01.14-.03.1-.04.04-.04.02-.14.1-.06.08-.05.04-.2.13-.02.02-.01.04.01.04-.01.04-.04.04-.04.07-.03.04-.04.04-.08.04-.09.05-.06.07-.04.13-.08.12-.08.09-.11.1-.08.09-.06.06-.05.05-.06.09-.06.23-.01.09.01.13.03.17.06.49.04.26.14.37.38.32.1.08.04.05.02.02.01.01.03 0 .03-.02.02-.01.03-.01.04.01.05.03.14.12.18.21.07.08.07.05.09.01.08.03.02.04.04.11 0 .05-.01.07-.04.04-.19.07-.1.1-.02.07-.01.05 0 .05.02.09.08.07.06.02.03.01.01.01.05.06.01.02.02.02.03.01.02.02.02.02.04.03.03.05.04.07.06.13.07.15.04.12.02.08.03.18.03.13.05.11.01.04.03.03.15.09.18.02.07 0 .08.01.11.08.13.17.13.2.02.06-.01.01-.03.03-.03.02-.02.02-.02.04 0 .04.02.04.04.07.04.06.12.07.05.04.05.05.03.1.01.08-.02.05 0 .05.03.1.07.07.04.07.01.07 0 .11.01.02.02.01.02 0 .03-.01.03 0 .03.03 0 .03-.01.1 0 .03-.01.01-.02.01-.01.01-.01.09.01.15.01.05.03.05.06.05.06.06.01.02 0 .02 0 .01-.02.03-.01.01 0 .01.03.02.03.03.01.02-.01.04-.03.02-.01.03.01.02.01.02.01.04.01.04.01.05.01.08.01.05.02.05.05.12.08.08.02.05.02.06 0 .12-.02.04-.02.03-.03.04-.01.02.01.02.02.02.03.06.01.06.01.09.08.13.04.04.04.09.03.06.04.21-.02.09-.01.04-.01.06-.01.02-.02.05-.02.06-.01.02 0 .03-.01.03 0 .02-.01.02-.04.03-.01.02.01.08 0 .04-.01.02-.01.02-.03.04-.05.06-.07.06-.02.06-.03.03-.05 0-.02.04.02.04-.01.03-.01.03-.04.02-.01.03.01.02.07.07 0 .01-.01.01-.04.02-.01.03.03.04.09 0 0 .02-.04.04-.01.04.01.04.06.05.09.04-.01.03-.01.02-.06 0-.03 0-.03.01-.02.05-.01.06.03.11-.01.06-.01.01-.05.03-.04.01-.03.02-.01.03-.03.05-.06.06-.01.03 0 .02.04.03.02.01.04 0 .01 0 0 .01-.01.02-.01.01-.1.1-.02.04.02.04.03.03.02.04-.01.02-.07.04-.03.01-.01.02 0 .01.04.03 0 .02-.01.01-.08 0-.01.02.03.04.02.07-.01.07-.01.03-.04.06-.02.04-.01.03.01.04.04.06.04.06.06.07.07.11.05.09.02.06.01.04-.01.06-.01.03-.05.08-.07.08-.02.08 0 .08.04.06.04.05.08.04.04.05.05.03.03.04.02.09 0 .09-.02.06-.07.08-.01.06.03.2-.02.04-.02.02-.05.01-.03.02-.01.02 0 .02.01.06.04.09.01.08-.02.03-.01.02-.07.03-.09.05-.08.08-.03.11-.05.18-.05.13-.06.13-.25.39-.04.09-.04.09-.04.1-.03.1-.03.17-.02.04-.03.06-.06.06-.04.05-.03.04-.02.05-.05.18-.01.04 0 .03-.01.05-.02.03-.03.07-.05.05-.05.04-.08.06-.03.03-.01.03-.01.05-.02.05-.03.06-.04.06-.04.05-.03.06-.01.08 0 .08-.02.14-.02.08-.03.06-.03.05-.04.06-.05.06-.01.01-.01.02-.01.06-.02.06-.02.06-.05.11-.05.1-.05.12-.03.08-.03.12-.03.08-.02.06-.04.08-.09.1-.14.17-.05.09-.03.06 0 .05.03.06.1.13.1.1.06.09.03.05.02.07-.02.09-.04.11-.03.11-.02.12-.01.07.01.08.01.13.01.13 0 .06-.02.05-.02.05-.03.06-.01.06-.01.04-.04.02 0 .01 0 0 0 .08-.01.16-.02.05-.01.03-.01.02-.03.04-.02.04-.02.03-.03.04-.03.02-.02.02-.03.03-.02.01-.06 0-.06 0-.05-.02-1.11-.86-1.13-.86-.15-.05-.15-.04-.16-.01-.15.01-.26.07-.18.07-.23.19-.21.21-.44.43-.68.7-.02.04.01.04.04.04.05.03.06 0 .06-.04.05-.07 0-.04-.02-.03 0-.01 0-.01.34-.32.11.06.02.01.02-.01.02-.01 0-.02 0-.01-.12-.09.1-.09.11-.11.69-.7.1-.08.13-.06.18-.05.12-.03.16 0 .19.04.17.05.36.26.07.06.34.3.07.05.17.13.08.06.05.04.03.02.04.04.05.04.04.02.04.03.01.04 0 .02.01.01.03 0 .03.01 0 .01.01.01.01.02-.06.05 0 0 0 .01.07.05.01 0 .01-.01.01 0 .01.01.06.04.01.01.02-.01.04-.04.01-.01.01.01.52.39 0 .01-.01.02-.03.05-.01.07 0 .04 0 .04-.04.09-.07.05-.08.08-.01.01.02.06-.01.02-.02.02-.02.01-.02.01-.01.02.01.02 0 .02-.01.02-.04 0-.04 0-.02-.01-.01-.01-.05-.02-.03.01-.04.01-.07.02-.15.06-.1.06-.04.05-.01 0-.01 0-.05-.04-.04 0-.05.01-.04.03-.01.02-.02 0-.14-.03-.16-.04-.02 0-.02-.01-.03-.02 0 0-.01 0-.18.19 0 0 0 .01.03.02 0 0 0 0-.04.03-.01.01-.01 0-.43-.31-.04-.02-.09-.07-.01 0-.03 0-.05 0-.03-.01-.01-.02-.01-.02.01-.04 0-.03-.02-.03-.04-.04-.03 0-.02.01-.01 0-.35-.26-.02 0-.01 0-.01.01-.03.02-.01 0 0 0-.15-.1 0-.02-.01-.02 0-.04-.01-.01-.04-.02-.05.01-.04.03-.01.04.02.04 1.72 1.23-.03.05-.03.05-.02.01-.02.01-.03.01-.05.04-.11.09-.01.03-.01.08-.02.09-.03.05-.02.03-.03.01-.05-.01-.05.02-.05.03-.03.05 0 .02.03.02.05.01.06.03 0 .03-.02.02-.04.01-.09 0-.01.01-.01.02.03.03-.01.02-.04.01-.04-.01-.03.01-.07.08-.04.03-.07.01-.02.03 0 .03.05.02 0 .02-.01.02-.02.02-.06-.01-.06.04-.07.13-.01.06-.01.03-.02 0-.08 0-.04.03-.08.11-.04.11-.06.09-.14.14-.15.16-.16.13-.02.03-.01.03.03.14-.01.01 0 .02-.08.02-.06.03-.02.04.01.17-.1.25-.03.08-.03.03-.17.08-.23.33-.28.28-.06.05-.05.03-.03.04-.04.01-.01.01-.02-.01-.02-.01-.02.02-.01.06 0 .18.04.06.12.07.15.08.01.03-.01.04-.03.02-.04 0-.11-.01-.14-.09-.1-.04-.09.01-.05.01-.12.08-.12.1-.09.06-.06.11-.07.12-.08.06-.03.04-.04.04.01.01.02.01.01 0 .01-.01.01 0 .02.01.02.02 0 .01-.11.12-.02 0-.06-.04-.04-.02-.08-.02-.06.03-.05.04-.04.03-.04.1-.05.08-.19.22-.23.2-.03.01-.03 0-.05 0-.02.01-.1.07-.09.07-.01.01 0 .04.05.06 0 .02-.01.03-.04.01-.04 0-.03-.01-.02-.06-.02-.01-.01.01-.01 0 0 .04-.01.02-.01.01-.03-.01-.03-.01-.03.01-.04.04 0 0 0 .01.06.02.05.01.01.01.01.03-.02.03-.03.04-.04.02-.03-.01-.03-.03-.06-.05-.04 0-.03.03-.01.04.03.05.04.03-.01.11-.02.03-.03.02-.03 0-.03-.02-.01 0-.02 0-.01.02.03.04 0 .03-.05.09-.2.2-.05.04-.03.03-.05.08-.09.12-.19.17-.06.06-.05.06-.04.08-.18.15-.12.07-.19.07-.04.01-.03 0-.07-.06-.01 0-.02 0-.01.01-.12.32-.02.09-.01.09.01.01 0 0 0 .01.01 0 0 0 .01.01 0 .01.01.01 0 .02-.02.05-.05.03-.06.03-.09.03-.07.02-.02.06-.01.07-.05.06-.12.08-.08.08 0 .01-.01.02 0 .03 0 .01-.01.01-.02.01-.01.01-.02.01-.03.01-.03.02-.07.08-.18.2-.2.25-.21.17-.4.36-.42.34-.03.05 0 .05-.01.03-.02.06-.02.04-.03.01-.05 0-.02.01-.11.15-.2.16-.24.24-.16.13-.17.2-.03.09-.05.06-.26.2-.19.16-.06.07-.28.2-.07.1-.01.02 0 .1-.01.01-.02 0-.04-.02-.01 0-.07.05-.01.01-.08-.01-.01 0-.01.04-.02.05-.03.02-.05-.01-.01 0-.01.04.01.01.05.02.01 0 0 .02-.08.09-.01.03-.1.05-.07.08-.02.12-.13.09-.21.07-.22.06-.03.03-.08.13-.18.11-.08.01-.01 0 0 .05 0 .01-.03.03-.06.03-.03 0-.04-.02-.02.01 0 .01-.01.04 0 .03-.09.07-.04 0-.07.02-.02 0-.01.02-.01.02.05.06 0 .03-.03.03-.07.02-.1 0-.03.01-.01.01-.01.02-.03.01-.04.01-.03.03-.03.09-.03.03-.11.02-.03.01-.01.07.03.09-.02.08-.02.05-.06.04-.07.02-.06.08 0 .12-.01.04-.04.06-.21.13-.21.24-.19.31-.04.07-.06.05-.04.07.01.04.02.05.09.07.01.02-.01.04-.03.01-.05 0-.06.02-.02.02-.02.12 0 .09 0 .03.01.01.29.14.06.05.03.08 0 .11-.01.08 0 .01 0 .01.01.01.02.02.14.06.06.09.17.39.1.36 0 .35.03.23-.01.1-.13.2-.23.23-.19.1-.07.02-.03.02-.02.03.01.04.04.12 0 .05-.02.06-.15.24-.14.1-.03.04-.01.03.02.06.05.05.01.11-.02.07-.07.04-.03 0-.06-.01-.01 0-.01 0 0 .01 0 .02-.01.04-.01.04-.01.02-.03.01-.02 0-.01 0 0 .01.02.06.02.03.01.02-.01.04-.03.04-.06.07 0 .03 0 .02.09.13.12.15.03.11-.02.19-.02.19-.06.09-.11.15-.13.17-.05.18-.03.06-.06.08-.34.29-.13.15-.22.44-.03.04-.26.14-.01.02.01.19-.04.07-.06.07-.32.16 0 .01.02.03.02.04.01.02 0 .02-.01.09-.01.41.02.23.04.12.02.39-.02.32.04.48.24.66 0 .09-.04.12-.03.01-.06-.02-.01 0-.02.02-.01.16.01.03.07.03.01.03-.03.05-.05.03-.01.04.02.05.07.03.02.07-.01.04-.02.05-.04.28-.03.14-.04.16-.08.48-.05.25-.02.1-.04.18-.08.16-.08.1-.18.17-.18.17-.27.18-.12.11-.02.03-.03.02-.02.04-.14.2-.05.06-.06.05-.17.18-.08.07-.1.06-.04.05-.15.2-.11.11-.06.11-.02.08-.03.15-.13.2-.04.11-.07.1-.06.05-.04.06-.04.05-.06.05-.07.04-.08.05-.02.02-.02.1-.01.06-.02.07-.02.04-.03.04-.26.36-.11.14-.05.02-.05.02-.03.02-.06.07-.04.04-.02.05.01.03.01.02 0 .02-.04.04 0 .01.02.1.05.05.03.03.01 0 .09.01.02 0 .01.02.01.02 0 .08 0 .01-.06.08-.04.07 0 .01 0 0 .15.06.01.01 0 0-.06.1-.01.01.01.01.16.07.02.02.01.04-.02.14-.11.25-.09.26-.05.39-.13.46-.21.37-.24.36-.19.15-.07.04-.01.01 0 .01.01.01.04.03.05.05.01.02.01.33-.16.77-.43.86-.02.03-.08.17-.09.15-.44.36-.74.53-.43.35-.15.16-.36.25-.89.77-.52.48-.37.4-.6.66-.4.37-.23.19-.96.94-.5.43-1.36 1.13-.52.38-.55.43-1.09.99-.45.5-.67.74-.23.22-.55.59-.4.4-.39.37-.29.38-.45.61-.86.88-.81.78-.72.73-.69.74-.66.69-.61.53-.3.3-.3.31-.4.35-.37.33-.49.46-.35.28-.4.3-.13.14-.12.14-.21.18-.47.33-.18.15-.05.05-.06.24-.07.17-.22.4-.26.31-.45.46-.28.36-.34.42-.26.46-.1.14-.35.35-1.29 1.22-.57.52-.84.75-.61.52-.55.49-.79.68-.54.47-.69.59-.6.48-.43.36-.78.56-.18.25-.23.26-.16.25-.34.45-.08.05-.01.02 0 .03.01.03.04.02.01.02-.01.02-.17.19-.47.42-.36.32-.28.29-.18.29-.12.13-.14.12-.01.02-.13.23-.01.05 0 .05.01.07-.02.25 0 .17-.01.01-.3.32-.66.58-.93.81-.69.61-.28.25-.46.37-.37.38-.16.19-.07.06-.12.08-.3.2-.27.27-.42.4-.11.08-.2.15-.33.28-.23.37-.26.22-.05.09-.05.1-.01.08.04.15.01.07-.02.09-.11.16-.12.17-.21.25-.29.27-.31.28-.15.14-.39.35-.46.39-.36.31-.56.49-.44.39-.22.25-.46.41-.39.25-.36.25-.21.16-.24.13-.09.01-.04-.01-.03-.03-.04-.03-.04 0-.01.01-.01.01 0 .08 0 .04-.07.1-.02.01-.02-.01-.1-.06-.01.01-.01.01.03.07.01.03-.02.02-.02 0-.03-.01-.05-.04-.02-.01-.01.01-.01.01 0 .1-.01.02-.03.01-.13-.05-.02 0-.01.01 0 .02.07.09 0 .04-.02.03-.05.05-.02.03-.02.06-.03.05-.01.03-.04.01-.05 0-.02 0-.02.01-.03.04-.04.04-.05.02-.04 0-.03.01-.01 0 0 .02.01.02-.01.03-.01.03-.02.01-.03.01-.02 0-.02-.01-.02.02 0 .02.02.03-.01.02-.02.01-.03.01-.02 0-.02.02-.02.05-.01.03.01.01.05.04.02.02.01.03 0 .04-.04.06-.05.05-.08.04-.14.08-.06.02-.04 0-.02-.01-.04-.01-.01 0-.02.01-.18.15-.12.11-.04.03-.05 0-.09 0-.03.01-.03.03-.01.03.03.11-.01.02-.01.02-.03.03-.03.07-.04.06-.25.18-.02.01-.02 0-.07-.05-.02 0 0 .01.02.09-.01.02-.04.04-.07.04-.11.04-.02 0-.01.02-.18.27-.08.07-.02.01-.05 0-.03-.01-.01-.01-.01 0-.01.01-.07.15-.15.23-.07.15-.03.15.06.18-.01.12 0 .07.06.33.01.15-.03.17-.05.18-.14.31-.14.24-.26.28-.54.54-.53.5-.26.25-.55.53-.23.18-.77.6-.53.52-.28.34-.49.48-.47.48-.29.37-.07.07-.08.06-.16.12-.14.12-.21.2-.35.25-.37.3-.19.16-.32.3-.53.54-.23.26-.1.09-.14.14-.17.14-.07.04-.05.04-.01.02 0 .03 0 .04 0 .02 0 .02-.01.03-.31.28-.24.25-.21.21-.23.22-.25.21-.13.09-.04.02-.1.06-.02 0-.03-.01-.03-.01-.01 0 0 0-.04.06-.03.01-.02 0-.03-.01-.02-.02-.02 0-.02 0-.01 0 0 .01 0 .02.01.02 0 .02-.01.01-.01.02-.02 0-.05 0-.05 0-.01 0-.05.04 0 0 0 .02.01.02.03.02.01.02 0 .01 0 .02-.02.01-.02 0-.02-.01-.02-.02-.02-.01-.02 0-.01.01 0 .01.01.03.04.06 0 .03-.02.06-.04.08-.15.14-.14.14-.11.1-.1.07-.07.04-.08.03-.18.12-.2.16-.04.01-.04.01-.02.02-.02.03-.01.02-.01.03-.02.03-.16.14-.16.14-.17.13-.24.19-.32.25-.08.07-.07.06-.08.04-.05.02-.15.06-.1.06-.07.07-.04.05-.06.07-.08.11-.09.13-.22.2-.1.07-.63.5-.18.1-.07.03-.11.02-.08.03-.06.05 0 .03 0 .02.01 0 .03.01.01.01 0 0-.01.01-.04.02-.05.03-.19.15-.31.25-.09.06-.01.01-.02 0-.06-.03-.04 0-.03.02-.04.1-.01.01 0 0 0 .01.01.01.01.02.07.02.01.01.01.01 0 .01-.01 0-.03.01-.05.01-.03.02-.01.02 0 .02 0 .01.04.03.02.04-.01.04-.06.08-.01.02.01.02.02 0 .03 0 .06-.04.07-.04.02-.01.03.01.04.02.09.06.04.06.02.06 0 .09-.02.12-.04.1-.07.07-.07.04-.11.06-.24.08-.04.05-.02.04-.02.09 0 .17.01.27-.02.23-.05.2-.05.17-.09.13-.14.16-.14.14-.28.23-.11.07-.07.03-.14.05-.08.04-.05.04-.06.06-.07.08-.05.04-.02.03-.02.02-.17.14-.11.11-.16.21-.27.52-.26.3-.3.34-.42.42-.21.2-.17.17-.25.35-.23.2-.19.16-.11.13-.14.29-.17.24-.28.25-.25.22-.37.38-.15.18-.08.17-.11.29-.08.17-.08.15-.12.24-.09.2-.08.15-.13.18-.18.24-.13.12-.57.46-.17.15-.08.07-.09.07-.21.19-.21.19-.21.17-.29.24-.41.32-.17.13-.11.13-.14.2-.18.22-.15.16-.31.3-.26.18-.13.18-.29.7-.09.17-.06.12-.2.21-.3.2-.28.26-.18.21-.18.19-.13.16-.24.3-.21.26-.16.16-.16.16-.18.18-.32.28-.38.38-.25.31-.18.23-.17.22-.27.28-.62.47-.22.24-.22.22-.16.19-.33.53-.13.18-.12.15-.17.23-.22.23-.17.23-.38.46-.34.34-.28.21-.65.47-.37.3-.16.13-.13.1-.16.16-.25.22-.21.17-.12.12-.3.31-.21.22-.16.19-.1.11-.24.23-.09.08-.48.35-.22.15-.21.16-.15.13-.13.08-.21.13-.18.09-.11.1-.07.09-.04.07-.08.1-.25.16-.21.14-.31.18-.68.31-.21.11-.2.11-.15.11-.1.12-.1.14-.1.32-.04.13.01.14.05.24.02.06.04.27-.04.32-.05.3.02.07.04.06.13.11.11.12.09.14.04.13.07.21.05.19.03.15-.01.27-.05.44-.03.59 0 .5-.06.44 0 .38.01.26.07.49.03.33 0 .34-.03.29-.02.17-.08.22-.12.29-.04.25-.02.21-.04.18-.07.16-.08.17-.05.22-.05.24-.09.43-.08.19-.06.13 0 .05.01.05.04.08.08.17.11.28.05.15 0 .05-.02.07-.08.24-.05.34 0 .12.05.14.05.14 0 .16-.03.23-.01.19-.06.37-.14.5-.09.36-.05.38 0 .26.01.26.01.21-.04.17-.05.15.01.1.03.08.07.17.07.16.08.24.18.28.18.3.12.34.01.26 0 .21-.03.18-.1.39-.05.27-.03.21-.08.33-.09.32-.06.25-.09.32-.09.25-.19.53-.06.16-.17.28-.11.15-.26.48-.11.3-.2.6-.07.14-.17.24-.17.3-.21.28-.19.26-.04.09-.02.08-.01.18-.1.41-.09.28-.09.27-.17.39-.1.41-.1.25-.2.31-.2.3-.22.28-.15.22-.32.48-.38.57-.29.37-.28.39-.27.33-.34.5-.21.27-.35.44-.38.46-.31.38-.33.39-.48.56-.14.19-.24.28-.4.51-.61.77-.91 1.15-.45.57-.32.44-.27.34-.57.76-.35.44-.85 1.07-.42.49-.31.37-.32.39-.31.37-.43.5-.32.37-.39.41-1.14 1.23-.63.63-.53.49-.49.4-.42.31-.48.31-.25.21-.23.24-.1.15-.1.13-.17.09-.08.09-.05.05-.05.06-.05.07-.02.05-.08.09-.17.15-.1.07-.07.03-.04.01-.06.02-.03.01-.03 0-.02.01 0 .01-.02.02-.03.05-.02.03-.02.03-.04.06-.1.12-.13.14-.22.22-.09.1-.08.07-.11.12-.03.02-.05.04-.05.04-.05.05-.06.06-.05.05-.04.02-.04.02-.02 0-.02.01-.03 0-.02 0-.03.01-.04.02-.03.04-.03.06-.21.17-.12.1-.06.03-.09.05-.03 0-.01.01 0 .02-.05.09-.14.21-.18.29-.12.12-.09.08-.07.06-.03.02-.05.03-.08.05-.06.06-.1.13-.03.02-.01.01-.04.03-.04.02-.02.02-.02.01-.03.02-.02.02-.02.01-.03.01-.05 0-.09.04-.09.02-.11 0-.11-.04-.11-.09-.1-.04-.12.01-.12.1-.01.07.07.11.02.07-.01.08-.04.05-.09.08-.07.05-.09.05-.1.07-.05.03-.07.02-.08.01-.15.01-.13.01-.05.02-.05.03-.1.16-.04.07-.05.04-.1.04-.05-.01-.09-.05-.07-.03-.02-.01-.02-.01-.01-.02-.01-.01-.01 0-.01-.01-.01 0-.01 0-.01-.01 0-.01.01 0 .02-.02.01 0 .01-.01.01-.03.02-.04.02-.03.02-.04.01-.01.01-.03.02-.06-.01-.02-.02 0-.02.03-.03.04-.03.05-.04.04-.02.01-.02-.01-.04-.03-.02-.01-.03 0-.02.01-.03.06-.01.06-.01.03-.03.03-.01.03-.01.02-.02.03-.04.02-.05.01-.08.03-.05.07-.03.05-.03.04 0 .02 0 .05.01.08-.01.08-.01.08-.03.24 0 .11 0 .04.02.03 0 .04 0 .02.01.04-.29.43-.04-.01-.08-.01-.06.04.01.02-.01.01.01.03-.04.03-.04.07-.02.05-.02.02-.03.03-.02.03 0 .04 0 .03-.08.14-.01.02-.01.03-.01.03 0 .12 0 .08-.01.01 0 .03 0 .04-.01.08 0 .07.01.06.01.05.02.16.01.01 0 0 .01.01.01.01.01 0 .01 0 .02 0 .01-.01.01-.02 0-.01-.03-.11-.01-.04 0-.03 0-.02 0-.03 0-.03 0-.02 0-.01 0-.01 0 0 .01-.01.01 0 .01 0 .01-.01 0-.01-.03 0 0-.01 0 0 0 0 0-.01 0 0 0 0 0 0 0-.01 0 0 0 0 0-.01 0 0 0-.01 0-.02 0-.02 0-.24 0-.01.12-.23.02.01.02.01.03 0-.02.04 0 .01 0 0 0 0 .02.01.09-.15-.01 0 .02-.03.01 0 .05-.07.01 0 .12.08-.09.16 0 0 .02.01.01 0 .05-.07.03-.04.03-.02-.01-.02.02-.02.06.04-.1.2-.02.02-.02.01-.02-.02-.04.06-.08-.04-.12.19.01.07.08-.01.01.02-.09.01.01.03.01.01.07.04.01 0 .01 0 .21-.09.01-.01.33-.38.03-.05.02-.01.01-.01.01-.02.02.01.06.02.04.02.02 0 .03.02.03.01.04.01.03.01.03.01.03.01.03.01.01 0 .03.01.04.01.03.02.05.01.02.01.02.01.04.01.06.03.07.04.13.06.18.15.09.12.24.23.18.24.14.32.05.17.03.12.07.38-.01.58-.06.46-.2.55-.25.4-.38.39-.49.3-.53.24-.47.2-.31.28-.14.16-.08.31-.13.47-.14.49-.11.47-.16.91-.11.44-.26.74-.08.15-.15.22-.2.3-.24.35-.2.31-.48.65-.29.33-.23.36-.11.23-.14.17-.08.14-.01.05 0 .03 0 .04.03.06.07.1.01.08-.03.09-.07.13-.22.25-.08.13-.27.35-.45.68-.11.14-.25.25-.26.21-.24.25-.17.21-.19.22-.08.12-.12.12-.06.07-.02.15-.02.07-.14.17-.29.34-.07.13-.22.31-.15.21-.7.67-.41.3-.21.22-.07.13-.14.36-.09.14-.32.4-.26.25-.34.28-.22.23-.03.02-.31.21-.43.42-.44.35-.65.77-.52.52-.16.14-.09.03-.08 0-.16.03-.15.06-.21.18-.35.3-.72.37-1.01.85-.58.43-.41.4-.36.43-.28.33-.17.37-.09.58-.02.3.02.43 0 .19-.02.17-.07.21-.05.23-.02.25-.03.13-.12.16-.43.43-.25.28-.14.23-.08.15-.06.23-.06.27-.49 1.03-.33.66-.06.16 0 .04z" /><path d="m22.53 381.13l.01.01.02.01.02 0 .02-.01.01 0 .02.01.03.01.01-.02.03-.02.02-.04.01-.04 0-.02-.01-.05-.01-.01-.02-.02-.02.01-.02.03-.03.02-.01 0 0 .01-.02.02-.01.01 0 .01 0 .02-.01.01-.01.01-.01.01-.02.01 0 .02z" /><path d="m22.77 380.99l.01.02.03.01.03-.01.02-.01.01-.01 0-.02-.01-.02-.02 0-.02.01-.02.01-.02 0-.01.02z" /><path d="m22.84 380.91l.01.02.02.02.02-.01.03-.02.03-.01.02-.05.01-.03.01-.05-.01-.01 0-.01 0-.05 0-.09-.03-.01-.02.01-.01.06 0 .04-.03.06 0 .04 0 .02 0 .01-.01 0-.02.02-.01.02-.01.02z" /><path d="m23.12 380.77l0 0 .01.01.01 0 0 .01.01 0 0 .01 0 .02 0 .01-.01.02 0 .01.01.01 0 .01.02.02.02.02 0 .03 0 .02 0 .01 0 .01 0 .01 0 .01-.01.02 0 .02.01.01.02 0 .01-.03 0-.01.01-.02.01-.03.01-.01 0-.01.01 0 .02-.01.01 0 .01 0 .01 0 .02 0 .01 0 .01 0 .01 0 .01 0 .01 0 0-.01.01-.01 0 0 0 0 .01 0 0 0 .01.01 0 0 0 .01-.01.02.01.01 0 0 .02 0 .02 0 .02 0 0-.01.01-.01.01-.01.01-.01.01-.01 0-.01.01-.03 0-.03 0-.03.01-.03 0-.04.02-.04-.02-.05-.02-.03-.05-.02-.03-.02-.02-.01-.02-.01-.01-.01 0-.01-.01-.01 0-.02.01-.03 0-.02.01-.02 0-.02 0 0-.02 0 0 0-.01.01-.01.01-.01 0-.01.01 0 .01 0 0-.01.01 0 0-.01 0 0 0-.01-.01-.02-.01-.01 0 0 0-.01.01 0 0-.01 0 0 .01-.01.01 0 .01-.01.02 0 .01 0 .02 0 .01 0 .02-.01.01-.01.01-.01.01 0 .01-.01.01 0 .01 0 .01 0 0 0 .01 0 0 0 .02-.01.02-.01 0 0 0 0 0-.01 0-.01-.01-.01 0 0 .01 0 .01-.01.02-.01.02 0 .02z" /><path d="m23.34 381.03l.02.01.02 0 .02-.01.02-.02-.01-.01 0-.01-.02-.01-.02.01-.02.01-.01.03z" /><path d="m23.45 380.08l.01.02.01 0 .04-.01.01-.01 0-.01 0 0 0-.01 0-.01 0-.01-.01 0-.01-.01 0 0-.02 0-.01.01-.01 0 0 .01 0 .02-.01.01z" /><path d="m23.46 380.52l0 .02 0 .01.01.01 0 0 0 .01.02.01.02 0 .01-.01.01-.01 0-.01 0-.02 0-.01 0 0-.01-.01-.01-.01 0-.01 0 0-.01 0 0-.01 0 0-.01 0 0 0-.01 0 0 .01-.01 0-.01.01 0 0 0 .01 0 0 0 .01z" /><path d="m23.48 380.1l.01.01.01 0 0 0 0-.01-.01 0-.01 0z" /><path d="m23.83 379.69l.01.01.01-.01.04-.03.01-.02.01-.03-.01-.01-.01 0-.02.01-.03.04-.01.04z" /><path d="m23.84 380.34l.01.01 0 .01 0 .01.01.01 0 0-.01.01 0 .01 0 .01 0 .01-.01.01.01.01 0 0 .01 0 0 0 .01 0 0 .01.01 0 0 0 0 0 0 0 0 .02-.01.01 0 .01 0 .01 0 .02.01.01 0 0 .01 0 .01-.01.01 0 0-.01.01-.02.02-.02 0-.01 0-.01 0-.01-.01-.01 0-.01 0-.02 0-.03.01-.01 0-.01 0-.02 0-.02-.01-.02-.02 0-.03 0-.01 0-.01.01-.01.01-.01.02 0 .01z" /><path d="m23.84 380.26l0 .01.01 0 0 .01.01 0 .02 0 .01-.01.01-.01.01-.01 0-.01 0-.01-.01 0-.02 0-.01.01-.01 0-.01.01-.01.01z" /><path d="m23.85 379.78l0 0 0 .01 0 .01 0 0 .01.03.01 0 .01.01.03-.02 0 0 .01 0 0 0 .01 0 0 0 0 0 0 .01.01 0 0 0 0 .01.01 0 .01-.02.01-.02 0-.01 0-.01-.01 0 0-.01 0 0-.01 0 0-.01-.01 0-.02 0 0 0-.01-.01-.01-.02-.02-.01-.01.01-.01 0 0 .01-.01.01 0 .02 0 .01z" /><path d="m23.95 379.74l.01.01.02.01 0-.01.01-.01 0-.02-.01 0-.01 0-.02.01 0 .01z" /><path d="m23.99 380.25l0 .01.02.01.01-.01 0-.01.01-.01 0-.01-.01-.01 0 0-.02.01 0 0-.01 0 0 .01 0 .01z" /><path d="m24.52 379.19l.01.01.01 0 .01-.01-.01-.01-.01-.01-.01.01 0 .01z" /><path d="m24.54 379.06l.01.01.02-.01 0-.02-.02-.01-.01.01 0 .02z" /><path d="m25.36 378.45l.01.01.01.01.02.01.01 0 .02.01.01 0 .04-.01.01-.01.01-.02 0-.02.01-.03 0-.03 0-.02-.01-.02-.02-.02-.01 0-.02-.01-.03.01-.02.01-.01.04 0 .02 0 .01.01.01 0 .01 0 .01-.03.01-.01.02z" /><path d="m25.76 378.19l0 .02.02.02.01.01-.01.03.01 0 .01 0 .06-.05.03-.07.02-.05 0-.05 0-.02-.01-.03-.02-.02-.02-.02-.01-.02-.01 0-.02.01-.01.02-.01.06-.01.07-.03.09z" /><path d="m26.37 377.94l.02.04.03.01.02 0 .02-.01.01 0 .01.01.01.01.01 0 .03.01.03 0 .04-.02.03-.04.02-.05.01-.03-.01-.02-.04-.07-.01-.03-.04-.03-.04-.02-.01 0-.02.01-.06.1 0 .02-.02.02-.04.09z" /><path d="m26.62 377.45l.02.03.02.02.01.02.01.01.03 0 .02-.02.01-.08-.05-.08-.02 0-.05.04 0 .06z" /></g></g></svg>