<?xml version="1.0" encoding="utf-8"?><svg xmlns="http://www.w3.org/2000/svg" version="1.1" baseProfile="tiny" width="800" height="600" viewBox="0 0 800 600"><g><g stroke="#000000" stroke-width=".98" fill="#FFFFFF"><path d="m113.9 379.42l4.65 4.73.34.62 3.27 5.91 3.15.91 2.33.09 2.05-1.06 2.94-1.51.84.36 1.06.45-.71 4.6 3.26 2.48.49 1.8 1.3-.05.98-.04 1.36 2.48.31 3.09.28 2.73 2.17 3.03.98 3.29.95 4.6.89 1.9-2.11 3.38.7 1.13-1.03 1.94 3.26 1.27 1.19 2.16.02.16.52 5.17 2.55 1.04.6 3.25 1.79 3.31-1.41.44-.65 1.67.11 2.9 1.13.62.75 1.41.63.02.82-.55.45.16.31 1.17.66.58.16.41-.82.45-.37.19-.01 1.24.54.53-.47.6-.07.76.54.24.8-.51.2.3.06 1.19-.15.8.46.19 1.14.08.51.33-.1.2-.98.02-.14.26 1.08.99 1.11.1.15 1.28 1.03-.35.54.26.12.37-.45.37-1.79.32-.39.03-.08.6 1.56.69.45 1.26.23.25 1.15.8 1.14.6.73 1.01 1.3 1.71.44 1.37 1.45.28.99.4.66-.41.76-.7.51-.75-.41-.99-1.38-2.07.28-2.3 3.96-4.73 3.51-1.31 2.77.3 2.87 3.56 4.73-.75 3.98.68 2.23 1.01 3.48.17 2.82-1.17 8.37 1.11 3.31-1.02 1.96.27 2.24.94 2.14 1.93 4.01-.23 3.21.1.59 1.27.76 1.46.56 1.23 1.89.41 1.45 1.81-4.9 9.3-3.05 3.37-.06.05-1.56 1.35-.61.53-2.9-.7-3.51 1.48-4.64 2.73-1.1 2.14-.2 4.98 1.15 3.19 3.32 2.14.41.27.94.61 1.89 2.36 2.37 2.71-.05 1.9-2.7 1.94-.68 2.27-.58 3.42.31 4.32-.29 4.79.96 8.5.84 3.56.56 2.35.11 6.26 1.17 8.62-.37 4.8-.03 3.45-.76 3.05-1.25 1.31.51.82 1.32 1.45 1.02 1.45 1.45.77 3.68 2 3.75.41 3.29.34 6.97-.55 6.3.09 2.38.14 3.55-.06 4.63.62 1.61-.14 2.09-.07 1.82.08 3.26 1.09 4.22 1.34 2.67.65 6.15 2.82 2.97-.13 3.51.9 6.68 3.07-1.12 1.46 4.77.55 3.03 3.55.96 1.84 1.93 2.96 2.99-.04 2.33-2.53 1.29-5.81 3.35-3.79 4.74.39 6.95-3.35 3.75-6.74 4.2-.96 5.29-1.33 4.16.79 3.35-1.25 7.34-9.25.74-5.97-4.92-6.39-4.67-8.7 6.31-7.84-3.65-7.08 8.11-6.21 1.39-6.27 4.05-2.89.05-9.45.01-1.56.02-3.39.01-2.74.01-2.39 2.35-.75 2.46 1.19 4.36.26 2.97 2.62 2.09 1.8 4.05-.05 2.33.55 5.02 3.46 5.22 1.18 3.6-1.08 4.37 1.66 2.53.1 2.71-.4 2.27-.07 3.49 2.36 1.67.18-.63 1.09-2.16 1.64-.18.8-.8 3.48-.61 2.2-.4 2.97 1.34 3.85-.36 4.01-1.74 2.37 2.14.56-.97 1.27.01 2.09-.81 1.72 1.52 1.59 1.8.89 2.15-.72 2-.39 2.07.14 1.81-.78 2.84 1.57 1.71 1.58 2.16.42 2.21-.18 2.43.39 1.66-.64 2.3-1.27 2.55.77 1.72.64 4.07.32 2.78 2.3 1.03 4.53 3.04 1.77 3.57 1.18 2.38.09 2.33.08 4.01.15 2.08-.1 1.4-.07 1.85-.08 2.49-.12.92-.04 1.31-.06 2.93-.14 2.04-.1.35-1.9.25-1.39.27-1.47 3.91.52 1.29.2 1.59-1.16 1.1-1.61.39-.55.42-.45.4-.12.45.17.27.42.21.8 1.49 1 .96.6.61.61.92.45.58-.17.99-1.43 1.04-.89.29-.26.32-.93.66-.39.62.09.39 1.05 1.36.19.62.61.22 2.42.49.17.52-.33 0-.79.05-1.02 1.48-1.36 1.28-.33.67.22-1.82 3.28.47.56 1.08-.05.41 1.01.76-.26.43.1.53.06 1.09-.11 1.24.31 2.09-.1 1.37-.41.63.18 1.69 1.34.34-.23.41-.05.59.08.38-.24.38-.08 1.37-.2.45.6.46 0 .54-.87.51.01.66.89.4.24.94 0 .4-.41 1.04.34.88-.3 1.13.08.74-.06 1.55.36 1.18-.26.6-.04.24.11.23.91.28.31 1.1.43 4.52-1.17 2.48-2.39 2.57-1.74 2.54-1.77 4.41-2.01-3.02-1.29-3.37.63-.43-2.02-1.33-1.34-1.19-1.33-1.57-.93-1.59-.8-1.05-1.43.31-.58.73-.56.92-1.4.3-1.11.74-.8.35-3.37.11-4.16-1.14-3.53-2.06-2.98 0-2.36 3.01-1.77 1.98-3.56 1.79-2.88.19-1.76 1.53-2.03.81-1.66-.36-.25.08-.51.54-.43.16-.38-.75-.34.12-.64-.24-.05-.88.12-.17-.1-.04-.45-.16-.2-.3.01-.61.62-.72-.07-.35.11-.76.57-.16-.12-.43-.32-.52-.21-.69-.22-1.28-.6-.75-.42-.1-.49-.29-.54-.57-.06-.19-.18.29-.33.16-.23-.39-.25-.19-.08-.52-.05-.55.14-.35.16-.28-.09-.3-.26-.21-.3.1-.52.59-.26.46-.09.37.25.22.01.52-.31.24-.67.49-.8-.03-.23 11.03-5.09-1.18-6.63.95-5.79-1.79-5.73-5.75-10.73 3.96-1.44 4.48-13.03-2.49-4.78 7.04-7.58 6.79-4.76 1.95-7.96 1.03-6.78 3.74-5.26 1.16-2.6.69-2.5-2.52-1.8-1.71-2.28-1.93-1.87-3.01-1.27-3.03-1.17-3.21-.83 1.55-2.77.95-2.52.7-1.85-4.5-4.21-2.39-.91-2.38.19-.47-.46-.33-.57-.24-.59-1.31.79-1.04-.77-1.5-1.47-1.37-.94-.88-1.21-.74-1.69.47-.83 1.13-1.4.94-.98.47-.63-.91-1.46.55-.48 1-.38 2.03-.39 3.65-.07-.24-1.14-.64-1.07-.25-.38.19-.32.04-.44-.02-.78.25-.57.22-.55.62-.68-.14-.61 1.34-.43-.03-1.23-.09-2.18 1.88-.29 1.62.54 1.21-1.32 1.97-1.86-1.32-.97.54-.43.34-.81.54-.4-4.8-5.86-2.65-5.15-4.47-3.17-1.97-1.05-1.4-2.34-2.24-1.65-1.7-2.04 1-2.12 3.65-1.28-2.07-3.21-1.28-1.78-.58-1.09-.37-.69-6.22-1.33-7.04-4.61-6.04-8.71-3.08-3.53.89-2.03.13-3.36 7.55-7.09 4.59-1.66 8.56-3.11-3.17-4.44-1.6-5.3 10.84-.64.57-6.46 7.44 14.09.59 1.13 1.35-.04.35-1.31 1.36-.26 2.31.28-.14 2.34 2.33.14 4.31-1.04 7.14-3.52 2.05-.09-1.66 9.19.65 7.57 6.48.76 10.23-.3 1.06.02 2.02-1.95 4.75 1.18 4.94-.29 2.15.83.73 1.76 2.42 2.27 1.63.08 2.33-.22 7.45-4.05 5.14-2.7 2.39-2.52.07-3.31.91-3.87 2.11.22.98.66 2.88.99 2.86.89 1.76-.84 1.54-.74.7-.33 2.37 1.05 2.6 1.17 1.94.86.04-2.73 1.5-2.85 2.43.01 4.22-6.15-6.64-2.15-1.79-3.92-1.25-2.63 3.08-4.47 4.13-2.69 4.65.38 1.09-2.67.99-2.63 1.02.45 1.16.25.51-.6.06-1.04-.51-1.11-1.3-.81-1.02-.74.13-.94-.1-.85-.8-1.09.18-.49-.18-.42-.3-.35-.21-.14-.13-.63-.39-.7-.36-.06-.64-.05-.01-1-.48-.87-.15-1.16-.14-1.08-.76-.47-.38.35-.16.14-.24-.18-.1-.48-.24-.7-.06-.27.18-.3.64-.05.45-.28.09-.31-.33-.39-1.11-.61-1.11-.85-2.66-1.18-.5-.59.17-.58-.14-.52-.33-.53-.25-.53-.45-.2-.53.13-.33.18-.18.34-.04.42-.33.44-.27.23-.52.22-.21-.02-.49-.66-1.02-1.81-.63-.46-.58-.67-.59-.28-.6.21-1.01.64-.19.4-.16.64-.02.61.49.72.17.29-.13.23-.22.22-.32.07-.44.02-.29-.11-.15-.15-.12-.48-.26-.23-.67-.27-.95-.18-.8-.31-.34-.5-.56-.62-.36-.24-.15-.3-.02-.81-.02-.57.14-1.57.7-1.07.49-.46 2.31-.58.3-.2.09-.43-.3-.74-1.56-.69-1.53-.78-1.22-.41-.44-.88-1.82-1.1-1.03-.04-.29-.36.02-.14-.16-.2-.49-.33.17-.21.28-.15.08-.75-.11-.42-.49-.16-2.17-.02-1.77.9.06-.55.62-2.09.54-1.52.98-.6 1.93-.29 1.35.09 1.71.48 1.03 1.62.57-.25.81-.05.11.73.68.09 1.33-.36 1.55-.72 2.14-1.12 1.55-.81 2.85-1.08 2.06-1.5 2.5-2.16 12.16-2.4 7.36-3.7 1.33-4.06.93-1.12.92-1.74 1.33-1.45.68-.46 1.11.81.7.33 1.82-.31 1.66-.6 1.08-.89 1.2-1.13 1.79-1.14 1.33-1.58.84-1.53.1-.81-1.29-1.16.46-2.21 2.56-1.49.4-1.12-2.24-.46-1.17-.17.69-1.39 1.33-2.21 2.14-2.55 2.52-2 1.71-1.2.95-.72-3.44-.91-2.23-1.13-1.87-.83-1.55-.74-1.35-.12-3.1-.98-2.22-.63-2.25-.49-2.58-.31-2.87-.57-.98.57 1.52 1.64.22 2.36-2.49.24-.82-.43-.62-1.28-3.01-1.99-3.4-1.15-1.74.11-.8.06-.42-.52-.47-.64.28-.12.31-.25-.59-.38-.25-.33.21-.42.28-.43.12-.66.02-.56-.19-.31-.86-.38-.58-.93-.24-.88.27-.74 1.19-.5.11-.69-.54-.46.35-.93.28-.79.19-.74.71-.79 1.07-.39.57-.37.98-.96.96-.54.98-1.07-.9-1.03.59-1.57-1.16-1.19-.63-1.34-.84-1.71-1.47-1.02-2.51-1.53-1.44-.91-1.49-.31-.29-1.07-1.66.32-.79.16-1.37-.08-.79-.97-.66-.96-1.25-.32-1.64.05-1.45-.15-1.28-.48-1.33-.24-1.16.07-.67.18-.53-.26-.39-1.07-.64-.97-1.84-1.26-1.81-.65-1.5-.18-1.16.05-.94.66-1.38 1.26-1.3.19-.88-.09-.73-1.2-.56-1.38-1.64-3.26-.6-2.11-.39-.7-.01-.68-.47-.34-1.5.43-.57-.29-.64.52-.38-.24.06-1.04.89-.52-.1-.76-.45-1.15-.18-2-.31-1.36.17-1.31-2.49.14-2.63-.04-2.46.01.19-.92-.16-1.02-.98-1.86-.24-.78-1.03-.8-1.68-1.4-.61-1.61 0-.56-1.02.69-1.63.72-1.58.17-.21-1.06-.19-.85-1.11.56-1.58-.27-1.87-.69-1.58-.21-1.84-.24-1.36-.23.17-.55.25-1.18.81-.76.35-.73-.79-.46-1.3-.17-1.08-.36-1.55-.22-1.95.6-.63.56-3.12.18-1.38.47-.33 1.44-.21 1.07-1.48.38-.34 1.41-1.66 1.45-1 1.09-4.53.05-2.6.4-3 2.06 1.45-2.75-.19-1.64-2.07-.55-.7-2.11-2.9-1.08-2.82.18-2.13 1.06-2.14-1.03-.92-1.74-2.14-.51-4.93.66-3.78-3.58-2.11-1.45 2.69-3.51.84-3.09.68-1.96-.45-.91-.1-.56-1.27-1.98-.22-1.54.3-1.47.72-1.13.3-.63-.78-.76.11-.85.63-.99-.31-.89.09-1.39.16-1.79-.89-1.94-1.24-1.31 1.4-1.69-1.44-3.19 2.09-.68 1.09-2.69 2.05-4.03-3.31-1.18-1.97-3.07 1.44-3.9-.34-2.76 1.37-1.73.51-1.61.19-.59-.06-2.16-1.91-1.14-6.33-1.76-8.16-2.08-7.69 2.06-6.57.99-1.91-.17-11.09-2.04-5.46-2.97-8-6.2-1.94-.94-12.27-5.97-6.13 4.86-8.65 0-2.23-2.4-1.9-2.05 2.79-2.4-5.31-3.05-3.19-1.02-1.65-.56-3.19-.86-3.66.91-4.73.69-3.72 4.24-4.07.83-4.2.66-5.51.89-1.18.2-1.33-.42-.91-.44-1.14-.23-2.29-.09-1.06-.77-2.18-.6-1.52.64-4.78-1.2-3.08-.87-.24.63-.25.82-.28.52-.41.79-.55 1.28-.27.65-.3.7-.29.57-.27.51-.14.32-.12.24-.12.18-.15.28-.13.35-.17.37-.03.11-.17.23-.61 1.29-.11.29-.28.62-.02.07.02.06.03.03.01.02-.05.05-.09.04-.04.07 0 .13 0 .08-.45.8-.51.98-.38.71-.14.38-.15.28-.09.22-.11.28-.09.32-.22.4-.18.39-.34.81-.2.67-.41.8-.43 1.02-.07.34-.1.28-.41.66-.31.87-.28.62-.23.56-.18.49-.29.7-.51.98-.5 1.07-.37.79-.21.47-.31.69-.21.68-.41.98-.4.8-.18.67-.6 1.54-.39.82-.37.75-.09.28-.52.92-.1.08-.13.1-.11.23-.05.24-.03.08-.03.07-.11.17-.12.16-.05.08-.04.16-.06.19-.09.17-.09.18-.06.17-.02.14-.04.18-.04.12-.09.12-.04.07-.01.07-.03.14-.04.11-.08.17-.08.16-.05.11-.06.25-.01.2-.02.15-.05.17-.05.14-.02.1-.1.18-.05.18-.11.14-.11.17-.16.17-.13.13-.07.05-.03.11.06.15-.06.16-.05.17.04.17.12.12.1.06.07-.04.15-.02.22-.04-.08-.14-.02-.17.03-.05.02-.1.19-.6.78-.15.49-.13.37-.23.43-.26.25-.16.35-.02.45.1.35.53.16.25.39.64.44.49.47.32.5-.06.34.09.28-.02 1.08-.02.36.05.08.17.16.01.27.31.14.05.71.27.73-.12-.72.28-.49-.06 0 .17.59.41.29.17.33-.28.74.22.18.05.06.1.08.08.06.08-.6.18-.09.19.26.21.02.23.05.22-.09.36.4.33.27.49.65.09.9.52-.6.87-.16.47.07.23.11.14.24.31.06.24-.02.28.12.35.99.4.27.12.68.3.2 1.01-.23.36-.57.27-.25.12-.12 1.12-.03.31-.02.15-.04.37-.52.96-.46.48-.47.65-1.22.9-.55.51-.2.31-.1.15-.1-.07-.1 0-.21.51-.49.37-.32-.08.03-.47-.04-.06 0-.1-.14-.08-.09.01-.23.19-.42.89-.69.48.17.59-.47-.04-.67-.26-.24-.23.29-.22-.42-.12.89-1.3.76-.21.47-.28.63.14.81-.56.05-.16.23-.1.31-.12.2-.11.41-.89.07-.84.3-.34.35-.12.19-.19-.02-.55.29-.23.43-1.11.47-.38-.15-.37.18-.3.07-.12.25-.05-.02-.1-.08-.14.11-.11-.07-.1.24-.19.25-.3-.18-.17-.19-.04-.16-.03-.09-.14-.32.04-.21.34-.08.35.05.36-.5.6-.3.52-.98 1.06 0 .2-.06.06-.24.26-.42.37-.17.25-.61.24-.2.06-.59-.04-.63-.11-1.13-.57-1.08-.55-.48-.44-.04-.18-.32-.62-.71-.42.05-.35-.09-.43.12-.52.22-.78-.01-.42-.09-.43-.16-.14.04-.57.04-.31-.08-.71-.02-.57.02-.3.12-.35.11-.21.36-.36.12-.07.11-.37-.21-.48-.27-.39.1-.46.19-.16.39-.02.46 0 .15-.12.01-.56-.21-.12-.12-.07-.92-.13-.52-.34-.2-.13-.11-.08-.44-.43-.69-.75-.29-.04-.25.17.04.33.01.14-.06.13-.07-.01-.09-.01-.03-.08-.01-.07 0-.06.01-.08 0-.05.01-.01.02.01.01 0-.01-.01-.02-.02-.03-.05-.02-.04 0-.06.01-.04-.02-.01-.07 0-.16.06-.17.05-.31.06-.14.03-.14.05-.25.12-.1.1.25.08-.14.04.2.1.29-.03.01.18-.04.09-.12.11-.15.24-.33-.06-.15-.04-.05.01-.05.03-.09.05-.07.04-.08.01-.09 0-.08.01-.1.03-.1.1-.11.13-.12.17-.16.18-.18.23-.11.18-.18.26-.11.25-.18.47-.2.42-.53.95-.91 1.82-.88 1.8-.32.57-.17.31-.18.29-.08.18-.32.57-.15.32-.21.39-.29.45-.35.67-.29.55-.67 1.31-.44.86-.42.86-.92 1.71-.25.49-.32.6-.19.41-.13.27-.06.13-.04.1-.05.12-.06.12-.08.17-.37.64-.55.89-.53 1.02-.56.97-1.02 1.78-.27.5-.25.5-.15.27-.25.48-.18.27-.07.14-.37.69-.12.39 0 .14-.01.08-.05.09-.25.29-.16.35-.15.5-.74 1.48-.39.74-.27.5-.35 1.02-.12.22-.14.33-.35.61-.64 1.41-.18.44-.26.63-.1.23-.17.31-.19.32-.46.79-.13.24-.33.71-.62 1.18-.53.87-.04.09-.03.12-.02.14-.31.59-.71 1.41-.21.58-.25.33-.9 1.57-.47 1.04-.4.81-.33.51-.27.4-.67 1.22-.33.73-.27.32-.48.83-.34.53-.01.07.03.11.01.06-.35.78-.49.84-.05.15.02.14-.02.1-.25.39-.18.26-.26.44-.22.42-.24.3-.32.56-.33.49-.39.58-.36.81-.45.74-.31.61-.22.38-.26.41-.17.31-.72 1.19-.19.29-.22.55-.16.39-.78 1.17-.1.2-.1.21-.1.16-.18.25-.12.25-.32.51-.24.35-.13.3-.31.58-.79 1.22-.23.58-.14.31-.23.38-.14.28-.26.48-.23.39-.29.44-.12.19-.22.35-.21.34-.26.51-.21.32-.18.22-.06.04-.05.04-.02.06 0 .11 0 .07-.08.21-.08.14-.15.25-.32.52-.24.55-.23.45-.44.8-.37.61-.25.41-.26.38-.15.26-.26.5-.15.24-.13.22-.16.23-.13.19-.57.88-.79 1.24-.16.4-.14.29-.39.66-.4.58-.35.58-.25.46-.15.26-.17.27-.26.44-.09.16-.87 1.33-.79 1.56-.16.28-1.3 1.99-.2.35-.13.2-.15.18-.11.15-.11.22-.25.57-.38.61-.43.53-.06.04-.1.01-.05.04 0 .03.13.12.01.02 0 .03-1.16 2.03-.64.9-.06.04-.08.01-.06-.01-.02.03.04.22.01.02-.27.39-.07.07-.01.08-.01.26-.3.54-.26.41-.18.3-.1.12-.18.06-.04.03-.01.05.03.14-.02.12-.27.32-.16.07-.16.01-.07.04-.04.05-.02.06.05.07.02.04.01.02-.05.06-.1.01-.08.04-.02.07.09.2 0 .1-.56 1.1-.25.3-.53.92-.61 1.23-.18.31-.23.27-.2.3-.27.48-.24.35-.32.54-.32.44-.1.18-.12.3-.11.09-.08.02-.11-.03-.07.03-.03.03.02.09.06.12-.01.05-.2.53-.52.8-.32.56-.14.19-.3.38-.55.76-.13.2-.14.17-.11.06-.02.05.03.2.01.13 0 .24-.16.31-.42.51-1.43 2.43-.17.31-.15.3-.14.28-.22.3-.2.27-.2.24-.26.34-.49.78-.24.31-.32.54-.56.65-.07.13-.01.23-.01.1-.09.14-.13.17-.1.1-.1.11-.08.18-.07.31-.1.22-.28.48-.39.64-.34.52-.63 1.03-.11.13-.08.1-.08.1-.07.06-.07.08-.04.06-.08.12-.1.08-.03.06.03.09.07.07.02.06-.03.06-1.18 1.76-.26.39-1.43 2.12-.19.28-.06.1-.12.17-.15.25-.16.24-.22.29-.13.19-.27.41-.2.28-.29.46-.34.44-.37.48-.42.56-.17.22-.1.13-.16.23-.15.2-.34.48-.39.47-.33.44-.24.28-.44.54-.25.37-.34.53-.18.25-.13.19-.35.44-.15.24-.23.34-.31.42-.41.51-.26.29-.13.2-.2.23-.18.25-.18.28-.22.3-.29.38-.24.29-.3.31-.27.36-.33.42-.23.3-.2.29-.11.16-.15.18-.14.17-.64.81-.26.33-.23.3-.13.2-.15.22-.21.28-.19.23-.44.61-.2.26-.12.17-.15.18-.18.27-.59.8-.21.27-.22.29-.14.18-.19.23-.14.17-.2.24-.27.33-.36.5-.27.32-.24.33-.26.34-.13.17-.18.26-.28.39-.95 1.27-.29.44-.28.38-.33.42-.23.32-.77 1-1.34 1.77-.53.68-.97 1.17-.36.42-.3.49-.16.26-.35.38-.24.36-.16.27-.11.17-.14.18-.16.23-.33.34-.18.21-1.42 1.84-.37.52-.87 1.14-.29.34-.12.17-.15.18-.29.38-.25.39-.16.2-.13.15-.19.29-.13.16-.4.59-.34.47-.5.67-.29.35-.13.2-.16.24-.3.43-.14.15-.23.29-.16.21-.21.31-.16.27-.17.22-.14.17-.29.41-.23.3-.1.16-.13.23-.1.16-.25.35-.21.24-.29.33-.1.12-.09.12-.18.28-.14.19-.04.04-.2.25-.21.15-.18.27-.03.06-.05.06-.15.22-.12.16-.15.17-.16.18-.17.2-.12.2-.12.17-.16.18-.16.25-.1.17-.17.18-.37.41-.16.33-.56.8-.09.12-.12.14-.15.19-.1.2-.28.42-.32.48-.28.38-.22.32-.26.43-.31.41-.36.48-.25.33-.19.33-.14.29-.14.22-.16.3-.24.42-.26.34-.32.42-.28.48-.24.29-.23.39-.14.19-.25.36-.31.32-.24.31-.18.24-.12.23-.1.2-.02.04-.51-.02-.35-.06-.35-.08-.32-.1-.27-.09-.31-.12-.05-.1-.03-.05-.08-.02-.08 0-.07.04-.02.01-.15-.05-.05-.02-.03.01-.03 0-.04.04 0 .06.01.04.07.03.12.06.1.03.16.03.39.11.82.23.43.08.43.03.18 0 .24 0 .42-.01.52-.06.46-.08.4-.09.4-.11.48-.15 1.11-.48.81-.38.25-.17.23-.26.19-.19.42-.28.43-.25.37-.25.25-.23.09-.07.05-.02.06.01.07.04.27.16.47.29.38.26.12.06.05.02.07.06.07.17.11.22-.01.01 0 0 0 .01 0 .01.04.05 0 0-.16.1-.34.17-.5.25-.25.13-.43.22-.06.03-.07.02-.35.07-.09.01-.02 0 0 0-.03-.04-.01-.02-.01 0-.02 0-.02 0-.05.01-.02 0-.01-.01-.01 0-.01 0-.16.06-.01.01 0 .01-.02.02-.09.04-.08.04-.18-.16-.04 0-.01.03.13.14-.04.04-.1.03-.17.04-.32.21-.23.16-.11.08-.15.09-.16.08-.06.02-.12.08-.14.05-.2.08-.1.04-.06.03-.08.05-.05.07-.38.36-.06.04-.11.05-.08.03-.05-.02-.04 0-.05.01-.25.04-.19.04-.39.05-.58.03-.18.01-.27.04-.22.02-.3.01-.25.01-.3 0-.31 0-.31-.03-.32-.03-.16-.02-.19-.02-.29-.05-.18-.04-.21-.05-.12-.04-.19-.05-.15-.05-.19-.08-.17-.05-.18-.06-.07-.03-.09-.04-.06-.02-.14-.05-.06-.01-.05 0-.03 0-.04.03 0 .05 0 .03.04.03.14.05.11.06.06.05.11.03.11.01.13.02.13.03.18.07.21.05.52.13.35.07.29.03.02.01 0 .02.01.32-.02.38-.05.32-.06.12-.14.28-.14.19-.13.23-.14.32-.2.6-.18.53-.19.5-.02.04-.15.34-.18.48-.31.78-.16.36-.21.59-.54 1.15-.24.64-.44 1.18-.36.81-.38.76-.37.79-.35.81-.45 1.23-.46.86-.42.89-.33.58-.21.51-.19.44-.41.8-.24.44-.31.62-.16.41-.05.19-.09.19-.4.76-.45.83-.59 1.02-.18.3-.21.32-.2.38-.22.41-.24.42-.48.77-.67 1.07-.26.4-.3.46-.31.52-.6.93-.32.47-.47.6-.66.86-.6.83-.53.7-.06.1-.32.41-.45.62-.32.43-.53.76-.34.48-.28.41-.15.2-.21.27-.27.31-.12.15-.12.14-.26.31-.35.44-.35.49-.42.55-.22.26-.18.24-.18.29-.5.67-.29.38-.33.37-.29.35-.33.44-.32.41-.12.24-.35.55-.39.44-.62.72-.24.21-.13.11-.11.11-.18.12-.01.02-.03.11-.02.03-.05.03-.09.05-.04.08 0 .1-.01.04-.03.02-.12.03-.03.04-.04.12-.03.24-.01.11-.04.11-.86.88-.14.2-.09.17-.27.36-.22.24-.12.14-.02.04-.02.06-.12.2-.09.12-.15.11-.13.09-.3.23-.34.17-.07.01-.16-.07-.06.01-.02.04.01.03.11.05.01.04-.02.05-.03.03-.08-.01-.09.06-.01.08.11.47-.08.18-.16.15-.17.22-.3.14-.28.07-.43.05-.14-.04-.14-.01-.05.01-.02.06.01.04-.03.04-.04.01-.01.02-.01.09.02.09.06.08.01.03-.04.19.01.04.08.1.03.16.01.2-.02.02-.09.01-.04.02-.01.09-.03.04-.02.01-.18-.04-.03.01-.29.39-.12.17 0 .02.07.18 0 .02-.03.02-.17 0-.06.02-.06.05-.29.37-.08.08-.09.08-.34.27-.04.03-.05 0-.12-.04-.05-.02-.01.01 0 .02.16.11.04.17.03.19-.01.03-.05.05-.04 0-.04 0-.08-.01-.07.02-.13.07-.09.08-.04.07 0 .09.03.09.09.07.03.03-.01.05-.05.02-.17-.04-.07.02-.09.08 0 .02.07.08.03.05-.01.04-.07.05-.07.01-.1-.04-.03.01-.01.03.06.07.03.1-.02.07-.21.21-.18.18-.2.12-.08.03-.09 0-.03.01 0 .04.01.03.07.05.02.1-.01.05-.33.39-.11.13-.27.19-.16 0-.04.03-.01.11-.08.23-.15.12-.14.12-.15.03-.12.1-.08.14.04.17-.09.12-.09.03-.2.02-.1.03-.15.09-.13.19-.03.04-.07.01-.09.01-.09.07-.09.13-.03.18-.12.13-.03.07.09.17.01.1-.05.06-.12.07-.08 0-.12-.04-.13.01-.11.03-.03.06-.02.11-.04.05-.16.07-.22.08-.13.09-.03.1.03.21-.01.07-.04.01-.14-.04-.07.04-.08.1-.2.07-.02.07.08.12-.01.02-.03.01-.29.02-.02.01-.01.01.08.18-.01.04-.04.03-.13.02-.07-.01-.06-.19-.05-.02-.17.04-.03.05.04.11.14.17 0 .07-.19.27-.09.06-.07 0-.14-.18-.15-.09-.02 0-.02.01.03.1-.02.01-.03 0-.18-.13-.2.02-.02-.01-.1-.08-.02-.01-.01.01-.01 0-.02 0-.05-.09-.02 0-.04 0-.02.02 0 .01.1.14.05.01.06.01.04.03.01.05-.05.06-.01.03.03.07.05.1-.01.04-.05.04-.14 0-.03.02-.03.05.01.01.07.04.01.01.01.11.02.01.03.01.08.06-.01.04-.05.02-.07-.04-.04.01 0 .01.02.03.09.07.01.03-.03.03-.06 0-.05-.02-.06.04-.04.01-.04-.01-.03-.04 0-.04-.02-.03-.03-.02-.06 0-.03.06-.05.05-.09.03-.05.01-.07 0-.07-.01-.05.01-.02.02 0 .02.03.03.06.01.04.01.03.03-.01.06.04.09.06.08.04.01.03.04-.01.08.03.04.1.02.15-.02.03.03.01.06-.01.08-.03.06-.03.04-.06.03-.13.06-.06-.01-.04-.02-.05-.11-.08-.03-.03.01-.01.18-.03.02-.04 0-.07-.14-.08-.05-.16-.01-.04.08-.01.1.1.09.1.08 0 .05-.03.01-.08-.02-.1.03-.04.05.01.15-.01.02-.07 0-.11-.04-.04 0-.03.11-.14.05-.09-.01-.13-.16-.15-.16-.17-.03-.02.02 0 .02.06.06 0 .04-.05.09.02.05.09.05.01.01-.08.22.06.1-.05.05-.09-.01-.16-.14-.1-.17-.07-.02-.12.03-.24.18-.09.17-.04.17.04.12-.03.03-.07.02-.1-.02-.03.02-.34.38 0 .02.1.08.02.05-.09.1-.02 0-.17-.04-.06.02-.23.24-.02.02.01.05 0 .04-.01.01-.1.02-.17.09-.11.15-.02.11-.03.05-.07.04-.03.04-.05.11-.14.12-.05.05-.03.05-.03.04-.03.02-.04.05-.03.03-.02.02-.02 0-.02.01-.02.01-.03.02-.04.04-.02.02-.06.01-.01.01-.08.08-.04.02 0 .01.03.08 0 .02 0 .02-.06.02-.05.03-.05.14-.05.08-.05.07-.05.06-.04.03-.06.05-.08.07-.1.08-.03.05-.02.08.01.03.01.03-.02.02-.02 0-.04 0-.03 0-.05.02-.1.07-.06.04-.14.12-.02.01-.02.06-.01.07.01.05-.01.03-.03.02-.03.01-.08.02-.01.01-.01.15-.01.01-.04.01-.01 0 0 .01 0 .06-.02.01-.02.01-.04-.01-.03 0-.02.01-.01.01-.01.08 0 .04-.03.02-.05.02-.05.03-.04.02-.03.04-.02.05.01.01.02.03 0 .02-.05.08-.07.06-.04 0-.03 0-.22-.04-.02 0-.01.02.02.11.01.08.03.05-.51.76-.38.51-.05.2-.06.1-.02.09-.02.13.02.17-.02.08-.03.03-.03.01-.75-.05-.38-.05-.02-.01-.03-.02-.04-.01-.04-.01-.05.01-.02.01-.02.04 0 .04.03.03.28.02.23.03.02 0 .02.02 0 .1-.02.11 0 .02.02.02.03 0 .03 0 .02-.02 0-.03-.01-.01.06-.13.03-.07.01-.01.02 0 .64.06.03-.01.04-.02.02-.03.02-.04.01-.08 0-.04-.03-.08-.01-.18.01-.05.02-.07.03-.04.02-.03.02.03.01.05.03.04.02.04.01.02 0 .03.01.02.04.07.03.15.01.07-.01.07-.02.08-.04.06-.05.04-.07.01-.68-.05-.02 0-.01.01.01.02.01 0 .71.07.06-.02.01 0 .01 0 0 .06.01.16.01.09 0 .06 0 .04 0 .03 0 .02 0 .03-.01.07-.02.07-.02.07-.03.05-.02.04-.03.04-.04.04-.08.06-.04.03-.04.06-.1-.13-.11-.12-.19-.18-.01 0-.01 0 0 .01 0 .01.17.18.11.11.07.1.1.14.05.08.06.13.05.13.06.18.03.13.01.14 0 .04.02.01.02 0 .01-.02 0-.04-.01-.11 0-.01.01 0 .01-.01.03.01.05 0 .03 0 .02 0 .04.01.04.01.04.01.06.02.06.05.06.04.03.03.03.04.05.09.04.07.05.08 0 .01.01.01-.01.02-.03.02-.13.02-.08.02-.34.07-.02 0 0 .01.01.02.02.01.3-.07.17-.02.06-.01-.01.03-.02.02-.03.04-.01.04.01.04.03.05.04.07.04.02.16.04.01 0 0 .01 0 .01 0 .03 0 .04 0 .03 0 .02 0 .03 0 .03 0 .02.01.05.01.02.02.01.03.02.02 0 .03 0-.02.03 0 .01 0 .01 0 .01.02 0 .01 0 .11-.11.09-.08.02-.01.01 0 .02.02.02.02.04.02.03.02.04.03.03.03.06.04.07.04.06.02.03 0 .03 0 .03-.02.02-.03.02-.01.04 0 .02.01.07.02 0 0 .01.01.01.01.01 0 .06.03.02.01.04.02.01.01.02.01.03.01.02.01.31.02.11.02.17.04.11.02.19.06.06 0-.15.36-.2 0-.75-.18-.23-.04 0 0-.01 0 0 0-.02-.01 0-.01-.14-.03-.31-.05-.27-.03 0-.01 0-.01-.01 0-.03-.01-.23-.08.01-.01 0-.01-.13-.04-.03.03-.18-.13 0 0-.16-.1.02-.03-.28-.27-.11.05-.21-.12-.03-.03-.02-.05-.03-.05-.02-.04-.01-.05 0-.02-.01-.02-.02-.01-.01-.03 0-.03.02-.05.01-.02.01-.03 0-.02.01-.01.01-.02.01 0 0-.01 0 0 0-.01-.02-.01-.01-.01 0-.01.01-.02.01-.02 0-.01-.01-.02-.01-.02 0-.04.02-.1 0-.02-.03-.03 0-.03.02-.02.02-.07-.07-.11-.11-.06-.11-.02.03-.19.01-.18-.01-.04-.02-.03-.04-.05-.03-.04-.06-.05-.13-.12-.01 0-.01 0 0 .01 0 .01.14.12.07.09.03.04.01.04.01.09-.02.08-.01.08-.03.14-.05-.01-.1-.02-.19-.01-.13 0-.23.01-.2-.02-.17-.07.02-.49 0-.16-.03-.1-.04-.11-.05-.08-.02-.03-.05-.07 0-.04 0-.02 0-.03-.03-.02-.02-.01-.03 0-.05.01-.04.04 0 .05.16.23.04.08.03.11.02.24 0 .22-.02.33.02.22-.1.03-.07.02-.05.02-.07.02-.06.03-.32.15-.1.04-.1.03-.14.03-.06.02-.04.03-.07.01-.07-.01-.08-.05-.03-.05-.04-.02-.04-.02-.02 0-.02 0-.01.01-.01.01-.04.04-.05.02-.04.01-.04.03-.03.01-.02.01-.06.01-.02.02-.01.02.02.02.04.01.03.02.02.02.03.01.04.03.02.04 0 .04-.02.02-.03.01-.05-.01-.01 0-.02.01-.02.08-.01.09-.02.01-.03 0-.05-.01-.07-.01-.03-.01-.01 0-.03-.01-.03-.01-.04-.01-.04-.02-.02 0-.02.01-.02.01-.03.01-.02.02-.02.03 0 .03.06.12 0 .07-.03.1-.05.06 0 .05.05.13-.02.06-.11.05-.08.04-.08 0-.07-.05-.03-.12-.04-.03-.03-.01-.02-.01-.1-.04-.02 0-.05.06.01.04.05.03.02.03-.03.03-.05 0-.09-.02-.06.04 0 .03.06.04.02.01-.01.03-.02.02-.02.01-.06-.02-.09-.01-.04.03 0 .01.07.04.01.02 0 .02-.03.02-.06-.02-.21.01-.05.02-.1.09 0 .04 0 .08-.01.04-.01 0-.05.01-.02.01 0 .05.04.11.02.06-.01.03-.03-.01-.09-.11-.08-.01-.14.01-.14.05-.04.08.01.06-.01.02-.13.02-.02.01-.02.16 0 .01-.04 0-.01.01 0 .04-.01.02-.09-.01-.02.01 0 .05.01.09-.01.09-.04.18.01.03-.01.01-.12 0-.02.03 0 .02.07.05 0 .01-.01 0-.04.02-.09-.01-.05-.03-.1.02-.05.04-.05.04-.04.03-.02.08-.05.04-.06.08-.01.02-.02.05-.01.02-.03.03-.15.18-.02.01-.08-.02-.02.02.01.09-.04.03-.08 0-.03 0-.03.02-.04.07-.13.07-.13.11-.02.05-.04.04.01.1.13.15-.01.02-.01.02-.07.03-.03.01-.1.11-.11.08-.02.03-.03 0-.02-.01-.1-.08-.03-.01-.05.01-.02.03-.06.1-.08.07-.18.19-.54.6-.15.14-.59.54-.16.15-.09.3-.07.08-.16.09-.01.05-.02.03-.03.02-.07.01-.21.22-.26.22-.13.15-.07.06-.08.05-.14.14-.19.19-.13.16-.19.13-.16.14-.09.1-.1.14-.04.08-.07.13-.11.15-.08.09-.07.03-.08.07-.05.05-.01.03-.13.13-.07.08-.06.06-.06.06-.03.03-.03.01-.05.02-.03.02-.02.01-.02.01-.01.01-.02.02-.02.02-.01.02-.03.03-.03.04-.03.05-.09.09-.32.25-.13.06-.09.02-.19.03-.02.01 0 .03.02.04.02.04-.01.08-.06.17-.13.12-.16.09-.1.04-.05.07-.02.09-.16.17-.24.09-.1.09-.08.08-.05.19-.16.31-.31.32-.46.3-.24.07-.18.01-.19-.07-.04-.03-.01-.05.02-.05-.02-.02-.05.01-.16.11-.05.1-.01.1.05.08.03.05.01.06-.03.11-.02.03-.01.01.01.01-.02.02-.19.23-.1.14-.08.03-.05.05-.07.14-.04.03-.16.03-.08.04-.4.45-.4.41-.32.16-.19.03-.05.04-.05.05-.05.07-.02.07.05.11.03.06-.01.01-.07.02-.05.02-.05.01-.05.02-.02.02.01.05.02.06-.02.03-.06.03-.17.02-.05.03-.23.28-.2.1-.26.2-.17.2-.2.17-.04.11-.04.05-.06.01-.03.02-.07.15-.06.04-.09 0-.05-.02-.02.01-.01.03 0 .07-.02.06-.08.03-.05.01-.06-.01-.02.02-.07.16-.04.04-.24.16-.05.04-.01.03.02.08-.02.05-.05 0-.07-.02-.04 0-.45.31-.52.44-.29.32-.05.05-.01.02 0 .02.05.04.03.03 0 .03-.01.03-.05.02-.04.01-.05 0-.06-.02-.03 0-.15.15-.05.02-.02.02-.04.08-.02.08-.04.05-.08.01-.01.02-.01.06 0 .06-.05.07-.07.07-.09.01-.04.02-.05.07-.03.14-.03.16-.03.1-.06.07-.07.06-.11.03-.1.01-.06.04-.01.06 0 .16 0 .14-.04.1-.07.06-.24.22-.23.15-.14.09-.15.16-.14.16-.27.16-.25.26-.01.05-.01.04-.01.03-.05.03-.19.1-.14.06-.1.1-.22.13-.11.07-.03.03-.07 0-.08-.01-.08-.02-.08-.03-.1.03-.06.06.02.11-.03.03-.03 0-.05-.03-.01 0-.02.02-.01.02 0 .04-.05.02-.03.04.01.06-.03.04-.04.01-.04-.01-.05-.04-.02 0-.01.03.07.04.01.03-.06.09-.05.09-.05.06-.13.08-.39.27-.41.29-.1.07-.08.08-.03.08-.01.05-.1.09-.23.14-.18.1-.28.28-.22.17-.72.5-.83.75-.02.05.02.03.08-.01.17-.11.11-.02.05.05.04.04.09.01.04-.01.33-.3.13-.07.03 0 0 .03-.86.89-1.11 1.09-.56.56-.07.04-.1.04-.04.03-.09.07-.12.09-.26.21-.25.12-.16.05-.26.12-.19.17-.32.42-.15.16-.13.14-.19.15-.1.08-.19.19-.2.18-.23.1-.22.12-.32.27-.27.21-.08.05-.17.05-.14.04-.2.01-.15-.04-.09-.05-.05-.07-.02-.13-.02-.02-.02-.02-.05 0-.03.01-.03.04-.02.06-.04.02-.05.02-.06.01-.04.03-.05.05-.06.11-.04.04-.11.04-.12.07-.18.16-.2.14-.06.07-.13.14-.16.07-.23.07-.07.06-.15.16-.31.23-.13.16-.21.41-.15.22-.04.09-.01.08.02.08.01.04 0 .04.01.05 0 .04-.04.13-.09.1-.14.09-.08.03-.12.06-.13.04-.18 0-.18.01-.16-.05-.21-.03-.09.02-.09.02-.11.04-.07.06-.05.1 0 .06-.01.04-.01.05-.01.02-.02.02-.01.04-.02.05-.03.03-.02.04-.03.03-.04.01-.04 0-.03.02-.05.04-.06.08-.02.08.01.03.01.03-.01.07-.04.09-.09.08-.07.03-.06.03-.06.03-.05.03-.03.01-.06.05-.04.01-.07.03-.06.02-.07 0-.11.02-.08.01-.06-.07-.05-.06-.08-.06-.08-.05-.07-.01-.05.02-.02.01 0 .01 0 .02.01.02.03.01.08 0 .08.03.16.17.09.11 0 .01 0 .01-.31.19-.02 0-.22 0-.12 0-.01.01-.08.07-.01.01 0 .05.01.04-.01 0-.02 0-.1-.01-.05-.02-.06-.03-.05-.04-.02-.04-.01-.08 0-.05.03 0 .07 0 .03-.02.06-.06 0-.01 0-.01-.03-.02-.07-.05-.01-.01-.06-.11 0-.03-.04-.07.01-.02.08-.05.12-.06.04 0 .05-.01.02-.03 0-.02-.03-.05-.01 0-.03.01-.09.02-.08.04-.12.07-.12.04-.06.02-.06 0-.06.01-.08.05-.21.19-.1.15-.14.25-.06.1-.11.12-.1.07-.04.06-.04.03-.06.05-.04.04-.01.04 0 .07.01.1-.01.12.02.07-.02.15-.01.05 0 .06-.05.12-.04.07-.01.01-.01.01-.02.01-.02-.01-.04.02-.03.02-.09.07-.01.02 0 .02.01.05-.01.06-.05.1-.09.16-.25.16-.29.11-.4.12-.45.05-.26.01-.3-.01-.18.02-.19 0-.03.02-.03.03-.02.07 0 .06.01.05.01.06 0 .05-.02.05 0 .04-.01.08-.04.04-.03.01 0 0-.01-.01-.01-.02-.02-.01-.04.01-.03.02-.21.16-.26.18-.09.06-.03.04 0 .01.01.03 0 .02 0 .03-.08.21-.12.13-.11.07-.08.05-.13.06-.14.05-.12.07-.07.06-.06.05-.07.1-.13.11-.07.1-.06.1-.08.18-.2.14-.06 0-.06-.02-.05-.08-.07-.09-.06-.05-.1-.02-.03-.03-.01-.04-.03-.02-.02-.02-.02-.06-.02-.03-.04-.01-.05.02-.05.01-.07.02-.08.03-.05.02-.05.02-.04.02-.07.03-.03 0-.01 0-.03-.01-.06 0-.05.01-.07 0-.04-.02-.03.01-.02.02-.05.04-.04.02-.03 0-.03-.01-.04-.01-.03-.01-.02.01-.01 0 0 .01.01.01.02.01.01.02 0 .03-.03.03-.02 0-.03.01-.01-.01-.01-.01 0-.03 0-.03-.01-.01-.02-.01-.01 0-.01.01 0 .01-.01.04-.01.01-.03.01-.04.03-.05.01-.07.05-.03 0-.03-.01-.01 0-.02.02.01.04.01.03.03.05.04.03.04.01.02 0 .01.01 0 .02-.01.05.01.05.03.01.05.02.06.03.04.06.01.1-.01.04.02.07.01.02 0 .02-.01.01-.01.03-.01.05.06.15.13.12.01.03 0 .03-.02.04 0 .04.02.07-.02.03-.03.03-.03.02 0 0 0 .01.01.02.01.03-.01.01-.02.01-.01 0-.01.02 0 .02-.02.06-.02.02-.03.01-.15.21-.06.12-.07.1-.08.04-.14.09-.16.09-.16.05-.29.12-.23.12-.05.01-.09.02-.07-.01-.04-.01-.04-.02-.07-.04-.05-.01-.04.01-.36.29-.29.23-.27.2-.54.2-.15.06-.08.02-.08 0-.05-.03 0-.05-.02-.04-.07 0-.05.04-.03.05-.04.05-.05.09-.01.12-.01.07-.05.06-.08.07-.11.07-.06.03-.08.01-.01.01-.03.02-.1.11-.19.12-.22.27-.16.07-.07.06-.09.09-.03.03-.16.07-.26.02-.33.07-.16.08-.11.16-.05.18-.17.19-.09.04-.11.03-.14 0-.13-.05-.05-.04-.06-.1-.02-.04-.07-.03-.11.02-.05.02-.04.02-.01.03-.01.03 0 .07-.03.01-.04 0-.05.04-.02.01-.07 0-.06.01-.04.03-.03.02-.05.04.01.03.02.03 0 .03-.01.01 0 .02-.01.02-.02.01-.02-.01 0 0-.01-.01-.01-.01-.03 0-.05.02-.05.03-.02.01-.02.01-.02.02-.03.01-.03.01-.01 0-.03-.01-.03-.02-.01 0-.02.01-.03.02-.03.03 0 .02 0 .01.05.02 0 .02-.01.01-.07.04-.08.11-.03.01-.03.01-.04.01-.04-.01-.02 0-.02.02-.03.03-.08.08-.07.12-.02.03 0 .04.02.04.07.01.07.01.09.01.04.03.01.03.01.05-.03.08-.03.02-.05.01-.06.01-.03.02-.03.09.01.16.02.05-.01.16-.1.25-.05.05-.17.07-.1.04-.13.03-.14-.01-.01-.01 0-.01 0-.02-.01-.01-.04-.02-.07-.06-.02 0-.04.02-.08.01-.15.01-.15-.06-.1-.06-.02-.02-.01-.03.05-.13.02-.04.03-.01.06-.03.01-.04 0-.03-.01-.04-.01-.03-.02-.01-.01-.01-.01.01-.02.01-.02.01-.03 0-.03-.01-.02-.02-.01 0-.01 0-.01.02-.03.02-.04.01-.02-.01-.02-.02-.03.01-.06.02-.01.03 0 .02.02.03.01.04 0 .03-.02.01-.02-.01-.01-.01-.01-.01 0-.01-.01 0-.03.01-.02 0-.04 0-.02.02-.03.02-.04.01-.04-.01-.06-.02-.03 0-.01.02.02.07.03.03 0 .03-.02.03-.07.03-.04 0-.01-.01-.02-.02-.02 0-.02.03-.03.05-.01.01-.03-.01-.02-.01 0-.03-.06-.01-.01.01-.05.02-.03.02-.06.04-.04.01-.06-.01-.01.01-.01.02.06.05 0 .08-.12.13-.03.01-.03 0-.09-.01-.18-.05-.08-.02-.07 0-.07.01-.44.13-.11.07-.21.2-.18.15-.02.03.01.04.08.15 0 .03-.06.13-.01.02-.42.26-.03.02-.15.09-.16.04-.2.05-.01-.01-.02-.02-.12-.29 0-.02.03-.14-.01-.02-.04 0-.02 0-.04.14 0 .03.15.31 0 .03 0 .02-.14.06-.27.09-.19.06 0 0-.24-.5-.02 0-.01 0-.02.01 0 .02.02.04.13.29.08.15-.01.01-.16.07-.55.16-.08.03-.42.12-.05 0-.08 0-.04-.01-.1-.02-.03-.02.03-.32 0-.03.01 0 .02-.01.02-.01 0-.11-.01-.02-.02-.01 0-.01.04-.3 0-.01.01 0 .08-.04.04-.01.07-.02.19-.06.1-.03.02 0 .02.06.01.01.2-.07 0-.01-.01-.02.01-.01.3-.1.02.01.03.08.01 0 .06-.01 0-.01-.02-.05-.03-.07 0-.01.01 0 .07-.02.08 0 .02-.01.02-.01.01-.04-.02-.03-.03-.01-.05 0-.19.07-.45.14-.21.06-.17.06-.16.05-.12.06-.01.02-.01.02-.06.53-.02.16-.01.15-.03.03-.01.01-.02.01-.07.02-.18.03-.85.01-.25 0-.3-.06-.17-.02-.13 0-.09.02-.17.05-.24.04-.07.02-.16 0-.12 0-.02-.01-.03-.02-.01-.01-.03-.05-.01-.01-.07-.11-.01 0 0 0-.03.01 0 .01 0 0 .08.11 0 .01 0 0-.01.01-.02.01-.01.01-.05 0-.17 0-.1.01-.13 0-.07-.01-.06.01-.1.03-.02.01-.02.01 0 .01.01.02.02.01.01.02-.01 0-.02.02-.09.04-.01.01-.01.02.01.05-.02.05-.04.04-.04.04-.02.02 0 .04-.01.03-.03.04-.15.1-.22.14-.1.08-.33.26-.35.24-.08.07-.22.14-.17.07-.12.04-.08.02-.03.01-.05.01-.12.03-.15.05-.11.04-.02.01-.09.05-.04.02-.05 0-.08-.01-.06.01-.12.05-.18.04-.15.1-.14.18-.07.06-.09.06-.15.06-.25.1-.07.01-.07-.01-.12-.03-.11-.08-.09-.04-.04-.01-.05.02-.11.08-.08.16-.13.09-.1.01-.14.04-.04 0-.09.02-.04.03-.04.06-.02.04-.2.13-.08.08-.05.09-.16.08-.07.06-.1.08-.19.09-.33.12-.14.07-.06.04-.02.06 0 .05.04.05.01.03 0 .03-.02.01-.03-.01-.04 0-.03.01-.09.1-.16.15-.09.14-.11.09-.12.06-.11.08-.1.15-.1.12-.2.11-.43.19-.25.16-.78.47-.19.15-.26.12-.38.23-.1.08-.11.08-.1.08-.21.17-.1.1-.02.02-.01.04 0 .02.02.03.03.05 0 .03-.04.05-.07.07-.05.04-.09.03-.03.01-.03-.03-.04-.04-.03-.01-.08-.01-.12.02-.38.19-.12.08-.2.15-.42.3-.12.05-.06.05-.08.12-.15.15-.14.17-.09.07-.16.1-.14.07-.02.01-.01.02-.01.02-.02.03-.08.05-.12.06-.17.12-.29.2-.3.19-.1.08-.12.09-.21.15-.14.1-.14.12-.12.06-.14.04-.14.07-.16.11-.28.21-.37.21-.27.21-.13.05-.09.05-.16.14-.13.08-.08.04-.08.02-.06.04-.1.13-.03.06-.03.1-.09.15-.18.13-.1.07-.11.06-.16.03-.19.06-.23.04-.21.02-.14.03-.17.07-.21.14z" /><path d="m146.16 362.34l.03.04.11 0 .06-.01.12-.02.08-.07.03-.08.02-.05 0-.06-.05-.04-.06-.02-.05.01-.07.06-.15.12-.06.1-.01.02z" /><path d="m146.59 361.95l0 .04.04.04.08.01.1-.05.11-.11.08-.15.04-.09.04-.05 0-.03-.02-.02-.03-.01-.04.01-.06.06-.05.04-.17.12-.06.06-.06.13z" /><path d="m154.3 356.55l.03.05.1.03.05-.01.17-.06.22-.04.12-.07.18-.1.56-.29.14-.1.09-.11.08-.24.12-.14.36-.3.16-.15.05-.08.07-.24.13-.25 0-.02-.02-.02-.02-.02-.04 0-.06.02-.03.03-.03.03-.06.04-.03.04-.01.04-.02.02-.02.02-.03.03-.03.08-.02.1-.03.1 0 .05-.03.01-.04 0-.04-.02-.05-.01-.03.01-.04.04-.02.03-.11.14-.04.05-.03.05-.02.01-.03-.01-.03-.02-.04 0-.04 0-.04.03-.02.03 0 .07-.02.01-.06 0-.05 0-.04 0-.01 0-.01.01.01.02.01.03.02.03-.01.02-.08.02-.08.02-.08 0-.04.01-.04.02-.06.07-.03.04-.07.05-.05.04-.17.14-.06.07-.04.03-.05.06-.03.03-.1.04-.2.13-.17.19-.02.07z" /><path d="m201.84 317.04l.05.01.02-.01-.03-.04-.04.01 0 .03z" /><path d="m201.9 316.3l0 .05.08.01.02-.03-.03-.04-.07.01z" /><path d="m202.31 316.2l.07.04.06.03.02-.02.02-.02-.01-.01-.06-.07-.03 0-.07.05z" /></g></g></svg>