<?xml version="1.0" encoding="utf-8"?><svg xmlns="http://www.w3.org/2000/svg" version="1.1" baseProfile="tiny" width="800" height="600" viewBox="0 0 800 600"><g><g stroke="#000000" stroke-width=".98" fill="#FFFFFF"><path d="m22.26 322.22l.02.06.04.08.01.01.89.15.34.93.1 1.5 2.18 3.54-.36.86-.53.65-.08.71-.4.54.39.43.95.84.86.5-.24.97-.39 1.15-.26 1.38.11 1.1.18.87-.37.88-.46.71-1.44 1.58.02.09.6 3.09 1.35 3.07 2.42-.77 3.13-1.17 1.63-.9 1.79-1.07 1.28-.76.09-.05 2.52-1.34 4.96-.25.85.03 2.81-4.38.7 2.16.01.09.37 3.12-.79 2.38-.1.32-.97 2.95-.64.11-.94.78-.4.42-.7.74-1.38 1.76-.34 1.11.94.76 1.06 1.11 2.02.36.27.89 1.17 1.01.6.69.21 1.22-.28.99-.05 1.19.99.92 1.81-.37 1.68 1.75.29.45.87.43 1.15.62 1.3.49 1.7-.48 1.65-.15 2.04-.03 1.68.29 1.46-.25 2.35-.29 2.17-.65.78-.86.64-.75.69-1.51 2.87-.88 3.02-1.23 1.37-2.44 1.21.32.29-.86.58 0 1.72.26 1.72 0 .31.83-.32 1.1.55 1.08.23 1.03.79-.03.95-.49.97.6 1.28.7 1.4.55 1.03-.01 1.54 0 .99.92 1.4.96-.37 1.59-.02.06-.56 1.5.07 1.64.33 1.81.83-.92.47-.06.62.51 1.37-.35 1.15.26-.53-.77.32-1.64.4-.86.62-.7.38-.87-.89-.53-.3-.96.02-2.06-.32-1.76-.36-1.14-1.4-.88-.71-.8-.26-.65 1.49-.22 1.36.77.86 1.03.05.06.63.75 1.63 1.78.54 1.6 1.38.76.83.06 1.62.11 1.22-.06 1.03-.97.74-2.61.15-2.01-.13-1.85.41-1.13 2.23-1.14 2.7-.7 1.52 2.66 2.4 3.73 3.42 1.49-.3 2.87 3.12 1.39 2.66 1.14.55-1.71.34-1.58.58-1.59.38-.65.19-2.16.83.9.77 1.02.19 1.03.5.86 1.67-.26 2.44-1.14 3.05.43 1.62 1.16 2.36 1.75.92-1.57.41-.61-.13-.6-.18-.87-.01-1.4 2.25-.96.35.75.3 1.21.93-.91.49-1.78 3.14.02.68-1.18.58-2.11.95-1.34.06-.1.5-1.11.23-.99.58-.81.41-.16 1.4-.25 1.26-.21 2.18.38.9-.63.76-.3.99-.35 1.66.28 1.72.22 1.33.74.38.83 2.9.11 2.47.06 2.04 2.13 1.79 1 2.57 1.36.94.84 1.03 1.03 2.07 1.42 2.13 1.39 1.55 1.61.55 1.11.24 1.7 2.45 2.29 2.57 2.47 2.23 1.9.1.09 1.86 1.72.78 1.11-.32 1.33-1.17 2.19-.95 1.89 2.83 9.07 1.14 3.86 1.13 2.19 1.1 3.97 1.98 1.93 1.99 1.9 1.88.99.22 1.59 2.38 2.93.6.73 2.11 6.93.1 2.5-.1 2.23-1.19 1.41-7.77 5.39-6.41 3.65-.24 1.59 4.7 4.46-1.6 2.22-5.34 3.97-4.84 2.98-2.2-.81-.64-2.24 6.88-7.88-14.45 4.12 2.35 5.91.07 3.14-1.84 4.58-1.3 3.92 1.87.63 3.29 1.09.06.85.23 3.46-.36.39-2.71 2.89.59 2.81 1.74 6.55 2.25 7.35 7.12 1.21-4.33 2.3-.81 9.8 5.41 3.24 5.42 6.37 3.96 4.57 14.14 1.92 13.38.72 5.79 5.88 1.11 4.9-.56 3.49 10.79 9.66 7.26 11.01 16.8 18.78 6.16 6.89 21.04 22.36.28.29.03-7.53 0-8.94.02-7.85.1-6.63-.1-6.93.03-16.52-.04-15.58-.02-3.6 1.63-1.31 3.2-2.44 3.09-2.6 3.29-3.25 3.28-3.47 1.51-1.36.72-.5.63-.42.61-.3.38-.2.22-.13.2-.15.36-.16.58-.36 1.61-.7 1.03-.4.92-.36.13-.05 1.88-.86 2.54-.92 3.46-1.3.76-.31.47-.17.13-.06.2-.06.25-.09.25-.07.35-.14.45-.12.49-.14 1.08-.27 2.18-.7 2.01-.84 1.92-.9.89-.38.81-.31 5.04-3.11 1.13-.77.55-.51.33-.33.37-.32.58-.57 1.85-2.73 2.48-2.2 2.77-2.68 3.78-3.38 3.13-2.68.74-.52 3.23-2.66 2.21-1.44 1.14-.73.43-.31.44-.27.51-.35.33-.23.41-.35.17-.12.23-.22.19-.17.55-.37.64-.26.74-.52 1.27-.79 1.37-.82 1.17-.79.81-.57.53-.38.92-.64.38-.2.43-.19.51-.2.42-.27.54-.4.84-.5 1.19-.94 1.16-.85.8-.55 1.5-1.04.52-.26.49-.19.78-.59 1-.56 1.23-.59 1.11-.63.75-.37.75-.28.65-.27.57-.23.84-.37 1.07-.34 1.91-.93 1.12-.75 1.02-.5.87-.49.91-.55.57-.4 1.26-.79.84-.55.4-.31.48-.28.55-.45.5-.31.16-.08.33-.18.53-.44 1.21-.8.79-.59.97-.58 1.38-.78 1.45-.93 1.48-.75 1.26-.89 1.11-.75.59-.37.82-.45.78-.52.13-.06.28-.19.18-.15.25-.12.17-.13.25-.12.21-.2.12-.09.28-.15.18-.1.25-.13.25-.08.2-.18.25-.18.46-.37.59-.41.54-.32.41-.27.53-.27 1.18-.46 1.57-.75 1.55-.57.54-.29.21-.08 1.22-.48 1.54-.76.84-.6 1.5-.89 1.03-.78 1.36-.77 1.24-.72.63-.31.87-.37.43-.21.29-.12.34-.15.3-.1.33-.15.23-.15.21-.15.14-.21.2-.36.38-.64.15-.19.36-.42.39-.41.74-.86.86-.99.89-.97.84-.89.97-1.02 1.18-.95.19-.14.21-.22.37-.22.34-.3.41-.3.37-.31.53-.52.64-.42.17-.16.43-.19.32-.13.33-.17.49-.37.54-.42.48-.35.18-.13.23-.15.25-.14.31-.09.38-.2.11-.08.16-.08.2-.05.19-.09.15-.07.14-.09.28-.1.13-.08.12-.14.16-.14.12-.05.19-.14.1-.11.1-.1.24-.18.29-.18.16-.07.22-.1.29-.15.36-.17 1.28-.51 1.28-.42 1.2-.33 1.41-.36 1.56-.09 1.24-.17.5-.18.27-.11.64-.47.28-.48.2-1.07.1-.67.27-.5.28-.3.71-.55 1.29-1.03.87-.63 1.34-.9 1.04-.88 1.36-.89 1.17-.78 1.45-.94 1-.54 1.18-.51 1.3-.84 1.47-.7.93-.56 1.13-.4 1.45-.73.88-.31 1.26-.3 1.43-.46 1.34-.3 1.33-.47 1.44-.59 1.25-.54 1.21-.43 1.2-.21 1.12-.25 1.52-.24 1.7-.01.87.12.82-.08.99.01.85-.32.42-.21.59-.6.3-.7.59-1.54.46-1.22.71-1.32.55-.91.41-1.05.36-1.03.1-.99.14-1.26-.29-1.34.29-.87.68-1.08.7-.43 1.12-.4 1.54-.5 1.27-.22 1.08.02 1.26.11 1.44.21 1.19.36 1.49.35 1.46.28 1.39.32 1.5.62 1.7.26 1.38.09 1.52.06 1.36-.03 1.49-.07 1.58.06 1.33-.01.73-.11 1.08-.15 1.38-.14 1.3-.26 1.28-.22 1.67-.43 1.59-.4.99-.26 1.35-.59 1.32-.25 1.74-.51 1.28-.3 1.28 0 .7.04 1.03.25 1.07.06.94-.31 1.16-.42 1.08-.42.64-.2.66-.17 1.39-.36 1.32-.32 1.5-.41 1.18-.72.97-.77 1.22-1.12.9-1.01 1-.95 1-.94 1.05-.91 1.03-.92 1.01-.94 1.01-.94 1-.95 1.03-.91 1.01-.95.47-.51.46-.49.96-.98 1-.94 1.01-.94 1.04-.92 1.08-.88 1.13-.82 1.18-.76 1.21-.74 1.27-.66 1.31-.59 1.36-.51 1.36-.48 1.4-.41 1.39-.43 1.39-.43 1.34-.53 1.3-.62 1.29-.62 1.28-.64 1.27-.66 1.26-.68 1.38-.44 1.45.14 1.43.32 1.47-.01 1.41-.36 1.46-.22 1.46.16 1.42.36 1.39.43 1.39.43 1.35.49 1.18.77 1.23.71 1.26.69 1.37.45 1.44.27 1.44.29 1.48.03 1.37.45 1.28.62 1.42-.34 1.23-.73 1.3-.59 1.45-.27 1.46-.21 1.44.13 1.05.88 1.15.8 1.45.16 1.44-.29 1.42-.35 1.47.03 1.46.18 1.47-.16 1.47-.08 1.47.04 1.4.38 1.25.7 1.17.79 1.24.7 1.41.32 1.48.05 1.47-.15 1.46-.17 1.39.43.98.97.99.95 1.22.71 1.41.39 1.46.23 1.45.23 1.44.27 1.46.15 1.48-.02 1.48.03 1.44.27 1.47.08 1.47-.11 1.43-.29 1.29-.63 1.12-.84 1.03-.93.87-1.04.83-1.07.9-1.02.97-.97.87-1.04.85-1.07 1.3-.58 1.39-.43 1.37-.48 1.37-.48 1.42-.36 1.45-.21 1.48-.06 1.47.06 1.48.06 1.4-.37 1.44-.16 1.48.09 1.48.02 1.48-.31 0-1.2 1.11-.56 1.5.24 1.45.25 1.42.16 1.55.14 1.26.36 1.65.25 2.34 0 1.09-.18 2.41-.32.43.23.13.47-.33.87.18.25.21.12.76.13.98-.36 1.79-.91.97-.67.35-.37.62-.63 1.01-.68.32-.16.1-.22-.15-.37.18-.39.34-.27.82-.25 2.17-1.17 1.58-1.03 2.08-.79 1.89-.99 2-.62 2.07-.51 2.06-4.44 2.23-4.72 1.49-3.78 3.12-3.84-.12-3.33-3.26-3.65-.65-3.83 2.53-5.11 4.64-4.39-1.48-3.99-1.34-5.4.16-3.2-.64-4.48-.04-4.23-1.58-5.06-.59-3.66-.84-2.47.32-4.01-.61-4.81-1.56-2.8.07-1.23-.45-1.73 6.46-5.48 8.97-2.55.71-3.91-2.4-1.78-4.67-.08-2.09-1.41-16.76 4.25-5.94-10.14 4.04-11-2.99-4.2-17.96-16.66 6.75-6.21 9.56-6.47-.3-5.22-7.52-5.36-5.61-6.7-7.94-8.12-4.97-.39-1.21-2.44 1.03-2.43-.64-.46-1.38-1.77-1.75-2.43-2.86.12-3.75 2.8-9.37 2.24-9.42 1.58-6.33 1.18-4.46-7.66-5.94.61 1.35 3.96-1.24 7.63 1.03 5.88-.09 2.44-5.48 6.04-3.29-3.26-5.36-1.57-20.23 4.24-5.63-2.22-8.02-1.76-6.65-1.66-8.05-3.03-2.27 1.32-1.83 3.9-.32.3-2.58 2.46-7.9 8.92-3.3 4.82-3.03 4.13-3.43 4.66-3.39 3.25.25 4.11-.38 3.17-.5 2.79.65 2.2.59 1.25-.44 2.24 1.34 3.09-1.66 1.86-1.1 1.97-3.89-2.34-2.3-2.49-4.51-6.6-3.31-6.31-10.98.49-1.66-1.13-8.2-4.28-4.19 3.14-4.02-1.6-1.07-.76-4.69-3.36-3.97 1.82-3.17 1.33-3.77.65-.1-.05-.28-.12-2.6-1.15-4.31.29-.14-1.06-.25-1.1-.23-.95.85-.14 3.74-.82 2.17-1.02 1.48-.87 1.47-1.33-.44-1.73.57-1 .69-1.2.04-.05-.04-1.55-.35-1.52-1.33-1.98-4.61-5.25-3.18-14.25-.32-1.47-.25-1.11-.34-1.53-1.78 1.81-1.85.96-1.77 1-2.09.69-2 .71-1.08.39-.84-2.61-.41-.87-.4-1.2-.08-.24-.03-.09-.08-.23-.06-.18-.05-.11-.21-.54-.26-.64-.31-2.71.45-1.59.01-.03.11-.52.69-3.14.61-.44 1.19-.87.96-.18.85-.16.73-.13 2.19-1.11 4.48-2.25 1.63-.51.78-.24 2.07-.64 1.6-1.73 1.62-1.76.37-.4 2.34-2.53 2.47-2.68.43-.04 2.6-.26 2.43-.23 3.04-1.64 2.5-1.33.36-.2-.48-.2-.91-.39-1.04-1.93-1.63-1.82-1.19-1.73-2.85-5.18-3.04-9.52 2.66-1.51-.41-6.4-.2-.66-1.21-3.96-.02-.08-.8-3.43-.23-1.65-2.03-.21-3.72-.38-3.88-.39-11.66-.67-7.45-.73.49-.48 2.21-2.18 2.17 0 .88-1.41-.21-1.37 1.35.43 1.2-1.57.59-3.8-2.41-5.47 1.7-3.19.55-1.03.19-.13 7.75-4.95-4.15.25-3.49.27-8.62 1.86-5.13-2.05-.43-5.55.81-3.49.04-.17.3-7.07.51-2.56.76-1.55.76-6.37-.08-6.06 1.31-3.74-3.28-3.72.64-2.11-2.37-2.63-1.43-2.36-1.16-1.88-.24-1.21.49-1.4.28-1.15.48-.95.48-1.02.79-.62 1.54-.72.19-.2-.65-.16-1-.29-3.91-1.11-2.29-.15-2.82-4.06-2.03 1.71-6.54-2.54 3.15 4.39-15.96 7.97-3.35 5.48-1.31 4.43-1.42 4.54-1.68.73-.54.28-.24 4.97-1.94 5.3-1.93 4.64-2.73 3.89-.65.92-3.14 2.92-7.44 2.78-3.4-1.22-5.97-2.15-9.9-.59-5.87-2.21-3.35.97-2.41.69-6.24 1.8-5.64 1.63-2.48 2.13-1.65 1.41-1.79 1.54-1.32.31-2.16.5-2.74.64-.29.07-2.42.33-2.83.38-1.81.24-1.35.19-.82.19-.87.4-.7.34-3.1 1.51-.61.06-2.68.26-2.93-.07-1.62.13-1.99-.32-1.79-1.32-1.83-.26-6.9 1.64-7.56-1.47-5.03.26-.15.01-6.03-.78-.07-.02-6.14-1.71-4.27.42-2.55-.07-.59-.01-3.65-.84-5.07-.78-3.09-2.69-1.65.74-4.32 3.75-3.25 2.84-1.56.7-2.87 1.31.57 3.64-.43 1.75.3 2.22-.58 1.11-2.8.69-.12-.11-.11-.11-.24-.23-.78-.74-2.57-4.43-.56-3.18-.32-4.04.68-3.27-1.81-2.08-.39-2.9-.69-1.03-2.63-1.84 1.2-2.22-1.92-.91-1.26-1.51-.59-1.96-1.12-1.01-1.07-.85-1.69-1.21-1.46-.3-.89.55-2.27.83-2.21 1.58-2.75 2.31-2.6 1.81-3.77 2.53-4.15 2.79-7.93 2.18-6.47 2.95-1.19 3.4-.92 5.61-.08 3.1-.03.9-.01.35-.95.24-4.08 1.03-3.88-.6-7.85-.89-5.35-.08-5.98-.21-3.87 1.24-3.47-1.2-4.82 2.1-4.78 1.32-5.58 1.56-.96.26-.97-1.37-1.59-2.15-2.47-2.33-.28-.26-5.05-2.49-7.96-9.14-1.09 1.39-1.13 1.45-.02 1.62-.02 2.37-.53-.14-1.52-.42-2.26-.63-1.7-.47-2.13-.58-4.31.93-.69 1.49-.94 1.04-2.85 1.12-3.12 1.1-1.64-.76-3.04-1.24-1.52-.48-1.62-.8-2.48-.64-3.96-2.47-2.18 1.44-2.19-.29-1.13-.76.98-3.02-1.86-.49-1.4 2.38-1.79 2.34-.39.79-.61 1.21-.69 1.4-.62.78-1.26.29-1.12-.63-1.38-1.93-1.08-1.09-2.35.2-.89 1.78-2.02 2.54-1.54 2.64-.24.5-1.36 2.85-1.01 1.43-1.96-.33-1.24-1.13-1.26.6-1.88 1.2-1.7 1.14-1.04.56-1.14.85-1.98-.63-2.22-.29-1.48-.22-4.79-10.78.94-6.1-6.75-2.3-.43-1.68.12-.83.52-3.67-1.06-2.8-.23-.07-4.75-1.49-4.68-.59.03.07.01.09-.01.1-.05.09-.03.03-.03 0-.02-.01-.01.01 0 .01.03.04-.01.01-.08.04-.03.03-.03.03-.01.03.01.03.06.01.01.02-.01.03-.06.01-.02.01 0 .08.04.12.04.1.01.05 0 .02-.02.02 0 .01.01 0 .02-.01.02-.02.02 0 .02 0 .02.02.01.04.01.06-.07.17-.02.08-.01.07.05.23.03.09.01.03 0 .04-.01.03 0 .02.02.02.04.01.08 0 .07.02.05.05.02.07 0 .16-.02.13 0 .05-.03.01-.08-.01-.06.04-.02.07 0 .06.03.05.04.06.06.08.04.07.02.01.01.02-.02.02-.07.06-.06.01-.05.02-.02.02-.01.05 0 .04.05.05.02.03.03.07.01.05.02.04.02.05 0 .02-.01.02-.04.03 0 .01-.01.1.02.04 0 .03-.01.02-.03.01-.02 0-.04-.01-.01 0-.01.02 0 .03-.03.04-.03.02-.02.01-.02.01-.04-.02-.03 0-.01.02 0 .01.05.02.02.03.01.02-.02.03-.02.01-.03.01-.04.01-.02.01-.02 0 0 .01 0 .01.05.01.01.02 0 .01 0 0-.02.01-.05.01-.06.02-.04.04 0 .03.01.09 0 .01-.05.02-.06.04-.01.02.01.02.04.04.07.01.03.02.02.05-.01.08-.03.08-.01.07.04.07-.01.17-.04.08-.02.03-.06 0-.08-.01-.01 0 0 .03.14.08.04.11 0 .14-.03.03-.04.02-.02.02.01.02.05.01.01.01.02.06.04.06.12.11.12.1.02.01-.01.03 0 .01.01.01.06 0 .03.01.01.01-.02.02-.03.02-.01.03.02.03.03.02 0 .01-.02.03 0 .01.04.04.06.01.05.01.02.01.01.02-.01.02-.02.01-.07 0-.01 0-.02.07.01.04.01.02.1.02.02.02-.01.03-.04.01-.05 0-.05-.01-.02.01.01.02.06.04.04.07.03.02.02 0 .06 0 .02.01.01.03 0 .03-.06.04-.01.02.03.03.03 0 .07-.02.03.01.05.08.04.05.07.05.06.03.08.04.05.06.02.11 0 .02.01.02.02.01.06.03.02.05.02.07.08.1.02.08.05.16.13.32.31.53.17.17.06.07.04.09.05.12.15.18.04.1 0 .05-.01.02 0 .02.03.02.04-.01.02 0 .05.04.02.06.01.17.01.08-.01.06-.07.36-.04.04-.04.03-.08.02-.08 0-.06.03-.05.07-.03.02-.02 0-.01.01-.01 0 .01.05-.01.07-.03.03-.07.03-.06.02-.1.08-.02.05 0 .03.02.08 0 .03-.02.02-.01.01.02.04-.03.02-.1.04-.06.02-.02.02-.01.02.02.09.02.02.04.03.02.01.02.07.13.16.01.04-.01.06-.05.04-.01.02.01.05 0 .02-.02.03 0 .06.02.06 0 .05-.07.09-.04.07-.02.36-.02.07-.04.06-.03.09-.01.03.06.17 0 .03-.01.04 0 .08.01.04-.01.08-.04.05-.02.04-.06.05-.02.06 0 .06-.03.05-.12.08-.05.02-.07.04-.03.07.02.06.01.04-.01.04-.02.02-.05.02-.07.02-.02.02 0 .09-.01.03-.04.01-.1.02-.01.01-.02.01 0 .08-.04.16-.03.2-.03.14-.09.12-.05.03-.02.03 0 .01.09.17.04.11-.02.09-.05.04-.07.03-.05.03-.13.22-.08.19-.09.11-.26.59-.07.18-.12.17-.03.05.01.2-.04.06-.03.03-.04.01-.04 0-.02 0-.03.01-.01.01.01.02 0 .03-.01.01-.05.02-.01.01 0 .01-.01.03-.01.03-.06.07-.04.02-.02.03-.04.07-.03.03-.03.02-.02.02-.03.03-.06.12-.01.04-.02.03-.02.01 0 .03-.01.02-.01.02-.02.02-.01.01.02.04.02.01 0 .02 0 .04.01 0 .01.02.01.01 0 .02-.01 0-.01 0-.03 0-.05.03-.05.01-.01.01-.01.02-.01.05.02.12-.01.01-.02.01-.08.02-.04.04-.02.03-.03.01-.04-.01-.02 0 0 0 0 .03.01.05 0 .02-.02.04-.04.03-.01.01-.01.02.01.03.02.04 0 0-.02.01 0 .01.01.02.01.02-.01.01-.01 0-.01 0 0-.02-.01-.02-.01 0-.01 0 0 .03 0 .04-.01.01-.02.03-.01.03.01 0 .01.01.01.01 0 .05 0 .02.01 0 .01 0 .01-.02.01-.02.03 0 .02.01 0 .01 0 0 0 0-.01.01 0 .01 0 .01.02-.01.01.01.03.03.02.02 0 .06-.02.04 0 .01.01.05 0 0-.01.02-.04.03-.01.01 0 .01.01.02.12.05.16.11.03.02.06.01.02 0 .01-.02 0 0 .06 0 .01 0 .02.01.03 0 .01-.01.01-.05.01-.01.01-.01.01.01.01.01.02 0 .01-.01 0 0 .02-.02.04-.01.05 0 .05.03.08.09.05.06.04.07.01.03.07.18.02.11 0 .01.01 0 0 .01.01.03 0 .01-.02.01 0 .01-.01 0 .02.06.01.05-.01.11-.02.08-.03.08-.04.05-.06.02-.05.01-.07.01-.02 0-.01.01 0 .01 0 .02.02.01 0 .01 0 0-.01.05-.01.06.01.02.03.05.01.07-.01.08 0 .05 0 .03.02.01.02 0 .01-.01.03-.03 0-.01-.02-.01-.01-.01.01 0 .04-.01 0 0-.01.02.01.02.01 0 .01 0 .01-.01-.01-.02.01 0 .02-.01.03.09.06.03.01 0 0-.01 0 0 0-.01-.04-.02-.03-.09 0-.01 0 0 0 0 .02.01 0 0 0-.01.03-.04 0-.02 0 0 0 0 .07-.01.07-.05.08-.07.09-.1.01-.03 0-.03.02-.03.03-.01.05-.01.05-.02.05-.01.04.02.1-.02.06-.04.02-.03.06-.05.07-.04.08-.07.07-.02.15-.03.05 0 .42.17.14.02.05.01.3.18.09.05.04.03.05.05.04.05.01.03-.01.06.01.03.12.15.03.01.04.01.11.08.05.06.08.16.01.05.01.03.06.06.03.03.03.05.03.07.03.07.04.05.02.03.02.07.02.11 0 .07-.03.1 0 .02.01.03.01.06-.01.08-.04.15 0 .02.02.07.02.06.1.11.13.1.04.02.02.03.01.03 0 .03-.01.06.01.16-.01.08-.04.14-.01.03 0 .03.05.08.03.06.04.12 0 .07-.03.07-.05.03-.05.03-.02 0-.03.01-.01.02 0 .02-.01.02-.02.02 0 .04.01.05.03.1.02.04.01.04-.02.09 0 .01 0 .01.03.04.01.01 0 .02 0 .07.04.1.01.09.01.02.02.03 0 .02-.01.03-.02.05 0 .01.02.04 0 .04-.01.04.02.13-.01.06-.03.13-.01.04-.1.33-.14.38-.06.15-.06.08-.09.06-.07.13 0 .1.01.06.04.1.01.02 0 .04-.21.56-.06.12-.05.11-.07.13-.05.06-.07.03-.09.01-.02.01-.01.01-.01.04 0 .02.01.02 0 .01-.01.01-.04.04-.04.05 0 .06 0 .02-.01.03-.01.01-.02.01-.03-.01-.03-.01-.01 0 0 .01 0 .01 0 .02 0 .01 0 .04-.02.04-.06.06-.02 0-.02.01-.01.01-.02.02 0 .01-.01 0-.02-.02-.04-.02-.02 0-.02 0-.02.03 0 .04-.01.04-.01.03-.01.03-.03.03-.02.02 0 .01.02.01.04.01.01.02.02.02.05.01.01.01.01.03 0 .05-.02.01-.04.04 0 .01.01.06 0 .02-.01.05-.01.01-.03.02-.04.04-.02.01.01.04 0 .04.01.03.01.02.01.01-.01.02-.02.01-.05.01-.03 0-.01.01-.01.03.01.01.01 0 0 .01-.01.02-.01.01-.04.04-.02 0-.01 0-.01-.02-.01-.01-.02-.02-.03.01-.04.01-.02.02-.01.05-.02.18.01.06-.02.04-.01.04.01.06.01.06.01.01.01.01.01.02 0 .03-.01.02-.03.05-.04.05-.05.08-.01.04.01.08-.01.05-.02.04-.01.04.01.03.09.11.04.07.01.06-.03.08-.07.11-.06.09-.02.04-.03.04-.03.07-.03.06-.05.08-.05.05-.04.07-.03.06-.04.07-.05.07-.07.1-.07.12-.08.11-.08.09-.09.09-.08.07-.1.1-.14.15-.19.17-.05.03-.04.01-.03.01 0 .03 0 .03-.01.05-.02.04-.03.02-.06.02-.03.03-.01.07-.03.08-.06.1-.04.06-.04.05-.04.04-.04.03-.09.06-.09.06-.19.11-.13.05-.03.02-.04.02-.03.03-.02.01-.02.01-.1-.02-.06 0-.03.01 0 .04.01.03.02.02.04.02.04.02.01.03-.01.03-.05 0-.02.01-.01 0 .01.02.01.02.05.02.03.01.01.01-.01.04-.03.03-.04.03 0 .01.02.03.02.07 0 .11-.01.12 0 .1 0 .05.02.11.02.05.01.03-.02.08-.03.03-.06.05-.02.03-.01.04 0 .12-.03.08-.04.08-.02.07 0 .12-.01.08-.04.04 0 .01-.01.01 0 .01 0 .02.01 0 .02.01.01.01 0 .05-.02.02-.02.01-.04.02-.02 0-.03.02 0 .01 0 .02.03.02.01.01.02.02 0 .07-.01.07 0 .03 0 .04-.02.07-.01.02-.01.02 0 .02.01.03-.01.03 0 .01-.02.02-.04 0-.04.01-.01 0-.03.05-.01.01-.02.02-.02.02-.01.01-.01.02-.02.02-.01.04 0 .03.01.03.03.04.01 0 .02.01.01-.01.02.01.01 0 .05.04.01.02.01.04.01.02 0 .02.01.01.02.03 0 .01 0 .03-.02.01-.01.01-.02 0-.02 0-.02-.01-.04-.01-.02 0-.02 0-.03.01-.02.01-.01.02 0 .02 0 .03.01.01 0 .01-.01 0 0 .01-.02.02-.01.01-.03.02-.02.01-.01.01-.02 0-.01 0-.01 0 0-.02 0 0-.01-.01-.01.01-.01.01 0 .03 0 .01.01.02.01.03 0 .03-.04.04-.02.03-.04.03-.02.01-.02.01-.02.02-.01.02-.01.04-.01.04-.02.03-.01.05-.01.06 0 .02.02.03.01.02 0 .03-.01.01-.01.01-.03.01-.02.01-.02.02-.01.03-.02.02-.05.05-.01.03.01.03-.01.02-.01.01-.02.01-.06.05-.02.02-.01 0-.01 0-.05-.02 0 0-.01.01 0 .01 0 .02 0 .03-.02.02 0 .01 0 .01.01.01.01.01 0 .01-.01.01-.01.01-.01.02-.02.02 0 .02.01.02.01.01 0 .03 0 .02-.03.04-.04.04-.05.04-.03.03-.01.01 0 .01-.01 0-.03 0-.02-.01-.02 0-.01.01-.01.02-.01.05-.03.07-.01.04-.01.03-.04.06-.16.18-.02.04-.02.05-.03.07-.02.05-.05.1-.04.05-.1.13-.01.01.01.01 0 .01.01.01.01.02.01.05 0 .04-.02.04-.02.04-.21.19-.12.16-.02.03 0 .04-.01.03-.02.05-.02.03-.03.01-.04-.01-.03 0-.02 0-.02.02-.09.1-.13.2-.16.27-.02.04-.03.05-.04.03-.05.03-.02.04-.01.01-.01.01-.04.05-.03.04 0 .01-.01.01-.07.06-.04.05 0 .02-.01.02-.01.02-.02.01-.02.02-.06.09-.05.07-.03.03-.03.03-.06.07-.05.08-.05.06-.04.06-.04.04-.03.03-.03.03-.03.05-.03.04-.02.02-.02.02-.01.02-.01.04 0 .03-.01.01-.03.02-.07.03-.05 0-.02.01-.01.04-.03.04-.01.05 0 .02 0 .01 0 0 0 .01 0 0-.01.01-.01 0-.02.01 0 .01 0 .01 0 .02 0 .02-.02.03-.01 0-.01-.01-.03-.03-.01-.01-.01 0-.03.02-.03.03-.01.04-.02.06-.04.07-.05.04-.02.04-.02.03-.05.04-.01.02-.02.02-.03.02-.03.01-.01.01 0 .01.01.01 0 .04.01.04-.01.02 0 0-.03.02-.02.01-.03.06-.02.05 0 .04.04.13 0 .04-.01.04-.03.03-.05.05-.01.03.01.02.03.01.09.06.03.03 0 .04-.01.02-.01.01-.06 0-.05-.01-.03.02-.01.02 0 .02.01.03.08.16.04.03.07.01.04 0 .03-.01.02-.03.02-.02.02-.01.02.01.02.03.04.1.11.15.05.25 0 .24.02.24.04.08-.03.06-.05.02-.04.04-.01.04.02.04-.01.03-.03.03-.04 0-.04-.01-.02.03-.01.04-.01.06-.01.08-.05.13-.15.17-.15.17-.05.07-.04.06-.11.18-.17.2-.18.18-.12.12-.03.03-.01.01-.08.1-.44.52-.43.48-.38.31-.06.05-.08.08-.01.04-.02.02-.03.01-.04-.02-.05.01-.04.03-.04.09-.15.14-.06.05-.05.05-.06.02-.06.02-.01.01-.01.01.01.06-.05.05-.05.02-.04.01-.05-.01-.01.01-.01.01-.01.03-.03.05-.08.05-.06.02-.04-.01-.02.01-.02.01-.02.04 0 .02.02.09-.01.04-.04.04-.18.12-.16.06-.27.09-.03.01-.03-.01-.07-.03-.04 0-.06.01-.15.1-.06.04-.03.04 0 .05.03.1.01.08-.02.05-.02.02-.02 0-.04 0-.02.01-.01.01.02.25-.09.26-.1.16-.2.34-.05.13-.06.15-.09.13-.17.16-.04.05 0 .06-.01.16-.08.27-.01.25-.02.05-.03.01-.03.01-.03 0-.02 0-.01.02 0 .01-.02.07-.06.07-.07.06-.02.06-.02.09-.01.02-.03.02-.05.02-.02.03.01.04.15.16.05.06-.01.07-.02.05-.03.04-.12.08-.08.1-.01.04-.01.03 0 .02-.01.01 0 .01-.03 0-.01.02-.01.04.01.02.03.04.02.04.01.1 0 .07-.02.07 0 .02.01.01.01.01.01-.01.01.01 0 .01 0 .01-.02.02-.03.04-.01.14-.03.11-.06.07-.02.02 0 .01 0 .04.01.06-.03.07-.03.02-.02.02 0 .02.01.02 0 .07-.02.05 0 .01 0 .01.03.03.01.03-.02.02-.02.01 0 .02-.01.01.01.05-.02.01-.01.01-.02 0-.01.01-.01.01 0 .03-.05.1-.06.08-.04.03-.04.01-.07-.03-.02 0-.02.02-.01.03-.01.14-.01.01-.01 0-.02 0-.02 0-.02.01-.02.04 0 .06.03.09-.01.01-.02 0-.03-.01-.02 0-.02.01-.02.01 0 .02.05.09.03.04.01.05 0 0-.01 0-.02 0-.03.01-.01.01-.02.09-.03.17-.05.16.03.14-.01.02-.03.01-.02-.01-.02-.02-.03-.04-.04-.01-.04.03 0 .05.05.09.01.07-.01.05-.04.1-.07.21-.06.23-.03.2-.02.15 0 .05-.01.01-.02 0-.02-.01-.02-.04-.01 0-.01.01-.12.21 0 .04 0 .03.02.04.01.07 0 .06-.02.07 0 .05 0 .02.07.22.03.2.01.02.01.01.03.01.02 0 .02.01.01.02.01.03-.02.03-.02.05-.03.03-.03.01-.05 0-.02.01 0 .01 0 .03.03.05 0 .1 0 .06.01.03.01.02.02.01.02.02 0 .03-.02.15-.07.2-.02.02-.02.01-.01.01-.01 0-.01.02-.05.16-.03.17-.02.02-.03.01-.03 0-.03-.01-.01.01-.01.01 0 .03.02.04 0 .02-.01.01-.03.03-.01.03.01.03.04.09-.01.12-.02.09-.03.1-.04.13-.04.1-.05.13-.07.12 0 .01.01 0 .03 0 .03 0 .02.01.01.01.01.03-.01.01-.05.04-.01.04.01.04.04.18.01.03-.01.05-.01.05-.01.06.01.11 0 .01-.03.01-.21-.02-.03.01-.02.02-.02.05 0 .07.01.02.02.01.1.05.02.03.01.2-.02.11-.04.11.02.02.03 0 .02-.03.03 0 .03.01.04.05.03.09.02.15 0 .1-.03.21-.02.08 0 .06.01.06.01.05.02.15-.03.14-.02.07-.02.05-.03.1-.01.07-.01.04-.01.08.01.08.01.07.02.06.01.03.03.03.05.02.04.01.06.07.05.08.03.05.03.03.05.03.07.05.04.05.04.05.01.01.01-.01.02-.02.01-.01.02.01.02.02 0 .03 0 .03.02.03.06.02.03 0 .03 0 .03 0 .09.03.13.07.09.03.08 0 .06-.01.06 0 .05.01.33.22.13.04.1.02.06-.01.04-.02.04-.03.03-.01.04 0 .11.02.11 0 .1-.03.22-.02.11 0 .14.02.19.06.21.07.24.09.09.01.14.01.07.02.05.03.06.02.09-.01.04-.01.05-.02.04 0 .05.02.04.03.06.02.11 0 .23-.02.23-.07.51-.01.29.03.21 0 .23-.04.31-.13.55-.13.37-.07.34-.04.46-.02.28-.08.32-.07.13-.04.16-.02.33-.03.14-.08.02 0 .01.01 0 .02-.01.01.01.01.01 0 .37-.16.02-.02-.01-.06.03-.02.03-.01.06.02.06 0 .21-.08.04 0 .03.01.08.09 0 .05.01.01.03 0 .03-.01.07-.04.02-.01.02 0 .04-.01.03.01.02 0 .03 0 .07-.05.02 0 .02 0 .01.01.01.01 0 .01-.01.02.01.02.02.01.03 0 .03-.02.01 0 .01 0 .03.02.02.03 0 .02.01.01.01 0 .09-.06.01 0 .01.01 0 0 0 .01-.06.06 0 .01.01 0 .01 0 .1-.07.1-.06.02 0 .02 0 .05.04.04.03.03.02.05.02.05 0 .06 0 .04 0 .06-.01.12 0 .12-.01.14.03.2.07.54.01.1.02.1.04.11.03.24.09.12.08.05.02.06.01.14.02.22.08.18.03.15.03.08.01.05.03.21.13.27.11.11.07.22.2.12.09.09.06.06.05.11.08.23.12.28.07.36.19.04.02.07.01.04.01.03.02.08.07.95.7.15.07.22.06.18.02.44.01.38.06.38.11.15.06.76.3.26.04.42.12.2.07.29.15.27.13.08.08.09.12.54.76.18.25.14.17.16.18.09.11.08.1.12.13.08.11.18.21.13.17.13.17.13.19.03.04.03.03.07.02.07.02.22.06.12.05.04.02 0 0 .01.02-.01.01 0 .02.01.01.02.01.23.03.22.14.25.24.52.46.48.46.53.51.3.33.21.27.1.13.09.08.23.23.11.14.22.37.23.37.17.19.02.03 0 .02-.01.02-.06.04 0 .01.01.01.03.01.33-.04.13 0 .04.01.02.02.03.03.02.01.04.01.14.01.08.07.1.09.1.13.15.26.14.34.12.35.13.75.05.3.03.28.16.38.01.08-.01.24.01.04.02.05.11.07.11.08.16.11.08.14.06.39.06.21.03.15.01.11-.02.08.01.06.03.05.1.05.18-.01.08.01.04.02.02.02 0 .03-.03.03.01.02.01 0 .03-.01.07 0 .17.05.28 0 .1 0 .08-.02.07-.03.02 0 .02.01.06.04.07.07.07.09.01.02 0 .02 0 .02.02.01.06.01.05 0 .07-.01.06.02.06.05.06.04.02.02.02 0 .04-.01.03-.01.02 0 .01 0 .28.15.17.19.08.07.07.07.09.12.01.01.01.02 0 .02 0 .02-.07.04 0 .01.01 0 .02 0 .01-.01.02 0 .03-.02.03-.02.03-.01.06-.02.08-.03.12-.03.28-.05.27-.06.17-.02.09-.02.06 0 .05.02.03.02.01 0 .02.01.02 0 .01 0 .04 0 .07-.01.1 0 .17-.01.34-.02.11.02.14.1.02.06.05.03.05.01.14-.02.08-.01.08.02.13.07.09.04.13.03.05 0 .03 0 .09.01.14.01.32.26.05.05.08.05.08.03.08.01.13.01.12-.01.1 0 .04 0 .13 0 .07.02.11.07.15.14.21.29.24.43.13.32.11.21.29.38.44.57.19.28.38.65.25.33.09.19.16.36.09.22.01.03.03.06.08.22.05.14.08.22.12.33.08.24.06.2.03.14.04.2.02.05.01.04.01.04.03.13.06.29 0 .24-.01.03-.02.01-.03.01-.03.01-.02-.01-.02 0-.02 0-.01 0-.03 0-.02.01 0 0 .01.01.02.02.04.03.03.01.04.03.01 0 .02 0 .02 0 .04 0 .02.03.01.07-.02.07-.05.03-.03 0-.02 0-.06-.03-.07 0-.07.04-.02.03 0 .03.02.02.04 0 .03 0 .07-.02.05-.02.18-.01.04.02.04.03.08.16.08.31.04.13.04.05.06.05.08.04.06.03.08.01.02.02.02.02-.01.05.03.02.04.02.05-.01.03-.02.08-.06.07-.04.05 0 .07.01.18.11.15.14.04.04.02.02.03.04.04.05.09.15.09.16.08.19.15.59.05.11.07.07.09.27.1.51.04.26-.01.16 0 .02-.01.01-.03.02-.01.01.01.01.05-.01.01 0 .01.01.01.05.03.1.04.24.02.15 0 .01 0 .02-.2.01-.03 0-.02 0-.02.01 0 .01 0 .02.01.01.02.01.01 0 .03-.01.2-.03.05.01.03.01.02.03.05.11.04.15.01.09 0 .08-.02.03 0 .02 0 .01.01.03.01.05-.01.05-.02.03-.13.1 0 .01.01 0 .03 0 .01 0 .01.01.02.03-.01.07 0 .07.02.07.01.09 0 .06-.02.04 0 .01 0 .01.02.03.02.03.02 0 .02 0 .01-.01.03-.04.06-.02.08.01.07.04.02 0 .01 0 .02-.01.02 0 .02 0 .06.03.07.08.06.08.03.05.03.07.06.13.17.48 0 .03 0 .03-.01.02-.01.03.01.02.06.02.03.05.05.09.04.11.03.11.04.09.02.06.01.22.08.18.06.08.04.07.04.15.02.16-.01.12-.03.17-.02.05-.02.02 0 0 .01.01.01.01.01 0 .01 0 .01 0 0 .02 0 .02 0 .01-.01.01-.02 0 0 0 0 .01 0 0 .01.04.01.02.01.01.01.01.01.01 0 .01 0 .02 0 .03-.01.02-.01.02-.02.01 0 .01 0 .02.02.01.02.04.01.05.01.02.03.04.04.05.03.06.04.05.04.08.05.08.04.08 0 .03 0 .06 0 .05.01.09-.01.08-.01.02-.01.02-.03.01 0 .01 0 0 .04 0 .03.01.02.01.05.05.02.05.01.06 0 .04-.03.02 0 .01 0 .01.02.03 0 .02-.01.02-.04.01-.01.02.01.02.05.02.04 0 .03-.01.02 0 .01.01.02.04.02.05-.01.03-.03.02-.02.01-.04 0-.01 0 0 .01.02.02.03 0 .02.01 0 .01 0 .01-.02.01 0 .01.01 0 .02 0 .06 0 .08.07.03.04.02.06.01.04-.01.02-.02.03.01.01.01.01.03.03.05.05 0 .04 0 .05-.01.01 0 .02.01.03.02.01.04 0 .01.01.01.01 0 .01 0 .01-.03.01 0 .01.01.01.06 0 .02 0 .01.01.02.05 0 .05 0 .04-.01.02-.02.03-.01.03 0 .01.02.03.05.08.09.14.01.03 0 .05.01.03.04.03.03.03.03.03.01.02 0 .02-.01.02-.02.02-.01.01.01.02.06.05.06.04.07.04.02.02 0 .02-.02.4 0 .09 0 .06.01.05.02.03.03.03.12.11.04.03.11.09.07.05.13.1.2.07.11.03.06.03.04.04.03.04.05.08.07.14.04.07.03.07.05.11.01.03.04.03.04.01.07 0 .05-.02.05-.01.09 0 .13.02.06.05.01.01.02.01.04 0 .01 0 .02.01.01.01.02.01.03.01.14.02.07.02.05.03.02.05.04.11.1.18.09.17.04.07.03.06.04.12.19.45.09.24.05.15 0 .04-.24.23-.29.31-.05.05-.07.08-.07.14-.02.06 0 0 0 .11.01.08.02.06.1.14.27.32.03.04.27.35.09.1.12.14.08.08.01 0 .11.1.81.55.23.3.01.01.01.02.02 0 .02 0 .02 0 .02-.01.02-.01 0-.02.01-.02-.01-.01-.01-.02-.02-.01-.02-.01-.01 0-.1-.15-.07-.1.01 0 0-.01 0-.01 0-.01 0-.01-.01-.01-.01 0-.01-.01-.01-.01-.02 0-.03 0-.03-.02-.03-.02-.05-.03-.04-.02-.02-.02-.63-.42-.16-.15-.4-.46-.06-.08-.02-.02-.01-.01 0-.01 0-.01.01-.01.04-.03.04-.03.06-.04.04-.02.03-.02.02-.01.03.04.03-.02-.03-.04-.36-.43-.01-.01.01-.01-.04-.04.03-.02.04.04 0 0 .01.01.77-.5 0 0 .03-.02.01 0 0 0 0 0 .83.98.02.02.01 0 0 0 .01 0-.02-.03 0 0 0-.01.48-.3.01 0 0 0 .14.15 0 .01 0 .01-.15.09 0 .01 0 0 .02.02.01-.01.01.02 0 .01.02.02 0 0 0 0 .14-.09.01 0 .01 0 0 0 .01.01.14.17 0 0 0 .01-.35.27-.01 0-.02.02-.01-.01 0 0 0-.01 0 0 0 0 .02-.03-.01-.01-.1.08.01.01.01 0 .01-.01.01 0 0 0 0 0 .01 0 0 0 0 0 0 0 0 0 0 .01 0 0 0 .01-.02.01-.15.11-.03.01-.04.01-.02.02-.01.02.01.02.01.01.03.01.02 0 .03-.02.03-.03.18-.13.03-.03.02-.01.01 0 .03.04 0 0 .01 0 0 0 0 0 0 0 .03-.02 0 0 0 0 .01 0 0 0 .01.01 0 .01 0 0 .01 0 0 0 0 0 0-.01.03.04.01 0 0 0 .25-.2.01 0 .01-.01.51.02 0-.07.02 0 0 .07.09 0 0 0 0 0 .01.01 0 0 0 0 0 0 0 0 .03 0 .01.01 0 .01.01.08 0 0-.01 0 0 0-.03 0 0 0-.01 0 0 0 0 0 0 .01 0 0 0 0-.01 0-.03 0 0 0 0 .01-.01.29-.01 0 0 .01-.61-.02 0 0 0 0 0 .03-.01.01 0 .01-.01.01-.01 0 0 0-.14-.01 0 0-.01.01 0 0-.01.01 0 0 0 .03-.03 0 0 0-.01-.02-.01 0-.02-.01-.01 0-.02 0-.01.01-.01.01 0 .02 0 .01 0 .01.01.01.02.01.01 0 .1.01.99.08.03.01.01.02.06.23.14.5.02.05 0 .02.01.01.01.01.01 0 .02 0 .02 0 .01-.01.01-.01 0-.01 0-.02-.17-.55.01-.01 0 0 .02-.01 0 0 0-.01-.18-.62 0-.31 0-.01 0 0 .12 0 0 0 .01 0 0 0 0-.04 0 0 .01 0 .01 0 0 0 .05 0 0 0 .05 0 0 0 .4.01 0 0 0 0 .04.24-.01.01 0 .01-.29.09-.06.02-.04.01-.03.01.01.01.01 0 0-.01.01 0 .01.01.01.01.01.01.02.02 0 0 .01.01.01 0 .05-.01 0 0 .01 0 0 0 .01 0 0 .01 0 0 0 .01.01 0 0 0 0 0 .01 0 0 0 0 0 .01.02 0 0 .01 0 .44-.14 1.4-.44 0-.01 0 0-.01-.02 0-.01.01 0 .01-.01 0 0 .04-.01 0 0 .01 0 0 0 .01 0 0 0 .01 0 0 .01.04.1.01.02.01.02-.03.02.01.01.03-.01.01.04.01 0 .04.09 0 .01 0 .01-.18.05-.09.03 0 0-.02.01-.01 0 0-.01 0-.01 0 0-.01 0-.02.01 0 0 0 0 .07.16 0 0 .01.04 0 0 0 .01 0 0 0 0 0 0 0 0 .01 0 .01.04 0 0 0 0-.02.01-.01 0 0 0-.01-.01 0-.01 0-.01 0 .01-.01-.02 0 0 0 0 0 0 0 0 0-.01 0 0 0 0-.01 0 .01.01.01.04-1.28.4-.01.01 0 .01.06.12 0 .01-.01.01-.27.08-.06.02-.01 0 0 .01-.01.01.01.01-.03 0 0 .01 0 0 0 0 0 0 0 .01 0 0 0 0 0 0 .01 0 0 0 .03-.01 0 0 .01.01.01 0 .01 0 .02-.01 1.73-.55.05-.01.04-.01.02 0 .02 0 .01.01.02.01.11.08.33.27.01.01.02.01.02 0 .01 0 .01-.01.01-.01.01-.01 0-.01 0-.01-.01-.02-.01 0-.01-.01-.02 0-.01 0-.04-.03-.08-.06-.19-.15-.01-.01.01-.01 0-.01.04-.19.04-.21.03-.16.03 0 0 0 0 0 .28.04.01 0 0 .01.03 0-.07.37 0 0-.02.08 0 .01-.01 0-.01.04-.01.01.01.01 0 0 .01.01.01 0 .01 0 .02 0 0-.01.04-.03.03-.03.01-.01.03-.08 0-.01-.01 0 0-.05.01-.05.01-.04 0-.01.01-.02.01-.01 0-.02.02-.01.01-.01.03-.01.01 0 0 0 .02 0 0-.01.01-.01 0 0 .01-.01 0-.01 0 0 .01 0 .09 0 .05 0 .04.01.06.01.05.01.08.02.18.06.19.08.21.12.16.13.19.18.12.12.28.35.36.52.17.34.1.28.07.21.14.28.11.21.19.56.05.19.15.59.06.27.01.07.01.09.04.25.03.23.01.08 0 .06 0 .06 0 .07.01.14.01.07 0 .06-.01.15-.01.12-.02.14-.01.17-.01.15-.01.07-.01.08 0 .05-.01.05-.03.14-.02.1-.01.07-.02.06-.02.13-.02.09-.02.09-.04.12-.05.14-.01.07-.03.09-.01.07-.02.08-.07.17-.02.06-.01.03-.02.07-.03.08-.02.05-.01.03-.02.05-.02.05-.04.07-.03.06-.03.07-.06.07-.07.06-.01.03 0 .03.03.11.01.09 0 .06-.03.05-.02.03-.05.04-.05.07-.05.02-.04.02-.05.02-.04.03.03.03.05.05.05.05.03.06.01.04 0 .08.02.06-.02.14.01.23-.03.13-.01.07-.03.06-.07.02-.08.07-.07.06-.19-.14-.01-.02-.02-.01-.03 0-.01.02.01.02.02.02 0 0 .16.13.05.02.13.04.12.01.1.01.03.01.01.02.01.02.02.03 0 .01 0 .03-.01.03-.02.07-.06.2.03.16.06.11-.05.26-.32.67-.09.23-.02.06-.02.07-.04.28-.05.36-.1.31-.05.16-.05.19-.04.1-.07.19-.06.23-.1.27-.1.48-.06.26-.04.25-.04.18-.06.36-.04.28-.06.25-.03.16-.07.26-.02.16-.05.2-.03.17-.05.28-.24 1.07-.05.21-.09.33-.06.22-.08.29-.13.4-.06.26-.06.24-.06.22-.05.22-.02.1-.03.1-.06.23-.07.27-.03.24-.04.16-.03.18-.12 1.14-.02.27-.03.32-.03.35-.04.4-.02.26-.02.11 0 .1-.04.25-.06.38-.01.2-.02.3-.04.22-.02.13-.04.22-.05.51-.15.59-.11.57-.03.3-.02.11-.04.13-.08.21-.18.51-.13.48-.04.18-.06.15-.04.13-.05.14-.09.23-.1.26-.08.11 0 .02.03.08 0 .05-.04.05-.04.01-.04 0 0 0-.01.01.02.03-.04.12-.01.05.02.05-.01.03-.02.12 0 .05-.01.03-.02.05-.03.09-.03.05 0 .01.01.02.04.05 0 .02-.02.05.01.07.07.05-.01.06-.03.1-.05.11-.07.23-.03.04-.03.04-.02.03.01.03.02.03.01.04-.1.45-.08.28 0 .02.01.01.07 0 .06.01.03.05.01.08-.03.1-.09.17 0 .02.06.14 0 .07-.02.02-.05.02-.01.06.02.04-.02.07-.17.35.01.04.09.11.06.06.02.09-.01.09-.1.23-.02.03-.03.02-.04.02-.01.02 0 .01.05.03 0 .02-.01.02-.01.01-.02 0-.04-.01-.01.01-.01.01-.01.01.01.02 0 .01 0 .01-.02.07-.02.04-.01.03-.02.04 0 .01 0 .02.01.03-.01.02 0 .02-.01.03 0 .02-.01.02 0 .03 0 .02 0 .01-.02.03-.02.02-.03.02-.01.02 0 .02.1.04.05.07-.01.05-.03.06-.02.04-.02.03 0 .02 0 .05-.01.04-.03.07-.01.02.01.05.03.12-.01.04-.07.16-.02.05-.05.05-.05.04-.01.04.07.07.03.03 0 .03-.06.34-.03.1-.09.16-.05.14-.02.08-.05.19-.08.2-.06.07-.01.01 0 .03.03.06.01.04-.01.05-.04.12-.01.14.06.18 0 .06-.1.34-.14.4-.14.36-.19.38-.1.3-.29.72-.12.26-.17.28-.17.35-.21.47-.09.27-.08.23-.04.07-.03.05-.01.04-.01.05.03.11 0 .03-.02.04-.01.04-.02.02-.04.03-.01.01-.01.01.01.02.05.08.04.14.07.27-.01.06-.03.04-.08.04-.06 0-.03 0-.05.02-.02.02 0 .02-.01.02.01.02.07.05.02-.01.01-.01 0-.05.01-.01.01-.01.01 0 .01.01.01.01.01.04.01.03 0 .03 0 .03-.01.04.01 0 .01 0 .03-.05.01-.01.04-.04.04-.05.08-.06.11 0 .09.03.11.08.06.08.1.16.07.21.05.28 0 .06-.01.03-.04.03 0 .03.06.04.01.05-.02.04-.09 0 0 .01 0 .02.05.01.01.01.01.01 0 .03-.01.04-.03 0-.03 0-.01-.05-.01 0-.02 0-.04.2-.05.3-.05.18-.01.02.02.02.05.03.04.02.07.03.04.03.01.06-.05.21.01.21.05.15-.05.29-.27.73-.04.2-.05.15-.09.28-.08.28-.07.24-.06.14-.01.06-.01.13-.02.17 0 .14 0 .23-.05.15-.01.04.01.02.03.06.02.06 0 .05-.05.18-.02.07-.01.09-.02.08-.03.1-.03.09-.03.12-.06.22-.09.43-.12.2-.08.14-.14.27-.07.22-.02.14 0 .1.01.12.01.07 0 .05.01.04-.01.11-.02.08-.03.08-.03.04-.02.03-.03.04-.04.04-.02.03-.02.03.01.03.02.04 0 .07-.01.06-.04.09-.04.09-.04.06-.04.07-.05.08-.07.1-.08.08-.01.02 0 .02.04.08.01.14-.05.14-.16.24-.07.39-.05.11-.03.07-.02.21-.04.11-.06.05-.03.02 0 .02-.03.11-.14.2-.07.12-.09.13-.04.07-.01.12.02.14-.04.11-.02.04-.01.01 0 .02.06.02.02.04-.03.2-.05.09-.07.25-.05.06-.22.13 0 .03.01.05.07.04.04 0 .06 0 .02.01 0 .02-.02.04-.04.06 0 .05.02.05.03.06.03.05.01.07 0 .05 0 .05-.02.05-.01.04-.02.03-.01.02-.02.02-.01.04 0 .04 0 .04-.03.05-.01.03-.01.05-.01.06-.03.06-.05.03-.07.03-.02.03.01.03.03.07.03.03.07.03.06.05.05.05.05.04 0 .06-.04.08-.04.12.01.16-.03.12-.03.08-.01.08-.03.07-.05.05-.05.06-.02.06.07.09-.03.11-.06.14-.03.06-.03.06-.03.05-.02.04-.02.07-.05.11-.07.17-.17.38-.22.33-.11.19-.06.11-.08.11-.06.07-.07.13-.13.25-.04.06-.06.06-.08.07-.07.09-.02.15.04.13.04.1 0 .05-.15.16-.05.02-.04.01-.02.02-.01.02.05.16-.01.05-.05.04-.06.01-.02.01-.02.02 0 .11-.02.13-.01.09-.02.18 0 .05 0 .07-.01.08-.02.19-.01.05-.03.07-.1.13-.01.03 0 .01.02.02.02.01.01.02 0 .03-.02.05 0 .06-.01.04-.01.03-.03.05-.02.03-.02.04-.01.03 0 .04-.03.1-.04.06-.01.04.01.04-.01.03-.01.02-.12.16-.08.09-.02.03 0 .02.03.02.01.03.01.04-.05.14-.05.11-.03.07-.07.06-.02.03 0 .02.06.03.04.06.01.02-.01.02-.03.03-.01.01 0 .02.04.02.01.04 0 .03-.03.09-.02.07.01.13 0 .04-.03.07-.36.51-.2.29-.05.07-.05.13-.07.48-.03.05-.01.02-.1.08-.1.07-.17.17-.24.25-.12.13-.12.16-.1.12-.2.27-.09.12-.08.12-.08.11-.12.17-.09.14-.2.26-.12.18-.23.34-.11.15-.09.11-.05.07-.11.14-.14.17-.12.15-.12.15-.07.08-.1.12-.06.08-.08.11-.1.13-.09.08-.11.14-.14.18-.14.17-.13.14-.21.24-.05.05-.04.03-.04.03-.1.1-.1.14-.04.04-.03.01-.04 0-.03 0-.01 0-.01.02.01.02.03.04.01.03-.01.04-.06.07-.01 0-.02 0-.02-.01-.04-.02-.02 0-.01.01-.11.17-.06.09-.01.02 0 .02.02.03.03.02 0 .02-.01.02-.03 0-.04.01-.04.02-.02.03-.02.07-.03.02-.04 0-.15-.05-.04.01 0 .03.11.08.08.04.02.03 0 .04-.02.08-.06.04-.05.02-.05-.02-.06-.07-.02-.01-.03-.01-.03.02-.02.02-.01.02.01.03.08.16.01.04-.02.03-.04.04 0 .03 0 .02.06.07.06.12.01.04-.01.04-.1.17-.08.13-.06.12-.16.2-.04.07-.04.09-.1.26-.03.04-.02.03-.05.02-.01.01 0 .02.06.04.02.03 0 .03-.09.16-.04.01-.04 0-.04-.03-.05 0-.02.01-.01.03.01.04.09.12 0 .06-.02.05-.18.2-.06.07-.02.06 0 .09-.01.08-.03.08-.07.09-.07.08-.08.07-.02.05-.01.06-.01.08-.01.15-.06.07-.02.05-.01.08-.02.15-.02.05-.22.34-.11.2-.2.22-.06.09-.04.1-.02.12-.04.1-.03.03-.06.03-.1.04-.05.05-.04.05-.04.1-.02.07.01.05.02.05 0 .06-.04.12-.01.02-.01.01-.03.01-.05 0-.04.02-.02.02-.01.03-.01.08-.02.1-.1.1-.06.05-.03.05-.02.07.02.13.01.08.01.08-.04.1-.07.12-.1.11-.07.06-.07.07-.03.03-.01.04 0 .08 0 .23-.01.03-.01.03-.03.02-.02.02-.01.01 0 .04.01.04 0 .01-.01.02-.14.14-.06.06-.02.01-.02 0-.03-.01-.01 0-.01.01-.01.01 0 .01.02.03 0 .01 0 .01-.06.09-.01.08 0 .07-.01.03-.02.03-.02.02-.02.01-.01.01 0 .01.01.01 0 .02-.01.02-.06.07-.07.05-.07 0-.07-.02-.06.01-.04.03-.02.06.01.07.04.07.02.07.02.09-.02.06-.03.06-.03.04-.03.05-.05.05-.04.05-.07.1-.05.07-.03.04-.01.05 0 .02.02.03 0 .02-.02.04-.04.04-.04.03-.03.03-.03.05-.01.04-.02.05-.02.03-.02.03-.04.05-.03.04-.02.04.01.07 0 .06-.03.06-.05.02-.04.04-.04.02-.05.02-.05.02-.05.03-.03.05-.05.1-.03.07-.03.06-.02.08-.02.04-.02.04-.03.01-.06.01-.05.03.01.04.01.03.03.02.04.01.02.03 0 .08.01.11-.01.06-.01.07-.02.09-.05.1-.08.13-.08.12-.04.08-.08.06-.13.03-.06.03-.04.03-.08.12-.03.03 0 .03.01.03.03.03.02.03.01.03-.04.16-.07.22-.07.16-.09.12-.1.09-.06.05-.03.04-.01.11-.02.06-.04.07-.06.05-.09.08-.06.05-.08.04-.06.06-.04.08-.02.13-.04.15-.07.09-.09.09-.08.09-.07.1-.04.11-.01.11.07.16.04.09.01.1 0 .07-.2.47-.12.23-.13.25-.06.1-.08.16-.15.41-.09.13-.11.14-.14.21-.1.16-.13.21-.11.16-.12.16-.03.09-.02.09-.01.16-.01.11-.03.07-.07.11-.12.15-.12.18-.08.14-.08.29-.04.19-.07.22-.02.09-.01.07-.05.03-.09.01-.03.01-.01.02.03.13-.02.04-.03.02-.06.01-.05-.01-.02.01-.01.01.01.02.04.04.01.03-.02.05-.02.05-.02.09-.06.06-.07.06-.07 0-.04-.02-.04-.05-.04-.02-.05 0-.02.03 0 .06.02.09-.01.04-.06.13.01.05.03.02.06.04.08.04.01.02-.03.04-.04.02-.08 0-.08-.04-.07-.03-.07.01-.04.04-.03.11-.04.12-.08.07-.07.03-.05.02-.05.05-.03.06 0 .02.02.03.06.05.05.03.03.04.01.04-.02.04-.06.06-.07.09-.02.02-.03 0-.06-.01-.07-.02-.03.01-.02.01.01.03.01.03 0 .02-.02.01-.03 0 0 .02.02.01.04.01.01.02.01.04-.02.02-.03.01-.04-.01-.08-.02-.02-.01-.03 0-.01.01 0 .02-.01.02-.03.02-.01.01.01.02.02.02 0 .02-.01.02-.03.02-.03 0-.03.01-.07.06-.04.01-.08-.01-.04-.01-.02.01-.01.02.01.02.04.07.01.06.01.05 0 .07.02.07.03.07.03.07.02.04-.01.02-.03.01-.04 0-.08-.03-.07-.03-.02 0-.01.01-.04.06-.04.03-.07.01-.02.01 0 .02.01.1.03.08.05.05.08.05.04.05 0 .03-.02.04-.03.03-.04.02-.05.01-.05-.01-.07-.09-.03-.06-.05-.08-.01-.02-.02-.01-.03-.01-.01 0-.01.02.02.03.05.06.02.04.03.04.05.07 0 .03-.01.03-.04.01-.03 0-.06-.05-.06-.04-.02 0-.02.01 0 .01.05.08.04.1 0 .06-.01.01-.01.02-.03.01-.04 0-.02.01 0 .01 0 .02-.01.07-.02.02-.02.02-.01 0-.07-.01-.14-.03-.05-.01-.04 0-.03 0-.01.03-.03.03-.01.01-.03 0-.01 0-.01.04.01.05.02.04.01.05 0 .05-.03.04.01.04.01.02.06.05.04.04.01.05-.02.03-.02.02-.02 0-.04-.03-.02-.03-.01-.01-.01 0-.02.02-.01.02.04.01.03.02.01.02.02.04.02.03.02.03-.03.03-.03.01-.05-.01-.08-.03-.06-.02-.05 0 0 0-.01 0 0 .01 0 .01.02.01 0 .02-.01.02-.02.03-.02.02-.02.02-.01 0-.01 0 0 .01 0 0 .01.01.11.06.01.01 0 .01-.05.09-.02.03-.02.03-.02 0-.03 0-.09-.03-.05-.03-.03-.01-.03 0-.01.01.01.03.08.12.02.03.02.01.05.01.02.01.02.01 0 .02-.03.05-.04.03-.07.02-.09 0-.02-.01-.02.01-.01.01-.01.01-.1.01-.15.03-.04 0-.02.01.01.04.02.06.1.13 0 .11-.09.35-.02.27-.15.23-.08.15-.01.08.14.29.04.23.03.33.03.28-.03.23-.16.22-.2.12-.04.1 0 .23-.05.1-.13.15-.29.18-.08.1-.07.3-.04.17-.07.18-.17.25-.11.16-.16.19-.13.16-.11.13-.16.13-.03.04-.01.04.06.07-.01.03-.03.01-.09-.02-.11.09.03.1-.03.02-.09-.03-.08.04-.27.51-.2.26-.11.15-.15.2-.1.09-.13.13-.05.3-.32.22-.24.07-.06.13.01.12.16.09 0 .04-.05.03-.17-.05-.06.01-.11.07-.08.04-.1.37-.04.08-.09.06-.24.16-.02.08.02.05.16.15.01.08-.02.03-.06.02-.1 0-.05-.09-.05-.01-.06.01-.26.16-.24.82-.17.06-.1-.06-.06.03-.34.46 0 .04.11.08.14.11.37.24.03.07-.05.15.01.01.02 0 .08-.03.04.01.02.02.02.04.06.14-.02.05-.05.04-.07 0-.02.01-.01.02.05.23-.04.16-.05.18-.12.23-.01.04.04.12-.02.12-.36.59-.07.08-.06.1-.08.11-.09.15-.26.34-.34.47-.29.35-.18.12-.07.05-.04.07-.06.07-.11.19-.09.11-.09.12-.1.1-.16.18-.07.06-.08.07-.1.05-.14.08-.1.13-.1.18-.23.16-.09.1-.09.14-.11.22-.05.11-.05.11-.17.18-.17.14-.2.17-.19.16-.09.09-.13.12-.16.13-.14.13-.08.09-.07.07-.15.16-.14.13-.11.13-.13.12-.11.1-.1.11-.04.23-.05.17-.12.13-.13.09-.13.1-.15.16-.24.24-.12.16-.19.29-.13.15-.09.09-.08.08-.07.09-.08.15-.11.14-.08.08-.1.09-.1.12-.18.37-.01.11 0 .07 0 .11-.01.16.01.09-.03.06-.03.05-.03.05-.03.03-.02.02-.02.02-.02.01-.02.02-.01.02.01.03 0 .05-.01.03-.01.01-.03 0-.04-.02-.01 0 0 .01.04.03.01.01 0 0-.02.03-.02.03-.02.04-.01.02-.02.02-.01.01 0 .01-.01.01-.01.01 0 .02-.01.02 0 .02.01.02.01.01 0 .02-.01.01-.02.01-.01.02 0 .02.01.03 0 .02.01.02-.01.02-.01.02-.02.02-.02.01 0 .02.01.04 0 .03-.01.03 0 .02-.01.02-.01.02-.01.03-.04.02-.03.03-.03.03-.02.03-.01.03-.01.03-.01.05-.02.07-.03.07-.02.05-.06.06-.05.05-.08.05-.21.22-.09.1-.15.16-.14.12-.07.07-.17.14-.32.27-.06.02-.02.03.01.07-.02.08-.26.28-.5.47-.4.36-.08.02-.1.03-.08.06-.16.19-.47.42-.79.7-.25.25-.44.37-.3.31-.19.14-.12.1-.18.17-.13.13-.13.12-.32.3-.2.21-.34.34-.2.21-.42.43-.46.35-.74.71-1.12.96-1.73 1.52-1.56 1.31-.22.2-1.09.86-.37.23-.33.22-.12.1-.27.23-.37.29-.95.68-.49.37-.37.27-.26.19-.33.24-.36.26-.43.3-.29.2-.2.13-.21.16-.34.24-.22.19-.2.14-.39.31-.34.3-.36.24-.22.18-.06.05-.18.17-.25.21-.29.26-.14.13-.16.15-.25.27-.15.11-.18.14-.2.18-.27.25-.11.09-.1.08-.08.09-.09.1-.12.11-.11.11-.11.1-.17.15-.28.23-.36.27-.42.27-.2.14-.16.1-.26.16-.27.2-.15.13-.05.06-.05.08-.24.27-.23.21-.24.26-.2.17-.02.03.01.05.05.17.03.1 0 .08-.03.06-.58.85-.23.19-.19.14-.33.26-.52.46-.11.12-.26.4-.05.04-.09.03-.12.05-.07.01-.07 0-.04.01-.02.03-.11.26-.07.1-.1.09-.42.18-.06.05-.01.06.09.24-.01.07-.04.08-.29.32-.1.13-.2.3.01.04.03.01.13-.02.07 0 .05.04.05.2 0 .08-.05.16-.04.17-.02.12-.01.07-.01.09 0 .11-.03.07-.09.15-.04.11-.02.08-.02.07-.01.15-.04.18-.07.11-.04.01-.04 0-.07-.05-.07 0-.08.05-.13.15-.01.19-.07.14-.21.12-.05-.06-.04 0-.07.03-.02.06.03.08.08.11-.03.12-.22.06-.06.08-.12.42-.1.25-.06.13-.11.2-.1.08-.2.14-.11.08-.28.19-.42.16-.05.05-.04.08-.04.1-.09.06-.07.02-.11.01-.06.03-.08.1-.23.25-.13.15-.09.14-.08.07-.09.05-.07.07-.6.87-.07.06-.09.02-.1-.01-.11.01-.06.06-.04.19.01.06.04.04.27.06.04.04.04.03.01.09-.02.1-.07.08-.08.06-.06.02-.07.04-.09.06-.13.09-.04.07-.01.05z" /><path d="m88.66 140.94l0 .01.01.01.01-.01.02-.01 0-.01-.01-.01-.01 0-.01 0-.01.01 0 .01z" /><path d="m88.71 140.98l.01.01 0 0 .01-.01-.01-.01 0 0-.01 0 0 0 0 .01z" /><path d="m101.3 190.97l0 0 0 0 .02.01.01 0 .01 0 .01-.01 0 0 0-.01-.03 0-.02 0 0 .01z" /></g></g></svg>