<?xml version="1.0" encoding="utf-8"?><svg xmlns="http://www.w3.org/2000/svg" version="1.1" baseProfile="tiny" width="800" height="600" viewBox="0 0 800 600"><g><g stroke="#000000" stroke-width=".98" fill="#FFFFFF"><path d="m5 370.27l3.16.9 4.89 1.23 1.56-.66 2.23.61 1.08.8 2.35.09 1.17.23.93.45 1.36.43 1.21-.2 5.64-.91 4.3-.68 4.17-.85 3.8-4.34 4.85-.71 3.75-.93 3.26.88 1.7.58 3.26 1.04 5.44 3.12-2.86 2.46 1.94 2.09 2.29 2.46 8.86 0 6.27-4.97 12.57 6.11 1.99.97 8.19 6.34 5.59 3.05 11.35 2.08 1.96.18 6.72-1.02 7.88-2.11 8.35 2.13 6.48 1.81 1.97 1.16.05 2.21-.19.61-.53 1.64-1.4 1.78.35 2.82-1.48 4 2.02 3.14 3.39 1.2-2.1 4.13-1.11 2.76-2.14.7 1.47 3.27-1.43 1.73 1.27 1.33.91 1.99-.16 1.83-.1 1.43.32.91-.64 1.01-.11.87.79.78-.31.65-.73 1.15-.31 1.5.22 1.59 1.31 2.02.1.58.46.92-.7 2.01-.86 3.17-2.75 3.6 2.16 1.48 3.87 3.66 5.05-.67 2.19.52.94 1.79 2.19 1.05 2.19-1.09 2.88-.18 2.97 1.1.72 2.16 2.11.57.2 1.67-1.49 2.82 3.08-2.11 2.66-.41 4.64-.05 1.02-1.11 1.7-1.49.35-1.45 1.51-.38.22-1.1.34-1.48 1.42-.48 3.19-.18.64-.57 2-.61 1.58.22 1.11.36 1.33.19.81.46-.36.75-.83.78-.26 1.2-.16.57 1.39.24 1.88.24 1.62.21 1.92.71 1.61.27 1.14-.57.19.87.22 1.09 1.61-.18 1.67-.73 1.05-.71 0 .57.62 1.65 1.72 1.44 1.06.82.24.8 1.01 1.9.16 1.05-.19.93 2.51-.01 2.7.05 2.55-.15-.18 1.35.32 1.39.18 2.04.47 1.19.09.77-.91.53-.05 1.07.39.25.64-.53.59.29 1.54-.44.48.35.01.69.4.72.61 2.16 1.69 3.34.56 1.42.75 1.22.9.09 1.34-.19 1.41-1.29.97-.68 1.18-.05 1.54.19 1.85.67 1.88 1.28.66 1 .4 1.09.54.27.68-.19 1.19-.07 1.36.25 1.31.49 1.49.16 1.68-.06 1.28.33.67.98.81 1 1.41.08.8-.16 1.7-.34.3 1.1 1.53.32 1.47.92 2.57 1.57 1.5 1.05.87 1.75.64 1.38 1.19 1.21-.6 1.61.92 1.05-1 1.1-.99.55-1 .98-.58.38-1.1.4-.72.81-.2.76-.29.81-.36.95.56.47-.12.71-1.22.51-.28.76.25.9.6.95.88.39.19.32-.01.57-.13.68-.29.44-.21.43.25.34.61.39-.32.25-.29.13.49.65.42.53.83-.06 1.77-.11 3.49 1.18 3.08 2.03.64 1.31.83.45 2.55-.25-.22-2.42-1.56-1.68 1-.58 2.95.58 2.63.32 2.31.51 2.28.64 3.16 1 1.39.12 1.59.76 1.91.85 2.28 1.16 3.53.93 11.11.36 6.89-5.25 1.08-.48-1.37-.54-1.27-.77-.89-1.81.7-2.17 1.69-1.74.36-.59 16.62-.75 3.09-.02 1.38-3.66 2.72-4.06.38-.62 1.05-3.02-.66-.12-2.19-.61-2.2-.51 1.67-.87 2.89-2.21.48-2.4-.52-5.36.03-5.79-.02-3.44-1.28-1.89-.81-1.44.65-2.14.47-3.17.67-.97.77-1.13-.81-2.48-.76-1.98 1.21-.88-1.02-1.26-.07-2.28 1.35-6.17 5.02-3.55 3.92-3.35 2.76-1.59 6.57-.68 4.04-2.88 7.1-1.14 2.05 1.68 1.24-2.52 17.79-5.33 1.38-.62 1.38.07.56.91-.52.97-.47.42.15.62 1.69-.54 1.08-.01 1.47-.02 2.74.02 2.72-.12 1.48.14.44 1.04 1.2-.1.75-1.27 7.95-4.37 5.03-.85 1.31-.57 3.3-.77 1.62-.97 2.56-1.99 5.68-2.36 1.85-.77 3.24 2.49 2.05.12 1.79.01 10.69-1.53 7.47-1.63 5.3-2.52-.52 6.22 1.49 7.18.44 6.37-.4 2.87.73 1.28.44.75.81 1.41.23.92.33 1.37.38 1.56.98.56.69.64 1.28.77 1.65 1.1 1.85 1.18 1.36.82 1.94.29 1.03.25.05.54 1.23.72.91.52 1.42.82 1.4.82.83.48 1.04.6 2.11.01 2.37.02 1.23.01 1.18.01 1.41.01 1.37.01 2.36.01 6.6.05.14-.08 2.2-1.36 10.11-.21 4.73.86 7.98 1.93 3.47 5.04 1.57 5.45 10.41-6.16 7.13 1.41 4.24-1.22 4.2 2.89 8.24 3.41 3.22 1.4 3.03 1.31 1.45.74 1.13.33 1.9.64-.92-1.26 1.88-3.81 3.29-2.61 1.55-6.16 5.55.7 5.89.96 2.89-.95 5.67-1.27 3.82.43 3.51-1 2.63-.96 2.77-1.77.86-2.97 4.85-2.39 1.21-3.96-3.49-3.33 5.27-4.57 8.79-5.81 4.19-4.14 4.18 3.71 3.57 5.19 1.29 1.25 2.7 2.61 13.32 5.13 5.11-2.11 3.69 4.49 8.5-4.14 5.75-2.37 3.59-3.64 2.53-2.25 6.96-5.07 4.77-4.71 2.41-2.9.61-1.06.15-.42 1.67.39.52-.08 1.1-.16 1.93.59 1.49.04 1.47-.89 2.85-.14 9.29-1.88 1.84-.38 2.63-.53 2.19-.44.9-.27.86-.25 1.3-.62 1.86.37.61-.86 1.95.15-.02-.71-.3-.88.93-.31.58-.12.6-.75.95-.54 1.89-.03 3.07.49 2.07-.49 7.95-1.88 7.44-1.81 6.72-1.63 2.2-4.58.82-1.68.04-1.44-.39-1.42-.88-1.29-.52-1.19-.96-2.04-.24-2.87 3.16-3.37-2.09-1.51 3.57-6.84.61-1.43.96-3.48 1.25-4.63-.15-.47-.12-.27-.17-.53-.07-.19-.16-.23-.34-.18-.16-.18.02-.18.07-.43-.25-.43-.24-.36-.07-.38-.04-.46.1-.29.11-.46.12-.43.22-.36.03-.3-.01-.3-.04-.11-.1-.35-.28-.38-.39-.43-.59-.44-.3-.3-.37-.29 0-.21.03-.3-.01-.24-.02-.6.03-.29-.1-.26-.18-.34-.1-.62-.04-.21-.04-.21-.05-.77.06-.89.26-1.14.07-.96.04-.38.04-.44-.06-.22-.19-.77.02-.52.39-.51.24-.57-.2-1.13.22-.39.14-.26.87-.96.13-.32.3-.51.28-1.1-.2-.7-.01-.29-.08-.41-.02-.17.06-.26.11-.16.11-.25-.17-.46 0-.34.08-.2-.06-.48.06-.34-.11-.29-.04-.25-.18-.27-.31-.45-.02-.26-.01-.18.13-.11.14-.16.5-.57-1.24-4.82-.53-1.42.32-6.22.68-4.01.1-.56.38-1.35 1.4-4.96-2.11-2.84 2.3-1.81.54-1.66.36-1.26-3.57-3.13-3.15-4.76-.15-.17-.3.04-.25.08-.45.06-.39.08-.45.08-.75.15-.83.14-1.38.17-.77.04-.7-.01-1.03-.02-1.33-.16-1.52-.22-1.26-.21-.5-.12-.32-.09-.67-.15-.6-.18-.39-.13-.45-.24-.2-.09-.2-.07-.2-.11-.17-.03-.11-.02-.83-.05-1.35-.24-2.03-.45-.8-.24-.49-.19-.78-.37-.59-.28-.58-.18-.52-.1-.87-.26-.39-.23-.28-.19-.39-.29-.08-.08-.18-.18-.13-.08-.06-.02-.11 0-.11.02-.17.04-.1.02-.13-.14-.13-.1-.16-.03-.1.01-.11-.01-.14-.06-.08-.09-.1-.18-.07-.1-.05-.2-.04-.07-.09-.13-.09-.09-.06-.13-.06-.05-.08 0-.14.05-.11-.01-.06-.05-.02-.09.05-.06.14-.08 0-.04-.01-.03-.01-.03-.01-.02-.01-.02 0-.05.01-.05 0-.03 0-.05 0-.04 0-.02-.01-.03-.01-.04-.01-.04-.01-.04 0-.03-.03-.04-.03-.04-.02-.01-.03-.01-.03-.01-.04.01-.03.01-.03.01-.01.01-.01.03 0 .03 0 .02-.03.06-.02.04-.02.04-.02.02-.04.03-.06.01-.14-.02-.56-.35-.4-.23-.04-.05-.13-.3-.02-.21.08-.19.02-.06.05-.08.11-.12.02-.04 0-.05 0-.11-.01-.1-.02-.17-.01-.03-.08-.05-.07-.09-.04-.04-.1-.04-.18.03-.14.05-.05 0-.04-.03-.08-.07-.01-.08.01-.05.07-.04.03-.07-.03-.06-.08-.05-.1 0-.09 0-.07-.05-.09-.1-.04-.08-.02-.09-.02-.09-.26-.28.03-.12.19-.1.06-.04.04-.03.05-.03.09-.07.03-.02.03-.02.02-.02 0-.03.01-.03.02-.05.02-.04.01-.07-.02-.03-.03 0-.09.04-.04.03-.04.05-.02.03-.02.01-.03 0-.02-.01-.02-.02-.01 0-.01.01-.01.04-.01.01-.01 0-.02-.01-.01-.02 0-.01-.02 0-.01.01-.01.03-.03 0-.19-.04-.14-.04-.29 0-.1-.01-.13-.02-.06-.03-.09-.09-.01-.03 0-.05 0-.03-.01 0-.02 0-.06.02-.08 0-.11-.01-.03-.02.01-.02.06-.03.05-.04.01-.03.02-.03.01-.04.02-.01.01-.02 0-.02-.02-.02-.05 0-.06.03-.07.05-.04.02-.06-.01-.06-.06-.02-.06.01-.06.05-.08.07-.04.23-.11.01-.02 0-.02-.04-.02-.08-.01-.05-.03-.03-.04-.01-.08-.01-.09.02-.12.07 0 .13-.01.2-.02.18-.08.07-.04.02-.05-.01-.06-.02 0-.02.01-.16.03-.17.02-.15-.02-.07-.04-.07-.08-.03-.09-.01-.02-.02 0-.1.01 0-.01-.02-.06-.01-.04 0-.02.03-.06.14-.19.05-.02.2-.01.04-.01.05-.17.13-.06.15-.05.23-.04.22-.12.15-.12.03-.03 0-.03-.01-.02-.04-.02-.02-.03 0-.02.01-.1-.03-.05-.04-.03-.06-.03-.05-.06-.05-.08-.05-.06-.11-.06-.17-.05-.1 0-.03 0-.08 0-.18-.01-.16 0-.21.02-.11.01-.07 0-.15 0-.13-.06-.05-.03-.03-.04-.04-.02-.04-.03-.03-.03-.03-.03 0-.02.01-.04 0-.01-.01 0-.07 0-.08.02-.09-.03-.05-.04-.03-.08-.01-.1 0-.11.01-.13.03-.1.07-.16.09-.17.02 0 .05-.01.4.05.59.01.79-.37.03-.02-.01-.03-.02-.02-.03-.01-.04 0-.02.03-.01.02-.21.11-.03-.05-.01 0-.15.07-.33.15-.06-.07-.06.02-.06.01-.05-.01-.06-.02-.04-.04-.01-.05 0-.05.06-.03-.03-.04-.01-.03.49-.23-.03-.05.07-.03.03-.01.03-.02.01-.01.03-.01.04-.03.03-.03.04-.01.03-.04-.02-.05-.01-.02-.05-.05-.05-.04-.06-.01-.08.03-.04.03-.03.06-.04.05-.03.01-.01.01-.05.03-.43.22-.02-.03-.02-.04-.03-.04-.02-.03.39-.18-.17-.27-.25.1-.06-.11-.08.03-.01-.01-.01-.01.09-.04-.03-.05.53-.25.04-.02.21-.1.07.02.01.01.1.03 0 .01.12.03.01.01.08.03.01 0 .06.02.01 0-.03.05.05.02.03-.05.02.01.01 0 .05.03.01 0 .21.17.02.02.05.06.01.02.07.1.01.01.03.05.04.1-.03.03 0 .02.01.03.04.02.03.02.16.26-.02.03 0 .03.03.03.03.03.05 0 .05 0 .03-.03.02-.03 0-.02-.01-.04-.04-.04-.05-.07-.13-.24-.03-.05-.03-.06-.13-.22-.11-.12-.07-.08-.05-.03-.05-.06-.1-.1-.06-.06 0-.05.05-.06.1-.13.07-.07.04-.03.06-.03.06-.02.07-.02.22-.09.09-.02.05 0 .04-.02.04-.03.04-.02.05-.02.05-.02.03-.01.03-.02.17-.1.12-.07.04-.03.05-.12.08-.1.1-.04.06 0 .06 0 .09-.03.05-.05.01-.04-.01-.03-.07-.07-.04-.07-.06-.15-.07-.07-.12-.07-.15-.03-.14-.09-.17-.07-.11-.06-.08-.05-.04-.03-.12-.17-.02-.04-.06-.1-.12-.16-.04-.04-.03-.04-.05-.03-.1-.07-.13-.1-.09-.04-.12-.04-.1-.03-.15-.03-.16-.03-.11-.04-.24-.04-.2-.05-.47-.1-.42-.18-.41-.28-.66-.12-.36.03-.42.14-.3.17-.29.15-.18.02-.26-.04-.31-.07-.14 0-.11.01-.07.02-.09.03-.03.03-.07.09-.06.1-.01.12-.04.1-.07.05-.09.03-.26.05-.29.01-.2.01-.28.08-.16.08-.07.05-.02.1.01.06-.01.08.02.08-.06.05-.12.05-.17.06-.19.09-.25.1-.17.06-.06.03-.08.06-.17.15-.14.18-.17.18-.11.05-.19.09-.09.07-.06.07-.1.18-.12.17-.17.11-.31.15-.14.1-.71.41-.5.21-.18.08-.2.05-.19-.01-.07 0-.06.02-.08.08-.09.04-.05.01-.02-.02-.04-.04-.02-.01-.08.05-.02.03 0 .02.08.04 0 .04-.05.05-.12.1-.24.1-.74.24-.25.16-.5.22-.09.02-.08 0-.13-.03-.3.17-.1.1-.03.04 0 .02.02.01.05.01.05 0-.03.1-.05.07-.07.03-.18-.03-.25.12-.5.18-.83.28-.04.08.08.23.02.1-1.11.65-.67.31-.7.31-.6.15-.11 0-.1-.03-.04-.06 0-.05-.04-.03-.06 0-.07.02-.06.03-.08.05-.11.02-.04-.01-.04-.02-.04 0-.02.02 0 .05-.03.02-.03.01-.03-.01-.01-.03-.03-.02-.02-.03-.04-.03-.06-.03-.07-.03-.05-.01-.26.01-.14.02-.06.03-.02.04.02.05.03.02.06 0 .04-.02.02-.04.27-.03.1.02.07.05.07.06.02.09-.03.02-.09.04-.11.03-.05-.01-.04-.01-.09-.01-.05-.01-.06 0-.11.01-.1.02-.16.05-.26.08-.18.05-.15.02-.18.03-.16.03-.19.04-.28.02-.31-.01-.23-.05-.14-.08-.07-.06 0-.15-.01-.17-.02-.03-.04 0-.08.03-.04-.01-.01-.03.01-.09-.01-.1-.04-.04-.04.01-.15.04-.31.14-.55.19-1.12.24-.18.06-.06.04-.03.07-.04.12-.16.11-.17.09-.6.27-.33.11-.28.03-.29 0-.32-.04-.39-.05-.39-.1-.4-.11-.43-.11-.12-.06-.1-.09-.24-.2-.14-.1-.18-.14-.22-.06-.17-.07-.16-.13-.05-.11-.08-.13 0-.17.06-.2.22-.23.23-.21.11-.15-.01-.09-.06-.07-.1 0-.46.01-.37.04-.34.08-.16.08-.19.14-.13.04-.2.04-.22.07-.33.1-.04.04-.02.18-.05.08-.09.05-.43.09-.25.04-.42.15-.26.03-.12.01-.08 0-.1-.02-.05-.02-.02-.04 0-.04 0-.08-.01-.02-.04-.01-.04.01-.01.01-.02.03-.02.04-.03.06-.05.08-.03.06 0 .03 0 .06-.01.03 0 .08-.03.02-.03.01-.03.02-.06.02-.07.02-.05.01-.08.03-.05.01-.06-.03-.05.02-.02.04.04.04-.01.03-.05.04-.08.07-.08.05-.03-.01-.02-.03-.03-.01-.04.02-.01.04-.02.11-.3.1-.31.05-.01-.04-.04-.02-.03-.01-.03 0-.05.02-.04.02-.04 0-.2.04-.18 0-.06-.05-.03-.02-.04 0-.08.02-.12.01-.14-.01-.13-.04-.09-.05-.11-.06-.08-.08-.02-.12-.02-.1.05-.07.04-.04.03-.05-.08-.12-.12-.02-.12.02-.02.03.03.06-.07.1-.11.07-.1-.02-.09-.02-.09-.03-.05-.05.01-.06-.01-.03-.03-.1-.04-.06-.1-.01-.08.03-.02.11-.14.07-.03-.06 0-.14-.07-.09-.08-.06-.04-.03-.03.02-.01.07-.02.02-.03.01-.05-.05-.08-.04-.08-.02-.12-.01-.03.04-.01.05.03.05.12.07.12.05.09.03.07.02.06.07.07.2.01.19-.05.14-.05.21-.15.1-.24.09-1.36.49-.25.15-.2.21-.05.05-.04.09-.04.08-.09.09-.15.06-.78.23-.3.06-.2.02-.18-.07-.24-.03-.14-.03-.21-.08-.11-.03-.06.01-.15-.01-.33-.14-.32-.1-.09.01-.11.04-.21.16-.29.1-.18.07-.12.09-.02.08-.05.14-.07.11-.11.23-.18.2-.96.46-.31.11-.26.02-.36.11-.17.06-.18.02-.18.06-.26.02-.21 0-.14.02-.13.03-.13-.02-.1.01-.08.02-.18.05-.49-.02-.08-.02-.12-.02-.07-.01-.04.03-.02.08-.05.06-.15.04-.24.13-.08.12-.01.13-.11.13-.42.21-.47.09-.19-.03-.06-.01-.07.01-.08.05-.08.02-.07.01-.16.01-.1-.03-.06-.1-.07-.07-.13-.04-.28-.02-.37-.04-.15.05-.11.07-.02.04-.01.07.02.12 0 .07-.03.05-.12.09-.37.18-.29.08-.16.06-.07.04-.06.03-.13.09-.22-.02-.22-.04-.07.02-.05.05-.02.09 0 .14-.06.14-.16.11-.1.05-.42.14-.18.07-.12.13-.07.13-.03.13-.04.19-.13.15-.14.06-.15.02-.15-.01-.21.02-.14.1-.07.11-.11.05-.52.2-.33.08-.32.1-.22.15-.18.12-.17.15-.23.16-.2.14-.21.18-.13.21-.26.21-.33.17-.46.25-.31.14-.35.12-.22.01-.35-.13-.28-.07-.6-.19-.34-.04-.24.02-.17.06-.17.12-.16.13-.31.12-.21.08-.17.1-.15.13-.13.14-.2.18-.16.07-.17.02-.17-.01-1.12-.27-.06 0-.03.02-.32.34-.13.06-.23.01-.19.04-.12.11-.03.09.06.16-.02.12-.11.06-.16.02-.16.01-.26.01-.22 0-.06 0-.04-.01-.03-.04-.03-.01-.04.02-.03.04-.08.05-.16.07-.14.08-.06-.01-.1-.04-.5-.05-.55.01-.3.1-.17.01-.68-.17-.3-.07-.12-.01-.12.03-.07.1-.03.12-.06.1-.12.14-.05.06-.12.07-.25.1-.07 0-.09-.04-.09-.07-.06 0-.03.01-.09.09-.07.07-.11.06-.13-.03-.1-.08-.16-.13-.14-.07-.15-.02-.09.01-.09-.04-.27-.21-.56-.3-.09-.07-.05-.09-.02-.11-.08-.14-.08-.08-.11-.03-.36-.02-.53-.02-.51-.04-.16-.01-.21.03-.33.13-.42.12-.39.1-.41.14-.23.02-.15-.01-.09.03-.08.06-.2.05-.15 0-.08-.02-.09 0-.13.05-.65.49-.15.08-.11.04-.11.01-.06-.04-.04-.1-.05-.04-.09-.01-.58.08-.76-.04-.15.03-.1.09-.13.17-.17.07-.17 0-.05-.05-.06-.13-.09-.13-.06-.04-.08-.03-.04.01-.04.04-.04.07-.07.02-.05-.02-.05-.07-.05-.1-.06-.02-.28-.03-.08.02-.08.05-.09.14-.06.12-.11.09-.15.1-.16.06-.04-.05.01-.09.06-.19.01-.06-.02-.04-.05-.01-.04.02-.1.07-.12.07-.35.12-.21.12-.08.11-.07.17-.14.12-.27.05-.14-.03-.16-.04-.13 0-.29.07-.23.14-.11.18-.1.18-.17.17-.26.14-.22.12-.58.29-.59.25-.22.12-.22.1-.19.03-.28-.09-.2.03-.1.13.01.27-.17.24-.26.13-.42.01-.22-.04-.11-.09-.02-.21-.07-.07-.11-.01-.08 0-.03.01-.01.03.07.04.02.05-.13.13-.08.11-.16.12-.17-.01-.08-.04-.12.02-.08.07-.05.15-.02.25-.05.17-.14.14-.36.16-.48.19-.5.14-.39-.01-.38-.13-.35-.04-.35-.04-.2-.02-.13-.06-.13-.1-.23-.09-.3-.08-.23.02-.23.05-.39.1-.46.03-.3-.04-.33.05-.33.04-.21.04-.12 0-.1-.03-.12-.09-.12-.03-.19.01-.78.11-.12.05-.18.04-.21-.04-.28-.16-.21-.02-.22-.1-.11-.16-.3-.26-.08-.03-.11 0-.12.05-.08.06-.05.04-.07.01-.04-.06 0-.07-.02-.1-.19-.08-.15-.04-.12-.12-.26-.08-.06-.01-.08.04-.1.01-.05-.05-.03-.07-.05-.09-.03-.01-.03.01-.06.04-.29.03-.07.06-.09.1-.1.06-.37.01-.12-.04-.1.01-.08.03-.09.07-.12.08-.18.06-.18.04-.11-.01-.2-.03-.52.26-.31.38-.4.2-.42.1-.41.02-.45.02-.08.02-.07-.02-.04-.04-.03-.05-.03-.03-.03-.03-.03-.01-.03.02-.02.04-.14.08-.11.07-.04.05-.06.07-.06.06-.17.01-.13-.01-.07.01-.08.13-.11.05-.22.05-.09-.01-.05-.04-.07-.11-.1-.01-.37.07-.07.05-.2.29-.07.09-.08.03-.11-.01-.09-.01-.07.02-.15.1-.12.06-.17.05-.24.04-.42.08-.04.01-.05.03-.13.15-.07.06-.1.04-.03-.02-.04-.06-.08-.04-.08.01-.13.04-.05-.01-.08-.04-.12-.02-.13.02-.14.05-.03.08-.05.11-.12.06-.12.01-.65.35-.26.02-.25-.08-.17-.17-.09-.28.06-.23-.05-.1-.09-.14-.2-.1-.19-.04-.29-.03-.03.01-.01.01 0 .01.18.14.02.09-.02.06-.05.04-.07.05-.22.12-.12.11-.08.13-.09.41.08.18.21.15-.02.07-.1.04-.15-.02-.08.04-.01.08-.01.05-.03.06-.04.01-.09-.02-.1 0-.06.01-.01.05.05.15.14.08.04.05-.03.08-.09.11-.03.05 0 .08.05.05 0 .03-.02.01-.1 0-.02.01-.01.04.02.15-.02.12-.1.07-.08.06-.07.05-.04.01-.05.01-.13.02-.11.01-.35.16-.04.02-.11.06-.17.06-.1.03-.04.02-.01 0-.09.02-.04.01-.09.01-.09 0-.07 0-.06-.01-.07-.01-.08-.02-.07-.03-.08-.04-.05-.04-.03-.04-.27.04.03.07 0 .08-.03.11-.04.05-.08.09-.09.04-.06.02-.04.02-.04.02-.04.02-.17.15-.07.08-.02.03-.03.03.01.07.04.03 0 .03-.01.01-.06.04-.01.04.01.03 0 .05.01.03-.01.04-.05.05-.07.03-.05-.01-.15-.04-.05-.01-.04.03 0 .02-.01.01-.03 0-.03-.01-.03.01-.02.04-.01.04.03.01 0 .03-.04.03-.04.04 0 .03-.02.03-.03.02-.07.01-.11-.04-.1 0-.16-.06-.11-.08-.13-.08-.08-.15-.11-.12-.18-.15-.19-.11-.16-.06-.2-.03-.2.02-.66.08-.15.17-.21.22-.07.13.01.19-.07.07-.16.04-.26-.04-.32-.12-.13-.08-.17-.01-.15-.05-.03.01 0 .02.05.04.06.04.02.04.05.06.06.08.02.09-.06.11-.12.14-.06.07-.15.08-.19.02-.36-.06-.44.07-.34.11-.25.15-.05.2.03.19 0 .12-.07.12-.1.1-.34.28-.22.2-.12.1-.27.28-.23.19-.08.01-2.28.46-.32.05-.33.02-.3-.03-.18-.08-.09-.13-.09-.12-.17-.16-.07 0-.08.06-.09.08-.16.25-.13.11-.15.04-.3.02-.32 0-.18 0-.07.04-.31.31-.28.29-.44.48-.2.24-.2.18-.44.2-.2.06-.38.03-.18-.02-.09-.03-.1-.02-.11.05-.22.17-.18.1-.12.04-.17.01-.12.02-.14.1-.33.4-.05.09-.12.13-.1.03-.2.03-.39-.03-.31-.03-.42-.09-.11-.03-.09-.05-.09-.07-.11-.04-.15.02-.15.05-.19.04-.23.02-.34.03-.72-.17-.22-.15-.05-.05-.1-.07-.03-.03-.04-.05-.02-.08-.02-.07 0-.03-.03-.03-.02-.02-.03-.01-.06-.04-.04-.03-.02-.02-.01-.01-.02-.01-.03-.03-.03-.01-.02 0-.06 0-.08.02.01.04 0 .02.01.01 0 .16-.08.01-.01.16-.03 0-.29 0-.06.03.05.07.01.07-.03.05-.05.06-.05.02-.4.08-.22.01-.2.02-.26-.02-.31-.09-.21-.08-.25-.14-.13-.17 0-.33.01-.14-.03-.09-.04-.07.15-.52-.07-.11-.2-.09-.29-.07-.27-.07-.14.01-.24.09-.82.36-.33.12-.17-.01-.29 0-.38-.02-.25-.09-.15-.05-.18-.02-.25 0-.16-.04-.11-.04-.46-.1-.15-.06-.5-.25-.94-.41-.77-.17-.27-.11-.18-.01-.17-.04-.16-.04-.26-.11-.23-.06-.52-.15-.38-.09-.31-.01-.31.01-.29-.02-.2-.04-.26.01-.42.05-.46.12-.61.21-.37.15-.36.21-.34.15-.21.04-.24.01-.37.07-.33.06-.21-.01-.31.06-.35.09-.23.07-.21.02-.27.01-.36-.01-.42-.05-.28-.09-.19-.08-.61-.23-.24-.09-.13-.05-.13-.02-.14 0-.35-.04-.36-.01-.31-.04-.77-.15-.76-.11-.47-.07-.97-.29-.15-.06-.52-.16-.3-.16-.28-.16-.24-.07-.3-.06-.35-.16-.33-.09-.29.01-.56-.06-.34-.1-.75-.25-.32-.05-.33-.09-.29-.11-.24-.06-.42-.14-.28-.12-.3-.1-.3-.05-.32-.11-.19-.11-.16-.12-.38-.21-.32-.19-.13-.09-.14-.06-.34-.23-.41-.31-.21-.15-.16-.07-.49-.11-.24-.07-.44-.17-.32-.14-.52-.21-.48-.2-.6-.18-.54-.15-.42-.12-.66-.37-.33-.15-.37-.15-.45-.05-.43-.03-.64 0-.69-.13-.26-.06-.59-.07-.52-.02-.35.03-.33 0-.2-.01-.23.02-.47.06-.42-.02-.39.05-.4.05-.48.06-.35.09-.37.15-.23.04-.17.03-.53.08-.55.01-.34-.04-.18-.05-.13-.05-.17-.08-.15-.08-.13-.03-.5-.08-.57-.08-.41-.05-.6-.08-1.03-.25-.41-.05-.42-.14-.35-.19-.17-.11-.28-.12-.31-.05-.39-.03-.34-.01-.26-.03-.31-.12-.28-.08-.55-.23-.52-.15-.56-.19-.64-.16-.36-.08-.35-.03-.41.03-.16.01-.15-.02-.48-.1-.34-.06-.28-.06-.26-.07-.16-.04-.12-.05-.19-.08-.17-.06-.23-.15-.2-.12-.25-.14-.91-.32-.3-.03-.33.08-.37.04-.28 0-.17-.01-.27-.05-.34-.09-.52-.11-.18-.1-.16-.12-.11-.11-.07-.04-.09-.02-.17 0-.23 0-.1-.04-.3-.06-.26-.08-.57-.16-.48-.05-.54-.09-.94-.2-.42-.07-.68-.18-.22-.03-.39.07-.52.18-.39.12-.25.12-.49.24-.3.17-.11.06-.14.1-.13.1-.13.05-.43.11-.21.03-.24.02-.47-.05-.52-.11-.46-.12-.18-.04-.2-.02-.34-.07-.15-.04-.13-.01-.53-.02-.39-.07-.47-.14-.25-.09-.25-.1-.88-.35-.24-.14-.15-.11-.1-.06-.15-.07-.22-.02-.14-.03-.15-.04-.16-.02-.3-.04-.79-.14-.31-.09-.24-.08-.25-.11-.17-.08-.25-.09-.31-.13-.44-.3-.39-.36-1.3-1.17-.86-.75-.56-.49-.35-.29-.62-.56-.63-.57-.6-.61-.07-.1-.05-.14 0-.03.08-.06.07-.03.15-.03.1-.05.04-.04-.01-.05-.03-.08 0-.06-.02-.05-.08-.14-.06-.07-.1-.03-.04.01-.05.03-.09-.02-.08-.05-.1 0-.05.05-.15.18-.04.06-.09.03-.13-.03-.08.02-.01.11-.03.08-.03.05-.07.05-.01.05-.01.01-.03-.01-.01-.03.06-.09-.01-.13-.03-.07-.08-.04-.1 0-.16.04-.01.06.04.13.07.14 0 .03-.03.02-.09.01-.05-.01-.03-.03.02-.05-.02-.22-.05-.04-.08-.02-.19-.05-.13-.06-.19-.06-.06 0-.05.06 0 .06.05.04.03.03-.02.04-.06.02-.08.04-.01.04.01.05.03.02.19.04.07.05.04.05.02.05.01.12-.09.19-.22.14-.28.1-.27.05-.28-.01-.17-.03-.16-.06-.13-.1-.14-.11 0-.02.17-.16 0-.02-.05-.07 0-.03.01-.02.05-.03.05-.01.02.01.02.02.01.01.02 0 .02-.02.07-.11.01-.07 0-.02-.01-.02-.25-.06-.19-.01-.17 0-.15.01-.08.04-.04.02-.05-.01-.1-.04-.08.01-.52.32-.16.17-.18.33-.02.12-.01.05-.02.01-.05.05-.09.08-.08.02-.19.05-.24.07-.04.02-.03.02-.02.03.02.01.01 0 .02-.01.03-.03.02 0 .05-.01.29-.08.25-.08.01.01.01.01.01.04.01.04.01.01-.01.01-.01.01.01.04.02.01.02 0 .02.01 0 .01.04.08 0 .01.01.01-.01.01-.13.04-.01 0-.01-.02 0 0-.08.02-.11.03-.3.08-.1.04-.16.08-.11.07-.08.07-.13.06-.81.2-.18.08-.29.1-.25.06-.23.05-.55.2-.19.05-.19.02-.2.01-.25-.03-.38-.09-.63-.17-.19-.06-.31-.1-.1-.05-.19-.07-.24-.1-.37-.19-.41-.2-.43-.13-.34-.06-1-.2-.7-.05-.6-.11-.59-.13-.35-.11-.79-.29-2.05-.87-.27-.07-.12-.07-.05-.04-.04 0-.53.11-.3-.03-.38-.14-.67-.21-.72-.31-1.06-.27-.28-.06-.08-.04-.19-.09-.29-.05-.2-.04-.19-.09-.37-.17-.25-.12-.08-.06-.35-.19-.48-.3-.45-.25-.48-.35-.41-.25-.54-.32-.47-.16-.05-.02-.07-.01-.43.03-.4.06-.58.09-.35.07-.55.12-.31.03-.42-.01-.39-.06-.29-.07-.29-.09-.36-.17-.35-.18-.53-.3-.59-.31-.19-.09-.21-.13-.19-.11-.33-.19-.38-.24-.81-.53-.47-.31-.2-.13-.32-.23-.05-.07-.18-.1-.26-.15-.07-.02-.18-.05-.55-.03-.22-.05-.11-.07-.19-.08-.24-.04-.29.01-.14-.04-.17-.05-.18-.12-.31-.17-.21-.08-.12-.02-.32.03-.32.1-.28-.03-.3-.07-.23-.07-.16-.08-.13-.04-.19-.06-.12-.08-.19-.14-.25-.21-.16-.13-.16-.14-.28-.26-.23-.26-.23-.26-.25-.26-.22-.21-.26-.3-.25-.22-.21-.24-.22-.2-.24-.25-.18-.19-.16-.2-.08-.06-.14-.13-.08-.1-.09-.08-.04-.03-.03-.01-.19-.15-.22-.12-.28-.15-.27-.14-.24-.13-.13-.09-.19-.09-.08-.05-.01-.02.01-.02 0-.01-.02-.02-.05-.01-.21-.01-.18-.01-.33-.07-.34-.06-.21-.05-.31-.12-.76-.36-.08-.09-.04-.02-.04-.01-.59-.06-.42-.08-.14-.03-.21-.01-.11 0-.11-.03-.34-.13-.15-.07-.19-.08-.24-.06-.59-.24-.14-.08-.36-.22-.27-.17-.15-.11-.28-.24-.24-.16-.2-.22-.11-.06-.23-.06-.14-.08-.32-.09-.48-.35-.63-.51-.59-.42-.11-.06-.1-.05-.2-.09-.17-.14-.52-.53-.38-.39-.28-.29-.22-.22-.76-.78-.44-.46-.12-.09-.21-.15-.45-.2-.19-.03-.21-.03-.23-.08-.22-.16-.16-.16-.19-.19-.14-.15-.16-.21-.24-.29-.4-.46-.27-.31-.34-.4-.34-.4-.37-.46-.35-.42-.26-.28-.08-.09-.14-.13-.09-.1-.07-.12-.18-.08-.22-.1-.23-.12-.17-.16-.14-.17-.15-.15-.28-.3-.4-.37-.18-.23-.29-.33-.13-.09-.39-.22-.13-.13-.12-.11-.1-.1-.26-.23-.34-.38-.12-.09-.19-.17-.2-.12-.17-.01-.23.06-.65.29-.33.07-.22.06-.07.01-.05-.01-.04.01-.01.01-.02.04-.11.05-.12.02-.18.01-.12-.01-.14 0-.2.03-.16.04-.09.04-.13.02-.21-.05-.13-.04-.15-.05-.24-.06-.21-.1-.17-.11-.15-.06-.21-.11-.26-.02-.21.02-.11.01-.15-.01-.19-.05-.14-.07-.4-.22-.84-.35-.43-.08-.4-.02-.83-.04-.39-.07-.41-.13-.51-.25-.42-.17-.26-.1-.15-.05-.18-.07-.22-.05-.61-.26-.3-.08-.59-.36-.18-.17-.29-.1-.2-.13-.54-.29-.28-.21-.26-.06-.36 0-.23-.07-.46-.18-.4-.19-.21-.03-.1-.05-.33-.2-.26-.17-.16-.04-.2-.03-.09-.03-.11-.03-.18-.1-.44-.19-.95-.55-.14-.08-.23-.24-.3-.33-.08-.11-.06-.1-.19-.2-.11-.07-.16-.13-.38-.41-.34-.39-.35-.25-.35-.21-.08-.07-.04-.04-.06-.08-.03-.08-.01-.03 0-.05.02-.06 0-.01-.03-.01-.02 0-.01.01.01.02-.01.02-.01.01-.04.02-.09.03-.01-.01-.03-.04-.02-.01-.01-.01-.02-.02-.01-.02.01-.01 0-.01-.01-.02-.01-.02-.01-.01-.01-.01-.02-.04-.01-.02 0 0-.01-.01-.03-.06 0-.01-.01 0-.01-.02 0-.01-.05-.07 0-.01.15-.06.01-.01-.01-.03.01-.01.13-.01.05 0 .35.35.01.01 0 .01 0 .01-.01.01-.01.02.01.03.02.03.04 0 .05-.01.03-.03 0-.03-.01-.04-.05-.06-.36-.33-.06-.05-.06 0-.04.01-.03-.01-.04-.03-.19-.24-.21-.42-.27-.39-.03-.03-.41-.6-.18-.19-.32-.39-.26-.3-.07-.07-.24-.22-.26-.24-.24-.26-.3-.28-.11-.1-.04-.04-.13-.11-.39-.3-.09-.07-.12-.08-.16-.16-.27-.16-.17-.15-.18-.17-.17-.12-.11-.09-.23-.18-.28-.27-.18-.17-.21-.19-.28-.25-.35-.33-.24-.22-.38-.28-.28-.29-.63-.6-.56-.6-.41-.44-.27-.27-.16-.19-.12-.16-.3-.32-.42-.38-.16-.2-.13-.17-.1-.09-.22-.19-.23-.23-.4-.41-.11-.12-.13-.14-.2-.14-.13-.11-.21-.12-.1-.06-.14-.05-.13-.04-.27-.05-.15-.07-.11-.07-.08-.07-.11-.05-.04 0-.06 0-.04.01-.09-.01-.06-.02-.1-.07-.09-.08-.12-.12-.23-.19-.25-.19-.19-.1-.27-.15-.3-.17-.17-.1-.24-.08-.26-.15-.18-.1-.29-.24-.14-.09-.13-.1-.21-.21-.1-.1-.12-.13-.19-.18-.12-.11-.1-.12-.04-.05-.02 0-.05.02-.03-.01-.01-.01.01-.03.01-.03 0-.04-.02-.01-.05-.03-.14-.02-.04-.02-.02-.05-.03-.01-.03-.01-.02.01-.05.03-.09 0-.06-.02-.04-.03-.03-.04-.23-.26-.17-.21-.12-.12-.19-.24-.13-.11-.11-.1-.16-.2-.06-.07-.06-.09-.07-.1-.11-.09-.16-.21-.13-.15-.3-.3-.23-.26-.19-.21-.04-.12-.03-.04-.08-.02-.06-.03-.04-.08-.02-.08-.04-.06-.1-.07-.13-.09-.16-.04-.16-.04-.12-.04-.19-.04-.14-.03-.1-.05-.37-.4-.36-.35-.17-.19-.18-.25-.75-.98-1.07-1.33-.75-.81-.14-.18-.12-.17-.11-.05-.19-.02-.38.06-1.35.31-.68.3-.53.14-.36.18-.19.11-.3.14-.21.03-.26-.04-.42-.16-.29-.06-.1 0-.19-.01-.45-.19-.73-.32-.24-.15-.1-.01-.1.02-.05 0-.5-.11-.44-.19-.05-.02-.1-.03-.05-.01-.1-.01-.35-.01-.28-.03-.37-.01-.47-.02-.46-.01-.2-.05-.45-.09-.17-.02-.14-.04-.19-.07-.22-.06-.37-.1-.15-.03-.2-.01-.02-.01-.01 0-.06 0-.13-.02-.16-.02-.11 0-.13.01-.13.03-.06 0-.08-.01-.08-.02-.25-.09-.17-.11-.4-.26-.38-.3-.25-.23-.2-.2-.29-.25-.18-.25-.61-.72-.26-.35-.24-.37-.1-.17-.19-.31-.11-.15-.19-.21-.04-.1-.05-.09-.11-.14-.25-.37-.2-.34-.21-.3-.2-.39-.16-.26-.16-.26-.09-.11-.06-.12-.07-.16-.26-.41-.16-.31-.21-.26-.29-.52-.18-.36-.02-.05-.02-.04-.16-.16-.18-.28-.21-.31-.2-.41-.09-.19-.1-.15-.07-.1-.05-.06-.25-.27-.18-.28-.15-.22-.32-.45-.33-.5-.61-1.01-.15-.26-.38-.61-.26-.41-.68-1.18-.32-.55-.36-.56-.36-.69-.15-.21-.56-.96-.32-.61-.26-.43-.21-.41-.27-.42-.32-.47-.11-.24-1.36-2.18-.09-.1-.12-.06-.09 0-.25.09-.35.16-.15.02-.1.01-.43-.14-.09-.06-.3-.24-.22-.23-.23-.26-.45-.5-.24-.14-.29-.1-.14-.12-.38-.47-.31-.39-.7-.58-.15-.13-.32-.16-.34-.22-.16-.11-.31-.24-.05-.04-.07-.04-.12-.06-.2-.1-.2-.16-.06-.03-.07-.03-.13-.02-.25-.1-.18-.12-.22-.21-.24-.32-.16-.09-.17-.05-.09-.02-.33-.05-.31-.08-.23-.09-.14-.1-.26-.24-.31-.12-.2-.01-.24-.01-.25-.13-.42-.09-.25-.02-.26-.13-.21-.14-.14-.11-.32-.37-.38-.33-.43-.31-.16-.12-.23-.16-.17-.05-.11-.09-.3-.24-.33-.32-.13-.05-.16-.04-.18-.07-.27-.21-.28-.28-.27-.37-.47-.77-.19-.3-.24-.56-.32-.53-.24-.34-.81-.98-.19-.19-.22-.25-.23-.2-.22-.24-.31-.34-.12-.1-.3-.11-.12-.08-.15-.07-.48-.21-.13-.1-.16-.26-.12-.19-.56-1.08-.45-.71-.1-.21.01-.1.07-.07 0-.03-.15-.07-.28-.15-.29-.13-.09-.01-.06-.01-.05-.02-.05-.07-.03-.03-.07-.03-.42-.15-.43-.12-.28-.07-.22-.06-.27-.14-.32-.13-.2-.09-.34-.23-.36-.13-.37-.03-.22.02-.34.16-.55.21-.33.06-.12 0-.16-.01-.19.02-.11-.01-.17-.06-.29-.2-.43-.37-.79-.87-.1-.11-.22-.08-.22-.15-.17-.17-.17-.04-.2 0-.37.03-.26-.05-.37.07-.13.08-.08.09-.14.18-.17.09-.14.1-.12.06-.11.11-.16.1-.06.08-.07.07-.1.03-.1.04-.11.06-.14.06-.18.04-.52 0-.2-.02-.07-.04-.04-.01-.02 0-.06.01-.09 0-.15-.07-.22-.08-.52-.33-.28-.2-.23-.18-.23-.22-.26-.23-.13-.16-.37-.38-.27-.35-.6-.65-.12-.16-.01-.07.02-.11-.08-.18-.26-.26-.12-.18-.06-.05-.04-.01-.09 0-.05-.02-.07-.09 0-.04-.01-.01-.09-.04-.25-.02-.22.04-.14.09-.03.05-.04.01-.07 0-.11 0-.14.01-.13 0-.13.06-.02.01-.01.02-.04.03-.37.15-.08.06-.12.13-.11.11-.11.12-.03.01-.04.01-.02.01-.01.02 0 .13-.03.02-.03.02-.03 0-.02.01-.01.01-.01.03-.01.01-.22.02-.26-.05-.18-.08-.23-.1-.12-.03-.07 0-.09-.02-.08-.04-.1-.07-.32-.18-.37-.32-.32-.29-.28-.3-.1-.15-.17-.25-.24-.32-.46-.65-.24-.54-.21-.38-.21-.39-.19-.37-.06-.11-.14-.33-.07-.15-.04-.08-.04-.05-.01-.03-.05-.02-.06-.03-.03-.05-.04-.06-.03-.09-.03-.09 0-.07-.01-.04-.05-.06 0-.03-.01-.03-.1-.27-.05-.13-.11-.32-.07-.18-.09-.22-.2-.47-.1-.2-.16-.22-.05-.1-.03-.18-.03-.22-.02-.13-.04-.13-.01-.09-.03-.13-.03-.15-.05-.14-.06-.18-.08-.27 0-.09.03-.04.01-.04-.01-.11-.01-.15.01-.17.02-.04.01-.02.02-.06-.02-.15-.08-.11-.15-.13-.23-.19-.09-.07-.2-.15-.27-.19-.16-.23-.25-.55-.11-.44-.12-.25-.21-.51-.17-.31-.19-.5-.14-.37-.11-.25-.08-.21-.04-.07-.11-.25-.16-.35-.1-.26-.17-.48-.18-.37-.15-.3-.11-.2-.08-.22-.06-.19-.08-.12-.18-.17-.17-.17.06-.23.01-.06-.03-.16.21-.02.01-.01-.01-.02-.01-.01-.01-.02-.04-.03-.11-.16-.26-.41-.13-.26-.12-.29-.1-.42-.11-.36-.04-.16.04-.24.03-.03.05-.02.01-.04-.02-.06-.11-.13-.16-.42-.08-.24-.09-.2-.21-.7-.01-.09.01-.1-.03-.18-.18-.49-.11-.41-.06-.19-.23-.78-.18-.52-.12-.28-.04-.26-.37-1.04-.49-1.41-.02-.16-.04-.12-.09-.17-.13-.45-.08-.31-.05-.16-.06-.16 0-.02-.02-.03-.04-.13-.01-.04-.2-.68-.14-.4-.22-.65-.2-.63-.07-.31-.05-.16-.03-.17-.08-.16-.14-.6-.06-.22-.12-.44-.27-.95-.09-.39-.09-.32-.14-.54-.03-.24-.02-.13-.02-.06-.05-.11-.03-.1-.04-.08-.02-.1-.02-.07-.04-.09-.04-.1-.04-.11-.09-.27-.04-.22.01-.11.03-.08.12-.2.1-.1.06-.04.03-.01.01 0 .03.01.02-.02-.1-.13.01-.05.03-.07.06-.05.14-.08.05-.12.01-.07-.01-.09-.02-.1.02-.1.03-.06.05-.07.04-.06.07-.08.03-.01.07 0 .05-.02.02-.1-.02-.17 0-.08.03-.08.1-.11.08-.16.06-.18.04-.12.02-.11.03-.08.06-.15.08-.2.1-.14.51-.4.47-.46.39-.44.44-.54.13-.12.05-.25-.01-.8-.13-.15-.3-.01-.58.13-.09-.04-.04-.04-.07-.12-.13-.04-.11.05-.09.07-.27.11-.16.02-.37-.1-.09 0-.41.07-.2 0-.13-.07-.21-.1-.2-.05-.3-.04-.24-.03-.3-.06-.33-.17-.18-.03-.31.02-.21.06-.61.2-.05-.02-.12-.13-.07-.04-.05.02-.15.2-.22.16-.19.05-.27.06-.26.07-.25.09-.2.01-.16-.04-.08.02-.08.12-.12.07-.27.08-1.11.2-.28.16-.14.13-.04.04-.1.04-.35.03-.27.06-.21.07-.21.01-.13-.02-.12-.04-.16-.11-.34-.32-.24-.24-.26-.19-.31-.14-.03 0-.07.06-.01.04.06.03.04 0 .05 0 .04.01.06.03.08.05.14.09.02.01.02.02 0 .01 0 .01 0 0 0 0-.01.01 0 0-.06.01 0 .01-.01 0 0 0-.01.01.01 0 0 .01.01 0 0 0 .01 0 .05 0 .03.06.02.07 0 0-.07.04-.03.01 0 .01-.01.01 0 .02.01.01.01.01.01.01.01.01.01-.01.01 0 0-.01 0 0 .02-.01.02.01 0 0 .02 0 0 0 .01.01.01 0 .1-.06.01 0 .4.41 0 .01 0 0-.14.09-.15.11-.03.01-.03-.01-.86-.2-.01-.01.01-.14.02-.01.06-.01.07-.01.09-.01.11-.03.01-.03-.01-.02-.02-.01-.01-.01-.08.04-.09.01-.1 0-.04-.02-.01-.02-.01-.11 0 0 0 0-.05 0-.01 0 0 .01.02.06 0 .01-.01 0-.29.03-.27.02 0 0 0 0-.01-.02 0-.02 0-.01 0 0-.03.01 0 0 0-.01 0-.01-.01-.04-.02-.12 0-.01 0-.01 0 0 .01-.01 0 0 .01 0 .01-.01.01 0 .19-.02.01 0 .01.01 0 .01.01.01.27-.03.01 0 0 0 0-.01-.01-.01 0-.01.01 0 .02 0 .01 0 0-.01 0-.01 0-.01-.01-.01 0-.01.01-.01 0 0 0-.01.03 0 .01 0 0 .01 0 0 0 .01-.01 0 .01 0 0 .01.01 0 .01.01 0 .01.02 0 .01 0 .01 0 .03 0 .02-.01.02-.01 0 0 0-.01 0-.01.01-.01 0-.01-.01-.02 0-.01-.02-.01-.01-.01 0-.01-.01 0-.02 0-.03 0-.16.02-.25.02-.22.03-.03 0-.02.01-.03.01-.02.02-.03.02-.02.04-.02.03-.01.11 0 .01 0 .01 0 .09-.01.01-.01.01-.23.04-.06 0-.02 0-.22.01-.22-.01-.07-.03-.08-.04-.06-.04-.05-.06-.36-.4-.33-.44-.3-.38-.35-.53-.41-.66-.36-.67-.13-.25-.25-.48-.27-.53-.21-.52-.24-.62-.18-.38-.48-1.3-.18-.54-.14-.42-.1-.32-.26-.73-.17-.58-.07-.25-.1-.31-.05-.15 0-.04-.1-.32-.05-.2-.03-.17.01-.05.01-.04.02-.02.02-.01.06-.01.11-.03.14-.06.15-.12.06-.05.06-.08.01-.09-.09-.43-.02-.04-.02-.02-.03-.01-.06.02-.02.01 0 .02.02.06.03.02.04.17.01.02 0 .01-.01 0-.1.01 0 0-.01 0 0 .01-.02.04.01.01.02.01.04.01.05.01.01 0 .01.02.01.08 0 .06-.01.01-.04.04-.1.02-.02 0-.01.02.01.04 0 .01 0 .01-.06.04-.06.03-.02 0-.13.03-.13.01-.13.02-.1.02-.02 0-.01-.01-.01-.04 0-.01-.01 0-.02 0-.08.01-.01 0 0-.01-.02-.07 0-.01-.02 0-.02 0-.01.01-.01 0-.02 0-.01 0-.13-.17 0-.01.01-.01.01 0 .1-.02.14-.01.02-.01.01-.01 0-.01-.03-.07.01-.01.01 0 .1-.02.12-.01.13-.02.02-.01.02-.01.02-.05.02-.03.02-.02.02-.01.02 0 .02.01.01.03.04.01.04 0 .01-.03 0-.03-.01-.01-.01-.01-.1-.04-.01 0-.02-.01-.05 0-.07-.03-.05-.05-.09-.13-.05-.08-.09-.31-.18-.72-.13-.52-.1-.49-.14-.48-.09-.3-.06-.31-.06-.14-.07-.39-.09-.5-.14-.71-.11-.49-.06-.19-.03-.18-.08-.38-.02-.15-.05-.19-.04-.18-.03-.13-.05-.12-.02-.11-.03-.21 0-.15-.01-.19-.08-.4-.06-.33-.06-.22-.02-.2 0-.16.01-.12.02-.07.03-.07.05-.13.05-.1.03-.06.02-.04.07-.08.05-.03.07-.03.12 0 .03 0 .04-.01-.01-.2.01-.03.03-.01.11-.03.03-.03.01-.01-.02-.02-.05 0 0 0-.01-.01-.01-.17 0 0-.01-.01-.2.01-.01 0 0 .01.01.11 0 0-.01 0-.16.01-.01 0 0 .04 0 .01 0 0-.05 0-.12 0 0 0 0 0-.01-.13 0 0-.17.01-.01-.01-.03-.36.01-.01.11 0 .01 0-.01-.11 0-.01 0-.01 0-.01 0-.01 0-.01 0-.01 0-.05-.01-.01 0 0-.11 0-.01-.01-.15-.28 0 0 .06-.02 0 0-.05-.1 0-.01.1-.03.07-.03.01 0 0 .01.02.04.01.01 0 0 .02 0 .01-.01.12-.04.01 0 .01 0 .15.29.08 0 0 0 0 0 .01-.21 0 0 0 0 .1 0 0 0 0 .03 0 0 .01 0 .01 0 .12 0 0 .06 0 .01.01.01.01 0 .02 0 .1 0 0 0 0 .01-.02.31 0 .01.01.01.02.01 0 0 0 .01.01.05.01.02.02 0 .02 0 .01-.03 0-.15.01-.01 0 0 .06 0 .03.01.03.01 0 .01.01.13.03.17.02.17.01 0 .01 0 .09-.01.01.01 0 0 .02.17.05.28.02.1.01.1 0 .07 0 .03 0 .01-.02 0-.01.01 0 .01 0 .02 0 .03.03.01.03.01.04-.03.02-.07-.14-.97-.07-.3-.12-.24-.15-.19-.18-.14-.27-.15-.34-.1-.2-.02-.03.01-.05.01-.24 0-.05-.01-.01 0-.01-.01-.06-.1-.05-.22-.03-.13-.02-.16-.05-.32-.05-.21-.04-.28-.01-.09-.02-.16-.05-.14-.03-.13-.01-.24-.03-.11-.04-.15-.03-.15-.07-.45-.04-.21-.05-.18-.02-.12-.03-.15-.02-.15-.05-.26-.05-.52-.01-.17.01-.17.06-.18.08-.11.09-.05.08-.04.07-.01.08.03.01.01 0 .01 0 .09.02 0 .02.01.02-.01.01-.02-.01-.1-.01-.1-.02-.04-.05-.06-.07-.08-.05-.04-.09-.05-.09-.07-.08-.03-.21-.14-.09-.11-.05-.12-.16-.35-.02-.04.01-.03.02-.03.04-.01.05-.01.02-.03-.03-.05-.08-.17-.01-.07-.04-.17-.02-.12-.05-.34-.04-.29-.04-.25-.02-.25 0-.17 0-.14-.08-.48-.06-.47-.05-.27-.01-.39-.03-.31-.1-1.01-.04-.39-.05-.48-.03-.24-.02-.2 0-.04-.01-.06-.01-.06 0-.07-.01-.09-.04-.48-.04-.26-.04-.42-.04-.57-.05-.41-.02-.24 0-.09-.02-.12-.03-.26 0-.31-.03-.24.02-.38-.04-.36-.05-.31-.04-.38-.02-.29-.06-.61-.04-.4-.05-.51-.03-.68-.01-.18-.03-.56 0-.28-.03-.31-.05-.29-.04-.29-.02-.26.01-.32-.01-.18-.03-.25-.02-.25.01-.23.03-.2.01-.26 0-.1.01-.15.01-.24-.03-.3-.03-.18.01-.13.01-.14-.04-.14-.04-.23-.07-.19-.09-.16-.06-.17-.03-.12 0-.1.04-.13.02-.08.04-.05.04-.06.04-.04-.01-.02-.02-.02-.03 0-.13 0-.03 0 0-.01-.01-.04 0-.04.01 0 0-.01.04 0 .01 0 0-.05 0-.14.01-.01.01 0 .31.01.09.01.08.05.02.04.02.04 0 .18-.04.02-.02.04.01.03.02.03.04 0 .03 0 .03-.02.02-.03-.01-.1 0-.05.01-.06-.01-.06-.01-.05-.08-.09-.06-.03-.09-.03-.07-.01-.04.01-.04-.01-.05-.03-.03-.07-.02-.09.02-.76.01-.29.02-.22.06-.36.06-.31.09-.18.13-.17.17-.15.06-.06.05-.04.03-.06.03-.07.05-.04.11-.07.07-.03.16-.08.06-.03.04-.02.02-.04.03-.06.14-.1.13-.14.07-.05.08-.03.14-.04.12-.07.08-.11.07-.16.04-.08.01-.08-.08-.17-.01-.24.04-.3.05-.2.06-.13.03-.19-.02-.41.03-.09.02-.08.04-.05.05-.06.02-.05-.01-.29.07-.39.05-.21.04-.13.09-.2.07-.1.03-.03.02-.06 0-.11.01-.3.06-.45.07-.31.09-.27.15-.25.01-.01-.01-.01-.04-.01-.04-.01-.16-.05 0 0-.02 0-.04 0-.03 0-.03-.01-.04-.01-.09-.03-.29-.11-.1-.04-.38-.1-.1-.02-.09-.03-.04-.01-.01-.06-.06-.28-.03-.22-.02-.05-.02-.05-.09-.17-.21-.18-.1-.06-.05-.02-.05-.01-.06 0-.06.01-.06.03-.03.02-.04.1-.05.14-.09.22-.03.08-.02.07-.03.08-.04.06-.05.03-.06.01-.17-.04-.14-.04-.19-.05-.04-.02-.02 0-.06-.01-.05 0-.06.02-.09.04-.09.04-.05.03-.06.03-.06.02-.06-.01-.11-.01-.05-.02-.06-.02-.03-.05-.02-.11-.04-.07-.05-.1-.03-.04-.03-.02-.04-.01-.04-.01-.28.01-.08-.01-.02 0-.03-.01-.04-.03-.02-.03-.02-.04-.01-.05.01-.05.01-.03 0-.05-.01-.03-.02-.03-.02-.01-.07-.02-.04-.01-.03 0-.03.01-.03.02-.02 0-.07 0-.05-.02-.02-.02-.01-.03-.01-.04.02-.09.03-.11 0-.14-.01-.07-.01-.03-.01-.02-.02-.03-.04-.03-.07-.05-.14-.05-.25-.1-.15-.06-.09-.03-.05-.04-.03-.03-.03-.03-.03-.03-.05-.05-.02-.01-.02-.02-.03-.01-.05 0-.08.02-.1.01-.06.01-.05.01-.09-.01-.04 0-.07-.03-.02-.01-.1-.05-.16-.1-.1-.03-.14-.01-.06-.01-.16-.01-.06.01-.06 0-.17.02-.06 0-.03-.01-.07-.02-.07-.03-.06-.05-.03-.02-.02-.04-.03-.04-.03-.05-.01-.09-.02-.05-.02-.03-.03-.03-.03-.01-.01 0-.03-.01-.06 0-.08.02-.07 0-.08 0-.02-.01-.05-.02-.06-.02-.03-.01-.03-.02-.04-.03-.02-.01-.08-.07-.04-.04-.06-.09-.09-.11-.08-.12-.06-.07-.04-.04-.07-.09-.07-.14-.04-.12-.04-.09-.01-.05-.01-.06 0-.03 0-.05.01-.07.02-.04.01-.05-.01-.03-.01-.03-.03-.04-.06-.03-.08-.03-.1-.04-.05-.03-.04-.04-.01-.05 0-.03-.01-.09-.01-.07 0-.02-.02-.05-.01-.03-.07-.05-.09-.08-.04-.06-.03-.07-.02-.09-.02-.06-.01-.04-.02-.08-.01-.05.02-.07.02-.07.01-.03 0-.04.01-.06.07-.15.02-.2.03-.09.01-.04.03-.04-.03-.05 0-.04.05-.04.01-.03.03-.03 0-.03-.03-.02-.13-.23.05-.13-.01-.04.01-.04-.02-.03-.11-.05-.01-.03-.03-.03.01-.05-.01-.02-.05-.02-.09-.07-.02-.03-.03-.02-.04.01-.03-.01-.05-.03-.03-.01-.01-.03-.06 0-.05.03-.19-.09-.02-.09-.06-.03.04-.12.02-.06.05-.05.01-.04.03-.06.03-.06-.01-.04-.18-.21.01-.06.08-.05.11-.06.08-.04.04-.03 0-.02.06-.06.01-.09-.03-.07-.08-.07-.02-.03-.04-.02.02-.1-.05-.1 0-.04-.07-.09-.04-.11-.03-.03-.02-.09.03-.08-.04-.09.02-.02-.03-.06.01-.06.03-.04.03-.09.11-.05.13.01.03-.03.01-.04-.01-.06-.02-.07-.02-.06.02-.09-.02-.2-.02-.15-.04-.05-.01-.01.01-.07-.1-.09-.02-.05.01-.04.01-.03-.03-.03-.05-.01-.07-.02-.05-.03-.04 0-.04-.02-.05-.09-.03-.03.01-.17-.01-.06.03-.03 0-.12.01-.06-.02-.14-.06-.05-.05-.01-.16-.06-.11-.01-.06-.03-.06-.07 0-.03.02-.02.02-.03-.02-.17.01-.14-.01-.05-.02-.04 0-.02-.08-.11-.09-.09-.05-.06-.05-.04-.13 0-.05-.01-.11-.08-.04-.04-.11-.14 0-.02-.2.12-.17.06-.31.11-.03 0-.07-.02-.05.02-.03.01-.09.04-.1.02-.09-.01-.03 0-.02.02-.07.14-.02.07-.02.02-.25.09-.22.08-.17.08-.16.08-.22.09-.15.08-.16.03-.14.01-.28-.02-.16-.04-.13-.03-.12-.01-.23-.05-.24-.06-.19-.09-.03-.03-.01-.05-.06-.06-.06-.02-.06-.01-.13-.05-.29-.14-.18-.09-.08-.07-.08-.07-.03-.02-.08-.09-.02-.04-.02-.07-.05-.04-.04-.01-.04-.02-.01-.03-.02-.08-.07-.06-.08-.02-.04 0-.02-.01-.01-.01.01-.02-.02-.01 0-.01.02-.01 0 0 .02-.02.01 0 0 0 .01 0 .01-.01 0-.01.01 0 .01-.01.01-.01 0 0 0-.01.01 0 .01-.02.01-.01.02-.01 0-.01 0 0 .01 0 .02 0 0-.01.01-.01 0-.02.01 0 .01.01.01-.01 0 0 .01-.01 0 0 .01-.01 0 0 0 0 .01-.02.01 0 0 .01.01-.01.01 0 .01-.02.02 0 .02-.03.01-.05.02-.04.04-.04.06-.07.16-.18.05-.08.04-.05.03-.07.02-.05.03-.09.02-.05.01-.04 0-.05-.01-.08-.02-.05-.05-.05-.08-.04-.07-.05-.07-.07-.24-.13-.12-.06-.09-.05-.13-.17-.1-.14-.07-.11-.08-.08-.09-.04-.05-.02-.04-.05-.03-.06 0-.07 0-.05-.01-.04-.04-.04-.03-.05-.01-.04 0-.06.02-.07.03-.12-.01-.01-.03-.01-.15.03-.1.02-.09 0-.13.04-.08.05-.07.06-.08.09-.06.09-.03.1-.02.05-.03.06-.06.09-.09.07-.04.06-.03.05-.05.02-.06.05-.07.11-.08.1-.12.11-.02.02-.02.03-.01.06-.02.03-.04.01-.06-.01-.04.01-.03.02-.12.13-.04.03-.05.07-.06.07-.05.1-.06.1-.05.08-.08.09-.08.07-.11.09-.07.08-.08.08-.09.09-.15.2-.03.03-.06.06-.04.04-.03.07-.04.03-.06.04-.12.06-.09.06-.1.08-.13.08-.08.08-.07.07-.06.04-.1.04-.11.06-.09.05-.12.05-.15.08-.11.08-.09.06-.06.01-.21.11-.03.02-.06.06-.11.05-.11-.01-.09-.01-.05-.01-.07-.02-.03-.02-.05-.01-.04-.02-.07 0-.04.01-.07.01-.08.01-.05.03-.07.06-.07.03-.1.03-.03 0-.09-.01-.05 0-.17-.02-.14.01-.08-.01-.07-.02-.11.01-.1-.01-.14 0-.06-.01-.06-.01-.1-.01-.13-.03-.02 0-.01.01 0 .08-.03.02-.05.03-.15.13-.08.05-.08.02-.09.01-.03.01-.12.1-.13.13-.12.08-.13.05-.15.03-.1-.01-.21-.06-.13-.03-.13-.04-.04 0-.03.01-.09.05-.1.07-.15.07-.01.01-.07-.01-.08 0-.08.03-.07.01-.05.01-.04-.01-.03 0-.04 0-.08 0-.08 0-.08-.04-.06-.04-.09-.05-.09-.03-.09.01-.09.01-.08-.01-.17-.05-.14-.07-.06-.05-.01 0 0-.01.02-.06-.01-.01-.01-.02-.1-.07-.04-.03-.05-.1-.05-.05-.07-.1 0-.01 0 0 .04-.03.01-.02-.03-.04-.07-.03-.03-.01-.03 0-.01.01 0 .01.02.02 0 0-.01.01-.02-.01-.04-.03-.11-.01-.02 0-.05.01-.04.02-.12 0-.16-.01-.09.03-.22.16-.1.09-.06.06-.06.1-.03.08-.01.08-.04.15-.04.12-.09.2-.04.13-.06.08-.1.09-.06.08-.01.08-.02.07-.01.07-.01.1-.05.05-.08.05-.09.02-.26.01-.19-.02-.18-.03-.32-.06-.19-.03-.38-.05-.12-.04-.31-.13-.1-.08-.08-.06-.06-.02-.09-.02-.09-.04-.26-.18-.11-.11-.04-.06-.08-.18-.09-.23-.03-.06-.01-.05.03-.14.01-.06.08-.15.08-.26-.03-.19-.05-.12.01-.05.07-.11.01-.04-.02-.04-.11-.1-.2-.07-.14-.07-.13-.07-.06-.01-.13.03-.04 0-.27-.06-.11-.01-.19-.06-.09-.05-.11-.08-.07-.05-.09-.07-.07-.04-.1-.05-.16-.04-.21 0-.16-.01-.22.04-.12.04-.08.03-.23.11-.12.06-.21.04-.14.01-.11-.02-.09-.03-.19-.07-.15-.08-.11-.04-.11-.02-.15-.02-.13.04-.07.06-.04.08-.08.12-.21.16-.24.23-.03.06 0 .06-.02.11-.03.07-.08.06-.14.07-.22.04-.05.03-.11.06-.13.14-.15.2-.32.27-.06.04-.04.06-.02.04-.02.05-.01 0-.15 0-.06.01-.05.01-.02.02-.02.01 0 .01 0 .01.02.01.03.01.07 0 0 0 .01.01 0 .02 0 .02 0 .03 0 .03-.01.04-.04.03-.18.09-.04.01-.13.07-.42.2-.51.12-.55.02-.41-.02-.26-.04-.04-.02-.16-.17-.01-.04 0-.07-.03-.08-.2-.2-.16-.13-.11-.13-.03-.01-.03-.01-.08.02-.11.05-.04.02-.04.06.01.06.1.15.03.06-.01.04-.02.1 0 .04-.03.04-.04.08-.02.04-.01.07-.04.07-.08.08-.04.03-.13.11-.09.12-.04.12-.09.13-.09.09-.11.1-.2.18-.07.11-.08.17-.06.08-.08.07-.02.04-.01.06 0 .09.04.11.03.05.02.18 0 .01-.01 0-.02 0-.04-.01-.01.01 0 .05-.01.18-.01.01 0 .01-.02 0-.02-.01-.12-.05-.18-.04-.19.02-.15.03-.19.05-.19.07-.15.1-.15.11-.08.07-.01.01-.02-.01-.03 0-.01 0-.03.04-.06.09-.09.09.05.04.18-.19.01-.01.02 0 .02 0 .02 0 .15-.11.04.01.03.02.03.02.7-.31.27.21-.05.05-2.03 1.72-1.97 1.66-.05.05-.03.03-.06-.02-.36-.25-.04-.07-.3-.21.03-.04.52-.49-.18-.13-.52.5-.14-.11-.03-.02-.02.01-.03.03-.02.01-.02-.01-.18-.13-.02-.01-.01-.01.01-.01.04-.05-.04-.02-.04-.02 1.06-1.16.03-.05.02-.02-.01-.01-.01-.01-.02-.01-.03 0-.01 0-.07-.04-.01-.02.01-.02.13-.1.01-.05 0-.06-.02-.16 1.2-.8.03.04-.06.05.04.03.29-.2-.04-.04-.06.04-.04-.03.41-.27.23-.11.26-.06.02-.01-.03-.06-.35.08-.22.11-.43.28-1.35.92-.73.53 0 .02.01.02.02.02-.17.12-.13.11-.22.26-.19.29-.2.4-.13.4-.06.45-.08.56.01.04.03.05.03.05.01.04 0 .02 0 .02-.13.22-.11.17-.12.14-.1.07-.12.07-.24.13-.31.15-.15.03-.16.02-.57-.01-.92.01-.45.03-.42.09-.07.02 0 .01-.01.02.01.02.03.02.07 0 .09-.02.04-.02.28-.05.4-.03.26 0 .22.01.07 0 .01.04-.01.01-.03.01-.02.04-.01.06.01.01.05.02.13.14 0 .1-.03.2-.02.03-.02 0-.05 0-.02.06-.01.04-.03.06 0 .02.04.01.01.02-.01.01-.04.08-.12.16-.16.12-.24.12-.02.01-.01-.01-.02-.02-.09.03-.03.02-.08.06.01.02.01.02-.02.01-.24.14-.11.06-.17.03-.02 0-.01-.01-.01-.03-.03 0-.06.02-.04.01-.08.02-.02.01 0 .02.01.01 0 .02-.02.01-.05-.01-.24-.01-.03.02-.02 0-.01-.01-.03-.03-.02 0-.07.03-.03.02.02.03-.05.03-.22-.3-.05-.08-.05-.09-.01-.02-.03-.04-.06-.07-.01-.01.03-.31.05-.5.05-.59.05-.52-.06-.01-.04.01-.03.3-.02.15 0 .04-.47.26-1.36.75-.21.18-.58.51-.11.09.02.05.04.01.06.01.2-.21.09-.08.52-.43.72-.42.35-.2.03-.01.03.02.43.5.1.12.02.08-.02.28-.01.06.01.04.05.01.03-.02-3.73 3.25-.07.06-1.41 1.33-.72.65-.53.5-.2.2.68.47.04-.01.14.1.19.15-.37.35-.03 0-.03-.01-.11-.15-.03-.03-.04-.01-.03 0-.06.04-.22-.23.09-.08.02.02.04-.03-.29-.26-.03.02.02.03-.1.08-.87-.81-.03-.3.17-.24.18-.36.43-.84.39-.75.32-.63.01-.09.06-.11.18-.36.26-.49.11-.14.23-.25-.04-.03.2-.2.3.2.04-.01.02-.02 0-.03-.31-.2.03-.02.59-.59.53-.53.2-.24.29-.57-.09-.02-.28.54-.21.25-.56.56-.62.62-.51.53-.18.35-.43.81-1.27 2.52-.11.16-.09.1-.25.27 0 .04.05.04.09-.08.03 0 .09.08 1.94 1.8 0 .06-.03.04-.42.11-.14.07-.02.03.01.03.06.04.01.04-.01.05-.03.05 0 .02.01.03.03.02.02.02-.01.04-.03.04-.07.02-.09.01-.1.02-.1.03-.06.07-.21.23-.12.1-.19.06-.07.05-.09.07-.18.18-.33.22-.1.03-.05.02-.03.04-.04.07-.18.23-.04.02-.03.02-.07.01-.07.04-.05.04-.29.27-.15.1-.63.41-.37.15-.66.17-.43.04-.36-.04-.4-.15-.17-.1-.14-.05-.05-.03.03-.06.06-.06.04-.02.01-.02-.01-.02-.07-.07-.02-.04 0-.03-.04-.34.04 0 0-.05.1 0-.02-.14.23-.03 0-.04-.24.03-.13.01-.04 0-.05-.02-.1-.08-.04-.01-.04.01-.22.15-.08.09-.01.16-.06.16-.08.11-.08.06-.26.07-.22.13-.12.16-.16.28-.1.32-.02.06-.06.05-.22.1-.41.31-.14.02-.29.01-.39-.48-.03-.01-.02.01-.01.02.01.01.06.09-.05.02.15.2-.83.44.03.04.52-.25.07.08.07.09-.14.07-.11.06-.11.05-.11.06-.11.06-.15.07-.16-.19-.52.25-.26-.35.05-.04-.04-.07.54-.28-.09-.11-.6.3-.02 0-.03-.01-.07-.11-.01-.02.01-.03.13-.25.58-.34-.01-.04-.04-.04.31-.17 1.05-.53.06.05.14-.04.05-.12-.06-.07-.13-.02-1.29.68-.89.48-.1.1-.09.11-.03.12-.02.14.01.11.04.15.34.49-.01.05-.05.04-.21.03-.19-.01-.05-.03-.04-.06-.08-.07-.06-.02-.09.04-.08.11-.01.09.04.15 0 .06-.07.08-.12.09-.26.2-.34.27-.37.21-.31.16-.41.13-.39.03-.24.19-.22.11-1.4.37-.28.01-.17-.02-.09.02-.2.1-.4.17-.18 0-.18-.03-.22-.05-.08.01-.08.03-.22.18-.14.07-.33.09-.41.13-.21.01-.33-.01-.47 0-.16-.07-.55-.25-.2-.11-.16-.11-.24-.08-.18-.08-.24-.07-.25-.04-.2-.02-.19.02-.55 0-.11-.01-.09.01-.09.05-.1.01-.26 0-.4-.06-.38-.11-.19-.11-.27-.2-.19-.2-.07-.05-.08-.04-.12.01-.45-.01-.72-.13-.17 0-.11.04-.1.01-.13-.03-.1-.02-.15 0-.12.01-.17-.03-.13-.04-.14-.01-.14.03-.32.06-.39.2-.22.04-.1.07-.09.06-.07.05-.06.05-.09.03-.17.11-.25.07-.27.07-.31.09-.52.18-.36.08-.08-.02-.07-.08-.06-.02-.04.01-.08.03-.11.05-.09-.01-.05-.02-.06 0-.12.05-.13.05-.25.06-.3.15-.21.16-.17.09-.09.05-.1.05-.33.18-.34.18-1.01.34-.48.1-.36.06-.4.01-.26-.02-.4-.07-.18-.06 0-.01-.29-.15-.06-.06-.19-.22-.05-.02-.15-.02-.16-.08-.03-.04-.03-.04-.08-.03-.1 0-.49-.18-.21-.07-.05 0-.12.03-.13.01-.09-.02-.13-.03-.26.01-.15.03-.44 0-.27-.02-.07-.01-.16-.09-.19-.17-.11-.06-.26-.06-.09-.04-.09-.05-.05-.04-.05-.04-.15-.08-.18-.03-.28.01-.1-.03-.1-.09-.07 0-.11.04-.19.01-.16-.03-.31-.11-.25-.15-.19-.17-.09-.23-.09-.14-.12-.1-.03-.03-.12-.13-.07-.19-.05-.03-.02-.02-.01-.09 0-.02-.01-.1-.02-.02-.02.01-.02.02.02.1.01.08-.03.02-.09.02-.22-.01-.14-.04-.07-.09-.08-.06-.15-.01-.27-.05-.09.01-.19.08-.21.13-.09 0-.04-.03-.03-.03-.05-.16-.17-.15-.06-.02-.04 0-.12.06-.09.01-.08-.01-.06-.04-.05-.25-.01-.02-.01 0-.02.01 0 .02.05.16-.01.02-.03-.01-.15-.09-.09-.03-.02-.02 0-.05-.01 0-.02 0-.06.1-.06.02-.1 0-.21-.05-.07-.02-.06-.02-.03.01-.06.09-.04.11-.03.06-.06.03-.08.01-.03 0 0 0 0 .06-.02.01-.05-.01-.06.03-.15.14-.07.05-.11.03-.05.01-.08.07-.15.11-.09.09-.02.03-.01.06-.04.03-.25.16-.33.14-.17.03-.12.01-.07.01-.12.07-.11.06-.05.03-.04.03-.06.05-.12.12-.06.06-.06.05-.08.06-.24.15-.17.07-.18.05-.44.11-.35.01-.09-.05-.01 0-.11-.05-.13-.02-.07.01-.14.05-.12.05-.07.03-.07.02-.15.13-.09.11-.18.15-.31.18-.19.07-.18.04-.18 0-.1-.01-.04-.02-.01-.03.01-.04 0-.07 0-.02-.01 0-.01.01-.02.04-.01.02-.03.04-.03.05-.1.03-.05.03-.02 0-.05-.02-.01 0 .01-.02.01-.01 0-.02.02-.02.09-.05.11-.09.03-.03.01-.02-.01-.02-.03-.01-.04.01-.14.1-.12.04-.17.02-.13-.02-.07-.02-.16-.09-.11-.03-.11-.01-.02.01-.03.1-.09.11-.15.09-.1.01-.26-.02-.12.01-.36.12-.08.01-.06-.01-.09-.04-.17-.09-.05-.05-.04-.07-.06-.04-.05-.03-.07-.08-.07-.12-.07-.06-.09 0-.07.02-.1.07-.25.1-.11.08-.12.11-.04.09-.04.08 0 .19.02.05.06.03.01.05 0 .07-.12.17-.07.15-.06.16-.04.25-.03.08-.06.08-.15.12-.14.1-.34.12-.07-.01-.14-.06-.02 0-.02.01-.04.08-.23.16-.12.06-.26.02-.31.12-.07 0-.06-.01-.09 0-.24.09-.08.05-.15.05-.22.15-.13.08-.13.04-.08.02-.16.13-.61.35-.16.06-.1.01-.09-.01-.14-.07-.06-.08-.06-.04-.12-.04-.04.02-.04 0-.05 0-.05.01-.02.02-.07.06-.12.08-.07.01-.09-.02-.06.01-.08.07-.06.12 0 .08-.01.04-.05.08-.07.07-.17.06-.19.02-.15-.02-.16-.03-.09-.06-.09-.04-.11-.03-.11-.01-.07-.01-.15-.05-.15-.03-.14 0-.01-.01-.02-.01 0-.06-.02-.02-.03 0-.04.03-.05.03-.08.01-.15.03-.21.06-.19.08-.15.04-.22.02-.04-.02-.04 0-.04.03-.02.02-.09.06-.11.03-.1-.02-.08 0-.07.02-.13.02-.11.07-.11.14-.05.1-.01.09.04.13.03.09.03.1.04.06.05.05 0 .05-.03.1-.08.11-.06.11-.04.08-.02.12.05.17.17.18.1.07.06.11.15.08.07 0 .07.02.1.05.11.21.01.2-.02.05-.07.04-.05.04-.06.11.02.09.06.13 0 .26-.02.39-.09.29.03.05.08.07.03.07.01.07-.08.24-.13.18-.07.12-.08.08-.08.03-.03.01-.12.2.03.07.1.1.03.05.01.04-.02.12-.1.23-.28.4-.31.53-.06.06-.1.1-.2.13-.03.01-.06.01-.08-.01-.08.02-.22.12-.22.12-.04.05-.04.1-.07.12-.15.16-.11.18-.25.34-.08.11-.02.06.01.09.01.08-.06.11-.07.09-.07.09-.07.07-.19.08-.06.04-.02.06.01.06 0 .04-.05.07-.07.11-.12.13-.18.12-.11.11-.05.07-.06.04-.33.19-.02 0-.03 0-.03-.02-.07-.05-.02 0-.03.02-.02.02-.02.02-.03.04-.04.05-.18.2-.42.3-.06.04-.08.05-.07 0-.06-.01-.05-.02-.03-.02-.01.01-.07.05-.09.08-.01.01.01.02.04.04.02.05.03.11-.01.05-.02.04-.43.28-.37.19-.03.01-.02.02-.02.03-.01.05 0 .02-.06.07-.07.05-.05.04-.01 0-.02.01-.03 0-.03.01.01.01.02.02.02.02-.02.02-.03.01-.02.02-.01 0-.01-.01-.02-.02-.02-.02-.02.02-.05.02-.04.02-.08.04-.27.13-.2.09-.05.02-.05.03-.03.02-.06.05-.04.03-.05.03-.31.16-.63.24-.5.2-.26.1-.5.18-.66.18-.15.03-.06.01-.29.03-.21.03-.26.02-.4.01-.5-.01-.14-.02-.13 0-.73-.1-.74-.17-.47-.13-.4-.13-.4-.22-.34-.27-.28-.35-.17-.25-.02-.05.03-.05.08-.05.83-.49.02-.01.01-.01 0 0-.01-.02-.07-.11-.05-.1-.01 0-.02.01-.11.07-.09.05-.34.2-.24.15-.05.03-.15.08-.15.09-.13.08-.04.02-.06.04-.11.07-.1.05-.08.05-.07.05-.02.01-.06.04-.08.04-.08.05-.07.03-.02.01-.04-.01-.21-.14-.17-.13-.07-.06-.02-.02 0-.02.01-.01.01-.01-.01-.02-.03-.03 0-.01.01-.02.1-.05.09-.05 1.61-.96.05-.03.42-.26.09-.05.13-.08.17.17.02-.01.22.25.02.02.01 0 .01-.01.01 0 .02-.01.03-.02.02-.01-.12-.13-.32-.34-.02-.02 0 0 0-.01.02-.01.04-.02.01-.01-.01 0-.01-.02-.07-.07-.27-.32-.01-.01-.02-.01-.01.01-.02 0-1.39.83-.02.02-.02 0-.03 0-.01-.01-.64-.21-.03-.01-.02 0-.1-.04-.01 0-.02 0-.01.01-.26.48-.02.02-.01.01-.15.01-.01-.01 0-.02.01-.22-.01-.03-.02-.01-.11.01-.01 0-.01-.02.01-.02.01 0 .11 0 .02 0 0-.01 0-.23 0-.02-.02-.01-.15-.01-.04 0-.05-.02-.23-.03-.01-.01 0-.02 0-.13.02-.05.02-.03.29 0 .03 0 .01 0 .01.02 0 .05 0 0 .01.01.09 0 .01 0 0-.01 0-.03.01-.02.01-.01.05 0 .13 0 .13-.01.06 0 .03.01.1.07.01 0 .01 0 .06-.05.04-.04.03-.03.02-.01.02-.02.04-.02.04-.04.05-.04.02-.02.02 0 .02-.01.04-.04.01-.01.01-.02.01-.02-.05-.18.07-.02-.01-.02-.01-.03.49-.1.01-.01 0 0 0-.02-.01-.01 0 0-.5.12-.01-.02 0-.02-.05.01-.01 0-.01 0-.1-.19-.02-.02 0-.02.01-.01.03-.02.01-.01-.01-.01 0-.01.02-.01.33-.14.02-.01.05-.02.01-.01.03-.03.27-.06.23-.04.1 0 .08.01.06 0 .02.01 0 .01.01.02.01 0 .02 0 .01-.03 1.22.08.03 0 .01-.02 0-.03.87.06.06 0 .03 0 .02-.02.01-.02-.01-.02-.02-.02-.04-.01-.52-.05-1.78-.12-.29 0-.35.03-.28.08-.28.12-.09-.01-.09-.03-.09-.13-.01-.08 0-.05-.01-.01-.03 0 0 0-.01.01-.01 0-.06 0-.02.01 0 0 0 .15 0 .02 0 .01-.01 0-.61.1-.01 0-.01 0-.01-.01 0-.01-.08-.22 0-.01-.03-.01-.02.01 0 .02-.07.36-.01.01 0 0-.01 0-.26-.04-.07-.01-.02 0-.03 0-.03-.01-.06 0-.18-.03-.04-.01-.05-.01-.03 0-.01.02-.01.06-.01.01-.02 0-.01-.01 0-.07 0-.01-.02-.01-.04 0-.08-.01-.07-.01-.05-.01-.01-.01-.01-.01.01-.03.07-.33 0-.02.01-.03 0-.02.02-.03.07-.05.11-.02.23-.01 1.33-.03.03-.01 0-.02 0-.02 0-.01.02 0 .02 0 .54-.03.05.05.06 0 .04-.03.03-.04-.03-.04-.03-.01-2.12.07-.21.01-.15.01-.1.03-.14.05-.12.11-.12.17-.04.18-.05.19 0 .06-.01.01-.01 0-.14-.04-.18-.05-.15-.02-.29-.04-.4-.14-.11-.04-.19-.05-.14-.01-.18-.01-.17-.03-.51-.15-.13-.02-.36-.11-.11-.03-.04-.03-.03-.05-.17-.13-.1-.07-.06-.03-.1-.02-.08-.02-.06-.01-.02-.01-.02-.02-.02-.05-.03-.09-.07-.1-.07-.05-.12-.03-.33-.02-.32-.02-.18 0-.15-.04-.09-.02-.1-.02-.13.02-.14.06-.11.05-.06.02-.12.01-.2.03-.11.05-.16.08-.2.1-.15.07-.16-.03-.01 0-.03-.01-.02 0-.01 0-.54-.13-.03 0-.03-.01-.03-.01-.02-.02-.07-.06-.07-.17-.08-.12-.11-.07-.05-.04-.1-.03-.12-.01-.06-.04-.11-.07-.02-.02.01-.03 0-.01.03-.01 0-.01-.01-.01-.04 0-.02-.01-.02-.04-.01-.04-.01 0-.03.01-.02.05-.02.01-.04.01-.04-.02-.04-.03-.05.01-.05.01-.06.04-.1.03-.04-.02-.04-.04-.08-.05-.07-.02-.12-.01-.04-.02-.01-.04-.01-.02.01-.04.03-.05 0-.01-.02-.01-.02.01-.05.04-.16.06-.04.03-.06.01-.03.01-.02 0-.04-.01-.01-.02-.01-.03-.03-.01-.07.01-.26-.09-.16-.03-.07-.02-.06-.04-.03-.06-.07-.06-.06-.16-.11-.27-.04-.03-.05-.01-.06.01-.09-.02-.04-.04-.04-.07-.03-.17-.02 0-.03 0-.01.02.02.05 0 .03-.02.02-.01.02-.01 0-.04.01-.01-.02-.04-.02-.01-.02-.03-.06-.03-.05-.03 0-.02 0-.02 0-.02-.01-.02-.02-.02-.04-.01 0-.02 0-.01.02.01.03.03.04.01.02-.01.05-.01.05 0 .03.01.04-.03.01-.03.03-.05.05-.03.03-.03.06-.02.03-.01.04-.03.01-.04-.02-.02-.03-.03-.01-.02 0-.01.02.01.02.01.03.02.03.02.04.01.05-.01.06-.05.03-.04.01-.07.02-.05 0-.06.02-.06.02-.04.02-.02.02-.02.05-.04.02-.04.06-.04.07-.01.04-.04.03-.04.01-.05.02-.06.01-.03-.01-.04 0-.04.01-.03.02-.06.03-.11-.01-.05-.02-.07-.03-.15-.02-.15-.01-.12.02-.07.02-.07-.01-.05 0-.04.03-.05.01-.06 0-.13-.01-.08-.02-.09 0-.11-.02-.07-.02-.12-.02-.12-.01-.03-.01-.03.01-.05.02-.03.01-.08.01-.12.03-.1.01-.09-.02-.08-.03-.14-.04-.07-.04-.07-.01-.05.01-.05.04-.02.02-.07.07-.1.01-.06-.01-.04.01-.05-.01-.03.01-.01.06-.02.03-.03.03-.08.03-.04.01-.04.01-.03.02-.01.03-.02.02-.02.02-.12.18-.18.03-.13-.01-.13-.04-.08-.05-.08-.03-.14-.09-.34-.09-.11-.01-.1-.03-.35-.21-.18-.05-.15-.04-.06-.04-.07-.01-.05-.03-.05-.02-.05 0-.04 0-.05-.01-.03-.01-.06-.01-.14-.01-.07 0-.17.09-.11.04-.08.03-.14.04-.08.01-.1-.02-.07.02-.08.04-.17.06-.09.01-.06.01-.16.01-.17-.01-.11.03-.09.01-.07-.01-.11-.05-.16-.01-.09-.02-.09-.01-.08 0-.07-.01-.1-.01-.1 0-.03 0-.02-.03-.03-.03-.1-.03-.1 0-.09-.02-.11-.02-.12 0-.13.02-.09.01-.08.01-.13-.02-.18-.03-.14-.07-.09-.11-.1-.11-.14-.1-.05-.02-.04 0-.07.01-.12.04-.14-.02-.19-.01-.17-.01-.13-.02-.17-.05-.15-.06-.08-.02-.04 0-.04.01-.11.04-.07 0-.03-.03-.05-.08-.05-.07-.01-.06-.03-.09-.05-.08-.03-.05-.04-.03-.03-.01-.07-.01-.08 0-.05 0-.04.01-.05.01-.03.01-.04.04-.05.05-.03.01-.07.02-.07.02-.12.03-.16.01-.14 0-.12-.01-.17 0-.11-.01-.05.01-.04.01-.04.02-.06 0-.17 0-.07-.01-.12.03-.08.01-.14-.02-.23-.02-.13.01-.31 0-.27.01-.34.01-.11 0-.12.02-.1.02-.09.03-.11.02-.06 0-.06 0-.03 0-.09-.01-.12-.02-.14-.02-.19-.02-.2-.04-.13-.02-.17-.05-.07-.05-.13-.04-.16-.03-.07-.01-.08-.04-.07-.01-.08.01-.06.03-.12.13-.1.07-.14.02-.06-.01-.09.02-.08.03-.07.02-.05.03-.04.05-.01.04.02.06.01.09.01.05.01.05-.03.05-.07.06-.03.04-.11.04-.07.04-.18.2-.11.07-.1.03-.09.04-.16.02-.14.02-.06.02-.03.02-.01.02-.01.03-.04.01-.04 0-.04 0-.06 0-.06 0-.02.01-.05.01-.07.02-.07.03-.1.01-.06.04-.02.03-.03.03-.03.02-.05.05-.03.06-.04.1-.11.07-.07.05-.06.01-.12.07-.19.05-.09.06-.07.02-.06 0-.1.01-.04.01-.03.02 0 .08-.04.04-.09.06-.09.04-.05.04-.03.03-.04.05-.16.15-.13.1-.11.06-.27.06-.12.01-.22.04-.26.05-.07.01-.07.01-.03-.02-.02-.03-.03-.02-.02 0-.02.01-.01.02-.03.02 0 .04-.02.04-.04.03-.05.02-.03-.01-.04-.01-.03-.03-.02-.01-.03.01-.12.1-.02.04-.03.03-.02.01-.01.02-.02.02-.03.03-.02.01-.01.01-.03.02.01.02.02.02.01.04-.02.03-.06.02-.07.03-.1.05-.05.04-.04.07-.06.08-.02.02-.01.02-.01.01-.04 0-.04 0-.04-.01-.06 0-.02 0-.02.03-.01.04 0 .02 0 .03 0 .04-.02.05-.05.03-.12.02-.03.01-.03.01-.04.05-.03.03.01.02 0 .02.02 0 .04.01.08 0 .03 0 .03.01.02.03-.04.08-.09.07-.14.06-.12.03-.03.01-.03.04.01.03.03.02.04.03.03.01.02.03-.01.02-.06.03-.02.01 0 .01.01.01.06.02.03.03.01.05-.04.05-.06.11-.04.07-.09.18-.07.15-.01.09 0 .1 0 .06.01.04-.01.06-.01.04-.02.04-.04.07-.07.1-.04.02-.05.01-.1 0-.04.01-.04.01-.03.02 0 .04-.01.03.01.02.03.03.1.05.01.05-.01.07.02.02.03.04.04.03.07.05.02.03.01.06-.01.04 0 .02.03.08.04.05.04.07.02.06.01.03.01.03.02.02.06.08.01.05-.06.11-.04.07-.04.07-.07.17-.14.29-.13.37-.12.21-.03.03-.04-.01-.06 0-.07-.02-.15-.02-.06-.01-.03 0-.01.01 0 .01.02.01 0 .02-.01.02-.04 0-.1 0-.01.01 0 .01.04.04.07.04.06.05.03.12-.07.18-.15.2-.19.42-.09.25-.35 1.11-.19.64-.05.16-.06.21-.03.14-.06.12-.03.12-.04.16-.03.14-.02.08-.02.06-.04.09-.07.04-.11.03-.04.02-.04.01-.04.03-.04.06-.04.03-.04.04-.02.02-.02.04-.06.04-.03.06-.05.04-.03.03-.01.03.01.05.01.03 0 .01.06.01.05.01.02.03.02.08.03.07.02.02.04.03.02.02 0 .02-.03.02-.02.03.01.01.03.02.01.01.03.01.09.03.26.23.01.02 0 .19-.03.07-.14.3-.12.4-.2.55-.34.71-.21.55-.22.55-.29.85-.31.69-.18.51-.21.49-.24.93-.46 1.48-.21.49-.09.42.06.28.11.1-.27.17-.26.64-.11.51-.23.61-.21.45-.43 1.21-.52 1.38-.21.72-.02.27-.03.16-.01.01-.4.87-.05.54-.18.49-.24.41-.27.45-.13.43-.14.28-.16.51-.05.35-.06.47-.28.6-.23.6-.16.39-.23.68-.26.75-.67 1.17-.5 1.05-.43 1.39-.29.96-.31.92-.16.73-.09.72-.25.76-.2.46-.18.82-.19.68-.03.76-.26.57-.01.35-.09.41-.23.78-.3 1.07-.38 1.03-.26.88-.32 1.01-.67 1.89-.5 1.39-.16.51-.23.76-.32 1.26-.59 2.1-.56 2.04-.86 3.05-.81 3.3-.37 1.25-.1.63.09.75.04.23.02.12.04.08.04.09.03.42-.01.26-.02.31-.02.3-.02.11-.05.08-.06.07-.16.15-.12.1-.05.04-.07.04-.26.09-.3.15-.24.16-.21.23-.31.51-.28.73-.2.79-.3 1.28-.48 1.89-.13 1.64-.14.51-.15.37-.03.39-.05.28-.41 1.02-.16.65-.04.53 0 .23-.1.37 0 .12-.05.23-.13.43-.15.55-.09.35-.19.65-.14.45-.23.71-.38.73-.2.69-.15.6-.38.61-.39.89-.27.86.04.29.03.61-.23.72-.59 1.39-.15.35-.35.61-.24.3-.48.72-.44 1.3-.48 1.25-.09.24-.23.62-.3.87-.22.86-.01.03-.02.03-.01.03-.21.3-.31.26-.27.19-.12.11-.08.05-.06.01-.19-.07-.17-.09-.14-.05-.21-.06-.07-.01-.09 0-.05.02 0 .05.03.02.03.01.05-.01.06-.01.09.02.13.04.14.05.19.1.1.07.03.05.01.06-.01.14-.02.12-.02.02-.43.33-.08.05-.02.01-.02 0-.03 0-.03 0-.03 0-.01 0-.01.01-.17.04-.09 0-.14 0-.13-.05-.16-.14-.02-.01-.03.01-.38.29-.03.04-.03.1-.02.01-.09-.01-.02.01-.02.04.01.17.01.01.09.01.02-.01 0-.03.02-.01.11.01.04.02 0 .24-.02.02 0 .02.03.01.04-.01.03.05.01.07-.21.05-.19.03-.49-.2-.19-.14 0-.03.09-.22.16-.14.03-.01.03-.01.01-.02 0-.02.02 0 .02.01-.01.01 0 .01.03.01.02 0 .01 0 .06-.1.09-.07.37-.29.33-.23 0-.01-.06-.07 0-.02.05-.03.25-.13.15-.04.03 0 .05.02.06.01.02-.02.02-.03-.01-.04-.03-.04-.04-.01-.11.02-.32.11-.26.17-.28.24-.36.28-.24.18-.19.19-.11.2-.08.13-.02.04.02.03.22.11 0 .06-.07.06-.11.12-.16.17-.04.04-.06.09-.05.09-.14.1-.23.21-.03.05-.03.11-.07.17-.03.07-.06.09-.09.17-.06.14-.05.13-.19.24-.2.16-.16.12-.02.03 0 .03.07.1.04.09-.01.09-.14.15-.15.13-.09.11-.07.04-.09 0-.1-.06-.04-.08-.03-.02-.04.01-.07.04-.06.08-.06.06-.05.03-.04.04-.05.02-.03.01-.05.04-.05.04-.04.05-.1.12-.09.12-.47.73-.43.83-.06.09 0 .09.23.2.01.05-.04.14-.09.1-.1 0-.05 0-.1-.01-.14.11-.06.13 0 .13.02.18-.07.24-.11.22-.11.29-.14.23-.1.14-.27.24-.29.62-.12.17-.12.05-.1.04-.03.07 0 .08.02.08.31.25 0 .03-.01.05-.12.14-.07.08-.07.05-.37.12-.07.05-.04.2.01.01.01 0 .04-.01.04 0 .07.02.02.08-.02.08-.06.03-.06 0-.12-.06-.06-.02-.03.01-.03.03 0 .3-.02.05.01.04.09.05 0 .03-.01.03-.05.02-.08-.01-.02 0-.02.01 0 .09.03.22.03.03.05.04 0 .19-.04.7-.15.87-.09.48-.21.57-.47.77-.09.16-.27.51-.79 1.85-.48.97-.39.54-.28.3-.31.29-.33.44-.29.26-.29.49-.36 1-.18.25-.39.4-.59.9-.09.06-.4.11-.42.11-.02.03 0 .04.12.49-.01.25-.15.83.03.47-.09.29-.26.6-.08.23-.09.23-.12.21-.14.45-.13.31-.45.67-.09.18-.05.13-.47 1.76-.06.29-.07.39-.18.97-.14.89-.19.76-.2.49-.09.32-.06.18-.08.15-.02.05-.02.05-.29.59-.71 1.65-.63 1.69-1.31 3.69-.36 1.06-.65 1.63-.31.95-.17.45-.15.49-.44 1.1-.23.82-.12.42-.15.37-.14.43-.11.29-.05.27-.09.17-.08.14-.08.17-.09.25-.07.25-.13.35-.29.7-.34.87-.21.61-.17.57-.06.21-.08.24-.1.27-.13.39-.17.49-.11.31-.14.31-.13.29-.18.32-.18.36-.1.29-.11.19-.11.25-.15.4-.08.21-.06.24-.07.2-.12.18-.06.14-.03.1-.02.1-.14.4-.17.42-.13.28-.04.14-.12.33-.23.4-.05.13-.02.1.01.22-.01.15-.16.42-.09.25-.16.36-.24.66-.21.5-.23.51-.13.4-.17.45-.05.12-.06.16-.09.22-.11.21-.17.43-.16.45-.2.51-.16.47-.1.25-.1.24-.12.19-.13.32-.25.53-.33 1.02-.19.48-.38.93-.15.44-.18.45-.27.53-.15.41-.23.58-.22.48-.16.28-.16.23-.03.07-.03.18-.06.15-.16.31-.13.9-.12.65-.06.14-.17.29-.05.11-.09.18-.43.98-.19.41-.25.72-.17.35-.19.4-.06.14-.14.25-.05.11-.12.18-.09.16-.09.2-.13.29-.13.27-.16.27-.11.25-.1.3-.11.3.04.46-.41-.02-1.26-.01-.07-.01-.09-.01-.04.02-.03.03-.01.04 0 .06.06.03.07.01.1-.01.05-.03.03-.02 1.6-.03.86-.01.11.02.03.07.02.1.02.03.03.01.03 0 .03-.01.06-.01.11-.13.11-.08.07-.06.06-.01.07.01.08.02.08.02.09.02.04.02.15.26.15.42.02.03.04.03.06 0 .27-.02.01.01.01.01.16.38-.02.24-.01.31-.33.19-.36.2 0 0-.01 0-.01 0-.01 0-.08.04-.02-.01-.28-.17-.1-.05-.26-.16-.01-.01 0-.03-.07-.5 0-.01-.02 0-.56.04-.45-.01-.45-.07-.1-.04-.12-.07-.16-.2-.19-.1-.18-.06-.26-.02-.03 0-.03.02-.02.05.01.04.06.02.03 0 .02-.01.02-.02.1-.01.09.02.25.09.21.17-.01 0-.01.01-.17 0-.12.08-.12.17-.07.19-.09.17-.09.11-.19.28-.23.18-.13.02-.25-.02-.35.02-.07-.01-.12-.04-.17-.07-.11.01-.11.05-.05.1-.03.19-.04.18-.14.22-.21.15-.12.04-.17-.01-.33-.18-.22-.06-.1-.03-.07-.01-.1-.02-.11-.04-.13-.06-.04 0-.02.02-.01.04.01.05-.01.02-.04.01-.03 0-.1-.07-.01 0-.26.07-.21.05-.07.04-.07.05-.19.11-.17.1-.05.05-.06.05 0 .01.06.1 0 .01-.01.02-.03 0-.02-.01-.04-.01-.04 0 0 0-.01.01 0 .02.04.02.13.04.02.01.01.02.02.16-.01.1-.02.07-.1.09-.04.02-.04.01-.07-.02-.04.01-.04.03 0 .02.01.01.07.04 0 .03 0 .01-.01.01-.07.01-.05 0-.04.01-.02.01-.01.01 0 .01.03.08.01.06-.03.05-.03.08-.01.03.02.08.02.01.03.01 0 .03-.03.03-.06.11-.03.11-.04.09-.09.08-.01.03.02.05.08.07.02.04-.02.05-.29.69-.28.78-.11.23-.18.32-.09.18-.05.27-.08.53-.07.21-.11.17-.31.28-.05.09.02.05.01.04-.02.08-.06.09-.11.05-.04.04-.03.06-.03.27-.03.25-.11.39-.1.29-.01.31-.04.17-.21.37-.36 1.16-.3.59-.04.07-.11.26-.08.29-.02.17 0 .07 0 .1-.05.1-.09.05-.12.09-.15.07-.19.04-.07-.01-.08.02-.04.03-.03.04-.02.06-.04.04-.08.03-.15.01-.09 0-.11.04-.01.08 0 .05.01.09.07.08.06.08.17.15.26.15.03.02.01.04 0 .04-.04.02-.02.02-.02.03-.03.01.01.03.03.01.06.03.03.02.03.09-.01.06-.02.04-.03.03-.04.01-.03.01-.03.04-.02.2-.05.04-.08.01-.08.04-.04.05 0 .05.05.09 0 .08-.04.1-.13.16-.16.07-.1.09-.08.06-.05.04 0 .03.02.03.01.01.05.03.01.05-.01.02 0 .02-.01.03-.01.04.01.03.04.03.04.04-.01.08-.02.09-.15.33-.13.32-.1.27-.12.25-.13.31-.14.14-.07.15-.04.13-.05.04-.07-.01-.05-.02-.16-.04-.08.02-.02.06.01.13.04.16.02.13-.01.13-.03.14-.06.27-.35.48-.14.43 0 .14.02.04.03.01.03.01.02.01.01.01-.01.08.01.1.02.03.03.02.01.01-.01.02-.03.06-.03.02-.03.01-.05-.02-.03.01-.32.32-.1.03-.04.05 0 .05.02.09.07.09.09.07.05.06.03.06 0 .05-.02.04-.04.04-.03.02-.07.02-.09 0-.19 0-.16.01-.06.03-.12.12-.14.13-.12.12-.01.05 0 .04.02.07.03.08.02.1.05.11.11.16.03.1-.04.14-.02.12-.01.08-.03.07-.11.29-.18.41-.09.16-.18.35-.31.63-.12.29-.29.44-.05.05-.26.15-.1.12-.19.42-.09.1-.05.1-.22.5-.24.42-.26.64-.04.16 0 .09.01.09 0 .1-.05.16-.04.13-.03.13-.07.14-.11.11-.15.21-.08.14-.17.54-.18.41-.54 1.44-.08.15-.3.61-.19.42-.21.34-.07.08-.03.07.02.1-.01.06-.16.36-.04.11-.28.43-.15.38-.05.1-.11.18-.02.07.01.03.05.19-.03.08-.04.13-.07.06-.26.15-.04.08.02.08.16.19 0 .02-.03.02-.24.08-.04.07.02.09.17.17.01.05-.01.06-.08.13-.17.33-.01.13.01.09 0 .05-.02.05-.07.15-.12.23-.17.53-.16.41-.04.16-.03.16-.06.17-.08.17-.03.07-.04.17-.05.08-.08.08 0 .11.11.21-.03.08-.09.12-.06.11.01.19-.04.07-.08.06-.17.2-.14.35-.04.55-.15.35-.25.25-.06.15.03.04.09.1.02.1-.09.11-.11.21 0 .18.05.06.05.11-.03.12-.05.04-.04.07-.02.22-.06.25-.18.51-.1.48-.05.13-.05.14-.05.25 0 .41.01.11 0 .23-.07.21-.15.45-.02.14-.04.33-.41.83-.24.77-.19.54-.05.28-.16.39-.21.41-.15.1-.14.03-.09.09-.04.1.04.1.06.08.01.1-.05.1-.15.11-.05.12-.03.06-.07.03-.04.05-.01.06.05.17 0 .1-.05.15-.06.07-.05.03-.06.07-.06.17-.02.17-.09.2-.09.46-.31.75-.18.39-.31.73-.22.56-.22.64-.3.82-.24.68-.25.62-.6 1.18-.61 1.91-.29.76-.65 1.05z" /><path d="m110.65 113.06l0 0 .04 0 .19-.03.15-.03.07 0 .02 0 0 0 0-.02 0 0 0 0-.02 0-.07 0-.04-.01-.04.01-.07.02-.09.01-.05.01-.08.02-.01.01 0 .01z" /><path d="m251.49 75.84l0 0 .01 0 .02-.01 0-.01-.01-.01-.02 0 0 .01 0 .02z" /><path d="m251.54 76.01l0 .04.02.02.02.02 0 .01-.02.02-.01.06.03.08.06.09.07-.01.03-.01.02-.04 0-.06-.05-.15-.05-.13-.04-.01-.04.01-.03.02-.01.04z" /><path d="m251.56 75.86l.01.04.03.02.04 0 .02-.01.02-.02.05-.11 0-.02-.02-.04-.04 0-.03.01-.08.13z" /><path d="m270.47 75.53l0 .01.01 0 0 .01 0 .01-.01.01 0 .01.01 0 0 .01.01 0 0 .01 0 .01.01 0 .01-.01.01 0 0-.01-.01-.01 0-.01-.01-.01 0-.01 0-.02.01-.01.01-.01-.01 0-.01 0 0 .01-.01-.01-.01 0 0 .01-.01.01z" /><path d="m449.98 271.9l0 .01.01.01.02.02 0 .01.01.01 0 0 .01-.01.01-.01 0-.01-.01-.01-.01-.01-.01-.01-.02-.01-.01.01z" /><path d="m449.99 272.09l0 .01.02.01.01 0 .01-.01.03-.02.03 0 .01 0 0-.02-.02-.01-.02 0-.03 0-.03.02-.01.02 0 0z" /><path d="m450.07 272.14l0 0 .01.01 0 0 .01 0 0-.01 0 0 .01-.01-.01 0 0 0-.01 0 0 0-.01.01z" /><path d="m452.19 274.41l0 .02.01 0 .01.01.02 0 0-.01 0-.01 0-.01 0-.01-.02 0-.01 0-.01.01z" /><path d="m452.36 274.46l.01.01.01 0 .01 0 0-.01.01-.01-.01-.01 0-.01-.01 0 0 .01-.01 0 0 .01-.01.01 0 0z" /><path d="m452.4 274.31l0 0 .03 0 .01-.01 0 0 0-.01-.01 0-.02 0-.01 0 0 .02z" /><path d="m452.42 274.45l0 0 .01 0 .01 0 .01 0 0-.01-.01-.01 0 0-.01 0-.01 0 0 .01 0 .01z" /><path d="m452.44 274.39l0 .01.01.01.02.01.03 0 .01 0 .01-.01 0-.01 0-.01-.01-.01-.03 0-.02 0-.01 0-.01.01z" /><path d="m452.49 274.26l0 .01.01.01 0 0 .01 0 .01-.01 0 0-.01-.01-.01 0-.01 0 0 0z" /><path d="m612.45 321.67l0 .01.02 0 .01-.01.01-.01-.01-.01-.02 0-.01.01 0 .01z" /><path d="m612.66 321.72l.01.03.03.01.03 0 .03-.01.06-.04.02-.04-.01-.02-.04-.01-.04.02-.06.03-.03.03z" /><path d="m612.83 321.57l.01.02.05.01.03-.01.02-.03-.02-.04-.04 0-.04.01-.01.04z" /><path d="m612.88 321.46l0 .02.02.01.02-.01.01-.01 0-.01-.02-.01-.03 0 0 .01z" /><path d="m612.9 321.3l.03.02.03.01.04 0 0-.01-.02-.02-.04-.03-.04.01 0 .02z" /><path d="m612.93 321.42l.01.01.02.01.01-.02 0 0-.01-.01-.02 0-.01.01z" /><path d="m614.38 321.24l.01.04 0 .03.02.07.02.09.14.18.04.08.02.03 0 .05.02.01.02 0 .05-.04.09-.14.03-.06.01-.04-.01-.03 0-.04-.02-.02-.02-.04-.06-.14-.03-.07 0-.08-.03-.07-.03-.02 0-.03.02-.03.01-.02-.01-.01-.04.01-.04.03-.08.03-.04.01-.03.02 0 .01 0 .03 0 .04 0 .01-.04.04-.02.03 0 .03 0 .01z" /><path d="m629.31 316.52l.06.02.09-.01.06-.02 0-.06-.04-.04-.04-.01-.06 0-.06.06-.01.06z" /></g></g></svg>